<?xml version="1.0" standalone="no"?>
<!DOCTYPE svg PUBLIC "-//W3C//DTD SVG 1.1//EN" "http://www.w3.org/Graphics/SVG/1.1/DTD/svg11.dtd" >
<svg>
<metadata>
Created by FontForge 20090914 at Thu Mar 24 18:03:24 2016
 By www-data
Typeface &#194;&#169; by DLE Font Design All Rights Reserved
</metadata>
<defs>
<font id="SVN-EveryMovieEveryNight" horiz-adv-x="1268" >
  <font-face 
    font-family="SVN-Every Movie Every Night"
    font-weight="400"
    font-stretch="normal"
    units-per-em="2048"
    panose-1="2 0 5 0 0 0 0 0 0 0"
    ascent="1638"
    descent="-410"
    x-height="1715"
    cap-height="1715"
    bbox="-145.67 -418 2106 2622"
    underline-thickness="150"
    underline-position="-142"
    unicode-range="U+0020-U+201E"
  />
<missing-glyph horiz-adv-x="1024" 
 />
    <glyph glyph-name=".notdef" horiz-adv-x="1024" 
 />
    <glyph glyph-name="space" unicode=" " horiz-adv-x="508" 
 />
    <glyph glyph-name="space" unicode="&#xa0;" horiz-adv-x="508" 
 />
    <glyph glyph-name="exclam" unicode="!" horiz-adv-x="538" 
d="M103 1622c-1.33301 62.667 16.334 93.665 53.001 92.998h238c36.667 0.666992 55 -22.666 55 -69.999l-40 -1142c0 -47.333 -18.333 -70.666 -55 -69.999h-158c-36.667 -0.666992 -54.334 30.333 -53.001 93zM443 165.998c0 -44.667 -15.833 -82.834 -47.5 -114.501
s-70.167 -47.5 -115.5 -47.5c-44.667 0 -82.834 15.833 -114.501 47.5s-47.5 69.834 -47.5 114.501s15.833 82.834 47.5 114.501s69.834 47.5 114.501 47.5c45.333 0 83.833 -15.833 115.5 -47.5s47.5 -69.834 47.5 -114.501z" />
    <glyph glyph-name="quotedbl" unicode="&#x22;" horiz-adv-x="922" 
d="M103 1622c-1.33301 62.667 16.333 93.665 53 92.998h238c36.667 0.666992 55 -22.666 55 -69.999l-20 -342c-13.333 -47.333 -38.333 -70.666 -75 -69.999h-158c-36.667 -0.666992 -61 30.333 -73 93zM512.999 1622c-1.33301 62.667 16.333 93.665 53 92.998h238
c36.667 0.666992 55 -22.666 55 -69.999l-20 -342c-13.333 -47.333 -38.333 -70.666 -75 -69.999h-158c-36.667 -0.666992 -61 30.333 -73 93z" />
    <glyph glyph-name="numbersign" unicode="#" horiz-adv-x="1346" 
d="M330 732l-0.00390625 252.996h-213c-47.333 0 -70.666 13.333 -69.999 40v170c-0.666992 26 30.333 38.333 93 37h190v390c-0.666992 62.667 12 93.667 38 93h170c26 0.666992 39 -22.666 39 -69.999v-413l253 1v389c-0.666992 62.667 12 93.667 38 93h170
c26 0.666992 39 -22.666 39 -69.999v-412h129c62.667 0.666992 93.667 -12 93 -38v-170c0.666992 -26 -22.666 -39 -69.999 -39h-152v-253h129c62.667 0.666992 93.667 -12 93 -38v-170c0.666992 -26 -22.666 -39 -69.999 -39h-152v-413c0 -47.333 -13 -70.666 -39 -69.999
h-170c-26 -0.666992 -38.667 30.333 -38 93v390l-253 -1v-412c0 -47.333 -13 -70.666 -39 -69.999h-170c-26 -0.666992 -38.667 30.333 -38 93v389h-213c-47.333 0 -70.666 13.333 -69.999 40v170c-0.666992 26 30.333 38.333 93 37h190zM576.996 984.996v-253l253 1v253z
" />
    <glyph glyph-name="dollar" unicode="$" 
d="M769 972l61.998 -16.001c247.333 -64.667 374 -192 380 -382s-70.667 -345.667 -230 -467c-69.333 -46 -140 -77 -212 -93v-156c0 -38 -14.667 -57 -44 -57h-191c-30 0 -44.333 25 -43 75v137c-11.333 2 -22 4.33301 -32 7c-56.667 14.667 -111.334 38 -164.001 70
c-38 20.667 -86.333 65 -145 133c-34.667 48.667 -60.667 95.334 -78 140.001c-26 64 -40.333 145.333 -43 244c2.66699 24.667 19.334 42.334 50.001 53.001h242c34 0 53 -21 57 -63v12c0 -128.667 37.667 -217 113 -265v386c-16.667 4.66699 -34 9 -52 13
c-253.333 60 -383.166 188.333 -389.499 385s70.167 355.667 229.5 477c73.333 49.333 144 81.666 212 96.999v70c-1.33301 50.667 13 75.667 43 75h191c29.333 0.666992 44 -18 44 -56v-91c12 -2 22.667 -4.33301 32 -7c56.667 -14.667 111.334 -38 164.001 -70
c38 -20.667 86.333 -65 145 -133c34.667 -49.333 60.667 -96.333 78 -141c28.667 -70 43 -144.667 43 -224v-35c0 -28.667 -16.667 -48.667 -50 -60h-242c-34 0 -53 21 -57 63v10c0 118.667 -37.667 200.667 -113 246v-377zM490.998 1356
c-38.667 -19.333 -64.332 -49.333 -76.999 -90c-24.667 -78.667 -23.334 -134 3.99902 -166c10 -11.333 34.333 -25 73 -41v297zM769 336.999c24.667 12 46.334 27.666 65.001 46.999c50 50.667 60 108.334 30 173.001c-12.667 26.667 -44.334 52.667 -95.001 78v-298z" />
    <glyph glyph-name="percent" unicode="%" horiz-adv-x="1878" 
d="M401 -49l842 1497h219l-839 -1497h-222zM406 678c-110.667 0 -199.5 33.833 -266.5 101.5s-100.5 156.834 -100.5 267.501c0 110 33.5 198.833 100.5 266.5s155.833 101.5 266.5 101.5c108.667 0 196.5 -33.833 263.5 -101.5s100.5 -156.5 100.5 -266.5
c0 -110.667 -33.5 -199.834 -100.5 -267.501s-154.833 -101.5 -263.5 -101.5zM406 1210c-79.333 0 -119 -54.333 -119 -163c0 -109.333 39.667 -164 119 -164c77.333 0 116 54.667 116 164c0 108.667 -38.667 163 -116 163zM1473 -8c-110.667 0 -199.5 33.667 -266.5 101
s-100.5 156.333 -100.5 267s33.5 199.834 100.5 267.501s155.833 101.5 266.5 101.5c108.667 0 196.5 -33.833 263.5 -101.5s100.5 -156.834 100.5 -267.501s-33.5 -199.667 -100.5 -267s-154.833 -101 -263.5 -101zM1473 524c-79.333 0 -119 -54.667 -119 -164
c0 -108.667 39.667 -163 119 -163c77.333 0 116 54.333 116 163c0 109.333 -38.667 164 -116 164z" />
    <glyph glyph-name="ampersand" unicode="&#x26;" horiz-adv-x="1357" 
d="M28 489l-0.00195312 749.004c1.33301 36.667 9 81.167 23 133.5s45.167 109.5 93.5 171.5s104.666 107.833 168.999 137.5s204.833 44.5 421.5 44.5c50 0 75 -22.333 75 -67v-205c0 -42 -13.333 -65.333 -40 -70c-143.333 -4 -234.333 -8.83301 -273 -14.5
s-68.334 -22.334 -89.001 -50.001s-32 -67.834 -34 -120.501v-109h340c62.667 1.33301 93.667 -16.334 93 -53.001v-238c0.666992 -36.667 -22.666 -55 -69.999 -55h-363v-214c2 -52 13.333 -92 34 -120s56 -48 106 -60s102.833 -18 158.5 -18s106.834 6.16699 153.501 18.5
s80.167 32.5 100.5 60.5s31.5 68 33.5 120v416c0 47.333 18.333 70.666 55 69.999h238c36.667 0.666992 54.334 -30.333 53.001 -93v-433c-1.33301 -36.667 -8.83301 -81.167 -22.5 -133.5s-44.834 -109.833 -93.501 -172.5s-105 -108.667 -169 -138
c-56.667 -26.667 -162.667 -42.667 -318 -48s-275.166 8.5 -359.499 41.5s-150.666 80.833 -198.999 143.5s-79.5 120.167 -93.5 172.5s-21.667 96.833 -23 133.5z" />
    <glyph glyph-name="quotesingle" unicode="'" horiz-adv-x="553" 
d="M103 1622c-1.33301 62.667 16.333 93.665 53 92.998h238c36.667 0.666992 55 -22.666 55 -69.999l-20 -342c-13.333 -47.333 -38.333 -70.666 -75 -69.999h-158c-36.667 -0.666992 -61 30.333 -73 93z" />
    <glyph glyph-name="parenleft" unicode="(" horiz-adv-x="680" 
d="M374 529c2 -52 13.333 -91.999 34 -119.999s50.334 -45 89.001 -51s69.667 -10.667 93 -14c26.667 -5.33301 40 -29 40 -71v-205c0 -45.333 -25 -68 -75 -68c-96.667 0 -177.167 14.833 -241.5 44.5s-120.666 75.834 -168.999 138.501s-79.5 120.167 -93.5 172.5
s-21.667 96.833 -23 133.5v749c1.33301 36.667 9 81.167 23 133.5s45.167 109.5 93.5 171.5s104.666 107.833 168.999 137.5s144.833 44.5 241.5 44.5c50 0 75 -22.333 75 -67v-205c0 -42 -13.333 -65.333 -40 -70c-23.333 -4 -54.333 -8.83301 -93 -14.5
s-68.334 -22.334 -89.001 -50.001s-32 -67.834 -34 -120.501v-669z" />
    <glyph glyph-name="parenright" unicode=")" horiz-adv-x="686" 
d="M295 1198c-2 52.667 -13.333 92.833 -34 120.5s-50.167 44.334 -88.5 50.001s-69.166 10.5 -92.499 14.5c-26.667 4.66699 -40 28 -40 70v205c0 44.667 25 67 75 67c96 0 176.167 -14.833 240.5 -44.5s120.5 -75.5 168.5 -137.5s79 -119.167 93 -171.5
s21.667 -96.833 23 -133.5v-749c-1.33301 -36.667 -9 -81.167 -23 -133.5s-45 -109.833 -93 -172.5s-104.167 -108.834 -168.5 -138.501s-144.5 -44.5 -240.5 -44.5c-50 0 -75 22.667 -75 68v205c0 42 13.333 65.667 40 71c23.333 3.33301 54.166 8 92.499 14
s67.833 23 88.5 51s32 68 34 120v669z" />
    <glyph glyph-name="asterisk" unicode="*" horiz-adv-x="1024" 
d="M498 1294c-2.66699 47.333 -14.9971 90.667 -36.9971 130c-24.667 44 -37 72 -37 84c0 21.333 7.83301 38.5 23.5 51.5s36.5 19.5 62.5 19.5c24.667 0 45.167 -6 61.5 -18s24.5 -27.667 24.5 -47c0 -14 -12 -43.667 -36 -89c-22 -40.667 -34.333 -84 -37 -130
c44 16.667 81.667 41.667 113 75c34 36.667 57 57 69 61c7.33301 2 14.333 3 21 3c12 0 23.667 -3.33301 35 -10c17.333 -11.333 30 -29 38 -53c4 -12.667 6 -24.667 6 -36c0 -10 -1.33301 -19.333 -4 -28c-6.66699 -20 -19.334 -32.667 -38.001 -38
c-4 -1.33301 -10.333 -2 -19 -2c-16.667 0 -42 3 -76 9c-18.667 3.33301 -37 5 -55 5c-27.333 0 -54.333 -3.66699 -81 -11c29.333 -36.667 64.333 -64.334 105 -83.001c45.333 -21.333 71.666 -37 78.999 -47c8.66699 -12 13 -24.667 13 -38c0 -6 -0.666992 -11.667 -2 -17
c-5.33301 -20 -18.333 -37.667 -39 -53c-19.333 -14.667 -39 -22 -59 -22c-0.666992 0 -1 0.333008 -1 1c-20.667 0 -36.667 7.66699 -48 23c-8 11.333 -15.333 42.666 -22 93.999c-6.66699 44.667 -22.334 86.334 -47.001 125.001
c-25.333 -38.667 -40.666 -80 -45.999 -124c-6 -50 -12.667 -80 -20 -90c-12.667 -16.667 -29 -25.667 -49 -27h-5c-18.667 0 -37.667 7 -57 21c-20 14 -33 31 -39 51c-2.66699 6.66699 -4 13.334 -4 20.001c0 11.333 3.66699 22 11 32
c8.66699 11.333 36.334 28.333 83.001 51c40.667 19.333 75.667 46.666 105 81.999c-27.333 7.33301 -54 11 -80 11c-18 0 -35.667 -1.66699 -53 -5c-36 -7.33301 -62 -11 -78 -11c-6 0 -10.667 0.666992 -14 2c-20 6 -33.667 18.667 -41 38c-4 8.66699 -6 18.334 -6 29.001
c0 11.333 2 23.333 6 36c7.33301 23.333 19.333 41 36 53c11.333 8 22.666 12 33.999 12c6 0 12 -1 18 -3c13.333 -4 38 -24.667 74 -62c31.333 -32.667 68.666 -57.667 111.999 -75z" />
    <glyph glyph-name="plus" unicode="+" horiz-adv-x="1106" 
d="M371 932l-0.00195312 239.998c-1.33301 62.667 16.334 93.667 53.001 93h238c36.667 0.666992 55 -22.666 55 -69.999v-263h240c62.667 1.33301 93.667 -16.334 93 -53.001v-238c0.666992 -36.667 -22.666 -55 -69.999 -55h-263v-263
c0 -47.333 -18.333 -70.666 -55 -69.999h-238c-36.667 -0.666992 -54.334 30.333 -53.001 93v240h-263c-47.333 0 -70.666 18.333 -69.999 55v238c-0.666992 36.667 30.333 54.334 93 53.001h240z" />
    <glyph glyph-name="comma" unicode="," horiz-adv-x="553" 
d="M122 42c-2.66699 47.333 10.668 71.666 40.001 72.999h232c24 0.666992 36 -22.666 36 -69.999l-1 -361c-13.333 -34.667 -34.333 -51.667 -63 -51h-181c-32.667 -0.666992 -53.334 19 -62.001 59z" />
    <glyph glyph-name="hyphen" unicode="-" horiz-adv-x="1106" 
d="M957 932c62.667 1.33301 93.665 -16.334 92.998 -53.001v-238c0.666992 -36.667 -22.666 -55 -69.999 -55h-872c-47.333 0 -70.666 18.333 -69.999 55v238c-0.666992 36.667 30.333 54.334 93 53.001h826z" />
    <glyph glyph-name="hyphen" unicode="&#xad;" horiz-adv-x="1106" 
d="M957 932c62.667 1.33301 93.665 -16.334 92.998 -53.001v-238c0.666992 -36.667 -22.666 -55 -69.999 -55h-872c-47.333 0 -70.666 18.333 -69.999 55v238c-0.666992 36.667 30.333 54.334 93 53.001h826z" />
    <glyph glyph-name="period" unicode="." horiz-adv-x="538" 
d="M443 166c0 -44.667 -16 -82.834 -48 -114.501s-70.333 -47.5 -115 -47.5s-82.834 15.833 -114.501 47.5s-47.5 69.834 -47.5 114.501s15.833 82.834 47.5 114.501s69.834 47.5 114.501 47.5s83 -15.833 115 -47.5s48 -69.834 48 -114.501z" />
    <glyph glyph-name="slash" unicode="/" horiz-adv-x="1092" 
d="M14 -49l842 1497h219l-839 -1497h-222z" />
    <glyph glyph-name="zero" unicode="0" 
d="M40 1128c0 196.667 79.667 355.67 239 477.003c107.333 72 218.666 108 333.999 108v-2c8.66699 3.33301 14.334 5 17.001 5c66.667 -3.33301 123.667 -11 171 -23c56.667 -14.667 111.334 -38 164.001 -70c38 -20.667 86.333 -65 145 -133
c34.667 -49.333 60.667 -96.333 78 -141c28.667 -70 43 -161.333 43 -274v-432c0 -112.667 -14.333 -204.334 -43 -275.001c-17.333 -44 -43.333 -90.667 -78 -140c-58.667 -68.667 -107 -113.334 -145 -134.001c-52.667 -32 -107.334 -55.333 -164.001 -70
c-47.333 -12 -104.333 -19.667 -171 -23c-2.66699 0 -8.33398 1.66699 -17.001 5v-2c-115.333 0 -226.666 36 -333.999 108c-159.333 121.333 -239 280.666 -239 477.999v538zM882 1103c0 153.333 -63 245.334 -189 276.001c-10.667 3.33301 -30.667 5 -60 5
c-108 0 -183.333 -49.333 -226 -148c-6.66699 -25.333 -12.667 -56.333 -18 -93v-568c5.33301 -37.333 11.333 -68.333 18 -93c42.667 -99.333 118 -149 226 -149c29.333 0 49.333 1.66699 60 5c126 31.333 189 123.666 189 276.999v488z" />
    <glyph glyph-name="one" unicode="1" horiz-adv-x="799" 
d="M673 0l-237.999 -0.000976562c-36.667 -0.666992 -55 23 -55 71v1115c-2 52.667 -13.167 93 -33.5 121s-49.833 44.833 -88.5 50.5s-93.334 10.5 -164.001 14.5c-26.667 4.66699 -40 28 -40 70v206c0 45.333 25 68 75 68c144 0 248 -15 312 -45
s120.333 -76.167 169 -138.5s79.834 -119.666 93.501 -171.999s21.167 -96.833 22.5 -133.5v-1134c1.33301 -62 -16.334 -93 -53.001 -93z" />
    <glyph glyph-name="two" unicode="2" horiz-adv-x="1310" 
d="M1162 350c62.667 1.33301 93.668 -16.333 93.001 -53v-238c0.666992 -36.667 -22.666 -55 -69.999 -55h-1041c-47.333 0 -70.666 18.333 -69.999 55c-36.667 441.333 81.333 717.166 354 827.499s422.667 181.5 450 213.5s28.666 87.333 3.99902 166
s-97.667 118 -219 118c-28.667 0 -48.334 -1.66699 -59.001 -5c-126 -30.667 -189 -122.667 -189 -276v-10c-4 -42 -23 -63 -57 -63h-242c-33.333 11.333 -50 31.333 -50 60v35c0 79.333 14.333 154 43 224c17.333 44.667 43.333 91.667 78 141
c58.667 68 107 112.333 145 133c52.667 32 107.334 55.333 164.001 70c47.333 12 119.166 18.333 215.499 19s198.166 -35 305.499 -107c159.333 -121.333 235.833 -280.333 229.5 -477s-136 -345 -389 -445s-392.833 -177.167 -419.5 -231.5s-39.667 -88.166 -39 -101.499
h763z" />
    <glyph glyph-name="three" unicode="3" horiz-adv-x="962" 
d="M147 743c-47.333 0 -70.667 18.3311 -70 54.998v238c-0.666992 36.667 30.333 54.334 93 53.001h400v109c-2 52.667 -13.333 92.834 -34 120.501s-50.334 44.334 -89.001 50.001s-149.667 10.5 -333 14.5c-26.667 4.66699 -40 28 -40 70v205c0 44.667 25 67 75 67
c256.667 0 417.167 -14.833 481.5 -44.5s120.666 -75.5 168.999 -137.5s79.5 -119.167 93.5 -171.5s21.667 -96.833 23 -133.5v-749c-1.33301 -36.667 -9 -81.167 -23 -133.5s-45.167 -109.833 -93.5 -172.5s-104.666 -108.834 -168.999 -138.501
s-224.833 -44.5 -481.5 -44.5c-50 0 -75 22.667 -75 68v205c0 42 13.333 65.667 40 71c183.333 3.33301 294.333 8 333 14s68.334 23 89.001 51s32 68 34 120v214h-423z" />
    <glyph glyph-name="four" unicode="4" horiz-adv-x="1086" 
d="M710 608c-213.333 1.33301 -344.669 13.6641 -394.002 36.9971c-64.667 29.333 -121.167 75.333 -169.5 138s-79.5 120.167 -93.5 172.5s-21.667 96.833 -23 133.5v533c-1.33301 62.667 16.334 93.667 53.001 93h238c36.667 0.666992 55 -22.666 55 -69.999v-516
c2 -52 13.333 -92 34 -120s50.334 -45 89.001 -51c24.667 -4 95 -6 211 -6v670c-1.33301 62.667 16.334 93.667 53.001 93h238c36.667 0.666992 55 -22.666 55 -69.999v-1572c0 -47.333 -18.333 -70.666 -55 -69.999h-238c-36.667 -0.666992 -54.334 30.333 -53.001 93v512z
" />
    <glyph glyph-name="five" unicode="5" 
d="M401 1028c190.667 8 376.833 -18.167 558.5 -78.5s275.5 -185.5 281.5 -375.5s-70.667 -345.667 -230 -467c-107.333 -71.333 -218.666 -107 -333.999 -107v2c-8.66699 -3.33301 -14.334 -5 -17.001 -5c-66.667 3.33301 -123.667 11 -171 23
c-56.667 14.667 -111.334 38 -164.001 70c-38 20.667 -86.333 65 -145 133c-34.667 48.667 -60.667 95.334 -78 140.001c-26 64 -40.333 145.333 -43 244c2.66699 24.667 19.334 42.334 50.001 53.001h242c34 0 53 -21 57 -63v12c0 -166.667 63 -265.334 189 -296.001
c10.667 -3.33301 30.667 -5 60 -5c110.667 -6 189 23.833 235 89.5s37.5 144 -25.5 235s-290.167 135.167 -681.5 132.5v1h-77c-36.667 -0.666992 -54.334 30.333 -53.001 93l-1 572v238c-0.666992 36.667 30.333 54 93 52l926 -1c62.667 1.33301 93.667 -16.334 93 -53.001
v-238c0.666992 -36.667 -22.666 -55 -69.999 -55h-695v-346z" />
    <glyph glyph-name="six" unicode="6" horiz-adv-x="1281" 
d="M892 693c0 153.333 -63 245.334 -189 276.001c-10.667 3.33301 -30.667 5 -60 5c-108 0 -183.333 -49.333 -226 -148c-6.66699 -25.333 -12.667 -56.333 -18 -93v-158c5.33301 -37.333 11.333 -68.333 18 -93c42.667 -99.333 118 -149 226 -149
c29.333 0 49.333 1.66699 60 5c126 31.333 189 123.666 189 276.999v78zM396 1254c74 32.667 149.666 49.002 226.999 49.002v-2c8.66699 3.33301 14.334 5 17.001 5c66.667 -3.33301 123.667 -11 171 -23c56.667 -14.667 111.334 -38 164.001 -70
c38 -20.667 86.333 -65 145 -133c34.667 -49.333 60.667 -96.333 78 -141c28.667 -70 43 -161.333 43 -274v-22c0 -112.667 -14.333 -204.334 -43 -275.001c-17.333 -44 -43.333 -90.667 -78 -140c-58.667 -68.667 -107 -113.334 -145 -134.001
c-52.667 -32 -107.334 -55.333 -164.001 -70c-47.333 -12 -104.333 -19.667 -171 -23c-2.66699 0 -8.33398 1.66699 -17.001 5v-2c-115.333 0 -226.666 36 -333.999 108c-156.667 119.333 -236.334 275.666 -239.001 468.999v1041c-1.33301 62.667 16.334 93.667 53.001 93
h238c36.667 0.666992 55 -22.666 55 -69.999v-391z" />
    <glyph glyph-name="seven" unicode="7" horiz-adv-x="1233" 
d="M1117 0h-237.998c-36.667 -0.666992 -55 23 -55 71v1115c-2 52.667 -13.167 93 -33.5 121s-49.833 44.833 -88.5 50.5s-243.334 7.16699 -614.001 4.5c-26.667 4.66699 -40 28 -40 70v216c0 45.333 25 68 75 68c453.333 7.33301 714.833 -6.33398 784.5 -41.001
s123.667 -82.667 162 -144s64.333 -118.166 78 -170.499s21.167 -96.833 22.5 -133.5v-1134c1.33301 -62 -16.334 -93 -53.001 -93z" />
    <glyph glyph-name="eight" unicode="8" horiz-adv-x="1290" 
d="M343 1681c48 22 147.167 33 297.5 33s249.5 -11 297.5 -33c64 -30 120.167 -76 168.5 -138s79.5 -119.167 93.5 -171.5s21.667 -96.833 23 -133.5v-749c-1.33301 -36.667 -9 -81.167 -23 -133.5s-45.167 -109.833 -93.5 -172.5s-104.5 -108.667 -168.5 -138
c-48 -22.667 -147.167 -34 -297.5 -34s-249.5 11.333 -297.5 34c-64.667 29.333 -121.167 75.333 -169.5 138s-79.5 120.167 -93.5 172.5s-21.667 96.833 -23 133.5v749c1.33301 36.667 9 81.167 23 133.5s45.167 109.5 93.5 171.5s104.833 108 169.5 138zM877 1089
l0.00195312 109c-2 52.667 -13.333 92.834 -34 120.501s-50.334 44.5 -89.001 50.5c-30 4 -67.833 6 -113.5 6s-83.5 -2 -113.5 -6c-38.667 -6 -68.334 -22.833 -89.001 -50.5s-32 -67.834 -34 -120.501v-109h473zM404.002 743l-0.00195312 -214c2 -52 13.333 -92 34 -120
s50.334 -45 89.001 -51c30 -4.66699 67.833 -7 113.5 -7s83.5 2.33301 113.5 7c38.667 6 68.334 23 89.001 51s32 68 34 120v214h-473z" />
    <glyph glyph-name="nine" unicode="9" horiz-adv-x="1296" 
d="M401 1024c0 -153.333 63 -245.334 189 -276.001c10.667 -3.33301 30.667 -5 60 -5c108 0 183.333 49.333 226 148c6.66699 25.333 12.667 56.333 18 93v158c-5.33301 37.333 -11.333 68.333 -18 93c-42.667 99.333 -118 149 -226 149c-29.333 0 -49.333 -1.66699 -60 -5
c-126 -31.333 -189 -123.666 -189 -276.999v-78zM897 462.999c-74 -32.667 -149.666 -49.002 -226.999 -49.002v2c-8.66699 -3.33301 -14.334 -5 -17.001 -5c-66.667 3.33301 -123.667 11 -171 23c-56.667 14.667 -111.334 38 -164.001 70c-38 20.667 -86.333 65 -145 133
c-34.667 49.333 -60.667 96.333 -78 141c-28.667 70 -43 161.333 -43 274v22c0 112.667 14.333 204.334 43 275.001c17.333 44 43.333 90.667 78 140c58.667 68.667 107 113.334 145 134.001c52.667 32 107.334 55.333 164.001 70c47.333 12 104.333 19.667 171 23
c2.66699 0 8.33398 -1.66699 17.001 -5v2c115.333 0 226.666 -36 333.999 -108c156.667 -119.333 236.334 -275.666 239.001 -468.999v-1041c1.33301 -62.667 -16.334 -93.667 -53.001 -93h-238c-36.667 -0.666992 -55 22.666 -55 69.999v391z" />
    <glyph glyph-name="colon" unicode=":" horiz-adv-x="538" 
d="M443 166c0 -44.667 -16 -82.834 -48 -114.501s-70.333 -47.5 -115 -47.5s-82.834 15.833 -114.501 47.5s-47.5 69.834 -47.5 114.501s15.833 82.834 47.5 114.501s69.834 47.5 114.501 47.5s83 -15.833 115 -47.5s48 -69.834 48 -114.501zM443 866
c0 -44.667 -16 -82.834 -48 -114.501s-70.333 -47.5 -115 -47.5s-82.834 15.833 -114.501 47.5s-47.5 69.834 -47.5 114.501s15.833 82.834 47.5 114.501s69.834 47.5 114.501 47.5s83 -15.833 115 -47.5s48 -69.834 48 -114.501z" />
    <glyph glyph-name="semicolon" unicode=";" horiz-adv-x="538" 
d="M443 916c0 -58.667 -16 -108.667 -48 -150s-70.333 -62 -115 -62s-82.834 20.667 -114.501 62s-47.5 91.333 -47.5 150s15.833 108.667 47.5 150s69.834 62 114.501 62s83 -20.667 115 -62s48 -91.333 48 -150zM130 201c-1.33301 62.667 13.666 93.665 44.999 92.998h204
c31.333 0.666992 47 -22.666 47 -69.999l-17 -342c-11.333 -47.333 -32.666 -70.666 -63.999 -69.999h-136c-31.333 -0.666992 -52 30.333 -62 93z" />
    <glyph glyph-name="semicolon" unicode="&#x37e;" horiz-adv-x="538" 
d="M443 916c0 -58.667 -16 -108.667 -48 -150s-70.333 -62 -115 -62s-82.834 20.667 -114.501 62s-47.5 91.333 -47.5 150s15.833 108.667 47.5 150s69.834 62 114.501 62s83 -20.667 115 -62s48 -91.333 48 -150zM130 201c-1.33301 62.667 13.666 93.665 44.999 92.998h204
c31.333 0.666992 47 -22.666 47 -69.999l-17 -342c-11.333 -47.333 -32.666 -70.666 -63.999 -69.999h-136c-31.333 -0.666992 -52 30.333 -62 93z" />
    <glyph glyph-name="question" unicode="?" horiz-adv-x="1052" 
d="M574 571h-267.002c-34 -0.666992 -49 33 -45 101c-3.33301 140 46 250.167 148 330.5s154.333 158 157 233s-13.666 115.333 -48.999 121s-171.666 7.16699 -408.999 4.5c-26.667 4.66699 -40 28 -40 70v216c0 45.333 25 68 75 68
c320 7.33301 514.833 -6.33398 584.5 -41.001s123.667 -82.667 162 -144s52.5 -160.666 42.5 -297.999s-67.5 -248.333 -172.5 -333s-148.167 -163 -129.5 -235c-1.33301 -62 -20.333 -93 -57 -93zM601.998 155c0 -44.667 -15.833 -82.834 -47.5 -114.501
s-70.167 -47.5 -115.5 -47.5c-44.667 0 -82.834 15.833 -114.501 47.5s-47.5 69.834 -47.5 114.501s15.833 82.834 47.5 114.501s69.834 47.5 114.501 47.5c45.333 0 83.833 -15.833 115.5 -47.5s47.5 -69.834 47.5 -114.501z" />
    <glyph glyph-name="at" unicode="@" horiz-adv-x="1516" 
d="M1157 1036l-125.002 -790.002c-2 -14.667 -3 -26.667 -3 -36c0 -28 12.667 -42 38 -42c58 0 122.667 43.833 194 131.5s107 208.5 107 362.5c0 174 -50.167 312.333 -150.5 415s-235.833 154 -406.5 154c-195.333 0 -354.833 -67.667 -478.5 -203
s-185.5 -310.666 -185.5 -525.999c0 -209.333 59.833 -378.166 179.5 -506.499s276.5 -192.5 470.5 -192.5c189.333 0 362 62.333 518 187h225c-84 -108 -193.833 -194.167 -329.5 -258.5s-272.167 -96.5 -409.5 -96.5c-234 0 -430.167 83 -588.5 249s-237.5 372 -237.5 618
c0 155.333 33.333 304.166 100 446.499s162.834 253.333 288.501 333s274.834 119.5 447.501 119.5c224.667 0 402.334 -70.167 533.001 -210.5s196 -316.5 196 -528.5c0 -128.667 -27.333 -243.167 -82 -343.5s-126.5 -178.5 -215.5 -234.5s-169.5 -84 -241.5 -84
c-80.667 0 -132.334 39.667 -155.001 119c-42.667 -42 -82 -72.333 -118 -91s-76.667 -28 -122 -28c-95.333 0 -173.333 39.667 -234 119s-91 183 -91 311c0 164.667 41.5 312.667 124.5 444s184.167 197 303.5 197c50 0 92.833 -11.667 128.5 -35
s71.167 -60.666 106.5 -111.999l19 112h194zM742.998 898.998c-70 0 -127.667 -50.834 -173 -152.501s-68 -225.5 -68 -371.5c0 -68 11.833 -121.167 35.5 -159.5s57.5 -57.5 101.5 -57.5c35.333 0 71.333 17 108 51s67 101.833 91 203.5s36 201.834 36 300.501
c0 124 -43.667 186 -131 186z" />
    <glyph glyph-name="A" unicode="A" 
d="M389 707l-0.000976562 -622c0 -56.667 -20 -85 -60 -85h-236c-20 0 -36.667 12.667 -50 38c-2 6 -3 12.667 -3 20v1070c0 196.667 79.667 355.667 239 477c107.333 72 218.666 108 333.999 108v-2c8.66699 3.33301 14.334 5 17.001 5
c66.667 -3.33301 123.667 -11 171 -23c56.667 -14.667 111.334 -38 164.001 -70c38 -20.667 86.333 -65 145 -133c34.667 -49.333 60.667 -96.333 78 -141c28.667 -70 43 -161.333 43 -274v-1015c0 -28.667 -16.667 -48.667 -50 -60h-242c-34 0 -53 21 -57 63v644h-493z
M881.999 1026v77c0 153.333 -63 245.333 -189 276c-10.667 3.33301 -30.667 5 -60 5c-108 0 -183.333 -49.333 -226 -148c-6.66699 -25.333 -12.667 -56.333 -18 -93v-117h493z" />
    <glyph glyph-name="B" unicode="B" horiz-adv-x="1233" 
d="M83 3c-36.667 -0.666992 -54.332 30.3301 -52.999 92.9971v1526c-1.33301 56.667 13 87.334 43 92.001c6.66699 2.66699 14.667 4.33398 24 5.00098h578c189.333 0 334.666 -77 435.999 -231c42 -73.333 64.5 -161.5 67.5 -264.5s-23.833 -197.5 -80.5 -283.5
c-17.333 -22 -41.333 -48 -72 -78c52 -49.333 89.667 -97.333 113 -144c24 -60 36.667 -125 38 -195s-3 -126.333 -13 -169c-25.333 -78 -62 -146 -110 -204c-67.333 -65.333 -149.333 -109.666 -246 -132.999c-74.667 -8.66699 -124 -13 -148 -13zM376.002 1425v-417h267
c88.667 0 147.5 20.5 176.5 61.5s43.5 90.5 43.5 148.5c0 90.667 -37.667 154 -113 190c-24 11.333 -57.667 17 -101 17h-273zM376.002 715.997l0.000976562 -417h269c81.333 0 143.666 29 186.999 87c20.667 34.667 31 75.667 31 123c0 111.333 -50.667 179 -152 203
c-18.667 2.66699 -44 4 -76 4h-259z" />
    <glyph glyph-name="C" unicode="C" 
d="M389 569c5.33301 -36.667 11.332 -67.665 17.999 -92.998c42.667 -98.667 118 -148 226 -148c29.333 0 49.333 1.66699 60 5c126 30.667 189 122.667 189 276v-12c4 42 23 63 57 63h242c30.667 -10.667 47.334 -28.334 50.001 -53.001
c-2.66699 -98.667 -17 -180 -43 -244c-17.333 -44.667 -43.333 -91.334 -78 -140.001c-58.667 -68 -107 -112.333 -145 -133c-52.667 -32 -107.334 -55.333 -164.001 -70c-47.333 -12 -104.333 -19.667 -171 -23c-2.66699 0 -8.33398 1.66699 -17.001 5v-2
c-115.333 0 -226.666 35.667 -333.999 107c-159.333 121.333 -239 280.333 -239 477v544c0 196.667 79.667 355.667 239 477c107.333 72 218.666 108 333.999 108v-2c8.66699 3.33301 14.334 5 17.001 5c66.667 -3.33301 123.667 -11 171 -23
c56.667 -14.667 111.334 -38 164.001 -70c38 -20.667 86.333 -65 145 -133c34.667 -49.333 60.667 -96.333 78 -141c28.667 -70 43 -144.667 43 -224v-35c0 -28.667 -16.667 -48.667 -50 -60h-242c-34 0 -53 21 -57 63v10c0 153.333 -63 245.333 -189 276
c-10.667 3.33301 -30.667 5 -60 5c-108 0 -183.333 -49.333 -226 -148c-6.66699 -25.333 -12.667 -56.333 -18 -93v-574z" />
    <glyph glyph-name="D" unicode="D" 
d="M304 3l-201 0.00195312c-36.667 -0.666992 -54.334 30.333 -53.001 93v1526c-1.33301 62.667 16.334 93.667 53.001 93h201c202.667 0.666992 304.667 1 306 1c66.667 -3.33301 123.667 -11 171 -23c56.667 -14.667 111.334 -38 164.001 -70
c38 -20.667 86.333 -65 145 -133c34.667 -49.333 60.667 -96.333 78 -141c28.667 -70 43 -161.333 43 -274v-432c0 -112.667 -14.333 -204.334 -43 -275.001c-17.333 -44 -43.333 -90.667 -78 -140c-58.667 -68.667 -107 -113.334 -145 -134.001
c-52.667 -32 -107.334 -55.333 -164.001 -70c-47.333 -12 -104.333 -19.667 -171 -23c-1.33301 0 -103.333 0.333008 -306 1v1zM396 1384v-1051h217c29.333 0 49.333 1.66699 60 5c126 31.333 189 123.666 189 276.999v488c0 153.333 -63 245.333 -189 276
c-10.667 3.33301 -30.667 5 -60 5h-217z" />
    <glyph glyph-name="E" unicode="E" horiz-adv-x="836" 
d="M374 743l-0.000976562 -213.998c2 -52 13.333 -92 34 -120s50.334 -45 89.001 -51s129.667 -10.667 273 -14c26.667 -5.33301 40 -29 40 -71v-205c0 -45.333 -25 -68 -75 -68c-216.667 0 -357.167 14.833 -421.5 44.5s-120.666 75.834 -168.999 138.501
s-79.5 120.167 -93.5 172.5s-21.667 96.833 -23 133.5v749c1.33301 36.667 9 81.167 23 133.5s45.167 109.5 93.5 171.5s104.666 107.833 168.999 137.5s204.833 44.5 421.5 44.5c50 0 75 -22.333 75 -67v-205c0 -42 -13.333 -65.333 -40 -70
c-143.333 -4 -234.333 -8.83301 -273 -14.5s-68.334 -22.334 -89.001 -50.001s-32 -67.834 -34 -120.501v-109h340c62.667 1.33301 93.667 -16.334 93 -53.001v-238c0.666992 -36.667 -22.666 -55 -69.999 -55h-363z" />
    <glyph glyph-name="F" unicode="F" horiz-adv-x="836" 
d="M373 1089l340.002 0.00195312c62.667 1.33301 93.667 -16.334 93 -53.001v-238c0.666992 -36.667 -22.666 -55 -69.999 -55h-363v-679c0 -47.333 -18.333 -70.666 -55 -69.999h-238c-36.667 -0.666992 -54.334 30.333 -53.001 93v1151c1.33301 36.667 9 81.167 23 133.5
s45.167 109.5 93.5 171.5s104.666 107.833 168.999 137.5s204.833 44.5 421.5 44.5c50 0 75 -22.333 75 -67v-205c0 -42 -13.333 -65.333 -40 -70c-143.333 -4 -234.333 -8.83301 -273 -14.5s-68.334 -22.334 -89.001 -50.001s-32 -67.834 -34 -120.501v-109z" />
    <glyph glyph-name="G" unicode="G" 
d="M1188 363c-17.333 -44.667 -43.334 -91.333 -78.001 -140c-58.667 -68 -107 -112.333 -145 -133c-52.667 -32 -107.334 -55.333 -164.001 -70c-47.333 -12 -104.333 -19.667 -171 -23c-2.66699 0 -8.33398 1.66699 -17.001 5v-2c-115.333 0 -226.666 35.667 -333.999 107
c-159.333 121.333 -239 280.333 -239 477v544c0 196.667 79.667 355.667 239 477c107.333 72 218.666 108 333.999 108v-2c8.66699 3.33301 14.334 5 17.001 5c66.667 -3.33301 123.667 -11 171 -23c56.667 -14.667 111.334 -38 164.001 -70c38 -20.667 86.333 -65 145 -133
c34.667 -49.333 60.667 -96.333 78 -141c28.667 -70 43 -144.667 43 -224v-35c0 -28.667 -16.667 -48.667 -50 -60h-242c-34 0 -53 21 -57 63v10c0 153.333 -63 245.333 -189 276c-10.667 3.33301 -30.667 5 -60 5c-108 0 -183.333 -49.333 -226 -148
c-6.66699 -25.333 -12.667 -56.333 -18 -93v-574c5.33301 -36.667 11.333 -67.667 18 -93c42.667 -98.667 118 -148 226 -148c29.333 0 49.333 1.66699 60 5c132.667 -2 194 110 184 336h-193c-47.333 0 -70.666 15.667 -69.999 47v203
c-0.666992 31.333 30.333 46.666 93 45.999l426 1c62.667 0.666992 93.667 -14.666 93 -45.999c0.666992 -307.333 -12 -493 -38 -557z" />
    <glyph glyph-name="H" unicode="H" horiz-adv-x="1205" 
d="M376 681v-608.004c0 -47.333 -18.333 -70.666 -55 -69.999h-238c-36.667 -0.666992 -54.334 30.333 -53.001 93v1526c-1.33301 62.667 16.334 93.667 53.001 93h238c36.667 0.666992 55 -22.666 55 -69.999v-631h424v608c-1.33301 62.667 16.334 93.667 53.001 93h238
c36.667 0.666992 55 -22.666 55 -69.999v-1572c0 -47.333 -18.333 -70.666 -55 -69.999h-238c-36.667 -0.666992 -54.334 30.333 -53.001 93v585h-424z" />
    <glyph glyph-name="I" unicode="I" horiz-adv-x="432" 
d="M30 1622c-1.33301 62.667 16.334 93.665 53.001 92.998h238c36.667 0.666992 55 -22.666 55 -69.999v-1572c0 -47.333 -18.333 -70.666 -55 -69.999h-238c-36.667 -0.666992 -54.334 30.333 -53.001 93v1526z" />
    <glyph glyph-name="J" unicode="J" horiz-adv-x="790" 
d="M667 1715c36.667 0.666992 54.333 -30.3311 53 -92.998v-1133c-1.33301 -36.667 -8.83301 -81.167 -22.5 -133.5s-44.834 -109.833 -93.501 -172.5s-105 -108.834 -169 -138.501s-168 -44.5 -312 -44.5c-50 0 -75 22.667 -75 68v205c0 42 13.333 65.667 40 71
c70.667 3.33301 125.334 8 164.001 14s68.167 23 88.5 51s31.5 68 33.5 120v1116c0 47.333 18.333 70.666 55 69.999h238v0z" />
    <glyph glyph-name="K" unicode="K" horiz-adv-x="1295" 
d="M991 936c35.333 -23.333 78 -64.002 128 -122.002c34.667 -49.333 60.667 -96.333 78 -141c28.667 -70 43 -161.333 43 -274v-345c0 -28.667 -16.667 -48.667 -50 -60h-242c-34 0 -53 21 -57 63v370c0 153.333 -63 245.333 -189 276c-6.66699 2 -44 3.33301 -112 4h-194
v-634c0 -47.333 -18.333 -70.666 -55 -69.999h-238c-36.667 -0.666992 -54.334 30.333 -53.001 93v1526c-1.33301 62.667 16.334 93.667 53.001 93h238c36.667 0.666992 55 -22.666 55 -69.999v-613c107.333 -0.666992 165.333 0.333008 174 3c124 32 186 124.667 186 278
v340c4 42 23 63 57 63h242c33.333 -11.333 50 -31.333 50 -60v-315c0 -112.667 -14.333 -204 -43 -274c-16 -41.333 -39.667 -85 -71 -131z" />
    <glyph glyph-name="L" unicode="L" horiz-adv-x="718" 
d="M53 1715l237.996 -0.00195312c36.667 0.666992 55 -22.666 55 -69.999v-1116c2 -52 13.333 -92 34 -120s50.334 -45 89.001 -51s93 -10.667 163 -14c26.667 -5.33301 40 -29 40 -71v-205c0 -45.333 -25 -68 -75 -68c-143.333 0 -247.166 14.833 -311.499 44.5
s-120.666 75.834 -168.999 138.501s-79.5 120.167 -93.5 172.5s-21.667 96.833 -23 133.5v1133c-1.33301 62.667 16.334 93.667 53.001 93z" />
    <glyph glyph-name="M" unicode="M" horiz-adv-x="2096" 
d="M955 1613c26.667 -20.667 57.665 -48.9971 92.998 -84.9971c58 61.333 114.667 105.666 170 132.999c72 28.667 149.5 43.667 232.5 45s149.833 -3.66699 200.5 -15c92.667 -30.667 173 -77.667 241 -141c78 -79.333 130.667 -176.333 158 -291
c10 -89.333 15 -148 15 -176v-1023c0 -28.667 -16.667 -48.667 -50 -60h-241c-35.333 0 -54.666 22.667 -57.999 68v1035c0 105.333 -34.333 185.666 -103 240.999c-41.333 26.667 -90 40 -146 40c-132 0 -212.333 -65.333 -241 -196c-3.33301 -24 -5 -56.667 -5 -98v-1027
c-4 -42 -23.333 -63 -58 -63h-236c-35.333 8.66699 -53 26.334 -53 53.001v1048c0 113.333 -24.333 188.833 -73 226.5s-107.334 56.5 -176.001 56.5c-107.333 0 -182.666 -48.333 -225.999 -145c-13.333 -30.667 -20 -74.334 -20 -131.001v-1040c0 -34 -16 -56.667 -48 -68
h-243c-34.667 0 -54 22.667 -58 68v1043c0 224 91.333 396.333 274 517c86.667 50 191.334 76.667 314.001 80s235 -28.334 337 -95.001z" />
    <glyph glyph-name="N" unicode="N" 
d="M630 1716c66.667 -3.33301 123.666 -11 170.999 -23c56.667 -14.667 111.334 -38 164.001 -70c38 -20.667 86.333 -65 145 -133c34.667 -49.333 60.667 -96.333 78 -141c28.667 -70 43 -161.333 43 -274v-1015c0 -28.667 -16.667 -48.667 -50 -60h-242
c-34 0 -53 21 -57 63v1040c0 153.333 -63 245.333 -189 276c-10.667 3.33301 -30.667 5 -60 5c-108 0 -183.333 -49.333 -226 -148c-6.66699 -25.333 -12.667 -56.333 -18 -93v-1058c0 -56.667 -20 -85 -60 -85h-236c-20 0 -36.667 12.667 -50 38c-2 6 -3 12.667 -3 20v1070
c0 196.667 79.667 355.667 239 477c107.333 72 218.666 108 333.999 108v-2c8.66699 3.33301 14.334 5 17.001 5z" />
    <glyph glyph-name="O" unicode="O" 
d="M40 1128c0 196.667 79.667 355.67 239 477.003c107.333 72 218.666 108 333.999 108v-2c8.66699 3.33301 14.334 5 17.001 5c66.667 -3.33301 123.667 -11 171 -23c56.667 -14.667 111.334 -38 164.001 -70c38 -20.667 86.333 -65 145 -133
c34.667 -49.333 60.667 -96.333 78 -141c28.667 -70 43 -161.333 43 -274v-432c0 -112.667 -14.333 -204.334 -43 -275.001c-17.333 -44 -43.333 -90.667 -78 -140c-58.667 -68.667 -107 -113.334 -145 -134.001c-52.667 -32 -107.334 -55.333 -164.001 -70
c-47.333 -12 -104.333 -19.667 -171 -23c-2.66699 0 -8.33398 1.66699 -17.001 5v-2c-115.333 0 -226.666 36 -333.999 108c-159.333 121.333 -239 280.666 -239 477.999v538zM882 1103c0 153.333 -63 245.334 -189 276.001c-10.667 3.33301 -30.667 5 -60 5
c-108 0 -183.333 -49.333 -226 -148c-6.66699 -25.333 -12.667 -56.333 -18 -93v-568c5.33301 -37.333 11.333 -68.333 18 -93c42.667 -99.333 118 -149 226 -149c29.333 0 49.333 1.66699 60 5c126 31.333 189 123.666 189 276.999v488z" />
    <glyph glyph-name="P" unicode="P" 
d="M396 1384v-561.001h217c29.333 0 49.333 1.66699 60 5c126 31.333 189 123.333 189 276s-63 244.334 -189 275.001c-10.667 3.33301 -30.667 5 -60 5h-217zM50 1630c-0.666992 60 16.999 89.667 52.999 89h238c8.66699 0 17.334 -1.33301 26.001 -4
c160.667 0.666992 241.667 1 243 1c66.667 -3.33301 123.667 -11 171 -23c56.667 -14.667 111.334 -38 164.001 -70c38 -20.667 86.333 -65 145 -133c34.667 -49.333 60.667 -96.333 78 -141c28.667 -70 43 -151.667 43 -245s-14.333 -175.333 -43 -246
c-17.333 -44 -43.333 -90.667 -78 -140c-58.667 -68.667 -107 -113.334 -145 -134.001c-52.667 -32 -107.334 -55.333 -164.001 -70c-47.333 -12 -104.333 -19.667 -171 -23c-1.33301 0 -72.666 0.333008 -213.999 1v-415c0 -47.333 -18.333 -70.666 -55 -69.999h-238
c-36.667 -0.666992 -54.334 30.333 -53.001 93v1530z" />
    <glyph glyph-name="Q" unicode="Q" 
d="M882 1103c0 153.333 -63 245.334 -189 276.001c-10.667 3.33301 -30.667 5 -60 5c-108 0 -183.333 -49.333 -226 -148c-6.66699 -25.333 -12.667 -56.333 -18 -93v-568c5.33301 -37.333 11.333 -68.333 18 -93c42.667 -99.333 118 -149 226 -149
c29.333 0 49.333 1.66699 60 5c126 31.333 189 123.666 189 276.999v488zM494 17.001c-73.333 16.667 -145.001 48.334 -215.001 95.001c-159.333 121.333 -239 280.666 -239 477.999v538c0 196.667 79.667 355.667 239 477c107.333 72 218.666 108 333.999 108v-2
c8.66699 3.33301 14.334 5 17.001 5c66.667 -3.33301 123.667 -11 171 -23c56.667 -14.667 111.334 -38 164.001 -70c38 -20.667 86.333 -65 145 -133c34.667 -49.333 60.667 -96.333 78 -141c28.667 -70 43 -161.333 43 -274v-432
c0 -112.667 -14.333 -204.334 -43 -275.001c-17.333 -44 -43.333 -90.667 -78 -140c-58.667 -68.667 -107 -113.334 -145 -134.001c-36.667 -22 -74.334 -40 -113.001 -54c3.33301 -6 6.66602 -11.333 9.99902 -16c20.667 -28 50.334 -45 89.001 -51s93 -10.667 163 -14
c26.667 -5.33301 40 -29 40 -71v-205c0 -45.333 -25 -68 -75 -68c-143.333 0 -247.166 14.833 -311.499 44.5s-120.666 75.834 -168.999 138.501s-79.5 120.334 -93.5 173.001c-4.66699 16 -8.33398 31.333 -11.001 46z" />
    <glyph glyph-name="R" unicode="R" horiz-adv-x="1298" 
d="M518 823c94 0.666992 145.667 2.33203 155 4.99902c126 31.333 189 123.333 189 276s-63 244.334 -189 275.001c-10.667 3.33301 -30.667 5 -60 5h-217v-561h122zM396 491.998l-0.000976562 -415c0 -47.333 -18.333 -70.666 -55 -69.999h-238
c-36.667 -0.666992 -54.334 30.333 -53.001 93v1530c-0.666992 60 17 89.667 53 89h238c8.66699 0 17.334 -1.33301 26.001 -4c160.667 0.666992 241.667 1 243 1c66.667 -3.33301 123.667 -11 171 -23c56.667 -14.667 111.334 -38 164.001 -70
c38 -20.667 86.333 -65 145 -133c34.667 -49.333 60.667 -96.333 78 -141c28.667 -70 43 -151.667 43 -245s-14.333 -175.333 -43 -246c-17.333 -44 -43.333 -90.667 -78 -140c-10 -12 -19.667 -23 -29 -33c22.667 -21.333 47.667 -48 75 -80
c34.667 -49.333 60.667 -96.333 78 -141c28.667 -70 43 -161.333 43 -274v-135c0 -28.667 -16.667 -48.667 -50 -60h-242c-34 0 -53 21 -57 63v160c0 153.333 -63 245.333 -189 276c-3.33301 1.33301 -111 0.666016 -323 -2.00098z" />
    <glyph glyph-name="S" unicode="S" 
d="M981 107c-107.333 -71.333 -218.667 -107.001 -334 -107.001v2c-8.66699 -3.33301 -14.334 -5 -17.001 -5c-66.667 3.33301 -123.667 11 -171 23c-56.667 14.667 -111.334 38 -164.001 70c-38 20.667 -86.333 65 -145 133c-34.667 48.667 -60.667 95.334 -78 140.001
c-26 64 -40.333 145.333 -43 244c2.66699 24.667 19.334 42.334 50.001 53.001h242c34 0 53 -21 57 -63v12c0 -166.667 63 -265.334 189 -296.001c10.667 -3.33301 30.667 -5 60 -5c88 0 157 25.333 207 76s60 108.167 30 172.5s-171.667 126.5 -425 186.5
s-383.166 188.333 -389.499 385s70.167 355.667 229.5 477c107.333 72 209.333 107.667 306 107s168.667 -7 216 -19c56.667 -14.667 111.334 -38 164.001 -70c38 -20.667 86.333 -65 145 -133c34.667 -49.333 60.667 -96.333 78 -141c28.667 -70 43 -144.667 43 -224v-35
c0 -28.667 -16.667 -48.667 -50 -60h-242c-34 0 -53 21 -57 63v10c0 153.333 -63 245.333 -189 276c-10.667 3.33301 -30.667 5 -60 5c-121.333 0 -194.333 -39.333 -219 -118s-23.334 -134 3.99902 -166s164.833 -80.167 412.5 -144.5s374.5 -191.5 380.5 -381.5
s-70.667 -345.667 -230 -467z" />
    <glyph glyph-name="T" unicode="T" horiz-adv-x="1199" 
d="M771 1371l-0.000976562 -1298c0 -47.333 -18.333 -70.666 -55 -69.999h-238c-36.667 -0.666992 -54.334 30.333 -53.001 93v1276h-311c-47.333 0.666992 -70.666 19.334 -69.999 56.001v238c-0.666992 36.667 30.333 54 93 52l926 -1
c62.667 1.33301 93.667 -16.334 93 -53.001v-238c0.666992 -36.667 -22.666 -55 -69.999 -55h-315z" />
    <glyph glyph-name="U" unicode="U" horiz-adv-x="1290" 
d="M645 3c-66 3.33301 -122.667 11 -170 23c-56.667 14.667 -111.334 38 -164.001 70c-38 20.667 -86.333 65 -145 133c-35.333 49.333 -61.333 96.333 -78 141c-28.667 70 -43 161.333 -43 274v1015c0 28.667 16.667 48.667 50 60h241c34 0 53.333 -21 58 -63v-1040
c0 -153.333 63 -245.333 189 -276c10.667 -3.33301 30.667 -5 60 -5c108 0 183.333 49.333 226 148c6.66699 25.333 12.667 56.333 18 93v1058c0 56.667 20 85 60 85h236c20 0 36.667 -12.667 50 -38c2 -6 3 -12.667 3 -20v-1070c0 -196.667 -79.667 -356 -239 -478
c-107.333 -72 -218.666 -108 -333.999 -108v3c-8.66699 -3.33301 -14.667 -5 -18 -5z" />
    <glyph glyph-name="V" unicode="V" horiz-adv-x="1388" 
d="M513 3c-36.667 -0.666992 -60.999 30.333 -72.999 93l-390 1526c-14.667 62.667 -3.66699 93.667 33 93h238c36.667 0.666992 61.667 -22.666 75 -69.999l296 -1192l296 1192c13.333 47.333 38.666 70.666 75.999 69.999h239c36.667 0.666992 47.667 -30.333 33 -93
l-392 -1526c-12 -62.667 -36.333 -93.667 -73 -93h-358z" />
    <glyph glyph-name="W" unicode="W" horiz-adv-x="2178" 
d="M1182 103c-27.333 20.667 -58.332 48.9971 -92.999 84.9971c-58.667 -61.333 -115.667 -105.666 -171 -132.999c-71.333 -28.667 -148.666 -43.834 -231.999 -45.501s-150 3.5 -200 15.5c-93.333 30 -174 77 -242 141c-78 79.333 -130.667 176.333 -158 291
c-10 89.333 -15 148 -15 176v1022c0 28.667 16.667 49 50 61h241c35.333 0 54.666 -22.667 57.999 -68v-1035c0 -105.333 34.333 -185.666 103 -240.999c41.333 -27.333 90 -41 146 -41c132 0 212.333 65.333 241 196c3.33301 24.667 5 57.334 5 98.001v1028
c4 42 23.333 63 58 63h236c35.333 -9.33301 53 -27 53 -53v-1048c0 -114 24.333 -189.833 73 -227.5s107.334 -56.5 176.001 -56.5c107.333 0 182.666 48.667 225.999 146c13.333 30.667 20 74.334 20 131.001v1040c0 34 16 56.667 48 68h243c34.667 0 54 -22.667 58 -68
v-1043c0 -224.667 -91.333 -397 -274 -517c-86.667 -50.667 -191.334 -77.667 -314.001 -81s-234.667 28.667 -336 96z" />
    <glyph glyph-name="X" unicode="X" horiz-adv-x="1223" 
d="M432 852l-373.997 770c-22.667 62.667 -15.334 93.667 21.999 93h238c36 0.666992 63.667 -22.666 83 -69.999l204 -429l203 429c19.333 47.333 47 70.666 83 69.999h238c36.667 0.666992 43.667 -30.333 21 -93l-373 -769l371 -780
c26 -47.333 20.667 -70.666 -16 -69.999h-238c-36.667 -0.666992 -68.334 30.333 -95.001 93l-194 400l-194 -400c-26.667 -62.667 -58.334 -93.667 -95.001 -93h-237c-36.667 -0.666992 -42 22.666 -16 69.999z" />
    <glyph glyph-name="Y" unicode="Y" horiz-adv-x="1223" 
d="M431 854l-372.998 767.999c-22.667 62.667 -15.334 93.667 21.999 93h238c36 0.666992 63.667 -22.666 83 -69.999l204 -429l203 429c19.333 47.333 47 70.666 83 69.999h238c36.667 0.666992 43.667 -30.333 21 -93l-373 -769v-787
c0 -47.333 -18.333 -70.666 -55 -69.999h-238c-36.667 -0.666992 -54.334 30.333 -53.001 93v765z" />
    <glyph glyph-name="Z" unicode="Z" horiz-adv-x="1161" 
d="M743 1370h-551.997c-62.667 -1.33301 -93.667 16.334 -93 53.001v238c-0.666992 36.667 22.666 55 69.999 55h872c47.333 0 70.666 -18.333 69.999 -55v-212c4.66699 -28.667 1 -59.667 -11 -93l-593 -1008h548c47.333 0 70.666 -18.333 69.999 -55v-238
c0.666992 -36.667 -30.333 -54.334 -93 -53.001h-918c-36.667 -0.666992 -58.5 30.833 -65.5 94.5s17.167 140.5 72.5 230.5z" />
    <glyph glyph-name="underscore" unicode="_" horiz-adv-x="1589" 
d="M1448 77c62.667 0.666992 93.665 -10.666 92.998 -33.999v-154c0.666992 -24 -22.666 -36 -69.999 -36h-1372c-47.333 0 -70.666 12 -69.999 36v154c-0.666992 23.333 30.333 34.666 93 33.999h1326z" />
    <glyph glyph-name="grave" unicode="`" horiz-adv-x="553" 
d="M49 1499c-36 51.333 -38.667 87 -8 107l197 134c30 20.667 58.333 11.667 85 -27l175 -295c16 -46 8.66699 -79.333 -22 -100l-131 -88c-30 -21.333 -67.667 -9.33301 -113 36z" />
    <glyph glyph-name="a" unicode="a" 
d="M389 707l-0.000976562 -622c0 -56.667 -20 -85 -60 -85h-236c-20 0 -36.667 12.667 -50 38c-2 6 -3 12.667 -3 20v1070c0 196.667 79.667 355.667 239 477c107.333 72 218.666 108 333.999 108v-2c8.66699 3.33301 14.334 5 17.001 5
c66.667 -3.33301 123.667 -11 171 -23c56.667 -14.667 111.334 -38 164.001 -70c38 -20.667 86.333 -65 145 -133c34.667 -49.333 60.667 -96.333 78 -141c28.667 -70 43 -161.333 43 -274v-1015c0 -28.667 -16.667 -48.667 -50 -60h-242c-34 0 -53 21 -57 63v644h-493z
M881.999 1026v77c0 153.333 -63 245.333 -189 276c-10.667 3.33301 -30.667 5 -60 5c-108 0 -183.333 -49.333 -226 -148c-6.66699 -25.333 -12.667 -56.333 -18 -93v-117h493z" />
    <glyph glyph-name="b" unicode="b" horiz-adv-x="1233" 
d="M83 3c-36.667 -0.666992 -54.332 30.3301 -52.999 92.9971v1526c-1.33301 56.667 13 87.334 43 92.001c6.66699 2.66699 14.667 4.33398 24 5.00098h578c189.333 0 334.666 -77 435.999 -231c42 -73.333 64.5 -161.5 67.5 -264.5s-23.833 -197.5 -80.5 -283.5
c-17.333 -22 -41.333 -48 -72 -78c52 -49.333 89.667 -97.333 113 -144c24 -60 36.667 -125 38 -195s-3 -126.333 -13 -169c-25.333 -78 -62 -146 -110 -204c-67.333 -65.333 -149.333 -109.666 -246 -132.999c-74.667 -8.66699 -124 -13 -148 -13zM376.002 1425v-417h267
c88.667 0 147.5 20.5 176.5 61.5s43.5 90.5 43.5 148.5c0 90.667 -37.667 154 -113 190c-24 11.333 -57.667 17 -101 17h-273zM376.002 715.997l0.000976562 -417h269c81.333 0 143.666 29 186.999 87c20.667 34.667 31 75.667 31 123c0 111.333 -50.667 179 -152 203
c-18.667 2.66699 -44 4 -76 4h-259z" />
    <glyph glyph-name="c" unicode="c" 
d="M389 569c5.33301 -36.667 11.332 -67.665 17.999 -92.998c42.667 -98.667 118 -148 226 -148c29.333 0 49.333 1.66699 60 5c126 30.667 189 122.667 189 276v-12c4 42 23 63 57 63h242c30.667 -10.667 47.334 -28.334 50.001 -53.001
c-2.66699 -98.667 -17 -180 -43 -244c-17.333 -44.667 -43.333 -91.334 -78 -140.001c-58.667 -68 -107 -112.333 -145 -133c-52.667 -32 -107.334 -55.333 -164.001 -70c-47.333 -12 -104.333 -19.667 -171 -23c-2.66699 0 -8.33398 1.66699 -17.001 5v-2
c-115.333 0 -226.666 35.667 -333.999 107c-159.333 121.333 -239 280.333 -239 477v544c0 196.667 79.667 355.667 239 477c107.333 72 218.666 108 333.999 108v-2c8.66699 3.33301 14.334 5 17.001 5c66.667 -3.33301 123.667 -11 171 -23
c56.667 -14.667 111.334 -38 164.001 -70c38 -20.667 86.333 -65 145 -133c34.667 -49.333 60.667 -96.333 78 -141c28.667 -70 43 -144.667 43 -224v-35c0 -28.667 -16.667 -48.667 -50 -60h-242c-34 0 -53 21 -57 63v10c0 153.333 -63 245.333 -189 276
c-10.667 3.33301 -30.667 5 -60 5c-108 0 -183.333 -49.333 -226 -148c-6.66699 -25.333 -12.667 -56.333 -18 -93v-574z" />
    <glyph glyph-name="d" unicode="d" 
d="M304 3l-201 0.00195312c-36.667 -0.666992 -54.334 30.333 -53.001 93v1526c-1.33301 62.667 16.334 93.667 53.001 93h201c202.667 0.666992 304.667 1 306 1c66.667 -3.33301 123.667 -11 171 -23c56.667 -14.667 111.334 -38 164.001 -70
c38 -20.667 86.333 -65 145 -133c34.667 -49.333 60.667 -96.333 78 -141c28.667 -70 43 -161.333 43 -274v-432c0 -112.667 -14.333 -204.334 -43 -275.001c-17.333 -44 -43.333 -90.667 -78 -140c-58.667 -68.667 -107 -113.334 -145 -134.001
c-52.667 -32 -107.334 -55.333 -164.001 -70c-47.333 -12 -104.333 -19.667 -171 -23c-1.33301 0 -103.333 0.333008 -306 1v1zM396 1384v-1051h217c29.333 0 49.333 1.66699 60 5c126 31.333 189 123.666 189 276.999v488c0 153.333 -63 245.333 -189 276
c-10.667 3.33301 -30.667 5 -60 5h-217z" />
    <glyph glyph-name="e" unicode="e" horiz-adv-x="836" 
d="M374 743l-0.000976562 -213.998c2 -52 13.333 -92 34 -120s50.334 -45 89.001 -51s129.667 -10.667 273 -14c26.667 -5.33301 40 -29 40 -71v-205c0 -45.333 -25 -68 -75 -68c-216.667 0 -357.167 14.833 -421.5 44.5s-120.666 75.834 -168.999 138.501
s-79.5 120.167 -93.5 172.5s-21.667 96.833 -23 133.5v749c1.33301 36.667 9 81.167 23 133.5s45.167 109.5 93.5 171.5s104.666 107.833 168.999 137.5s204.833 44.5 421.5 44.5c50 0 75 -22.333 75 -67v-205c0 -42 -13.333 -65.333 -40 -70
c-143.333 -4 -234.333 -8.83301 -273 -14.5s-68.334 -22.334 -89.001 -50.001s-32 -67.834 -34 -120.501v-109h340c62.667 1.33301 93.667 -16.334 93 -53.001v-238c0.666992 -36.667 -22.666 -55 -69.999 -55h-363z" />
    <glyph glyph-name="f" unicode="f" horiz-adv-x="836" 
d="M373 1089l340.002 0.00195312c62.667 1.33301 93.667 -16.334 93 -53.001v-238c0.666992 -36.667 -22.666 -55 -69.999 -55h-363v-679c0 -47.333 -18.333 -70.666 -55 -69.999h-238c-36.667 -0.666992 -54.334 30.333 -53.001 93v1151c1.33301 36.667 9 81.167 23 133.5
s45.167 109.5 93.5 171.5s104.666 107.833 168.999 137.5s204.833 44.5 421.5 44.5c50 0 75 -22.333 75 -67v-205c0 -42 -13.333 -65.333 -40 -70c-143.333 -4 -234.333 -8.83301 -273 -14.5s-68.334 -22.334 -89.001 -50.001s-32 -67.834 -34 -120.501v-109z" />
    <glyph glyph-name="g" unicode="g" 
d="M1188 363c-17.333 -44.667 -43.334 -91.333 -78.001 -140c-58.667 -68 -107 -112.333 -145 -133c-52.667 -32 -107.334 -55.333 -164.001 -70c-47.333 -12 -104.333 -19.667 -171 -23c-2.66699 0 -8.33398 1.66699 -17.001 5v-2c-115.333 0 -226.666 35.667 -333.999 107
c-159.333 121.333 -239 280.333 -239 477v544c0 196.667 79.667 355.667 239 477c107.333 72 218.666 108 333.999 108v-2c8.66699 3.33301 14.334 5 17.001 5c66.667 -3.33301 123.667 -11 171 -23c56.667 -14.667 111.334 -38 164.001 -70c38 -20.667 86.333 -65 145 -133
c34.667 -49.333 60.667 -96.333 78 -141c28.667 -70 43 -144.667 43 -224v-35c0 -28.667 -16.667 -48.667 -50 -60h-242c-34 0 -53 21 -57 63v10c0 153.333 -63 245.333 -189 276c-10.667 3.33301 -30.667 5 -60 5c-108 0 -183.333 -49.333 -226 -148
c-6.66699 -25.333 -12.667 -56.333 -18 -93v-574c5.33301 -36.667 11.333 -67.667 18 -93c42.667 -98.667 118 -148 226 -148c29.333 0 49.333 1.66699 60 5c132.667 -2 194 110 184 336h-193c-47.333 0 -70.666 15.667 -69.999 47v203
c-0.666992 31.333 30.333 46.666 93 45.999l426 1c62.667 0.666992 93.667 -14.666 93 -45.999c0.666992 -307.333 -12 -493 -38 -557z" />
    <glyph glyph-name="h" unicode="h" horiz-adv-x="1205" 
d="M376 681v-608.004c0 -47.333 -18.333 -70.666 -55 -69.999h-238c-36.667 -0.666992 -54.334 30.333 -53.001 93v1526c-1.33301 62.667 16.334 93.667 53.001 93h238c36.667 0.666992 55 -22.666 55 -69.999v-631h424v608c-1.33301 62.667 16.334 93.667 53.001 93h238
c36.667 0.666992 55 -22.666 55 -69.999v-1572c0 -47.333 -18.333 -70.666 -55 -69.999h-238c-36.667 -0.666992 -54.334 30.333 -53.001 93v585h-424z" />
    <glyph glyph-name="i" unicode="i" horiz-adv-x="432" 
d="M30 1622c-1.33301 62.667 16.334 93.665 53.001 92.998h238c36.667 0.666992 55 -22.666 55 -69.999v-1572c0 -47.333 -18.333 -70.666 -55 -69.999h-238c-36.667 -0.666992 -54.334 30.333 -53.001 93v1526z" />
    <glyph glyph-name="j" unicode="j" horiz-adv-x="790" 
d="M667 1715c36.667 0.666992 54.333 -30.3311 53 -92.998v-1133c-1.33301 -36.667 -8.83301 -81.167 -22.5 -133.5s-44.834 -109.833 -93.501 -172.5s-105 -108.834 -169 -138.501s-168 -44.5 -312 -44.5c-50 0 -75 22.667 -75 68v205c0 42 13.333 65.667 40 71
c70.667 3.33301 125.334 8 164.001 14s68.167 23 88.5 51s31.5 68 33.5 120v1116c0 47.333 18.333 70.666 55 69.999h238v0z" />
    <glyph glyph-name="k" unicode="k" horiz-adv-x="1295" 
d="M991 936c35.333 -23.333 78 -64.002 128 -122.002c34.667 -49.333 60.667 -96.333 78 -141c28.667 -70 43 -161.333 43 -274v-345c0 -28.667 -16.667 -48.667 -50 -60h-242c-34 0 -53 21 -57 63v370c0 153.333 -63 245.333 -189 276c-6.66699 2 -44 3.33301 -112 4h-194
v-634c0 -47.333 -18.333 -70.666 -55 -69.999h-238c-36.667 -0.666992 -54.334 30.333 -53.001 93v1526c-1.33301 62.667 16.334 93.667 53.001 93h238c36.667 0.666992 55 -22.666 55 -69.999v-613c107.333 -0.666992 165.333 0.333008 174 3c124 32 186 124.667 186 278
v340c4 42 23 63 57 63h242c33.333 -11.333 50 -31.333 50 -60v-315c0 -112.667 -14.333 -204 -43 -274c-16 -41.333 -39.667 -85 -71 -131z" />
    <glyph glyph-name="l" unicode="l" horiz-adv-x="718" 
d="M53 1715l237.996 -0.00195312c36.667 0.666992 55 -22.666 55 -69.999v-1116c2 -52 13.333 -92 34 -120s50.334 -45 89.001 -51s93 -10.667 163 -14c26.667 -5.33301 40 -29 40 -71v-205c0 -45.333 -25 -68 -75 -68c-143.333 0 -247.166 14.833 -311.499 44.5
s-120.666 75.834 -168.999 138.501s-79.5 120.167 -93.5 172.5s-21.667 96.833 -23 133.5v1133c-1.33301 62.667 16.334 93.667 53.001 93z" />
    <glyph glyph-name="m" unicode="m" horiz-adv-x="2096" 
d="M955 1613c26.667 -20.667 57.665 -48.9971 92.998 -84.9971c58 61.333 114.667 105.666 170 132.999c72 28.667 149.5 43.667 232.5 45s149.833 -3.66699 200.5 -15c92.667 -30.667 173 -77.667 241 -141c78 -79.333 130.667 -176.333 158 -291
c10 -89.333 15 -148 15 -176v-1023c0 -28.667 -16.667 -48.667 -50 -60h-241c-35.333 0 -54.666 22.667 -57.999 68v1035c0 105.333 -34.333 185.666 -103 240.999c-41.333 26.667 -90 40 -146 40c-132 0 -212.333 -65.333 -241 -196c-3.33301 -24 -5 -56.667 -5 -98v-1027
c-4 -42 -23.333 -63 -58 -63h-236c-35.333 8.66699 -53 26.334 -53 53.001v1048c0 113.333 -24.333 188.833 -73 226.5s-107.334 56.5 -176.001 56.5c-107.333 0 -182.666 -48.333 -225.999 -145c-13.333 -30.667 -20 -74.334 -20 -131.001v-1040c0 -34 -16 -56.667 -48 -68
h-243c-34.667 0 -54 22.667 -58 68v1043c0 224 91.333 396.333 274 517c86.667 50 191.334 76.667 314.001 80s235 -28.334 337 -95.001z" />
    <glyph glyph-name="n" unicode="n" 
d="M630 1716c66.667 -3.33301 123.666 -11 170.999 -23c56.667 -14.667 111.334 -38 164.001 -70c38 -20.667 86.333 -65 145 -133c34.667 -49.333 60.667 -96.333 78 -141c28.667 -70 43 -161.333 43 -274v-1015c0 -28.667 -16.667 -48.667 -50 -60h-242
c-34 0 -53 21 -57 63v1040c0 153.333 -63 245.333 -189 276c-10.667 3.33301 -30.667 5 -60 5c-108 0 -183.333 -49.333 -226 -148c-6.66699 -25.333 -12.667 -56.333 -18 -93v-1058c0 -56.667 -20 -85 -60 -85h-236c-20 0 -36.667 12.667 -50 38c-2 6 -3 12.667 -3 20v1070
c0 196.667 79.667 355.667 239 477c107.333 72 218.666 108 333.999 108v-2c8.66699 3.33301 14.334 5 17.001 5z" />
    <glyph glyph-name="o" unicode="o" 
d="M40 1128c0 196.667 79.667 355.67 239 477.003c107.333 72 218.666 108 333.999 108v-2c8.66699 3.33301 14.334 5 17.001 5c66.667 -3.33301 123.667 -11 171 -23c56.667 -14.667 111.334 -38 164.001 -70c38 -20.667 86.333 -65 145 -133
c34.667 -49.333 60.667 -96.333 78 -141c28.667 -70 43 -161.333 43 -274v-432c0 -112.667 -14.333 -204.334 -43 -275.001c-17.333 -44 -43.333 -90.667 -78 -140c-58.667 -68.667 -107 -113.334 -145 -134.001c-52.667 -32 -107.334 -55.333 -164.001 -70
c-47.333 -12 -104.333 -19.667 -171 -23c-2.66699 0 -8.33398 1.66699 -17.001 5v-2c-115.333 0 -226.666 36 -333.999 108c-159.333 121.333 -239 280.666 -239 477.999v538zM882 1103c0 153.333 -63 245.334 -189 276.001c-10.667 3.33301 -30.667 5 -60 5
c-108 0 -183.333 -49.333 -226 -148c-6.66699 -25.333 -12.667 -56.333 -18 -93v-568c5.33301 -37.333 11.333 -68.333 18 -93c42.667 -99.333 118 -149 226 -149c29.333 0 49.333 1.66699 60 5c126 31.333 189 123.666 189 276.999v488z" />
    <glyph glyph-name="p" unicode="p" 
d="M396 1384v-561.001h217c29.333 0 49.333 1.66699 60 5c126 31.333 189 123.333 189 276s-63 244.334 -189 275.001c-10.667 3.33301 -30.667 5 -60 5h-217zM50 1630c-0.666992 60 16.999 89.667 52.999 89h238c8.66699 0 17.334 -1.33301 26.001 -4
c160.667 0.666992 241.667 1 243 1c66.667 -3.33301 123.667 -11 171 -23c56.667 -14.667 111.334 -38 164.001 -70c38 -20.667 86.333 -65 145 -133c34.667 -49.333 60.667 -96.333 78 -141c28.667 -70 43 -151.667 43 -245s-14.333 -175.333 -43 -246
c-17.333 -44 -43.333 -90.667 -78 -140c-58.667 -68.667 -107 -113.334 -145 -134.001c-52.667 -32 -107.334 -55.333 -164.001 -70c-47.333 -12 -104.333 -19.667 -171 -23c-1.33301 0 -72.666 0.333008 -213.999 1v-415c0 -47.333 -18.333 -70.666 -55 -69.999h-238
c-36.667 -0.666992 -54.334 30.333 -53.001 93v1530z" />
    <glyph glyph-name="q" unicode="q" 
d="M882 1103c0 153.333 -63 245.334 -189 276.001c-10.667 3.33301 -30.667 5 -60 5c-108 0 -183.333 -49.333 -226 -148c-6.66699 -25.333 -12.667 -56.333 -18 -93v-568c5.33301 -37.333 11.333 -68.333 18 -93c42.667 -99.333 118 -149 226 -149
c29.333 0 49.333 1.66699 60 5c126 31.333 189 123.666 189 276.999v488zM494 17.001c-73.333 16.667 -145.001 48.334 -215.001 95.001c-159.333 121.333 -239 280.666 -239 477.999v538c0 196.667 79.667 355.667 239 477c107.333 72 218.666 108 333.999 108v-2
c8.66699 3.33301 14.334 5 17.001 5c66.667 -3.33301 123.667 -11 171 -23c56.667 -14.667 111.334 -38 164.001 -70c38 -20.667 86.333 -65 145 -133c34.667 -49.333 60.667 -96.333 78 -141c28.667 -70 43 -161.333 43 -274v-432
c0 -112.667 -14.333 -204.334 -43 -275.001c-17.333 -44 -43.333 -90.667 -78 -140c-58.667 -68.667 -107 -113.334 -145 -134.001c-36.667 -22 -74.334 -40 -113.001 -54c3.33301 -6 6.66602 -11.333 9.99902 -16c20.667 -28 50.334 -45 89.001 -51s93 -10.667 163 -14
c26.667 -5.33301 40 -29 40 -71v-205c0 -45.333 -25 -68 -75 -68c-143.333 0 -247.166 14.833 -311.499 44.5s-120.666 75.834 -168.999 138.501s-79.5 120.334 -93.5 173.001c-4.66699 16 -8.33398 31.333 -11.001 46z" />
    <glyph glyph-name="r" unicode="r" horiz-adv-x="1298" 
d="M518 823c94 0.666992 145.667 2.33203 155 4.99902c126 31.333 189 123.333 189 276s-63 244.334 -189 275.001c-10.667 3.33301 -30.667 5 -60 5h-217v-561h122zM396 491.998l-0.000976562 -415c0 -47.333 -18.333 -70.666 -55 -69.999h-238
c-36.667 -0.666992 -54.334 30.333 -53.001 93v1530c-0.666992 60 17 89.667 53 89h238c8.66699 0 17.334 -1.33301 26.001 -4c160.667 0.666992 241.667 1 243 1c66.667 -3.33301 123.667 -11 171 -23c56.667 -14.667 111.334 -38 164.001 -70
c38 -20.667 86.333 -65 145 -133c34.667 -49.333 60.667 -96.333 78 -141c28.667 -70 43 -151.667 43 -245s-14.333 -175.333 -43 -246c-17.333 -44 -43.333 -90.667 -78 -140c-10 -12 -19.667 -23 -29 -33c22.667 -21.333 47.667 -48 75 -80
c34.667 -49.333 60.667 -96.333 78 -141c28.667 -70 43 -161.333 43 -274v-135c0 -28.667 -16.667 -48.667 -50 -60h-242c-34 0 -53 21 -57 63v160c0 153.333 -63 245.333 -189 276c-3.33301 1.33301 -111 0.666016 -323 -2.00098z" />
    <glyph glyph-name="s" unicode="s" 
d="M981 107c-107.333 -71.333 -218.667 -107.001 -334 -107.001v2c-8.66699 -3.33301 -14.334 -5 -17.001 -5c-66.667 3.33301 -123.667 11 -171 23c-56.667 14.667 -111.334 38 -164.001 70c-38 20.667 -86.333 65 -145 133c-34.667 48.667 -60.667 95.334 -78 140.001
c-26 64 -40.333 145.333 -43 244c2.66699 24.667 19.334 42.334 50.001 53.001h242c34 0 53 -21 57 -63v12c0 -166.667 63 -265.334 189 -296.001c10.667 -3.33301 30.667 -5 60 -5c88 0 157 25.333 207 76s60 108.167 30 172.5s-171.667 126.5 -425 186.5
s-383.166 188.333 -389.499 385s70.167 355.667 229.5 477c107.333 72 209.333 107.667 306 107s168.667 -7 216 -19c56.667 -14.667 111.334 -38 164.001 -70c38 -20.667 86.333 -65 145 -133c34.667 -49.333 60.667 -96.333 78 -141c28.667 -70 43 -144.667 43 -224v-35
c0 -28.667 -16.667 -48.667 -50 -60h-242c-34 0 -53 21 -57 63v10c0 153.333 -63 245.333 -189 276c-10.667 3.33301 -30.667 5 -60 5c-121.333 0 -194.333 -39.333 -219 -118s-23.334 -134 3.99902 -166s164.833 -80.167 412.5 -144.5s374.5 -191.5 380.5 -381.5
s-70.667 -345.667 -230 -467z" />
    <glyph glyph-name="t" unicode="t" horiz-adv-x="1199" 
d="M771 1371l-0.000976562 -1298c0 -47.333 -18.333 -70.666 -55 -69.999h-238c-36.667 -0.666992 -54.334 30.333 -53.001 93v1276h-311c-47.333 0.666992 -70.666 19.334 -69.999 56.001v238c-0.666992 36.667 30.333 54 93 52l926 -1
c62.667 1.33301 93.667 -16.334 93 -53.001v-238c0.666992 -36.667 -22.666 -55 -69.999 -55h-315z" />
    <glyph glyph-name="u" unicode="u" horiz-adv-x="1290" 
d="M645 3c-66 3.33301 -122.667 11 -170 23c-56.667 14.667 -111.334 38 -164.001 70c-38 20.667 -86.333 65 -145 133c-35.333 49.333 -61.333 96.333 -78 141c-28.667 70 -43 161.333 -43 274v1015c0 28.667 16.667 48.667 50 60h241c34 0 53.333 -21 58 -63v-1040
c0 -153.333 63 -245.333 189 -276c10.667 -3.33301 30.667 -5 60 -5c108 0 183.333 49.333 226 148c6.66699 25.333 12.667 56.333 18 93v1058c0 56.667 20 85 60 85h236c20 0 36.667 -12.667 50 -38c2 -6 3 -12.667 3 -20v-1070c0 -196.667 -79.667 -356 -239 -478
c-107.333 -72 -218.666 -108 -333.999 -108v3c-8.66699 -3.33301 -14.667 -5 -18 -5z" />
    <glyph glyph-name="v" unicode="v" horiz-adv-x="1388" 
d="M513 3c-36.667 -0.666992 -60.999 30.333 -72.999 93l-390 1526c-14.667 62.667 -3.66699 93.667 33 93h238c36.667 0.666992 61.667 -22.666 75 -69.999l296 -1192l296 1192c13.333 47.333 38.666 70.666 75.999 69.999h239c36.667 0.666992 47.667 -30.333 33 -93
l-392 -1526c-12 -62.667 -36.333 -93.667 -73 -93h-358z" />
    <glyph glyph-name="w" unicode="w" horiz-adv-x="2178" 
d="M1182 103c-27.333 20.667 -58.332 48.9971 -92.999 84.9971c-58.667 -61.333 -115.667 -105.666 -171 -132.999c-71.333 -28.667 -148.666 -43.834 -231.999 -45.501s-150 3.5 -200 15.5c-93.333 30 -174 77 -242 141c-78 79.333 -130.667 176.333 -158 291
c-10 89.333 -15 148 -15 176v1022c0 28.667 16.667 49 50 61h241c35.333 0 54.666 -22.667 57.999 -68v-1035c0 -105.333 34.333 -185.666 103 -240.999c41.333 -27.333 90 -41 146 -41c132 0 212.333 65.333 241 196c3.33301 24.667 5 57.334 5 98.001v1028
c4 42 23.333 63 58 63h236c35.333 -9.33301 53 -27 53 -53v-1048c0 -114 24.333 -189.833 73 -227.5s107.334 -56.5 176.001 -56.5c107.333 0 182.666 48.667 225.999 146c13.333 30.667 20 74.334 20 131.001v1040c0 34 16 56.667 48 68h243c34.667 0 54 -22.667 58 -68
v-1043c0 -224.667 -91.333 -397 -274 -517c-86.667 -50.667 -191.334 -77.667 -314.001 -81s-234.667 28.667 -336 96z" />
    <glyph glyph-name="x" unicode="x" horiz-adv-x="1223" 
d="M432 852l-373.997 770c-22.667 62.667 -15.334 93.667 21.999 93h238c36 0.666992 63.667 -22.666 83 -69.999l204 -429l203 429c19.333 47.333 47 70.666 83 69.999h238c36.667 0.666992 43.667 -30.333 21 -93l-373 -769l371 -780
c26 -47.333 20.667 -70.666 -16 -69.999h-238c-36.667 -0.666992 -68.334 30.333 -95.001 93l-194 400l-194 -400c-26.667 -62.667 -58.334 -93.667 -95.001 -93h-237c-36.667 -0.666992 -42 22.666 -16 69.999z" />
    <glyph glyph-name="y" unicode="y" horiz-adv-x="1223" 
d="M431 854l-372.998 767.999c-22.667 62.667 -15.334 93.667 21.999 93h238c36 0.666992 63.667 -22.666 83 -69.999l204 -429l203 429c19.333 47.333 47 70.666 83 69.999h238c36.667 0.666992 43.667 -30.333 21 -93l-373 -769v-787
c0 -47.333 -18.333 -70.666 -55 -69.999h-238c-36.667 -0.666992 -54.334 30.333 -53.001 93v765z" />
    <glyph glyph-name="z" unicode="z" horiz-adv-x="1161" 
d="M743 1370h-551.997c-62.667 -1.33301 -93.667 16.334 -93 53.001v238c-0.666992 36.667 22.666 55 69.999 55h872c47.333 0 70.666 -18.333 69.999 -55v-212c4.66699 -28.667 1 -59.667 -11 -93l-593 -1008h548c47.333 0 70.666 -18.333 69.999 -55v-238
c0.666992 -36.667 -30.333 -54.334 -93 -53.001h-918c-36.667 -0.666992 -58.5 30.833 -65.5 94.5s17.167 140.5 72.5 230.5z" />
    <glyph glyph-name="braceleft" unicode="{" horiz-adv-x="680" 
d="M374 529c2 -52 13.333 -91.999 34 -119.999s50.334 -45 89.001 -51s69.667 -10.667 93 -14c26.667 -5.33301 40 -29 40 -71v-205c0 -45.333 -25 -68 -75 -68c-96.667 0 -177.167 14.833 -241.5 44.5s-120.666 75.834 -168.999 138.501s-79.5 120.167 -93.5 172.5
s-21.667 96.833 -23 133.5v749c1.33301 36.667 9 81.167 23 133.5s45.167 109.5 93.5 171.5s104.666 107.833 168.999 137.5s144.833 44.5 241.5 44.5c50 0 75 -22.333 75 -67v-205c0 -42 -13.333 -65.333 -40 -70c-23.333 -4 -54.333 -8.83301 -93 -14.5
s-68.334 -22.334 -89.001 -50.001s-32 -67.834 -34 -120.501v-669z" />
    <glyph glyph-name="bar" unicode="|" horiz-adv-x="432" 
d="M90 1652c-0.666992 62.667 12 93.665 38 92.998h170c26 0.666992 39 -22.666 39 -69.999v-1772c0 -47.333 -13 -70.666 -39 -69.999h-170c-26 -0.666992 -38.667 30.333 -38 93v1726z" />
    <glyph glyph-name="braceright" unicode="}" horiz-adv-x="686" 
d="M295 1198c-2 52.667 -13.333 92.833 -34 120.5s-50.167 44.334 -88.5 50.001s-69.166 10.5 -92.499 14.5c-26.667 4.66699 -40 28 -40 70v205c0 44.667 25 67 75 67c96 0 176.167 -14.833 240.5 -44.5s120.5 -75.5 168.5 -137.5s79 -119.167 93 -171.5
s21.667 -96.833 23 -133.5v-749c-1.33301 -36.667 -9 -81.167 -23 -133.5s-45 -109.833 -93 -172.5s-104.167 -108.834 -168.5 -138.501s-144.5 -44.5 -240.5 -44.5c-50 0 -75 22.667 -75 68v205c0 42 13.333 65.667 40 71c23.333 3.33301 54.166 8 92.499 14
s67.833 23 88.5 51s32 68 34 120v669z" />
    <glyph glyph-name="asciitilde" unicode="~" horiz-adv-x="1343" 
d="M1237 938c6.66699 -277.333 -100.668 -423.331 -322.001 -437.998c-31.333 0 -66.833 5.16699 -106.5 15.5s-99.167 35.166 -178.5 74.499c-98.667 49.333 -170 74 -214 74c-101.333 0 -205.333 -52.667 -312 -158c4.66699 279.333 115.334 424.666 332.001 435.999
c30.667 0 65 -5.16699 103 -15.5s95.667 -34.5 173 -72.5c101.333 -50.667 176 -76 224 -76c88.667 0 189 53.333 301 160z" />
    <glyph glyph-name="exclamdown" unicode="&#xa1;" horiz-adv-x="538" 
d="M447 86c1.33301 -62.667 -16.334 -93.665 -53.001 -92.998h-238c-36.667 -0.666992 -55 22.666 -55 69.999l40 1142c0 47.333 18.333 70.666 55 69.999h158c36.667 0.666992 54.334 -30.333 53.001 -93zM107 1542c0 44.667 15.833 82.834 47.5 114.501
s70.167 47.5 115.5 47.5c44.667 0 82.834 -15.833 114.501 -47.5s47.5 -69.834 47.5 -114.501s-15.833 -83 -47.5 -115s-69.834 -48 -114.501 -48c-45.333 0 -83.833 16 -115.5 48s-47.5 70.333 -47.5 115z" />
    <glyph glyph-name="dieresis" unicode="&#xa8;" horiz-adv-x="945" 
d="M378 1554c0 -44.667 -16 -82.834 -48 -114.501s-70.333 -47.5 -115 -47.5s-82.834 15.833 -114.501 47.5s-47.5 69.834 -47.5 114.501s15.833 82.834 47.5 114.501s69.834 47.5 114.501 47.5s83 -15.833 115 -47.5s48 -69.834 48 -114.501zM878 1554
c0 -44.667 -16 -82.834 -48 -114.501s-70.333 -47.5 -115 -47.5s-82.834 15.833 -114.501 47.5s-47.5 69.834 -47.5 114.501s15.833 82.834 47.5 114.501s69.834 47.5 114.501 47.5s83 -15.833 115 -47.5s48 -69.834 48 -114.501z" />
    <glyph glyph-name="macron" unicode="&#xaf;" horiz-adv-x="914" 
d="M757 1707c62.667 1.33301 93.665 -16.334 92.998 -53.001v-158c0.666992 -36.667 -22.666 -55 -69.999 -55h-672c-47.333 0 -70.666 18.333 -69.999 55v158c-0.666992 36.667 30.333 54.334 93 53.001h626z" />
    <glyph glyph-name="acute" unicode="&#xb4;" horiz-adv-x="553" 
d="M239 1698c44 44.667 78.667 53.667 104 27l166 -170c26 -26 22.333 -55.333 -11 -88l-259 -225c-43.333 -24 -77.333 -22.667 -102 4l-111 113c-26 26 -20.667 65.333 16 118z" />
    <glyph glyph-name="periodcentered" unicode="&#xb7;" horiz-adv-x="508" 
d="M394 717c0 -38 -13.5 -70.5 -40.5 -97.5s-59.5 -40.5 -97.5 -40.5s-70.5 13.5 -97.5 40.5s-40.5 59.5 -40.5 97.5s13.5 70.5 40.5 97.5s59.5 40.5 97.5 40.5s70.5 -13.5 97.5 -40.5s40.5 -59.5 40.5 -97.5z" />
    <glyph glyph-name="periodcentered" unicode="&#x2219;" horiz-adv-x="508" 
d="M394 717c0 -38 -13.5 -70.5 -40.5 -97.5s-59.5 -40.5 -97.5 -40.5s-70.5 13.5 -97.5 40.5s-40.5 59.5 -40.5 97.5s13.5 70.5 40.5 97.5s59.5 40.5 97.5 40.5s70.5 -13.5 97.5 -40.5s40.5 -59.5 40.5 -97.5z" />
    <glyph glyph-name="cedilla" unicode="&#xb8;" horiz-adv-x="1024" 
d="M512 -322c44 0 75.5 7.16699 94.5 21.5s28.5 29.833 28.5 46.5c0 23.333 -16.333 41.333 -49 54c-26.667 10.667 -60.667 16 -102 16c-42.667 8.66699 -38 70 14 184h93l-37 -104c21.333 2.66699 42 4.33398 62 5.00098c37.333 0 72 -13.5 104 -40.5
s48 -64.833 48 -113.5c0 -50.667 -19.5 -90.834 -58.5 -120.501s-92.5 -44.5 -160.5 -44.5c-106 0 -164 21.333 -174 64s-0.833008 58.667 27.5 48s64.833 -16 109.5 -16z" />
    <glyph glyph-name="questiondown" unicode="&#xbf;" horiz-adv-x="1052" 
d="M500 1217l237.997 -0.000976562c36.667 0.666992 48.334 -32.666 35.001 -99.999c-216 -314.667 -329.5 -505.667 -340.5 -573s-6.16699 -115 14.5 -143s50.334 -44.833 89.001 -50.5s176.334 -7.16699 413.001 -4.5c26.667 -4.66699 40 -28 40 -70v-216
c0 -45.333 -25 -68 -75 -68c-319.333 -7.33301 -514 6.16699 -584 40.5s-124 82.333 -162 144s-64 118.667 -78 171s-14.667 122.5 -2 210.5s115.667 277 309 567c32 62 66.333 92.667 103 92zM456.997 1552c0 44.667 15.833 82.834 47.5 114.501s69.834 47.5 114.501 47.5
s82.834 -15.833 114.501 -47.5s47.5 -69.834 47.5 -114.501s-15.833 -83 -47.5 -115s-69.834 -48 -114.501 -48s-82.834 16 -114.501 48s-47.5 70.333 -47.5 115z" />
    <glyph glyph-name="Agrave" unicode="&#xc0;" 
d="M842 1962c38.667 -36.667 49 -68 31 -94l-45 -71c-13.333 -26 -40 -33.333 -80 -22l-335 197c-32.667 20 -40.667 43.667 -24 71l77 126c17.333 26 48 24.667 92 -4zM389 707l-0.000976562 -622c0 -56.667 -20 -85 -60 -85h-236c-20 0 -36.667 12.667 -50 38
c-2 6 -3 12.667 -3 20v1070c0 196.667 79.667 355.667 239 477c107.333 72 218.666 108 333.999 108v-2c8.66699 3.33301 14.334 5 17.001 5c66.667 -3.33301 123.667 -11 171 -23c56.667 -14.667 111.334 -38 164.001 -70c38 -20.667 86.333 -65 145 -133
c34.667 -49.333 60.667 -96.333 78 -141c28.667 -70 43 -161.333 43 -274v-1015c0 -28.667 -16.667 -48.667 -50 -60h-242c-34 0 -53 21 -57 63v644h-493zM881.999 1026v77c0 153.333 -63 245.333 -189 276c-10.667 3.33301 -30.667 5 -60 5
c-108 0 -183.333 -49.333 -226 -148c-6.66699 -25.333 -12.667 -56.333 -18 -93v-117h493z" />
    <glyph glyph-name="Aacute" unicode="&#xc1;" 
d="M389 707l-0.000976562 -622c0 -56.667 -20 -85 -60 -85h-236c-20 0 -36.667 12.667 -50 38c-2 6 -3 12.667 -3 20v1070c0 196.667 79.667 355.667 239 477c107.333 72 218.666 108 333.999 108v-2c8.66699 3.33301 14.334 5 17.001 5
c66.667 -3.33301 123.667 -11 171 -23c56.667 -14.667 111.334 -38 164.001 -70c38 -20.667 86.333 -65 145 -133c34.667 -49.333 60.667 -96.333 78 -141c28.667 -70 43 -161.333 43 -274v-1015c0 -28.667 -16.667 -48.667 -50 -60h-242c-34 0 -53 21 -57 63v644h-493z
M881.999 1026v77c0 153.333 -63 245.333 -189 276c-10.667 3.33301 -30.667 5 -60 5c-108 0 -183.333 -49.333 -226 -148c-6.66699 -25.333 -12.667 -56.333 -18 -93v-117h493zM752.999 2158c44 28.667 74.667 30 92 4l77 -126c16.667 -27.333 8.66699 -51 -24 -71
l-335 -197c-40 -11.333 -66.667 -4 -80 22l-45 71c-18 26 -7.66699 57.333 31 94z" />
    <glyph glyph-name="Acircumflex" unicode="&#xc2;" 
d="M938 1958c35.333 -38 44.6689 -69.667 28.002 -95l-42 -72c-13.333 -26 -38.333 -32.333 -75 -19l-219 150l-219 -150c-36 -13.333 -61 -7 -75 19l-42 72c-16.667 25.333 -7.33398 57 27.999 95l257 213c20 8.66699 37 12 51 10c14 2 31 -1.33301 51 -10l34 -28
c3.33301 -2.66699 6.66602 -5 9.99902 -7v-1zM389.003 707l-0.000976562 -622c0 -56.667 -20 -85 -60 -85h-236c-20 0 -36.667 12.667 -50 38c-2 6 -3 12.667 -3 20v1070c0 196.667 79.667 355.667 239 477c107.333 72 218.666 108 333.999 108v-2
c8.66699 3.33301 14.334 5 17.001 5c66.667 -3.33301 123.667 -11 171 -23c56.667 -14.667 111.334 -38 164.001 -70c38 -20.667 86.333 -65 145 -133c34.667 -49.333 60.667 -96.333 78 -141c28.667 -70 43 -161.333 43 -274v-1015c0 -28.667 -16.667 -48.667 -50 -60h-242
c-34 0 -53 21 -57 63v644h-493zM882.002 1026v77c0 153.333 -63 245.333 -189 276c-10.667 3.33301 -30.667 5 -60 5c-108 0 -183.333 -49.333 -226 -148c-6.66699 -25.333 -12.667 -56.333 -18 -93v-117h493z" />
    <glyph glyph-name="Atilde" unicode="&#xc3;" 
d="M433 1800c-0.666992 -0.666992 -1.66895 -1.33496 -3.00195 -2.00195v-1h-1c-20.667 -15.333 -39.334 -16 -56.001 -2l-49 42c-20 14.667 -22 40.334 -6 77.001l1 -2c30.667 47.333 61.334 87 92.001 119c39.333 40 80 60 122 60c40.667 0 85.334 -17.667 134.001 -53
c52.667 -37.333 89.667 -56.666 111 -57.999c28 0 67.667 30.333 119 91l4 -4c18.667 13.333 36.334 14.333 53.001 3l52 -42c22 -14 25.333 -40.333 10 -79l-2 1c-91.333 -116 -170 -172 -236 -168c-26 -8 -71 8.66699 -135 50c-48 36.667 -83 55 -105 55
s-57.333 -29 -106 -87h1zM388.998 706.999l-0.000976562 -622c0 -56.667 -20 -85 -60 -85h-236c-20 0 -36.667 12.667 -50 38c-2 6 -3 12.667 -3 20v1070c0 196.667 79.667 355.667 239 477c107.333 72 218.666 108 333.999 108v-2c8.66699 3.33301 14.334 5 17.001 5
c66.667 -3.33301 123.667 -11 171 -23c56.667 -14.667 111.334 -38 164.001 -70c38 -20.667 86.333 -65 145 -133c34.667 -49.333 60.667 -96.333 78 -141c28.667 -70 43 -161.333 43 -274v-1015c0 -28.667 -16.667 -48.667 -50 -60h-242c-34 0 -53 21 -57 63v644h-493z
M881.997 1026v77c0 153.333 -63 245.333 -189 276c-10.667 3.33301 -30.667 5 -60 5c-108 0 -183.333 -49.333 -226 -148c-6.66699 -25.333 -12.667 -56.333 -18 -93v-117h493z" />
    <glyph glyph-name="Adieresis" unicode="&#xc4;" 
d="M389 707l-0.000976562 -622c0 -56.667 -20 -85 -60 -85h-236c-20 0 -36.667 12.667 -50 38c-2 6 -3 12.667 -3 20v1070c0 196.667 79.667 355.667 239 477c107.333 72 218.666 108 333.999 108v-2c8.66699 3.33301 14.334 5 17.001 5
c66.667 -3.33301 123.667 -11 171 -23c56.667 -14.667 111.334 -38 164.001 -70c38 -20.667 86.333 -65 145 -133c34.667 -49.333 60.667 -96.333 78 -141c28.667 -70 43 -161.333 43 -274v-1015c0 -28.667 -16.667 -48.667 -50 -60h-242c-34 0 -53 21 -57 63v644h-493z
M881.999 1026v77c0 153.333 -63 245.333 -189 276c-10.667 3.33301 -30.667 5 -60 5c-108 0 -183.333 -49.333 -226 -148c-6.66699 -25.333 -12.667 -56.333 -18 -93v-117h493zM547.999 1874c0 -44.667 -16 -82.834 -48 -114.501s-70.333 -47.5 -115 -47.5
s-82.834 15.833 -114.501 47.5s-47.5 69.834 -47.5 114.501s15.833 82.834 47.5 114.501s69.834 47.5 114.501 47.5s83 -15.833 115 -47.5s48 -69.834 48 -114.501zM1048 1874c0 -44.667 -16 -82.834 -48 -114.501s-70.333 -47.5 -115 -47.5s-82.834 15.833 -114.501 47.5
s-47.5 69.834 -47.5 114.501s15.833 82.834 47.5 114.501s69.834 47.5 114.501 47.5s83 -15.833 115 -47.5s48 -69.834 48 -114.501z" />
    <glyph glyph-name="Egrave" unicode="&#xc8;" horiz-adv-x="836" 
d="M698 1962c38.667 -36.667 49 -68 31 -94l-45 -71c-13.333 -26 -40 -33.333 -80 -22l-335 197c-32.667 20 -40.667 43.667 -24 71l77 126c17.333 26 48 24.667 92 -4zM374 743l-0.000976562 -213.998c2 -52 13.333 -92 34 -120s50.334 -45 89.001 -51
s129.667 -10.667 273 -14c26.667 -5.33301 40 -29 40 -71v-205c0 -45.333 -25 -68 -75 -68c-216.667 0 -357.167 14.833 -421.5 44.5s-120.666 75.834 -168.999 138.501s-79.5 120.167 -93.5 172.5s-21.667 96.833 -23 133.5v749c1.33301 36.667 9 81.167 23 133.5
s45.167 109.5 93.5 171.5s104.666 107.833 168.999 137.5s204.833 44.5 421.5 44.5c50 0 75 -22.333 75 -67v-205c0 -42 -13.333 -65.333 -40 -70c-143.333 -4 -234.333 -8.83301 -273 -14.5s-68.334 -22.334 -89.001 -50.001s-32 -67.834 -34 -120.501v-109h340
c62.667 1.33301 93.667 -16.334 93 -53.001v-238c0.666992 -36.667 -22.666 -55 -69.999 -55h-363z" />
    <glyph glyph-name="Eacute" unicode="&#xc9;" horiz-adv-x="836" 
d="M374 743l-0.000976562 -213.998c2 -52 13.333 -92 34 -120s50.334 -45 89.001 -51s129.667 -10.667 273 -14c26.667 -5.33301 40 -29 40 -71v-205c0 -45.333 -25 -68 -75 -68c-216.667 0 -357.167 14.833 -421.5 44.5s-120.666 75.834 -168.999 138.501
s-79.5 120.167 -93.5 172.5s-21.667 96.833 -23 133.5v749c1.33301 36.667 9 81.167 23 133.5s45.167 109.5 93.5 171.5s104.666 107.833 168.999 137.5s204.833 44.5 421.5 44.5c50 0 75 -22.333 75 -67v-205c0 -42 -13.333 -65.333 -40 -70
c-143.333 -4 -234.333 -8.83301 -273 -14.5s-68.334 -22.334 -89.001 -50.001s-32 -67.834 -34 -120.501v-109h340c62.667 1.33301 93.667 -16.334 93 -53.001v-238c0.666992 -36.667 -22.666 -55 -69.999 -55h-363zM619.999 2158c44 28.667 74.667 30 92 4l77 -126
c16.667 -27.333 8.66699 -51 -24 -71l-335 -197c-40 -11.333 -66.667 -4 -80 22l-45 71c-18 26 -7.66699 57.333 31 94z" />
    <glyph glyph-name="Ecircumflex" unicode="&#xca;" horiz-adv-x="835" 
d="M809 1958c35.333 -38 44.6689 -69.667 28.002 -95l-42 -72c-13.333 -26 -38.333 -32.333 -75 -19l-219 150l-219 -150c-36 -13.333 -61 -7 -75 19l-42 72c-16.667 25.333 -7.33398 57 27.999 95l257 213c20 8.66699 37 12 51 10c14 2 31 -1.33301 51 -10l34 -28
c3.33301 -2.66699 6.66602 -5 9.99902 -7v-1zM374.003 743l-0.000976562 -213.998c2 -52 13.333 -92 34 -120s50.334 -45 89.001 -51s129.667 -10.667 273 -14c26.667 -5.33301 40 -29 40 -71v-205c0 -45.333 -25 -68 -75 -68c-216.667 0 -357.167 14.833 -421.5 44.5
s-120.666 75.834 -168.999 138.501s-79.5 120.167 -93.5 172.5s-21.667 96.833 -23 133.5v749c1.33301 36.667 9 81.167 23 133.5s45.167 109.5 93.5 171.5s104.666 107.833 168.999 137.5s204.833 44.5 421.5 44.5c50 0 75 -22.333 75 -67v-205
c0 -42 -13.333 -65.333 -40 -70c-143.333 -4 -234.333 -8.83301 -273 -14.5s-68.334 -22.334 -89.001 -50.001s-32 -67.834 -34 -120.501v-109h340c62.667 1.33301 93.667 -16.334 93 -53.001v-238c0.666992 -36.667 -22.666 -55 -69.999 -55h-363z" />
    <glyph glyph-name="Igrave" unicode="&#xcc;" horiz-adv-x="432" 
d="M341 1962c38.667 -36.667 49 -68 31 -94l-45 -71c-13.333 -26 -40 -33.333 -80 -22l-335 197c-32.667 20 -40.667 43.667 -24 71l77 126c17.333 26 48 24.667 92 -4zM30 1622c-1.33301 62.667 16.334 93.665 53.001 92.998h238c36.667 0.666992 55 -22.666 55 -69.999
v-1572c0 -47.333 -18.333 -70.666 -55 -69.999h-238c-36.667 -0.666992 -54.334 30.333 -53.001 93v1526z" />
    <glyph glyph-name="Iacute" unicode="&#xcd;" horiz-adv-x="432" 
d="M30 1622c-1.33301 62.667 16.334 93.665 53.001 92.998h238c36.667 0.666992 55 -22.666 55 -69.999v-1572c0 -47.333 -18.333 -70.666 -55 -69.999h-238c-36.667 -0.666992 -54.334 30.333 -53.001 93v1526zM321 2158c44 28.667 74.667 30 92 4l77 -126
c16.667 -27.333 8.66699 -51 -24 -71l-335 -197c-40 -11.333 -66.667 -4 -80 22l-45 71c-18 26 -7.66699 57.333 31 94z" />
    <glyph glyph-name="Ntilde" unicode="&#xd1;" 
d="M630 1716c66.667 -3.33301 123.666 -11 170.999 -23c56.667 -14.667 111.334 -38 164.001 -70c38 -20.667 86.333 -65 145 -133c34.667 -49.333 60.667 -96.333 78 -141c28.667 -70 43 -161.333 43 -274v-1015c0 -28.667 -16.667 -48.667 -50 -60h-242
c-34 0 -53 21 -57 63v1040c0 153.333 -63 245.333 -189 276c-10.667 3.33301 -30.667 5 -60 5c-108 0 -183.333 -49.333 -226 -148c-6.66699 -25.333 -12.667 -56.333 -18 -93v-1058c0 -56.667 -20 -85 -60 -85h-236c-20 0 -36.667 12.667 -50 38c-2 6 -3 12.667 -3 20v1070
c0 196.667 79.667 355.667 239 477c107.333 72 218.666 108 333.999 108v-2c8.66699 3.33301 14.334 5 17.001 5zM1023 1987c4.66699 -172 -69.999 -262.332 -223.999 -270.999c-21.333 0 -45.833 3.16699 -73.5 9.5s-69.167 21.5 -124.5 45.5
c-68.667 30.667 -118.334 46 -149.001 46c-70 0 -142.333 -32.667 -217 -98c3.33301 173.333 80.333 263.666 231 270.999c21.333 0 45.333 -3.33301 72 -10s66.667 -21.667 120 -45c70.667 -31.333 122.667 -47 156 -47c62 0 131.667 33 209 99z" />
    <glyph glyph-name="Ograve" unicode="&#xd2;" 
d="M838 1962c38.667 -36.667 49 -68 31 -94l-45 -71c-13.333 -26 -40 -33.333 -80 -22l-335 197c-32.667 20 -40.667 43.667 -24 71l77 126c17.333 26 48 24.667 92 -4zM40 1128c0 196.667 79.667 355.67 239 477.003c107.333 72 218.666 108 333.999 108v-2
c8.66699 3.33301 14.334 5 17.001 5c66.667 -3.33301 123.667 -11 171 -23c56.667 -14.667 111.334 -38 164.001 -70c38 -20.667 86.333 -65 145 -133c34.667 -49.333 60.667 -96.333 78 -141c28.667 -70 43 -161.333 43 -274v-432
c0 -112.667 -14.333 -204.334 -43 -275.001c-17.333 -44 -43.333 -90.667 -78 -140c-58.667 -68.667 -107 -113.334 -145 -134.001c-52.667 -32 -107.334 -55.333 -164.001 -70c-47.333 -12 -104.333 -19.667 -171 -23c-2.66699 0 -8.33398 1.66699 -17.001 5v-2
c-115.333 0 -226.666 36 -333.999 108c-159.333 121.333 -239 280.666 -239 477.999v538zM882 1103c0 153.333 -63 245.334 -189 276.001c-10.667 3.33301 -30.667 5 -60 5c-108 0 -183.333 -49.333 -226 -148c-6.66699 -25.333 -12.667 -56.333 -18 -93v-568
c5.33301 -37.333 11.333 -68.333 18 -93c42.667 -99.333 118 -149 226 -149c29.333 0 49.333 1.66699 60 5c126 31.333 189 123.666 189 276.999v488z" />
    <glyph glyph-name="Oacute" unicode="&#xd3;" 
d="M40 1128c0 196.667 79.667 355.67 239 477.003c107.333 72 218.666 108 333.999 108v-2c8.66699 3.33301 14.334 5 17.001 5c66.667 -3.33301 123.667 -11 171 -23c56.667 -14.667 111.334 -38 164.001 -70c38 -20.667 86.333 -65 145 -133
c34.667 -49.333 60.667 -96.333 78 -141c28.667 -70 43 -161.333 43 -274v-432c0 -112.667 -14.333 -204.334 -43 -275.001c-17.333 -44 -43.333 -90.667 -78 -140c-58.667 -68.667 -107 -113.334 -145 -134.001c-52.667 -32 -107.334 -55.333 -164.001 -70
c-47.333 -12 -104.333 -19.667 -171 -23c-2.66699 0 -8.33398 1.66699 -17.001 5v-2c-115.333 0 -226.666 36 -333.999 108c-159.333 121.333 -239 280.666 -239 477.999v538zM882 1103c0 153.333 -63 245.334 -189 276.001c-10.667 3.33301 -30.667 5 -60 5
c-108 0 -183.333 -49.333 -226 -148c-6.66699 -25.333 -12.667 -56.333 -18 -93v-568c5.33301 -37.333 11.333 -68.333 18 -93c42.667 -99.333 118 -149 226 -149c29.333 0 49.333 1.66699 60 5c126 31.333 189 123.666 189 276.999v488zM735 2158c44 28.667 74.667 30 92 4
l77 -126c16.667 -27.333 8.66699 -51 -24 -71l-335 -197c-40 -11.333 -66.667 -4 -80 22l-45 71c-18 26 -7.66699 57.333 31 94z" />
    <glyph glyph-name="Ocircumflex" unicode="&#xd4;" 
d="M40 1128c0 196.667 79.667 355.67 239 477.003c107.333 72 218.666 108 333.999 108v-2c8.66699 3.33301 14.334 5 17.001 5c66.667 -3.33301 123.667 -11 171 -23c56.667 -14.667 111.334 -38 164.001 -70c38 -20.667 86.333 -65 145 -133
c34.667 -49.333 60.667 -96.333 78 -141c28.667 -70 43 -161.333 43 -274v-432c0 -112.667 -14.333 -204.334 -43 -275.001c-17.333 -44 -43.333 -90.667 -78 -140c-58.667 -68.667 -107 -113.334 -145 -134.001c-52.667 -32 -107.334 -55.333 -164.001 -70
c-47.333 -12 -104.333 -19.667 -171 -23c-2.66699 0 -8.33398 1.66699 -17.001 5v-2c-115.333 0 -226.666 36 -333.999 108c-159.333 121.333 -239 280.666 -239 477.999v538zM882 1103c0 153.333 -63 245.334 -189 276.001c-10.667 3.33301 -30.667 5 -60 5
c-108 0 -183.333 -49.333 -226 -148c-6.66699 -25.333 -12.667 -56.333 -18 -93v-568c5.33301 -37.333 11.333 -68.333 18 -93c42.667 -99.333 118 -149 226 -149c29.333 0 49.333 1.66699 60 5c126 31.333 189 123.666 189 276.999v488zM944 1958
c35.333 -38 44.6689 -69.667 28.002 -95l-42 -72c-13.333 -26 -38.333 -32.333 -75 -19l-219 150l-219 -150c-36 -13.333 -61 -7 -75 19l-42 72c-16.667 25.333 -7.33398 57 27.999 95l257 213c20 8.66699 37 12 51 10c14 2 31 -1.33301 51 -10l34 -28
c3.33301 -2.66699 6.66602 -5 9.99902 -7v-1z" />
    <glyph glyph-name="Otilde" unicode="&#xd5;" 
d="M419 1800c-0.666992 -0.666992 -1.66895 -1.33496 -3.00195 -2.00195v-1h-1c-20.667 -15.333 -39.334 -16 -56.001 -2l-49 42c-20 14.667 -22 40.334 -6 77.001l1 -2c30.667 47.333 61.334 87 92.001 119c39.333 40 80 60 122 60c40.667 0 85.334 -17.667 134.001 -53
c52.667 -37.333 89.667 -56.666 111 -57.999c28 0 67.667 30.333 119 91l4 -4c18.667 13.333 36.334 14.333 53.001 3l52 -42c22 -14 25.333 -40.333 10 -79l-2 1c-91.333 -116 -170 -172 -236 -168c-26 -8 -71 8.66699 -135 50c-48 36.667 -83 55 -105 55
s-57.333 -29 -106 -87h1zM39.998 1128c0 196.667 79.667 355.67 239 477.003c107.333 72 218.666 108 333.999 108v-2c8.66699 3.33301 14.334 5 17.001 5c66.667 -3.33301 123.667 -11 171 -23c56.667 -14.667 111.334 -38 164.001 -70c38 -20.667 86.333 -65 145 -133
c34.667 -49.333 60.667 -96.333 78 -141c28.667 -70 43 -161.333 43 -274v-432c0 -112.667 -14.333 -204.334 -43 -275.001c-17.333 -44 -43.333 -90.667 -78 -140c-58.667 -68.667 -107 -113.334 -145 -134.001c-52.667 -32 -107.334 -55.333 -164.001 -70
c-47.333 -12 -104.333 -19.667 -171 -23c-2.66699 0 -8.33398 1.66699 -17.001 5v-2c-115.333 0 -226.666 36 -333.999 108c-159.333 121.333 -239 280.666 -239 477.999v538zM881.998 1103c0 153.333 -63 245.334 -189 276.001c-10.667 3.33301 -30.667 5 -60 5
c-108 0 -183.333 -49.333 -226 -148c-6.66699 -25.333 -12.667 -56.333 -18 -93v-568c5.33301 -37.333 11.333 -68.333 18 -93c42.667 -99.333 118 -149 226 -149c29.333 0 49.333 1.66699 60 5c126 31.333 189 123.666 189 276.999v488z" />
    <glyph glyph-name="Odieresis" unicode="&#xd6;" 
d="M40 1128c0 196.667 79.667 355.67 239 477.003c107.333 72 218.666 108 333.999 108v-2c8.66699 3.33301 14.334 5 17.001 5c66.667 -3.33301 123.667 -11 171 -23c56.667 -14.667 111.334 -38 164.001 -70c38 -20.667 86.333 -65 145 -133
c34.667 -49.333 60.667 -96.333 78 -141c28.667 -70 43 -161.333 43 -274v-432c0 -112.667 -14.333 -204.334 -43 -275.001c-17.333 -44 -43.333 -90.667 -78 -140c-58.667 -68.667 -107 -113.334 -145 -134.001c-52.667 -32 -107.334 -55.333 -164.001 -70
c-47.333 -12 -104.333 -19.667 -171 -23c-2.66699 0 -8.33398 1.66699 -17.001 5v-2c-115.333 0 -226.666 36 -333.999 108c-159.333 121.333 -239 280.666 -239 477.999v538zM882 1103c0 153.333 -63 245.334 -189 276.001c-10.667 3.33301 -30.667 5 -60 5
c-108 0 -183.333 -49.333 -226 -148c-6.66699 -25.333 -12.667 -56.333 -18 -93v-568c5.33301 -37.333 11.333 -68.333 18 -93c42.667 -99.333 118 -149 226 -149c29.333 0 49.333 1.66699 60 5c126 31.333 189 123.666 189 276.999v488zM548 1874
c0 -44.667 -16 -82.834 -48 -114.501s-70.333 -47.5 -115 -47.5s-82.834 15.833 -114.501 47.5s-47.5 69.834 -47.5 114.501s15.833 82.834 47.5 114.501s69.834 47.5 114.501 47.5s83 -15.833 115 -47.5s48 -69.834 48 -114.501zM1048 1874
c0 -44.667 -16 -82.834 -48 -114.501s-70.333 -47.5 -115 -47.5s-82.834 15.833 -114.501 47.5s-47.5 69.834 -47.5 114.501s15.833 82.834 47.5 114.501s69.834 47.5 114.501 47.5s83 -15.833 115 -47.5s48 -69.834 48 -114.501z" />
    <glyph glyph-name="Ugrave" unicode="&#xd9;" horiz-adv-x="1290" 
d="M807 1962c38.667 -36.667 49 -68 31 -94l-45 -71c-13.333 -26 -40 -33.333 -80 -22l-335 197c-32.667 20 -40.667 43.667 -24 71l77 126c17.333 26 48 24.667 92 -4zM645 3c-66 3.33301 -122.667 11 -170 23c-56.667 14.667 -111.334 38 -164.001 70
c-38 20.667 -86.333 65 -145 133c-35.333 49.333 -61.333 96.333 -78 141c-28.667 70 -43 161.333 -43 274v1015c0 28.667 16.667 48.667 50 60h241c34 0 53.333 -21 58 -63v-1040c0 -153.333 63 -245.333 189 -276c10.667 -3.33301 30.667 -5 60 -5
c108 0 183.333 49.333 226 148c6.66699 25.333 12.667 56.333 18 93v1058c0 56.667 20 85 60 85h236c20 0 36.667 -12.667 50 -38c2 -6 3 -12.667 3 -20v-1070c0 -196.667 -79.667 -356 -239 -478c-107.333 -72 -218.666 -108 -333.999 -108v3
c-8.66699 -3.33301 -14.667 -5 -18 -5z" />
    <glyph glyph-name="Uacute" unicode="&#xda;" horiz-adv-x="1290" 
d="M645 3c-66 3.33301 -122.667 11 -170 23c-56.667 14.667 -111.334 38 -164.001 70c-38 20.667 -86.333 65 -145 133c-35.333 49.333 -61.333 96.333 -78 141c-28.667 70 -43 161.333 -43 274v1015c0 28.667 16.667 48.667 50 60h241c34 0 53.333 -21 58 -63v-1040
c0 -153.333 63 -245.333 189 -276c10.667 -3.33301 30.667 -5 60 -5c108 0 183.333 49.333 226 148c6.66699 25.333 12.667 56.333 18 93v1058c0 56.667 20 85 60 85h236c20 0 36.667 -12.667 50 -38c2 -6 3 -12.667 3 -20v-1070c0 -196.667 -79.667 -356 -239 -478
c-107.333 -72 -218.666 -108 -333.999 -108v3c-8.66699 -3.33301 -14.667 -5 -18 -5zM767 2158c44 28.667 74.667 30 92 4l77 -126c16.667 -27.333 8.66699 -51 -24 -71l-335 -197c-40 -11.333 -66.667 -4 -80 22l-45 71c-18 26 -7.66699 57.333 31 94z" />
    <glyph glyph-name="Udieresis" unicode="&#xdc;" horiz-adv-x="1290" 
d="M645 3c-66 3.33301 -122.667 11 -170 23c-56.667 14.667 -111.334 38 -164.001 70c-38 20.667 -86.333 65 -145 133c-35.333 49.333 -61.333 96.333 -78 141c-28.667 70 -43 161.333 -43 274v1015c0 28.667 16.667 48.667 50 60h241c34 0 53.333 -21 58 -63v-1040
c0 -153.333 63 -245.333 189 -276c10.667 -3.33301 30.667 -5 60 -5c108 0 183.333 49.333 226 148c6.66699 25.333 12.667 56.333 18 93v1058c0 56.667 20 85 60 85h236c20 0 36.667 -12.667 50 -38c2 -6 3 -12.667 3 -20v-1070c0 -196.667 -79.667 -356 -239 -478
c-107.333 -72 -218.666 -108 -333.999 -108v3c-8.66699 -3.33301 -14.667 -5 -18 -5zM561 1899c0 -45.333 -15.833 -83.833 -47.5 -115.5s-70.167 -47.5 -115.5 -47.5c-44.667 0 -82.834 15.833 -114.501 47.5s-47.5 70.167 -47.5 115.5
c0 44.667 15.833 82.834 47.5 114.501s69.834 47.5 114.501 47.5c45.333 0 83.833 -15.833 115.5 -47.5s47.5 -69.834 47.5 -114.501zM1061 1899c0 -45.333 -15.833 -83.833 -47.5 -115.5s-70.167 -47.5 -115.5 -47.5c-44.667 0 -82.834 15.833 -114.501 47.5
s-47.5 70.167 -47.5 115.5c0 44.667 15.833 82.834 47.5 114.501s69.834 47.5 114.501 47.5c45.333 0 83.833 -15.833 115.5 -47.5s47.5 -69.834 47.5 -114.501z" />
    <glyph glyph-name="Yacute" unicode="&#xdd;" horiz-adv-x="1223" 
d="M741 2158c44 28.667 74.667 30 92 4l77 -126c16.667 -27.333 8.66699 -51 -24 -71l-335 -197c-40 -11.333 -66.667 -4 -80 22l-45 71c-18 26 -7.66699 57.333 31 94zM431 854l-372.998 767.999c-22.667 62.667 -15.334 93.667 21.999 93h238
c36 0.666992 63.667 -22.666 83 -69.999l204 -429l203 429c19.333 47.333 47 70.666 83 69.999h238c36.667 0.666992 43.667 -30.333 21 -93l-373 -769v-787c0 -47.333 -18.333 -70.666 -55 -69.999h-238c-36.667 -0.666992 -54.334 30.333 -53.001 93v765z" />
    <glyph glyph-name="germandbls" unicode="&#xdf;" horiz-adv-x="1362" 
d="M631 1726c8.66699 0 16.332 -0.667969 22.999 -2.00098c196 -3.33301 321.667 -17.666 377 -42.999c64 -30 120.167 -76 168.5 -138s79.5 -119.167 93.5 -171.5s21.667 -96.833 23 -133.5v-749c-1.33301 -36.667 -9 -81.167 -23 -133.5s-45.167 -109.833 -93.5 -172.5
s-104.666 -108.834 -168.999 -138.501s-224.833 -44.5 -481.5 -44.5c-50 0 -75 22.667 -75 68v205c0 42 13.333 65.667 40 71c183.333 3.33301 294.333 8 333 14s68.334 23 89.001 51s32 68 34 120v214h-423c-47.333 0 -70.666 18.333 -69.999 55v238
c-0.666992 36.667 30.333 54.334 93 53.001h400v109c-2 52.667 -13.333 92.834 -34 120.501s-50.334 44.5 -89.001 50.5c-29.333 4 -100.666 7.66699 -213.999 11c-54.667 -3.33301 -98.334 -7.33301 -131.001 -12c-38.667 -6 -68.167 -23 -88.5 -51
s-31.5 -68.333 -33.5 -121v-1125c0 -48 -18.333 -71.667 -55 -71h-238c-36.667 0 -54.334 31 -53.001 93v1144c1.33301 36.667 8.83301 81.167 22.5 133.5s44.834 109.666 93.501 171.999s105 108.5 169 138.5c46.667 22 115 36 205 42c7.33301 1.33301 15.666 2 24.999 2
h19c20 0.666992 41 1 63 1z" />
    <glyph glyph-name="agrave" unicode="&#xe0;" 
d="M842 1962c38.667 -36.667 49 -68 31 -94l-45 -71c-13.333 -26 -40 -33.333 -80 -22l-335 197c-32.667 20 -40.667 43.667 -24 71l77 126c17.333 26 48 24.667 92 -4zM389 707l-0.000976562 -622c0 -56.667 -20 -85 -60 -85h-236c-20 0 -36.667 12.667 -50 38
c-2 6 -3 12.667 -3 20v1070c0 196.667 79.667 355.667 239 477c107.333 72 218.666 108 333.999 108v-2c8.66699 3.33301 14.334 5 17.001 5c66.667 -3.33301 123.667 -11 171 -23c56.667 -14.667 111.334 -38 164.001 -70c38 -20.667 86.333 -65 145 -133
c34.667 -49.333 60.667 -96.333 78 -141c28.667 -70 43 -161.333 43 -274v-1015c0 -28.667 -16.667 -48.667 -50 -60h-242c-34 0 -53 21 -57 63v644h-493zM881.999 1026v77c0 153.333 -63 245.333 -189 276c-10.667 3.33301 -30.667 5 -60 5
c-108 0 -183.333 -49.333 -226 -148c-6.66699 -25.333 -12.667 -56.333 -18 -93v-117h493z" />
    <glyph glyph-name="aacute" unicode="&#xe1;" 
d="M389 707l-0.000976562 -622c0 -56.667 -20 -85 -60 -85h-236c-20 0 -36.667 12.667 -50 38c-2 6 -3 12.667 -3 20v1070c0 196.667 79.667 355.667 239 477c107.333 72 218.666 108 333.999 108v-2c8.66699 3.33301 14.334 5 17.001 5
c66.667 -3.33301 123.667 -11 171 -23c56.667 -14.667 111.334 -38 164.001 -70c38 -20.667 86.333 -65 145 -133c34.667 -49.333 60.667 -96.333 78 -141c28.667 -70 43 -161.333 43 -274v-1015c0 -28.667 -16.667 -48.667 -50 -60h-242c-34 0 -53 21 -57 63v644h-493z
M881.999 1026v77c0 153.333 -63 245.333 -189 276c-10.667 3.33301 -30.667 5 -60 5c-108 0 -183.333 -49.333 -226 -148c-6.66699 -25.333 -12.667 -56.333 -18 -93v-117h493zM752.999 2158c44 28.667 74.667 30 92 4l77 -126c16.667 -27.333 8.66699 -51 -24 -71
l-335 -197c-40 -11.333 -66.667 -4 -80 22l-45 71c-18 26 -7.66699 57.333 31 94z" />
    <glyph glyph-name="acircumflex" unicode="&#xe2;" 
d="M938 1958c35.333 -38 44.6689 -69.667 28.002 -95l-42 -72c-13.333 -26 -38.333 -32.333 -75 -19l-219 150l-219 -150c-36 -13.333 -61 -7 -75 19l-42 72c-16.667 25.333 -7.33398 57 27.999 95l257 213c20 8.66699 37 12 51 10c14 2 31 -1.33301 51 -10l34 -28
c3.33301 -2.66699 6.66602 -5 9.99902 -7v-1zM389.003 707l-0.000976562 -622c0 -56.667 -20 -85 -60 -85h-236c-20 0 -36.667 12.667 -50 38c-2 6 -3 12.667 -3 20v1070c0 196.667 79.667 355.667 239 477c107.333 72 218.666 108 333.999 108v-2
c8.66699 3.33301 14.334 5 17.001 5c66.667 -3.33301 123.667 -11 171 -23c56.667 -14.667 111.334 -38 164.001 -70c38 -20.667 86.333 -65 145 -133c34.667 -49.333 60.667 -96.333 78 -141c28.667 -70 43 -161.333 43 -274v-1015c0 -28.667 -16.667 -48.667 -50 -60h-242
c-34 0 -53 21 -57 63v644h-493zM882.002 1026v77c0 153.333 -63 245.333 -189 276c-10.667 3.33301 -30.667 5 -60 5c-108 0 -183.333 -49.333 -226 -148c-6.66699 -25.333 -12.667 -56.333 -18 -93v-117h493z" />
    <glyph glyph-name="atilde" unicode="&#xe3;" 
d="M433 1800c-0.666992 -0.666992 -1.66895 -1.33496 -3.00195 -2.00195v-1h-1c-20.667 -15.333 -39.334 -16 -56.001 -2l-49 42c-20 14.667 -22 40.334 -6 77.001l1 -2c30.667 47.333 61.334 87 92.001 119c39.333 40 80 60 122 60c40.667 0 85.334 -17.667 134.001 -53
c52.667 -37.333 89.667 -56.666 111 -57.999c28 0 67.667 30.333 119 91l4 -4c18.667 13.333 36.334 14.333 53.001 3l52 -42c22 -14 25.333 -40.333 10 -79l-2 1c-91.333 -116 -170 -172 -236 -168c-26 -8 -71 8.66699 -135 50c-48 36.667 -83 55 -105 55
s-57.333 -29 -106 -87h1zM388.998 706.999l-0.000976562 -622c0 -56.667 -20 -85 -60 -85h-236c-20 0 -36.667 12.667 -50 38c-2 6 -3 12.667 -3 20v1070c0 196.667 79.667 355.667 239 477c107.333 72 218.666 108 333.999 108v-2c8.66699 3.33301 14.334 5 17.001 5
c66.667 -3.33301 123.667 -11 171 -23c56.667 -14.667 111.334 -38 164.001 -70c38 -20.667 86.333 -65 145 -133c34.667 -49.333 60.667 -96.333 78 -141c28.667 -70 43 -161.333 43 -274v-1015c0 -28.667 -16.667 -48.667 -50 -60h-242c-34 0 -53 21 -57 63v644h-493z
M881.997 1026v77c0 153.333 -63 245.333 -189 276c-10.667 3.33301 -30.667 5 -60 5c-108 0 -183.333 -49.333 -226 -148c-6.66699 -25.333 -12.667 -56.333 -18 -93v-117h493z" />
    <glyph glyph-name="adieresis" unicode="&#xe4;" 
d="M389 707l-0.000976562 -622c0 -56.667 -20 -85 -60 -85h-236c-20 0 -36.667 12.667 -50 38c-2 6 -3 12.667 -3 20v1070c0 196.667 79.667 355.667 239 477c107.333 72 218.666 108 333.999 108v-2c8.66699 3.33301 14.334 5 17.001 5
c66.667 -3.33301 123.667 -11 171 -23c56.667 -14.667 111.334 -38 164.001 -70c38 -20.667 86.333 -65 145 -133c34.667 -49.333 60.667 -96.333 78 -141c28.667 -70 43 -161.333 43 -274v-1015c0 -28.667 -16.667 -48.667 -50 -60h-242c-34 0 -53 21 -57 63v644h-493z
M881.999 1026v77c0 153.333 -63 245.333 -189 276c-10.667 3.33301 -30.667 5 -60 5c-108 0 -183.333 -49.333 -226 -148c-6.66699 -25.333 -12.667 -56.333 -18 -93v-117h493zM547.999 1874c0 -44.667 -16 -82.834 -48 -114.501s-70.333 -47.5 -115 -47.5
s-82.834 15.833 -114.501 47.5s-47.5 69.834 -47.5 114.501s15.833 82.834 47.5 114.501s69.834 47.5 114.501 47.5s83 -15.833 115 -47.5s48 -69.834 48 -114.501zM1048 1874c0 -44.667 -16 -82.834 -48 -114.501s-70.333 -47.5 -115 -47.5s-82.834 15.833 -114.501 47.5
s-47.5 69.834 -47.5 114.501s15.833 82.834 47.5 114.501s69.834 47.5 114.501 47.5s83 -15.833 115 -47.5s48 -69.834 48 -114.501z" />
    <glyph glyph-name="egrave" unicode="&#xe8;" horiz-adv-x="836" 
d="M698 1962c38.667 -36.667 49 -68 31 -94l-45 -71c-13.333 -26 -40 -33.333 -80 -22l-335 197c-32.667 20 -40.667 43.667 -24 71l77 126c17.333 26 48 24.667 92 -4zM374 743l-0.000976562 -213.998c2 -52 13.333 -92 34 -120s50.334 -45 89.001 -51
s129.667 -10.667 273 -14c26.667 -5.33301 40 -29 40 -71v-205c0 -45.333 -25 -68 -75 -68c-216.667 0 -357.167 14.833 -421.5 44.5s-120.666 75.834 -168.999 138.501s-79.5 120.167 -93.5 172.5s-21.667 96.833 -23 133.5v749c1.33301 36.667 9 81.167 23 133.5
s45.167 109.5 93.5 171.5s104.666 107.833 168.999 137.5s204.833 44.5 421.5 44.5c50 0 75 -22.333 75 -67v-205c0 -42 -13.333 -65.333 -40 -70c-143.333 -4 -234.333 -8.83301 -273 -14.5s-68.334 -22.334 -89.001 -50.001s-32 -67.834 -34 -120.501v-109h340
c62.667 1.33301 93.667 -16.334 93 -53.001v-238c0.666992 -36.667 -22.666 -55 -69.999 -55h-363z" />
    <glyph glyph-name="eacute" unicode="&#xe9;" horiz-adv-x="836" 
d="M374 743l-0.000976562 -213.998c2 -52 13.333 -92 34 -120s50.334 -45 89.001 -51s129.667 -10.667 273 -14c26.667 -5.33301 40 -29 40 -71v-205c0 -45.333 -25 -68 -75 -68c-216.667 0 -357.167 14.833 -421.5 44.5s-120.666 75.834 -168.999 138.501
s-79.5 120.167 -93.5 172.5s-21.667 96.833 -23 133.5v749c1.33301 36.667 9 81.167 23 133.5s45.167 109.5 93.5 171.5s104.666 107.833 168.999 137.5s204.833 44.5 421.5 44.5c50 0 75 -22.333 75 -67v-205c0 -42 -13.333 -65.333 -40 -70
c-143.333 -4 -234.333 -8.83301 -273 -14.5s-68.334 -22.334 -89.001 -50.001s-32 -67.834 -34 -120.501v-109h340c62.667 1.33301 93.667 -16.334 93 -53.001v-238c0.666992 -36.667 -22.666 -55 -69.999 -55h-363zM619.999 2158c44 28.667 74.667 30 92 4l77 -126
c16.667 -27.333 8.66699 -51 -24 -71l-335 -197c-40 -11.333 -66.667 -4 -80 22l-45 71c-18 26 -7.66699 57.333 31 94z" />
    <glyph glyph-name="ecircumflex" unicode="&#xea;" horiz-adv-x="835" 
d="M809 1958c35.333 -38 44.6689 -69.667 28.002 -95l-42 -72c-13.333 -26 -38.333 -32.333 -75 -19l-219 150l-219 -150c-36 -13.333 -61 -7 -75 19l-42 72c-16.667 25.333 -7.33398 57 27.999 95l257 213c20 8.66699 37 12 51 10c14 2 31 -1.33301 51 -10l34 -28
c3.33301 -2.66699 6.66602 -5 9.99902 -7v-1zM374.003 743l-0.000976562 -213.998c2 -52 13.333 -92 34 -120s50.334 -45 89.001 -51s129.667 -10.667 273 -14c26.667 -5.33301 40 -29 40 -71v-205c0 -45.333 -25 -68 -75 -68c-216.667 0 -357.167 14.833 -421.5 44.5
s-120.666 75.834 -168.999 138.501s-79.5 120.167 -93.5 172.5s-21.667 96.833 -23 133.5v749c1.33301 36.667 9 81.167 23 133.5s45.167 109.5 93.5 171.5s104.666 107.833 168.999 137.5s204.833 44.5 421.5 44.5c50 0 75 -22.333 75 -67v-205
c0 -42 -13.333 -65.333 -40 -70c-143.333 -4 -234.333 -8.83301 -273 -14.5s-68.334 -22.334 -89.001 -50.001s-32 -67.834 -34 -120.501v-109h340c62.667 1.33301 93.667 -16.334 93 -53.001v-238c0.666992 -36.667 -22.666 -55 -69.999 -55h-363z" />
    <glyph glyph-name="igrave" unicode="&#xec;" horiz-adv-x="432" 
d="M341 1962c38.667 -36.667 49 -68 31 -94l-45 -71c-13.333 -26 -40 -33.333 -80 -22l-335 197c-32.667 20 -40.667 43.667 -24 71l77 126c17.333 26 48 24.667 92 -4zM30 1622c-1.33301 62.667 16.334 93.665 53.001 92.998h238c36.667 0.666992 55 -22.666 55 -69.999
v-1572c0 -47.333 -18.333 -70.666 -55 -69.999h-238c-36.667 -0.666992 -54.334 30.333 -53.001 93v1526z" />
    <glyph glyph-name="iacute" unicode="&#xed;" horiz-adv-x="432" 
d="M30 1622c-1.33301 62.667 16.334 93.665 53.001 92.998h238c36.667 0.666992 55 -22.666 55 -69.999v-1572c0 -47.333 -18.333 -70.666 -55 -69.999h-238c-36.667 -0.666992 -54.334 30.333 -53.001 93v1526zM321 2158c44 28.667 74.667 30 92 4l77 -126
c16.667 -27.333 8.66699 -51 -24 -71l-335 -197c-40 -11.333 -66.667 -4 -80 22l-45 71c-18 26 -7.66699 57.333 31 94z" />
    <glyph glyph-name="ntilde" unicode="&#xf1;" 
d="M630 1716c66.667 -3.33301 123.666 -11 170.999 -23c56.667 -14.667 111.334 -38 164.001 -70c38 -20.667 86.333 -65 145 -133c34.667 -49.333 60.667 -96.333 78 -141c28.667 -70 43 -161.333 43 -274v-1015c0 -28.667 -16.667 -48.667 -50 -60h-242
c-34 0 -53 21 -57 63v1040c0 153.333 -63 245.333 -189 276c-10.667 3.33301 -30.667 5 -60 5c-108 0 -183.333 -49.333 -226 -148c-6.66699 -25.333 -12.667 -56.333 -18 -93v-1058c0 -56.667 -20 -85 -60 -85h-236c-20 0 -36.667 12.667 -50 38c-2 6 -3 12.667 -3 20v1070
c0 196.667 79.667 355.667 239 477c107.333 72 218.666 108 333.999 108v-2c8.66699 3.33301 14.334 5 17.001 5zM1023 1987c4.66699 -172 -69.999 -262.332 -223.999 -270.999c-21.333 0 -45.833 3.16699 -73.5 9.5s-69.167 21.5 -124.5 45.5
c-68.667 30.667 -118.334 46 -149.001 46c-70 0 -142.333 -32.667 -217 -98c3.33301 173.333 80.333 263.666 231 270.999c21.333 0 45.333 -3.33301 72 -10s66.667 -21.667 120 -45c70.667 -31.333 122.667 -47 156 -47c62 0 131.667 33 209 99z" />
    <glyph glyph-name="ograve" unicode="&#xf2;" 
d="M838 1962c38.667 -36.667 49 -68 31 -94l-45 -71c-13.333 -26 -40 -33.333 -80 -22l-335 197c-32.667 20 -40.667 43.667 -24 71l77 126c17.333 26 48 24.667 92 -4zM40 1128c0 196.667 79.667 355.67 239 477.003c107.333 72 218.666 108 333.999 108v-2
c8.66699 3.33301 14.334 5 17.001 5c66.667 -3.33301 123.667 -11 171 -23c56.667 -14.667 111.334 -38 164.001 -70c38 -20.667 86.333 -65 145 -133c34.667 -49.333 60.667 -96.333 78 -141c28.667 -70 43 -161.333 43 -274v-432
c0 -112.667 -14.333 -204.334 -43 -275.001c-17.333 -44 -43.333 -90.667 -78 -140c-58.667 -68.667 -107 -113.334 -145 -134.001c-52.667 -32 -107.334 -55.333 -164.001 -70c-47.333 -12 -104.333 -19.667 -171 -23c-2.66699 0 -8.33398 1.66699 -17.001 5v-2
c-115.333 0 -226.666 36 -333.999 108c-159.333 121.333 -239 280.666 -239 477.999v538zM882 1103c0 153.333 -63 245.334 -189 276.001c-10.667 3.33301 -30.667 5 -60 5c-108 0 -183.333 -49.333 -226 -148c-6.66699 -25.333 -12.667 -56.333 -18 -93v-568
c5.33301 -37.333 11.333 -68.333 18 -93c42.667 -99.333 118 -149 226 -149c29.333 0 49.333 1.66699 60 5c126 31.333 189 123.666 189 276.999v488z" />
    <glyph glyph-name="oacute" unicode="&#xf3;" 
d="M40 1128c0 196.667 79.667 355.67 239 477.003c107.333 72 218.666 108 333.999 108v-2c8.66699 3.33301 14.334 5 17.001 5c66.667 -3.33301 123.667 -11 171 -23c56.667 -14.667 111.334 -38 164.001 -70c38 -20.667 86.333 -65 145 -133
c34.667 -49.333 60.667 -96.333 78 -141c28.667 -70 43 -161.333 43 -274v-432c0 -112.667 -14.333 -204.334 -43 -275.001c-17.333 -44 -43.333 -90.667 -78 -140c-58.667 -68.667 -107 -113.334 -145 -134.001c-52.667 -32 -107.334 -55.333 -164.001 -70
c-47.333 -12 -104.333 -19.667 -171 -23c-2.66699 0 -8.33398 1.66699 -17.001 5v-2c-115.333 0 -226.666 36 -333.999 108c-159.333 121.333 -239 280.666 -239 477.999v538zM882 1103c0 153.333 -63 245.334 -189 276.001c-10.667 3.33301 -30.667 5 -60 5
c-108 0 -183.333 -49.333 -226 -148c-6.66699 -25.333 -12.667 -56.333 -18 -93v-568c5.33301 -37.333 11.333 -68.333 18 -93c42.667 -99.333 118 -149 226 -149c29.333 0 49.333 1.66699 60 5c126 31.333 189 123.666 189 276.999v488zM735 2158c44 28.667 74.667 30 92 4
l77 -126c16.667 -27.333 8.66699 -51 -24 -71l-335 -197c-40 -11.333 -66.667 -4 -80 22l-45 71c-18 26 -7.66699 57.333 31 94z" />
    <glyph glyph-name="ocircumflex" unicode="&#xf4;" 
d="M40 1128c0 196.667 79.667 355.67 239 477.003c107.333 72 218.666 108 333.999 108v-2c8.66699 3.33301 14.334 5 17.001 5c66.667 -3.33301 123.667 -11 171 -23c56.667 -14.667 111.334 -38 164.001 -70c38 -20.667 86.333 -65 145 -133
c34.667 -49.333 60.667 -96.333 78 -141c28.667 -70 43 -161.333 43 -274v-432c0 -112.667 -14.333 -204.334 -43 -275.001c-17.333 -44 -43.333 -90.667 -78 -140c-58.667 -68.667 -107 -113.334 -145 -134.001c-52.667 -32 -107.334 -55.333 -164.001 -70
c-47.333 -12 -104.333 -19.667 -171 -23c-2.66699 0 -8.33398 1.66699 -17.001 5v-2c-115.333 0 -226.666 36 -333.999 108c-159.333 121.333 -239 280.666 -239 477.999v538zM882 1103c0 153.333 -63 245.334 -189 276.001c-10.667 3.33301 -30.667 5 -60 5
c-108 0 -183.333 -49.333 -226 -148c-6.66699 -25.333 -12.667 -56.333 -18 -93v-568c5.33301 -37.333 11.333 -68.333 18 -93c42.667 -99.333 118 -149 226 -149c29.333 0 49.333 1.66699 60 5c126 31.333 189 123.666 189 276.999v488zM944 1958
c35.333 -38 44.6689 -69.667 28.002 -95l-42 -72c-13.333 -26 -38.333 -32.333 -75 -19l-219 150l-219 -150c-36 -13.333 -61 -7 -75 19l-42 72c-16.667 25.333 -7.33398 57 27.999 95l257 213c20 8.66699 37 12 51 10c14 2 31 -1.33301 51 -10l34 -28
c3.33301 -2.66699 6.66602 -5 9.99902 -7v-1z" />
    <glyph glyph-name="otilde" unicode="&#xf5;" 
d="M419 1800c-0.666992 -0.666992 -1.66895 -1.33496 -3.00195 -2.00195v-1h-1c-20.667 -15.333 -39.334 -16 -56.001 -2l-49 42c-20 14.667 -22 40.334 -6 77.001l1 -2c30.667 47.333 61.334 87 92.001 119c39.333 40 80 60 122 60c40.667 0 85.334 -17.667 134.001 -53
c52.667 -37.333 89.667 -56.666 111 -57.999c28 0 67.667 30.333 119 91l4 -4c18.667 13.333 36.334 14.333 53.001 3l52 -42c22 -14 25.333 -40.333 10 -79l-2 1c-91.333 -116 -170 -172 -236 -168c-26 -8 -71 8.66699 -135 50c-48 36.667 -83 55 -105 55
s-57.333 -29 -106 -87h1zM39.998 1128c0 196.667 79.667 355.67 239 477.003c107.333 72 218.666 108 333.999 108v-2c8.66699 3.33301 14.334 5 17.001 5c66.667 -3.33301 123.667 -11 171 -23c56.667 -14.667 111.334 -38 164.001 -70c38 -20.667 86.333 -65 145 -133
c34.667 -49.333 60.667 -96.333 78 -141c28.667 -70 43 -161.333 43 -274v-432c0 -112.667 -14.333 -204.334 -43 -275.001c-17.333 -44 -43.333 -90.667 -78 -140c-58.667 -68.667 -107 -113.334 -145 -134.001c-52.667 -32 -107.334 -55.333 -164.001 -70
c-47.333 -12 -104.333 -19.667 -171 -23c-2.66699 0 -8.33398 1.66699 -17.001 5v-2c-115.333 0 -226.666 36 -333.999 108c-159.333 121.333 -239 280.666 -239 477.999v538zM881.998 1103c0 153.333 -63 245.334 -189 276.001c-10.667 3.33301 -30.667 5 -60 5
c-108 0 -183.333 -49.333 -226 -148c-6.66699 -25.333 -12.667 -56.333 -18 -93v-568c5.33301 -37.333 11.333 -68.333 18 -93c42.667 -99.333 118 -149 226 -149c29.333 0 49.333 1.66699 60 5c126 31.333 189 123.666 189 276.999v488z" />
    <glyph glyph-name="odieresis" unicode="&#xf6;" 
d="M40 1128c0 196.667 79.667 355.67 239 477.003c107.333 72 218.666 108 333.999 108v-2c8.66699 3.33301 14.334 5 17.001 5c66.667 -3.33301 123.667 -11 171 -23c56.667 -14.667 111.334 -38 164.001 -70c38 -20.667 86.333 -65 145 -133
c34.667 -49.333 60.667 -96.333 78 -141c28.667 -70 43 -161.333 43 -274v-432c0 -112.667 -14.333 -204.334 -43 -275.001c-17.333 -44 -43.333 -90.667 -78 -140c-58.667 -68.667 -107 -113.334 -145 -134.001c-52.667 -32 -107.334 -55.333 -164.001 -70
c-47.333 -12 -104.333 -19.667 -171 -23c-2.66699 0 -8.33398 1.66699 -17.001 5v-2c-115.333 0 -226.666 36 -333.999 108c-159.333 121.333 -239 280.666 -239 477.999v538zM882 1103c0 153.333 -63 245.334 -189 276.001c-10.667 3.33301 -30.667 5 -60 5
c-108 0 -183.333 -49.333 -226 -148c-6.66699 -25.333 -12.667 -56.333 -18 -93v-568c5.33301 -37.333 11.333 -68.333 18 -93c42.667 -99.333 118 -149 226 -149c29.333 0 49.333 1.66699 60 5c126 31.333 189 123.666 189 276.999v488zM548 1874
c0 -44.667 -16 -82.834 -48 -114.501s-70.333 -47.5 -115 -47.5s-82.834 15.833 -114.501 47.5s-47.5 69.834 -47.5 114.501s15.833 82.834 47.5 114.501s69.834 47.5 114.501 47.5s83 -15.833 115 -47.5s48 -69.834 48 -114.501zM1048 1874
c0 -44.667 -16 -82.834 -48 -114.501s-70.333 -47.5 -115 -47.5s-82.834 15.833 -114.501 47.5s-47.5 69.834 -47.5 114.501s15.833 82.834 47.5 114.501s69.834 47.5 114.501 47.5s83 -15.833 115 -47.5s48 -69.834 48 -114.501z" />
    <glyph glyph-name="ugrave" unicode="&#xf9;" horiz-adv-x="1290" 
d="M807 1962c38.667 -36.667 49 -68 31 -94l-45 -71c-13.333 -26 -40 -33.333 -80 -22l-335 197c-32.667 20 -40.667 43.667 -24 71l77 126c17.333 26 48 24.667 92 -4zM645 3c-66 3.33301 -122.667 11 -170 23c-56.667 14.667 -111.334 38 -164.001 70
c-38 20.667 -86.333 65 -145 133c-35.333 49.333 -61.333 96.333 -78 141c-28.667 70 -43 161.333 -43 274v1015c0 28.667 16.667 48.667 50 60h241c34 0 53.333 -21 58 -63v-1040c0 -153.333 63 -245.333 189 -276c10.667 -3.33301 30.667 -5 60 -5
c108 0 183.333 49.333 226 148c6.66699 25.333 12.667 56.333 18 93v1058c0 56.667 20 85 60 85h236c20 0 36.667 -12.667 50 -38c2 -6 3 -12.667 3 -20v-1070c0 -196.667 -79.667 -356 -239 -478c-107.333 -72 -218.666 -108 -333.999 -108v3
c-8.66699 -3.33301 -14.667 -5 -18 -5z" />
    <glyph glyph-name="uacute" unicode="&#xfa;" horiz-adv-x="1290" 
d="M645 3c-66 3.33301 -122.667 11 -170 23c-56.667 14.667 -111.334 38 -164.001 70c-38 20.667 -86.333 65 -145 133c-35.333 49.333 -61.333 96.333 -78 141c-28.667 70 -43 161.333 -43 274v1015c0 28.667 16.667 48.667 50 60h241c34 0 53.333 -21 58 -63v-1040
c0 -153.333 63 -245.333 189 -276c10.667 -3.33301 30.667 -5 60 -5c108 0 183.333 49.333 226 148c6.66699 25.333 12.667 56.333 18 93v1058c0 56.667 20 85 60 85h236c20 0 36.667 -12.667 50 -38c2 -6 3 -12.667 3 -20v-1070c0 -196.667 -79.667 -356 -239 -478
c-107.333 -72 -218.666 -108 -333.999 -108v3c-8.66699 -3.33301 -14.667 -5 -18 -5zM767 2158c44 28.667 74.667 30 92 4l77 -126c16.667 -27.333 8.66699 -51 -24 -71l-335 -197c-40 -11.333 -66.667 -4 -80 22l-45 71c-18 26 -7.66699 57.333 31 94z" />
    <glyph glyph-name="udieresis" unicode="&#xfc;" horiz-adv-x="1290" 
d="M645 3c-66 3.33301 -122.667 11 -170 23c-56.667 14.667 -111.334 38 -164.001 70c-38 20.667 -86.333 65 -145 133c-35.333 49.333 -61.333 96.333 -78 141c-28.667 70 -43 161.333 -43 274v1015c0 28.667 16.667 48.667 50 60h241c34 0 53.333 -21 58 -63v-1040
c0 -153.333 63 -245.333 189 -276c10.667 -3.33301 30.667 -5 60 -5c108 0 183.333 49.333 226 148c6.66699 25.333 12.667 56.333 18 93v1058c0 56.667 20 85 60 85h236c20 0 36.667 -12.667 50 -38c2 -6 3 -12.667 3 -20v-1070c0 -196.667 -79.667 -356 -239 -478
c-107.333 -72 -218.666 -108 -333.999 -108v3c-8.66699 -3.33301 -14.667 -5 -18 -5zM561 1899c0 -45.333 -15.833 -83.833 -47.5 -115.5s-70.167 -47.5 -115.5 -47.5c-44.667 0 -82.834 15.833 -114.501 47.5s-47.5 70.167 -47.5 115.5
c0 44.667 15.833 82.834 47.5 114.501s69.834 47.5 114.501 47.5c45.333 0 83.833 -15.833 115.5 -47.5s47.5 -69.834 47.5 -114.501zM1061 1899c0 -45.333 -15.833 -83.833 -47.5 -115.5s-70.167 -47.5 -115.5 -47.5c-44.667 0 -82.834 15.833 -114.501 47.5
s-47.5 70.167 -47.5 115.5c0 44.667 15.833 82.834 47.5 114.501s69.834 47.5 114.501 47.5c45.333 0 83.833 -15.833 115.5 -47.5s47.5 -69.834 47.5 -114.501z" />
    <glyph glyph-name="yacute" unicode="&#xfd;" horiz-adv-x="1223" 
d="M741 2158c44 28.667 74.667 30 92 4l77 -126c16.667 -27.333 8.66699 -51 -24 -71l-335 -197c-40 -11.333 -66.667 -4 -80 22l-45 71c-18 26 -7.66699 57.333 31 94zM431 854l-372.998 767.999c-22.667 62.667 -15.334 93.667 21.999 93h238
c36 0.666992 63.667 -22.666 83 -69.999l204 -429l203 429c19.333 47.333 47 70.666 83 69.999h238c36.667 0.666992 43.667 -30.333 21 -93l-373 -769v-787c0 -47.333 -18.333 -70.666 -55 -69.999h-238c-36.667 -0.666992 -54.334 30.333 -53.001 93v765z" />
    <glyph glyph-name="Abreve" unicode="&#x102;" 
d="M677 1973c60.667 3.33301 94.6699 27.6709 102.003 73.0039c0.666992 4 1.16699 8.16699 1.5 12.5s0.833008 8.16602 1.5 11.5c1.33301 6 2.16602 11.333 2.49902 16s0.833008 9 1.5 13c3.33301 14 16 21 38 21h117c24 0 36 -13.333 36 -40
c0 -55.333 -8.33301 -101 -25 -137s-43 -68 -79 -96c-35.333 -27.333 -67.833 -44.833 -97.5 -52.5s-54.834 -11.834 -75.501 -12.501h-113c-21.333 0.666992 -46.5 4.83398 -75.5 12.501s-61.167 25.167 -96.5 52.5s-61.333 59.166 -78 95.499s-25 82.166 -25 137.499
c0 26.667 11.667 40 35 40h117c22 0 34.667 -7 38 -21c0.666992 -3.33301 1.16699 -7.66602 1.5 -13c0.333008 -5.33301 1.16602 -10.666 2.49902 -16c0.666992 -7.33301 1.66699 -15.333 3 -24c2.66699 -22.667 12.667 -40.334 30 -53.001s41.333 -19.334 72 -20.001h66z
M389.003 707.005l-0.000976562 -622c0 -56.667 -20 -85 -60 -85h-236c-20 0 -36.667 12.667 -50 38c-2 6 -3 12.667 -3 20v1070c0 196.667 79.667 355.667 239 477c107.333 72 218.666 108 333.999 108v-2c8.66699 3.33301 14.334 5 17.001 5
c66.667 -3.33301 123.667 -11 171 -23c56.667 -14.667 111.334 -38 164.001 -70c38 -20.667 86.333 -65 145 -133c34.667 -49.333 60.667 -96.333 78 -141c28.667 -70 43 -161.333 43 -274v-1015c0 -28.667 -16.667 -48.667 -50 -60h-242c-34 0 -53 21 -57 63v644h-493z
M882.002 1026v77c0 153.333 -63 245.333 -189 276c-10.667 3.33301 -30.667 5 -60 5c-108 0 -183.333 -49.333 -226 -148c-6.66699 -25.333 -12.667 -56.333 -18 -93v-117h493z" />
    <glyph glyph-name="abreve" unicode="&#x103;" 
d="M677 1973c60.667 3.33301 94.6699 27.6709 102.003 73.0039c0.666992 4 1.16699 8.16699 1.5 12.5s0.833008 8.16602 1.5 11.5c1.33301 6 2.16602 11.333 2.49902 16s0.833008 9 1.5 13c3.33301 14 16 21 38 21h117c24 0 36 -13.333 36 -40
c0 -55.333 -8.33301 -101 -25 -137s-43 -68 -79 -96c-35.333 -27.333 -67.833 -44.833 -97.5 -52.5s-54.834 -11.834 -75.501 -12.501h-113c-21.333 0.666992 -46.5 4.83398 -75.5 12.501s-61.167 25.167 -96.5 52.5s-61.333 59.166 -78 95.499s-25 82.166 -25 137.499
c0 26.667 11.667 40 35 40h117c22 0 34.667 -7 38 -21c0.666992 -3.33301 1.16699 -7.66602 1.5 -13c0.333008 -5.33301 1.16602 -10.666 2.49902 -16c0.666992 -7.33301 1.66699 -15.333 3 -24c2.66699 -22.667 12.667 -40.334 30 -53.001s41.333 -19.334 72 -20.001h66z
M389.003 707.005l-0.000976562 -622c0 -56.667 -20 -85 -60 -85h-236c-20 0 -36.667 12.667 -50 38c-2 6 -3 12.667 -3 20v1070c0 196.667 79.667 355.667 239 477c107.333 72 218.666 108 333.999 108v-2c8.66699 3.33301 14.334 5 17.001 5
c66.667 -3.33301 123.667 -11 171 -23c56.667 -14.667 111.334 -38 164.001 -70c38 -20.667 86.333 -65 145 -133c34.667 -49.333 60.667 -96.333 78 -141c28.667 -70 43 -161.333 43 -274v-1015c0 -28.667 -16.667 -48.667 -50 -60h-242c-34 0 -53 21 -57 63v644h-493z
M882.002 1026v77c0 153.333 -63 245.333 -189 276c-10.667 3.33301 -30.667 5 -60 5c-108 0 -183.333 -49.333 -226 -148c-6.66699 -25.333 -12.667 -56.333 -18 -93v-117h493z" />
    <glyph glyph-name="Dcroat" unicode="&#x110;" 
d="M304 3l-201 0.000976562c-36.667 -0.666992 -54.334 30.333 -53.001 93v614h-64c-34 0 -51 14.333 -51 43v186c0 28.667 22.333 42.334 67 41.001h48v642c-1.33301 62.667 16.334 93.667 53.001 93h201c202.667 0.666992 304.667 1 306 1
c66.667 -3.33301 123.667 -11 171 -23c56.667 -14.667 111.334 -38 164.001 -70c38 -20.667 86.333 -65 145 -133c34.667 -49.333 60.667 -96.333 78 -141c28.667 -70 43 -161.333 43 -274v-432c0 -112.667 -14.333 -204.334 -43 -275.001
c-17.333 -44 -43.333 -90.667 -78 -140c-58.667 -68.667 -107 -113.334 -145 -134.001c-52.667 -32 -107.334 -55.333 -164.001 -70c-47.333 -12 -104.333 -19.667 -171 -23c-1.33301 0 -103.333 0.333008 -306 1v1zM396 1384l0.000976562 -403.998h199
c45.333 1.33301 67.666 -12.334 66.999 -41.001v-186c0.666992 -28.667 -16 -43 -50 -43h-216v-377h217c29.333 0 49.333 1.66699 60 5c126 31.333 189 123.666 189 276.999v488c0 153.333 -63 245.333 -189 276c-10.667 3.33301 -30.667 5 -60 5h-217z" />
    <glyph glyph-name="dcroat" unicode="&#x111;" 
d="M304 3l-201 0.000976562c-36.667 -0.666992 -54.334 30.333 -53.001 93v614h-64c-34 0 -51 14.333 -51 43v186c0 28.667 22.333 42.334 67 41.001h48v642c-1.33301 62.667 16.334 93.667 53.001 93h201c202.667 0.666992 304.667 1 306 1
c66.667 -3.33301 123.667 -11 171 -23c56.667 -14.667 111.334 -38 164.001 -70c38 -20.667 86.333 -65 145 -133c34.667 -49.333 60.667 -96.333 78 -141c28.667 -70 43 -161.333 43 -274v-432c0 -112.667 -14.333 -204.334 -43 -275.001
c-17.333 -44 -43.333 -90.667 -78 -140c-58.667 -68.667 -107 -113.334 -145 -134.001c-52.667 -32 -107.334 -55.333 -164.001 -70c-47.333 -12 -104.333 -19.667 -171 -23c-1.33301 0 -103.333 0.333008 -306 1v1zM396 1384l0.000976562 -403.998h199
c45.333 1.33301 67.666 -12.334 66.999 -41.001v-186c0.666992 -28.667 -16 -43 -50 -43h-216v-377h217c29.333 0 49.333 1.66699 60 5c126 31.333 189 123.666 189 276.999v488c0 153.333 -63 245.333 -189 276c-10.667 3.33301 -30.667 5 -60 5h-217z" />
    <glyph glyph-name="Itilde" unicode="&#x128;" horiz-adv-x="432" 
d="M-20 1800c-0.666992 -0.666992 -1.66895 -1.33496 -3.00195 -2.00195v-1h-1c-20.667 -15.333 -39.334 -16 -56.001 -2l-49 42c-20 14.667 -22 40.334 -6 77.001l1 -2c30.667 47.333 61.334 87 92.001 119c39.333 40 80 60 122 60c40.667 0 85.334 -17.667 134.001 -53
c52.667 -37.333 89.667 -56.666 111 -57.999c28 0 67.667 30.333 119 91l4 -4c18.667 13.333 36.334 14.333 53.001 3l52 -42c22 -14 25.333 -40.333 10 -79l-2 1c-91.333 -116 -170 -172 -236 -168c-26 -8 -71 8.66699 -135 50c-48 36.667 -83 55 -105 55
s-57.333 -29 -106 -87h1zM29.998 1622c-1.33301 62.667 16.334 93.665 53.001 92.998h238c36.667 0.666992 55 -22.666 55 -69.999v-1572c0 -47.333 -18.333 -70.666 -55 -69.999h-238c-36.667 -0.666992 -54.334 30.333 -53.001 93v1526z" />
    <glyph glyph-name="itilde" unicode="&#x129;" horiz-adv-x="432" 
d="M-20 1800c-0.666992 -0.666992 -1.66895 -1.33496 -3.00195 -2.00195v-1h-1c-20.667 -15.333 -39.334 -16 -56.001 -2l-49 42c-20 14.667 -22 40.334 -6 77.001l1 -2c30.667 47.333 61.334 87 92.001 119c39.333 40 80 60 122 60c40.667 0 85.334 -17.667 134.001 -53
c52.667 -37.333 89.667 -56.666 111 -57.999c28 0 67.667 30.333 119 91l4 -4c18.667 13.333 36.334 14.333 53.001 3l52 -42c22 -14 25.333 -40.333 10 -79l-2 1c-91.333 -116 -170 -172 -236 -168c-26 -8 -71 8.66699 -135 50c-48 36.667 -83 55 -105 55
s-57.333 -29 -106 -87h1zM29.998 1622c-1.33301 62.667 16.334 93.665 53.001 92.998h238c36.667 0.666992 55 -22.666 55 -69.999v-1572c0 -47.333 -18.333 -70.666 -55 -69.999h-238c-36.667 -0.666992 -54.334 30.333 -53.001 93v1526z" />
    <glyph glyph-name="Utilde" unicode="&#x168;" horiz-adv-x="1290" 
d="M432 1800c-0.666992 -0.666992 -1.66895 -1.33496 -3.00195 -2.00195v-1h-1c-20.667 -15.333 -39.334 -16 -56.001 -2l-49 42c-20 14.667 -22 40.334 -6 77.001l1 -2c30.667 47.333 61.334 87 92.001 119c39.333 40 80 60 122 60c40.667 0 85.334 -17.667 134.001 -53
c52.667 -37.333 89.667 -56.666 111 -57.999c28 0 67.667 30.333 119 91l4 -4c18.667 13.333 36.334 14.333 53.001 3l52 -42c22 -14 25.333 -40.333 10 -79l-2 1c-91.333 -116 -170 -172 -236 -168c-26 -8 -71 8.66699 -135 50c-48 36.667 -83 55 -105 55
s-57.333 -29 -106 -87h1zM644.998 2.99902c-66 3.33301 -122.667 11 -170 23c-56.667 14.667 -111.334 38 -164.001 70c-38 20.667 -86.333 65 -145 133c-35.333 49.333 -61.333 96.333 -78 141c-28.667 70 -43 161.333 -43 274v1015c0 28.667 16.667 48.667 50 60h241
c34 0 53.333 -21 58 -63v-1040c0 -153.333 63 -245.333 189 -276c10.667 -3.33301 30.667 -5 60 -5c108 0 183.333 49.333 226 148c6.66699 25.333 12.667 56.333 18 93v1058c0 56.667 20 85 60 85h236c20 0 36.667 -12.667 50 -38c2 -6 3 -12.667 3 -20v-1070
c0 -196.667 -79.667 -356 -239 -478c-107.333 -72 -218.666 -108 -333.999 -108v3c-8.66699 -3.33301 -14.667 -5 -18 -5z" />
    <glyph glyph-name="utilde" unicode="&#x169;" horiz-adv-x="1290" 
d="M432 1800c-0.666992 -0.666992 -1.66895 -1.33496 -3.00195 -2.00195v-1h-1c-20.667 -15.333 -39.334 -16 -56.001 -2l-49 42c-20 14.667 -22 40.334 -6 77.001l1 -2c30.667 47.333 61.334 87 92.001 119c39.333 40 80 60 122 60c40.667 0 85.334 -17.667 134.001 -53
c52.667 -37.333 89.667 -56.666 111 -57.999c28 0 67.667 30.333 119 91l4 -4c18.667 13.333 36.334 14.333 53.001 3l52 -42c22 -14 25.333 -40.333 10 -79l-2 1c-91.333 -116 -170 -172 -236 -168c-26 -8 -71 8.66699 -135 50c-48 36.667 -83 55 -105 55
s-57.333 -29 -106 -87h1zM644.998 2.99902c-66 3.33301 -122.667 11 -170 23c-56.667 14.667 -111.334 38 -164.001 70c-38 20.667 -86.333 65 -145 133c-35.333 49.333 -61.333 96.333 -78 141c-28.667 70 -43 161.333 -43 274v1015c0 28.667 16.667 48.667 50 60h241
c34 0 53.333 -21 58 -63v-1040c0 -153.333 63 -245.333 189 -276c10.667 -3.33301 30.667 -5 60 -5c108 0 183.333 49.333 226 148c6.66699 25.333 12.667 56.333 18 93v1058c0 56.667 20 85 60 85h236c20 0 36.667 -12.667 50 -38c2 -6 3 -12.667 3 -20v-1070
c0 -196.667 -79.667 -356 -239 -478c-107.333 -72 -218.666 -108 -333.999 -108v3c-8.66699 -3.33301 -14.667 -5 -18 -5z" />
    <glyph glyph-name="Ohorn" unicode="&#x1a0;" horiz-adv-x="1320" 
d="M40 1128c0 196.667 79.6689 355.671 239.002 477.004c107.333 72 218.666 108 333.999 108v-2c8.66699 3.33301 14.334 5 17.001 5c66.667 -3.33301 123.667 -11 171 -23c56.667 -14.667 111.334 -38 164.001 -70c11.333 -6.66699 23.666 -15.334 36.999 -26.001v183
c-2.66699 47.333 10.666 71.666 39.999 72.999h232c24 0.666992 36 -22.666 36 -69.999l-1 -282c-13.333 -34.667 -34.333 -51.667 -63 -51h-110c22 -35.333 39.333 -69 52 -101c28.667 -70 43 -161.333 43 -274v-432c0 -112.667 -14.333 -204.334 -43 -275.001
c-17.333 -44 -43.333 -90.667 -78 -140c-58.667 -68.667 -107 -113.334 -145 -134.001c-52.667 -32 -107.334 -55.333 -164.001 -70c-47.333 -12 -104.333 -19.667 -171 -23c-2.66699 0 -8.33398 1.66699 -17.001 5v-2c-115.333 0 -226.666 36 -333.999 108
c-159.333 121.333 -239 280.666 -239 477.999v538zM882.002 1103c0 153.333 -63 245.334 -189 276.001c-10.667 3.33301 -30.667 5 -60 5c-108 0 -183.333 -49.333 -226 -148c-6.66699 -25.333 -12.667 -56.333 -18 -93v-568c5.33301 -37.333 11.333 -68.333 18 -93
c42.667 -99.333 118 -149 226 -149c29.333 0 49.333 1.66699 60 5c126 31.333 189 123.666 189 276.999v488z" />
    <glyph glyph-name="ohorn" unicode="&#x1a1;" horiz-adv-x="1320" 
d="M40 1128c0 196.667 79.6689 355.671 239.002 477.004c107.333 72 218.666 108 333.999 108v-2c8.66699 3.33301 14.334 5 17.001 5c66.667 -3.33301 123.667 -11 171 -23c56.667 -14.667 111.334 -38 164.001 -70c11.333 -6.66699 23.666 -15.334 36.999 -26.001v183
c-2.66699 47.333 10.666 71.666 39.999 72.999h232c24 0.666992 36 -22.666 36 -69.999l-1 -282c-13.333 -34.667 -34.333 -51.667 -63 -51h-110c22 -35.333 39.333 -69 52 -101c28.667 -70 43 -161.333 43 -274v-432c0 -112.667 -14.333 -204.334 -43 -275.001
c-17.333 -44 -43.333 -90.667 -78 -140c-58.667 -68.667 -107 -113.334 -145 -134.001c-52.667 -32 -107.334 -55.333 -164.001 -70c-47.333 -12 -104.333 -19.667 -171 -23c-2.66699 0 -8.33398 1.66699 -17.001 5v-2c-115.333 0 -226.666 36 -333.999 108
c-159.333 121.333 -239 280.666 -239 477.999v538zM882.002 1103c0 153.333 -63 245.334 -189 276.001c-10.667 3.33301 -30.667 5 -60 5c-108 0 -183.333 -49.333 -226 -148c-6.66699 -25.333 -12.667 -56.333 -18 -93v-568c5.33301 -37.333 11.333 -68.333 18 -93
c42.667 -99.333 118 -149 226 -149c29.333 0 49.333 1.66699 60 5c126 31.333 189 123.666 189 276.999v488z" />
    <glyph glyph-name="Uhorn" unicode="&#x1af;" horiz-adv-x="1485" 
d="M645 3c-66 3.33301 -122.666 11 -169.999 23c-56.667 14.667 -111.334 38 -164.001 70c-38 20.667 -86.333 65 -145 133c-35.333 49.333 -61.333 96.333 -78 141c-28.667 70 -43 161.333 -43 274v1015c0 28.667 16.667 48.667 50 60h241c34 0 53.333 -21 58 -63v-1040
c0 -153.333 63 -245.333 189 -276c10.667 -3.33301 30.667 -5 60 -5c108 0 183.333 49.333 226 148c6.66699 25.333 12.667 56.333 18 93v1058c0 56.667 20 85 60 85h214v61c-2.66699 47.333 10.666 71.666 39.999 72.999h232c24 0.666992 36 -22.666 36 -69.999l-1 -282
c-13.333 -34.667 -34.333 -51.667 -63 -51h-169v-859c0 -196.667 -79.667 -356 -239 -478c-107.333 -72 -218.666 -108 -333.999 -108v3c-8.66699 -3.33301 -14.667 -5 -18 -5z" />
    <glyph glyph-name="uhorn" unicode="&#x1b0;" horiz-adv-x="1485" 
d="M645 3c-66 3.33301 -122.666 11 -169.999 23c-56.667 14.667 -111.334 38 -164.001 70c-38 20.667 -86.333 65 -145 133c-35.333 49.333 -61.333 96.333 -78 141c-28.667 70 -43 161.333 -43 274v1015c0 28.667 16.667 48.667 50 60h241c34 0 53.333 -21 58 -63v-1040
c0 -153.333 63 -245.333 189 -276c10.667 -3.33301 30.667 -5 60 -5c108 0 183.333 49.333 226 148c6.66699 25.333 12.667 56.333 18 93v1058c0 56.667 20 85 60 85h214v61c-2.66699 47.333 10.666 71.666 39.999 72.999h232c24 0.666992 36 -22.666 36 -69.999l-1 -282
c-13.333 -34.667 -34.333 -51.667 -63 -51h-169v-859c0 -196.667 -79.667 -356 -239 -478c-107.333 -72 -218.666 -108 -333.999 -108v3c-8.66699 -3.33301 -14.667 -5 -18 -5z" />
    <glyph glyph-name="tilde" unicode="&#x2dc;" horiz-adv-x="957" 
d="M878 1714c4.66699 -172 -69.999 -262.667 -223.999 -272c-22 0 -46.667 3.16699 -74 9.5s-68.666 21.833 -123.999 46.5c-68.667 30.667 -118.334 46 -149.001 46c-70.667 0 -143 -32.667 -217 -98c3.33301 172.667 80.333 262.667 231 270
c21.333 0 45.166 -3.16699 71.499 -9.5s66.5 -21.5 120.5 -45.5c70.667 -31.333 122.667 -47 156 -47c61.333 0 131 33.333 209 100z" />
    <glyph glyph-name="uni1EA0" unicode="&#x1ea0;" 
d="M524 -146c-2 36.667 8.00098 55.333 30.001 56h176c16.667 0.666992 25 -17 25 -53l-1 -198c-10.667 -26.667 -26.667 -40 -48 -40h-134c-24.667 0 -40.334 15 -47.001 45zM389.001 706.999l-0.000976562 -622c0 -56.667 -20 -85 -60 -85h-236
c-20 0 -36.667 12.667 -50 38c-2 6 -3 12.667 -3 20v1070c0 196.667 79.667 355.667 239 477c107.333 72 218.666 108 333.999 108v-2c8.66699 3.33301 14.334 5 17.001 5c66.667 -3.33301 123.667 -11 171 -23c56.667 -14.667 111.334 -38 164.001 -70
c38 -20.667 86.333 -65 145 -133c34.667 -49.333 60.667 -96.333 78 -141c28.667 -70 43 -161.333 43 -274v-1015c0 -28.667 -16.667 -48.667 -50 -60h-242c-34 0 -53 21 -57 63v644h-493zM882 1026v77c0 153.333 -63 245.333 -189 276c-10.667 3.33301 -30.667 5 -60 5
c-108 0 -183.333 -49.333 -226 -148c-6.66699 -25.333 -12.667 -56.333 -18 -93v-117h493z" />
    <glyph glyph-name="uni1EA1" unicode="&#x1ea1;" 
d="M524 -146c-2 36.667 8.00098 55.333 30.001 56h176c16.667 0.666992 25 -17 25 -53l-1 -198c-10.667 -26.667 -26.667 -40 -48 -40h-134c-24.667 0 -40.334 15 -47.001 45zM389.001 706.999l-0.000976562 -622c0 -56.667 -20 -85 -60 -85h-236
c-20 0 -36.667 12.667 -50 38c-2 6 -3 12.667 -3 20v1070c0 196.667 79.667 355.667 239 477c107.333 72 218.666 108 333.999 108v-2c8.66699 3.33301 14.334 5 17.001 5c66.667 -3.33301 123.667 -11 171 -23c56.667 -14.667 111.334 -38 164.001 -70
c38 -20.667 86.333 -65 145 -133c34.667 -49.333 60.667 -96.333 78 -141c28.667 -70 43 -161.333 43 -274v-1015c0 -28.667 -16.667 -48.667 -50 -60h-242c-34 0 -53 21 -57 63v644h-493zM882 1026v77c0 153.333 -63 245.333 -189 276c-10.667 3.33301 -30.667 5 -60 5
c-108 0 -183.333 -49.333 -226 -148c-6.66699 -25.333 -12.667 -56.333 -18 -93v-117h493z" />
    <glyph glyph-name="uni1EA2" unicode="&#x1ea2;" 
d="M594 1788c-34 0 -49.999 23.333 -47.999 70c0 28.667 5.83301 56.167 17.5 82.5s28.5 48.166 50.5 65.499c16.667 13.333 28.5 26.166 35.5 38.499s11.5 25.166 13.5 38.5c-5.33301 0.666992 -13.833 1 -25.5 1h-45.5h-78c-27.333 6 -41 25.333 -41 58v80
c0 38 20 57 60 57h20c6.66699 0 13.167 0.166992 19.5 0.5s12.5 0.5 18.5 0.5c90.667 0 148.667 -6.33301 174 -19c31.333 -16 55.666 -38 72.999 -66c7.33301 -12 13 -26.333 17 -43s6 -35 6 -55v-15.5c0 -6.33301 -0.333008 -12.166 -1 -17.499
c-3.33301 -28.667 -11.5 -55.667 -24.5 -81s-30.5 -47.333 -52.5 -66c-12 -10 -21.333 -19.167 -28 -27.5s-10 -15.833 -10 -22.5c0 -1.33301 0.666992 -4.66602 2 -9.99902c0 -46 -17.667 -69 -53 -69h-100zM389.001 707l-0.000976562 -622c0 -56.667 -20 -85 -60 -85h-236
c-20 0 -36.667 12.667 -50 38c-2 6 -3 12.667 -3 20v1070c0 196.667 79.667 355.667 239 477c107.333 72 218.666 108 333.999 108v-2c8.66699 3.33301 14.334 5 17.001 5c66.667 -3.33301 123.667 -11 171 -23c56.667 -14.667 111.334 -38 164.001 -70
c38 -20.667 86.333 -65 145 -133c34.667 -49.333 60.667 -96.333 78 -141c28.667 -70 43 -161.333 43 -274v-1015c0 -28.667 -16.667 -48.667 -50 -60h-242c-34 0 -53 21 -57 63v644h-493zM882 1026v77c0 153.333 -63 245.333 -189 276c-10.667 3.33301 -30.667 5 -60 5
c-108 0 -183.333 -49.333 -226 -148c-6.66699 -25.333 -12.667 -56.333 -18 -93v-117h493z" />
    <glyph glyph-name="uni1EA3" unicode="&#x1ea3;" 
d="M594 1788c-34 0 -49.999 23.333 -47.999 70c0 28.667 5.83301 56.167 17.5 82.5s28.5 48.166 50.5 65.499c16.667 13.333 28.5 26.166 35.5 38.499s11.5 25.166 13.5 38.5c-5.33301 0.666992 -13.833 1 -25.5 1h-45.5h-78c-27.333 6 -41 25.333 -41 58v80
c0 38 20 57 60 57h20c6.66699 0 13.167 0.166992 19.5 0.5s12.5 0.5 18.5 0.5c90.667 0 148.667 -6.33301 174 -19c31.333 -16 55.666 -38 72.999 -66c7.33301 -12 13 -26.333 17 -43s6 -35 6 -55v-15.5c0 -6.33301 -0.333008 -12.166 -1 -17.499
c-3.33301 -28.667 -11.5 -55.667 -24.5 -81s-30.5 -47.333 -52.5 -66c-12 -10 -21.333 -19.167 -28 -27.5s-10 -15.833 -10 -22.5c0 -1.33301 0.666992 -4.66602 2 -9.99902c0 -46 -17.667 -69 -53 -69h-100zM389.001 707l-0.000976562 -622c0 -56.667 -20 -85 -60 -85h-236
c-20 0 -36.667 12.667 -50 38c-2 6 -3 12.667 -3 20v1070c0 196.667 79.667 355.667 239 477c107.333 72 218.666 108 333.999 108v-2c8.66699 3.33301 14.334 5 17.001 5c66.667 -3.33301 123.667 -11 171 -23c56.667 -14.667 111.334 -38 164.001 -70
c38 -20.667 86.333 -65 145 -133c34.667 -49.333 60.667 -96.333 78 -141c28.667 -70 43 -161.333 43 -274v-1015c0 -28.667 -16.667 -48.667 -50 -60h-242c-34 0 -53 21 -57 63v644h-493zM882 1026v77c0 153.333 -63 245.333 -189 276c-10.667 3.33301 -30.667 5 -60 5
c-108 0 -183.333 -49.333 -226 -148c-6.66699 -25.333 -12.667 -56.333 -18 -93v-117h493z" />
    <glyph glyph-name="uni1EA4" unicode="&#x1ea4;" 
d="M938 1958c35.333 -38 44.6689 -69.667 28.002 -95l-42 -72c-13.333 -26 -38.333 -32.333 -75 -19l-219 150l-219 -150c-36 -13.333 -61 -7 -75 19l-42 72c-16.667 25.333 -7.33398 57 27.999 95l257 213c20 8.66699 37 12 51 10c14 2 31 -1.33301 51 -10l34 -28
c3.33301 -2.66699 6.66602 -5 9.99902 -7v-1zM389.003 707l-0.000976562 -622c0 -56.667 -20 -85 -60 -85h-236c-20 0 -36.667 12.667 -50 38c-2 6 -3 12.667 -3 20v1070c0 196.667 79.667 355.667 239 477c107.333 72 218.666 108 333.999 108v-2
c8.66699 3.33301 14.334 5 17.001 5c66.667 -3.33301 123.667 -11 171 -23c56.667 -14.667 111.334 -38 164.001 -70c38 -20.667 86.333 -65 145 -133c34.667 -49.333 60.667 -96.333 78 -141c28.667 -70 43 -161.333 43 -274v-1015c0 -28.667 -16.667 -48.667 -50 -60h-242
c-34 0 -53 21 -57 63v644h-493zM882.002 1026v77c0 153.333 -63 245.333 -189 276c-10.667 3.33301 -30.667 5 -60 5c-108 0 -183.333 -49.333 -226 -148c-6.66699 -25.333 -12.667 -56.333 -18 -93v-117h493zM1147 2464c44 28.667 74.667 30 92 4l77 -126
c16.667 -27.333 8.66699 -51 -24 -71l-335 -197c-40 -11.333 -66.667 -4 -80 22l-45 71c-18 26 -7.66699 57.333 31 94z" />
    <glyph glyph-name="uni1EA5" unicode="&#x1ea5;" 
d="M938 1958c35.333 -38 44.6689 -69.667 28.002 -95l-42 -72c-13.333 -26 -38.333 -32.333 -75 -19l-219 150l-219 -150c-36 -13.333 -61 -7 -75 19l-42 72c-16.667 25.333 -7.33398 57 27.999 95l257 213c20 8.66699 37 12 51 10c14 2 31 -1.33301 51 -10l34 -28
c3.33301 -2.66699 6.66602 -5 9.99902 -7v-1zM389.003 707l-0.000976562 -622c0 -56.667 -20 -85 -60 -85h-236c-20 0 -36.667 12.667 -50 38c-2 6 -3 12.667 -3 20v1070c0 196.667 79.667 355.667 239 477c107.333 72 218.666 108 333.999 108v-2
c8.66699 3.33301 14.334 5 17.001 5c66.667 -3.33301 123.667 -11 171 -23c56.667 -14.667 111.334 -38 164.001 -70c38 -20.667 86.333 -65 145 -133c34.667 -49.333 60.667 -96.333 78 -141c28.667 -70 43 -161.333 43 -274v-1015c0 -28.667 -16.667 -48.667 -50 -60h-242
c-34 0 -53 21 -57 63v644h-493zM882.002 1026v77c0 153.333 -63 245.333 -189 276c-10.667 3.33301 -30.667 5 -60 5c-108 0 -183.333 -49.333 -226 -148c-6.66699 -25.333 -12.667 -56.333 -18 -93v-117h493zM1147 2464c44 28.667 74.667 30 92 4l77 -126
c16.667 -27.333 8.66699 -51 -24 -71l-335 -197c-40 -11.333 -66.667 -4 -80 22l-45 71c-18 26 -7.66699 57.333 31 94z" />
    <glyph glyph-name="uni1EA6" unicode="&#x1ea6;" 
d="M938 1958c35.333 -38 44.6689 -69.667 28.002 -95l-42 -72c-13.333 -26 -38.333 -32.333 -75 -19l-219 150l-219 -150c-36 -13.333 -61 -7 -75 19l-42 72c-16.667 25.333 -7.33398 57 27.999 95l257 213c20 8.66699 37 12 51 10c14 2 31 -1.33301 51 -10l34 -28
c3.33301 -2.66699 6.66602 -5 9.99902 -7v-1zM389.003 707l-0.000976562 -622c0 -56.667 -20 -85 -60 -85h-236c-20 0 -36.667 12.667 -50 38c-2 6 -3 12.667 -3 20v1070c0 196.667 79.667 355.667 239 477c107.333 72 218.666 108 333.999 108v-2
c8.66699 3.33301 14.334 5 17.001 5c66.667 -3.33301 123.667 -11 171 -23c56.667 -14.667 111.334 -38 164.001 -70c38 -20.667 86.333 -65 145 -133c34.667 -49.333 60.667 -96.333 78 -141c28.667 -70 43 -161.333 43 -274v-1015c0 -28.667 -16.667 -48.667 -50 -60h-242
c-34 0 -53 21 -57 63v644h-493zM882.002 1026v77c0 153.333 -63 245.333 -189 276c-10.667 3.33301 -30.667 5 -60 5c-108 0 -183.333 -49.333 -226 -148c-6.66699 -25.333 -12.667 -56.333 -18 -93v-117h493zM1100 2259c38.667 -36.667 49 -68 31 -94l-45 -71
c-13.333 -26 -40 -33.333 -80 -22l-335 197c-32.667 20 -40.667 43.667 -24 71l77 126c17.333 26 48 24.667 92 -4z" />
    <glyph glyph-name="uni1EA7" unicode="&#x1ea7;" 
d="M938 1958c35.333 -38 44.6689 -69.667 28.002 -95l-42 -72c-13.333 -26 -38.333 -32.333 -75 -19l-219 150l-219 -150c-36 -13.333 -61 -7 -75 19l-42 72c-16.667 25.333 -7.33398 57 27.999 95l257 213c20 8.66699 37 12 51 10c14 2 31 -1.33301 51 -10l34 -28
c3.33301 -2.66699 6.66602 -5 9.99902 -7v-1zM389.003 707l-0.000976562 -622c0 -56.667 -20 -85 -60 -85h-236c-20 0 -36.667 12.667 -50 38c-2 6 -3 12.667 -3 20v1070c0 196.667 79.667 355.667 239 477c107.333 72 218.666 108 333.999 108v-2
c8.66699 3.33301 14.334 5 17.001 5c66.667 -3.33301 123.667 -11 171 -23c56.667 -14.667 111.334 -38 164.001 -70c38 -20.667 86.333 -65 145 -133c34.667 -49.333 60.667 -96.333 78 -141c28.667 -70 43 -161.333 43 -274v-1015c0 -28.667 -16.667 -48.667 -50 -60h-242
c-34 0 -53 21 -57 63v644h-493zM882.002 1026v77c0 153.333 -63 245.333 -189 276c-10.667 3.33301 -30.667 5 -60 5c-108 0 -183.333 -49.333 -226 -148c-6.66699 -25.333 -12.667 -56.333 -18 -93v-117h493zM1100 2259c38.667 -36.667 49 -68 31 -94l-45 -71
c-13.333 -26 -40 -33.333 -80 -22l-335 197c-32.667 20 -40.667 43.667 -24 71l77 126c17.333 26 48 24.667 92 -4z" />
    <glyph glyph-name="uni1EA8" unicode="&#x1ea8;" 
d="M914 2062c-34 0 -49.999 23.333 -47.999 70c0 28.667 5.83301 56.167 17.5 82.5s28.5 48.166 50.5 65.5c16.667 13.333 28.5 26.166 35.5 38.5c7 12.333 11.5 25.166 13.5 38.5c-5.33301 0.666992 -13.833 1 -25.5 1h-45.5h-78c-27.333 6 -41 25.333 -41 58v80
c0 38 20 57 60 57h20c6.66699 0 13.167 0.166992 19.5 0.5s12.5 0.5 18.5 0.5c90.667 0 148.667 -6.33301 174 -19c31.333 -16 55.666 -38 72.999 -66c7.33301 -12 13 -26.333 17 -43s6 -35 6 -55v-15.5c0 -6.33301 -0.333008 -12.166 -1 -17.5
c-3.33301 -28.667 -11.5 -55.667 -24.5 -81s-30.5 -47.333 -52.5 -66c-12 -10 -21.333 -19.167 -28 -27.5s-10 -15.833 -10 -22.5c0 -1.33301 0.666992 -4.66602 2 -10c0 -46 -17.667 -69 -53 -69h-100zM938.001 1958c35.333 -38 44.6689 -69.667 28.002 -95l-42 -72
c-13.333 -26 -38.333 -32.333 -75 -19l-219 150l-219 -150c-36 -13.333 -61 -7 -75 19l-42 72c-16.667 25.333 -7.33398 57 27.999 95l257 213c20 8.66699 37 12 51 10c14 2 31 -1.33301 51 -10l34 -28c3.33301 -2.66699 6.66602 -5 9.99902 -7v-1zM389.004 707
l-0.000976562 -622c0 -56.667 -20 -85 -60 -85h-236c-20 0 -36.667 12.667 -50 38c-2 6 -3 12.667 -3 20v1070c0 196.667 79.667 355.667 239 477c107.333 72 218.666 108 333.999 108v-2c8.66699 3.33301 14.334 5 17.001 5c66.667 -3.33301 123.667 -11 171 -23
c56.667 -14.667 111.334 -38 164.001 -70c38 -20.667 86.333 -65 145 -133c34.667 -49.333 60.667 -96.333 78 -141c28.667 -70 43 -161.333 43 -274v-1015c0 -28.667 -16.667 -48.667 -50 -60h-242c-34 0 -53 21 -57 63v644h-493zM882.003 1026v77
c0 153.333 -63 245.333 -189 276c-10.667 3.33301 -30.667 5 -60 5c-108 0 -183.333 -49.333 -226 -148c-6.66699 -25.333 -12.667 -56.333 -18 -93v-117h493z" />
    <glyph glyph-name="uni1EA9" unicode="&#x1ea9;" 
d="M914 2062c-34 0 -49.999 23.333 -47.999 70c0 28.667 5.83301 56.167 17.5 82.5s28.5 48.166 50.5 65.5c16.667 13.333 28.5 26.166 35.5 38.5c7 12.333 11.5 25.166 13.5 38.5c-5.33301 0.666992 -13.833 1 -25.5 1h-45.5h-78c-27.333 6 -41 25.333 -41 58v80
c0 38 20 57 60 57h20c6.66699 0 13.167 0.166992 19.5 0.5s12.5 0.5 18.5 0.5c90.667 0 148.667 -6.33301 174 -19c31.333 -16 55.666 -38 72.999 -66c7.33301 -12 13 -26.333 17 -43s6 -35 6 -55v-15.5c0 -6.33301 -0.333008 -12.166 -1 -17.5
c-3.33301 -28.667 -11.5 -55.667 -24.5 -81s-30.5 -47.333 -52.5 -66c-12 -10 -21.333 -19.167 -28 -27.5s-10 -15.833 -10 -22.5c0 -1.33301 0.666992 -4.66602 2 -10c0 -46 -17.667 -69 -53 -69h-100zM938.001 1958c35.333 -38 44.6689 -69.667 28.002 -95l-42 -72
c-13.333 -26 -38.333 -32.333 -75 -19l-219 150l-219 -150c-36 -13.333 -61 -7 -75 19l-42 72c-16.667 25.333 -7.33398 57 27.999 95l257 213c20 8.66699 37 12 51 10c14 2 31 -1.33301 51 -10l34 -28c3.33301 -2.66699 6.66602 -5 9.99902 -7v-1zM389.004 707
l-0.000976562 -622c0 -56.667 -20 -85 -60 -85h-236c-20 0 -36.667 12.667 -50 38c-2 6 -3 12.667 -3 20v1070c0 196.667 79.667 355.667 239 477c107.333 72 218.666 108 333.999 108v-2c8.66699 3.33301 14.334 5 17.001 5c66.667 -3.33301 123.667 -11 171 -23
c56.667 -14.667 111.334 -38 164.001 -70c38 -20.667 86.333 -65 145 -133c34.667 -49.333 60.667 -96.333 78 -141c28.667 -70 43 -161.333 43 -274v-1015c0 -28.667 -16.667 -48.667 -50 -60h-242c-34 0 -53 21 -57 63v644h-493zM882.003 1026v77
c0 153.333 -63 245.333 -189 276c-10.667 3.33301 -30.667 5 -60 5c-108 0 -183.333 -49.333 -226 -148c-6.66699 -25.333 -12.667 -56.333 -18 -93v-117h493z" />
    <glyph glyph-name="uni1EAA" unicode="&#x1eaa;" 
d="M938 1958c35.333 -38 44.6689 -69.667 28.002 -95l-42 -72c-13.333 -26 -38.333 -32.333 -75 -19l-219 150l-219 -150c-36 -13.333 -61 -7 -75 19l-42 72c-16.667 25.333 -7.33398 57 27.999 95l257 213c20 8.66699 37 12 51 10c14 2 31 -1.33301 51 -10l34 -28
c3.33301 -2.66699 6.66602 -5 9.99902 -7v-1zM389.003 707l-0.000976562 -622c0 -56.667 -20 -85 -60 -85h-236c-20 0 -36.667 12.667 -50 38c-2 6 -3 12.667 -3 20v1070c0 196.667 79.667 355.667 239 477c107.333 72 218.666 108 333.999 108v-2
c8.66699 3.33301 14.334 5 17.001 5c66.667 -3.33301 123.667 -11 171 -23c56.667 -14.667 111.334 -38 164.001 -70c38 -20.667 86.333 -65 145 -133c34.667 -49.333 60.667 -96.333 78 -141c28.667 -70 43 -161.333 43 -274v-1015c0 -28.667 -16.667 -48.667 -50 -60h-242
c-34 0 -53 21 -57 63v644h-493zM882.002 1026v77c0 153.333 -63 245.333 -189 276c-10.667 3.33301 -30.667 5 -60 5c-108 0 -183.333 -49.333 -226 -148c-6.66699 -25.333 -12.667 -56.333 -18 -93v-117h493zM403.002 2242
c-0.666992 -0.666992 -1.66895 -1.33398 -3.00195 -2v-1h-1c-20.667 -15.333 -39.334 -16 -56.001 -2l-49 42c-20 14.667 -22 40.334 -6 77l1 -2c30.667 47.333 61.334 87 92.001 119c39.333 40 80 60 122 60c40.667 0 85.334 -17.667 134.001 -53
c52.667 -37.333 89.667 -56.666 111 -58c28 0 67.667 30.333 119 91l4 -4c18.667 13.333 36.334 14.333 53.001 3l52 -42c22 -14 25.333 -40.333 10 -79l-2 1c-91.333 -116 -170 -172 -236 -168c-26 -8 -71 8.66699 -135 50c-48 36.667 -83 55 -105 55s-57.333 -29 -106 -87
h1z" />
    <glyph glyph-name="uni1EAB" unicode="&#x1eab;" 
d="M938 1958c35.333 -38 44.6689 -69.667 28.002 -95l-42 -72c-13.333 -26 -38.333 -32.333 -75 -19l-219 150l-219 -150c-36 -13.333 -61 -7 -75 19l-42 72c-16.667 25.333 -7.33398 57 27.999 95l257 213c20 8.66699 37 12 51 10c14 2 31 -1.33301 51 -10l34 -28
c3.33301 -2.66699 6.66602 -5 9.99902 -7v-1zM389.003 707l-0.000976562 -622c0 -56.667 -20 -85 -60 -85h-236c-20 0 -36.667 12.667 -50 38c-2 6 -3 12.667 -3 20v1070c0 196.667 79.667 355.667 239 477c107.333 72 218.666 108 333.999 108v-2
c8.66699 3.33301 14.334 5 17.001 5c66.667 -3.33301 123.667 -11 171 -23c56.667 -14.667 111.334 -38 164.001 -70c38 -20.667 86.333 -65 145 -133c34.667 -49.333 60.667 -96.333 78 -141c28.667 -70 43 -161.333 43 -274v-1015c0 -28.667 -16.667 -48.667 -50 -60h-242
c-34 0 -53 21 -57 63v644h-493zM882.002 1026v77c0 153.333 -63 245.333 -189 276c-10.667 3.33301 -30.667 5 -60 5c-108 0 -183.333 -49.333 -226 -148c-6.66699 -25.333 -12.667 -56.333 -18 -93v-117h493zM403.002 2242
c-0.666992 -0.666992 -1.66895 -1.33398 -3.00195 -2v-1h-1c-20.667 -15.333 -39.334 -16 -56.001 -2l-49 42c-20 14.667 -22 40.334 -6 77l1 -2c30.667 47.333 61.334 87 92.001 119c39.333 40 80 60 122 60c40.667 0 85.334 -17.667 134.001 -53
c52.667 -37.333 89.667 -56.666 111 -58c28 0 67.667 30.333 119 91l4 -4c18.667 13.333 36.334 14.333 53.001 3l52 -42c22 -14 25.333 -40.333 10 -79l-2 1c-91.333 -116 -170 -172 -236 -168c-26 -8 -71 8.66699 -135 50c-48 36.667 -83 55 -105 55s-57.333 -29 -106 -87
h1z" />
    <glyph glyph-name="uni1EAC" unicode="&#x1eac;" 
d="M938 1958c35.333 -38 44.6689 -69.667 28.002 -95l-42 -72c-13.333 -26 -38.333 -32.333 -75 -19l-219 150l-219 -150c-36 -13.333 -61 -7 -75 19l-42 72c-16.667 25.333 -7.33398 57 27.999 95l257 213c20 8.66699 37 12 51 10c14 2 31 -1.33301 51 -10l34 -28
c3.33301 -2.66699 6.66602 -5 9.99902 -7v-1zM389.003 707l-0.000976562 -622c0 -56.667 -20 -85 -60 -85h-236c-20 0 -36.667 12.667 -50 38c-2 6 -3 12.667 -3 20v1070c0 196.667 79.667 355.667 239 477c107.333 72 218.666 108 333.999 108v-2
c8.66699 3.33301 14.334 5 17.001 5c66.667 -3.33301 123.667 -11 171 -23c56.667 -14.667 111.334 -38 164.001 -70c38 -20.667 86.333 -65 145 -133c34.667 -49.333 60.667 -96.333 78 -141c28.667 -70 43 -161.333 43 -274v-1015c0 -28.667 -16.667 -48.667 -50 -60h-242
c-34 0 -53 21 -57 63v644h-493zM882.002 1026v77c0 153.333 -63 245.333 -189 276c-10.667 3.33301 -30.667 5 -60 5c-108 0 -183.333 -49.333 -226 -148c-6.66699 -25.333 -12.667 -56.333 -18 -93v-117h493zM524.002 -146c-2 36.667 8.00098 55.333 30.001 56h176
c16.667 0.666992 25 -17 25 -53l-1 -198c-10.667 -26.667 -26.667 -40 -48 -40h-134c-24.667 0 -40.334 15 -47.001 45z" />
    <glyph glyph-name="uni1EAD" unicode="&#x1ead;" 
d="M938 1958c35.333 -38 44.6689 -69.667 28.002 -95l-42 -72c-13.333 -26 -38.333 -32.333 -75 -19l-219 150l-219 -150c-36 -13.333 -61 -7 -75 19l-42 72c-16.667 25.333 -7.33398 57 27.999 95l257 213c20 8.66699 37 12 51 10c14 2 31 -1.33301 51 -10l34 -28
c3.33301 -2.66699 6.66602 -5 9.99902 -7v-1zM389.003 707l-0.000976562 -622c0 -56.667 -20 -85 -60 -85h-236c-20 0 -36.667 12.667 -50 38c-2 6 -3 12.667 -3 20v1070c0 196.667 79.667 355.667 239 477c107.333 72 218.666 108 333.999 108v-2
c8.66699 3.33301 14.334 5 17.001 5c66.667 -3.33301 123.667 -11 171 -23c56.667 -14.667 111.334 -38 164.001 -70c38 -20.667 86.333 -65 145 -133c34.667 -49.333 60.667 -96.333 78 -141c28.667 -70 43 -161.333 43 -274v-1015c0 -28.667 -16.667 -48.667 -50 -60h-242
c-34 0 -53 21 -57 63v644h-493zM882.002 1026v77c0 153.333 -63 245.333 -189 276c-10.667 3.33301 -30.667 5 -60 5c-108 0 -183.333 -49.333 -226 -148c-6.66699 -25.333 -12.667 -56.333 -18 -93v-117h493zM524.002 -146c-2 36.667 8.00098 55.333 30.001 56h176
c16.667 0.666992 25 -17 25 -53l-1 -198c-10.667 -26.667 -26.667 -40 -48 -40h-134c-24.667 0 -40.334 15 -47.001 45z" />
    <glyph glyph-name="uni1EAE" unicode="&#x1eae;" 
d="M677 1973c60.667 3.33301 94.6699 27.6709 102.003 73.0039c0.666992 4 1.16699 8.16699 1.5 12.5s0.833008 8.16602 1.5 11.5c1.33301 6 2.16602 11.333 2.49902 16s0.833008 9 1.5 13c3.33301 14 16 21 38 21h117c24 0 36 -13.333 36 -40
c0 -55.333 -8.33301 -101 -25 -137s-43 -68 -79 -96c-35.333 -27.333 -67.833 -44.833 -97.5 -52.5s-54.834 -11.834 -75.501 -12.501h-113c-21.333 0.666992 -46.5 4.83398 -75.5 12.501s-61.167 25.167 -96.5 52.5s-61.333 59.166 -78 95.499s-25 82.166 -25 137.499
c0 26.667 11.667 40 35 40h117c22 0 34.667 -7 38 -21c0.666992 -3.33301 1.16699 -7.66602 1.5 -13c0.333008 -5.33301 1.16602 -10.666 2.49902 -16c0.666992 -7.33301 1.66699 -15.333 3 -24c2.66699 -22.667 12.667 -40.334 30 -53.001s41.333 -19.334 72 -20.001h66z
M389.003 707.005l-0.000976562 -622c0 -56.667 -20 -85 -60 -85h-236c-20 0 -36.667 12.667 -50 38c-2 6 -3 12.667 -3 20v1070c0 196.667 79.667 355.667 239 477c107.333 72 218.666 108 333.999 108v-2c8.66699 3.33301 14.334 5 17.001 5
c66.667 -3.33301 123.667 -11 171 -23c56.667 -14.667 111.334 -38 164.001 -70c38 -20.667 86.333 -65 145 -133c34.667 -49.333 60.667 -96.333 78 -141c28.667 -70 43 -161.333 43 -274v-1015c0 -28.667 -16.667 -48.667 -50 -60h-242c-34 0 -53 21 -57 63v644h-493z
M882.002 1026v77c0 153.333 -63 245.333 -189 276c-10.667 3.33301 -30.667 5 -60 5c-108 0 -183.333 -49.333 -226 -148c-6.66699 -25.333 -12.667 -56.333 -18 -93v-117h493zM839.002 2529c44 28.667 74.667 30 92 4l77 -126c16.667 -27.333 8.66699 -51 -24 -71
l-335 -197c-40 -11.333 -66.667 -4 -80 22l-45 71c-18 26 -7.66699 57.333 31 94z" />
    <glyph glyph-name="uni1EAF" unicode="&#x1eaf;" 
d="M677 1973c60.667 3.33301 94.6699 27.6709 102.003 73.0039c0.666992 4 1.16699 8.16699 1.5 12.5s0.833008 8.16602 1.5 11.5c1.33301 6 2.16602 11.333 2.49902 16s0.833008 9 1.5 13c3.33301 14 16 21 38 21h117c24 0 36 -13.333 36 -40
c0 -55.333 -8.33301 -101 -25 -137s-43 -68 -79 -96c-35.333 -27.333 -67.833 -44.833 -97.5 -52.5s-54.834 -11.834 -75.501 -12.501h-113c-21.333 0.666992 -46.5 4.83398 -75.5 12.501s-61.167 25.167 -96.5 52.5s-61.333 59.166 -78 95.499s-25 82.166 -25 137.499
c0 26.667 11.667 40 35 40h117c22 0 34.667 -7 38 -21c0.666992 -3.33301 1.16699 -7.66602 1.5 -13c0.333008 -5.33301 1.16602 -10.666 2.49902 -16c0.666992 -7.33301 1.66699 -15.333 3 -24c2.66699 -22.667 12.667 -40.334 30 -53.001s41.333 -19.334 72 -20.001h66z
M389.003 707.005l-0.000976562 -622c0 -56.667 -20 -85 -60 -85h-236c-20 0 -36.667 12.667 -50 38c-2 6 -3 12.667 -3 20v1070c0 196.667 79.667 355.667 239 477c107.333 72 218.666 108 333.999 108v-2c8.66699 3.33301 14.334 5 17.001 5
c66.667 -3.33301 123.667 -11 171 -23c56.667 -14.667 111.334 -38 164.001 -70c38 -20.667 86.333 -65 145 -133c34.667 -49.333 60.667 -96.333 78 -141c28.667 -70 43 -161.333 43 -274v-1015c0 -28.667 -16.667 -48.667 -50 -60h-242c-34 0 -53 21 -57 63v644h-493z
M882.002 1026v77c0 153.333 -63 245.333 -189 276c-10.667 3.33301 -30.667 5 -60 5c-108 0 -183.333 -49.333 -226 -148c-6.66699 -25.333 -12.667 -56.333 -18 -93v-117h493zM839.002 2529c44 28.667 74.667 30 92 4l77 -126c16.667 -27.333 8.66699 -51 -24 -71
l-335 -197c-40 -11.333 -66.667 -4 -80 22l-45 71c-18 26 -7.66699 57.333 31 94z" />
    <glyph glyph-name="uni1EB0" unicode="&#x1eb0;" 
d="M677 1973c60.667 3.33301 94.6699 27.6709 102.003 73.0039c0.666992 4 1.16699 8.16699 1.5 12.5s0.833008 8.16602 1.5 11.5c1.33301 6 2.16602 11.333 2.49902 16s0.833008 9 1.5 13c3.33301 14 16 21 38 21h117c24 0 36 -13.333 36 -40
c0 -55.333 -8.33301 -101 -25 -137s-43 -68 -79 -96c-35.333 -27.333 -67.833 -44.833 -97.5 -52.5s-54.834 -11.834 -75.501 -12.501h-113c-21.333 0.666992 -46.5 4.83398 -75.5 12.501s-61.167 25.167 -96.5 52.5s-61.333 59.166 -78 95.499s-25 82.166 -25 137.499
c0 26.667 11.667 40 35 40h117c22 0 34.667 -7 38 -21c0.666992 -3.33301 1.16699 -7.66602 1.5 -13c0.333008 -5.33301 1.16602 -10.666 2.49902 -16c0.666992 -7.33301 1.66699 -15.333 3 -24c2.66699 -22.667 12.667 -40.334 30 -53.001s41.333 -19.334 72 -20.001h66z
M389.003 707.005l-0.000976562 -622c0 -56.667 -20 -85 -60 -85h-236c-20 0 -36.667 12.667 -50 38c-2 6 -3 12.667 -3 20v1070c0 196.667 79.667 355.667 239 477c107.333 72 218.666 108 333.999 108v-2c8.66699 3.33301 14.334 5 17.001 5
c66.667 -3.33301 123.667 -11 171 -23c56.667 -14.667 111.334 -38 164.001 -70c38 -20.667 86.333 -65 145 -133c34.667 -49.333 60.667 -96.333 78 -141c28.667 -70 43 -161.333 43 -274v-1015c0 -28.667 -16.667 -48.667 -50 -60h-242c-34 0 -53 21 -57 63v644h-493z
M882.002 1026v77c0 153.333 -63 245.333 -189 276c-10.667 3.33301 -30.667 5 -60 5c-108 0 -183.333 -49.333 -226 -148c-6.66699 -25.333 -12.667 -56.333 -18 -93v-117h493zM744.002 2325c38.667 -36.667 49 -68 31 -94l-45 -71c-13.333 -26 -40 -33.333 -80 -22
l-335 197c-32.667 20 -40.667 43.667 -24 71l77 126c17.333 26 48 24.667 92 -4z" />
    <glyph glyph-name="uni1EB1" unicode="&#x1eb1;" 
d="M677 1973c60.667 3.33301 94.6699 27.6709 102.003 73.0039c0.666992 4 1.16699 8.16699 1.5 12.5s0.833008 8.16602 1.5 11.5c1.33301 6 2.16602 11.333 2.49902 16s0.833008 9 1.5 13c3.33301 14 16 21 38 21h117c24 0 36 -13.333 36 -40
c0 -55.333 -8.33301 -101 -25 -137s-43 -68 -79 -96c-35.333 -27.333 -67.833 -44.833 -97.5 -52.5s-54.834 -11.834 -75.501 -12.501h-113c-21.333 0.666992 -46.5 4.83398 -75.5 12.501s-61.167 25.167 -96.5 52.5s-61.333 59.166 -78 95.499s-25 82.166 -25 137.499
c0 26.667 11.667 40 35 40h117c22 0 34.667 -7 38 -21c0.666992 -3.33301 1.16699 -7.66602 1.5 -13c0.333008 -5.33301 1.16602 -10.666 2.49902 -16c0.666992 -7.33301 1.66699 -15.333 3 -24c2.66699 -22.667 12.667 -40.334 30 -53.001s41.333 -19.334 72 -20.001h66z
M389.003 707.005l-0.000976562 -622c0 -56.667 -20 -85 -60 -85h-236c-20 0 -36.667 12.667 -50 38c-2 6 -3 12.667 -3 20v1070c0 196.667 79.667 355.667 239 477c107.333 72 218.666 108 333.999 108v-2c8.66699 3.33301 14.334 5 17.001 5
c66.667 -3.33301 123.667 -11 171 -23c56.667 -14.667 111.334 -38 164.001 -70c38 -20.667 86.333 -65 145 -133c34.667 -49.333 60.667 -96.333 78 -141c28.667 -70 43 -161.333 43 -274v-1015c0 -28.667 -16.667 -48.667 -50 -60h-242c-34 0 -53 21 -57 63v644h-493z
M882.002 1026v77c0 153.333 -63 245.333 -189 276c-10.667 3.33301 -30.667 5 -60 5c-108 0 -183.333 -49.333 -226 -148c-6.66699 -25.333 -12.667 -56.333 -18 -93v-117h493zM744.002 2325c38.667 -36.667 49 -68 31 -94l-45 -71c-13.333 -26 -40 -33.333 -80 -22
l-335 197c-32.667 20 -40.667 43.667 -24 71l77 126c17.333 26 48 24.667 92 -4z" />
    <glyph glyph-name="uni1EB2" unicode="&#x1eb2;" 
d="M596 2130c-34 0 -49.999 23.333 -47.999 70c0 28.667 5.83301 56.167 17.5 82.5s28.5 48.166 50.5 65.5c16.667 13.333 28.5 26.166 35.5 38.5c7 12.333 11.5 25.166 13.5 38.5c-5.33301 0.666992 -13.833 1 -25.5 1h-45.5h-78c-27.333 6 -41 25.333 -41 58v80
c0 38 20 57 60 57h20c6.66699 0 13.167 0.166992 19.5 0.5s12.5 0.5 18.5 0.5c90.667 0 148.667 -6.33301 174 -19c31.333 -16 55.666 -38 72.999 -66c7.33301 -12 13 -26.333 17 -43s6 -35 6 -55v-15.5c0 -6.33301 -0.333008 -12.166 -1 -17.5
c-3.33301 -28.667 -11.5 -55.667 -24.5 -81s-30.5 -47.333 -52.5 -66c-12 -10 -21.333 -19.167 -28 -27.5s-10 -15.833 -10 -22.5c0 -1.33301 0.666992 -4.66602 2 -10c0 -46 -17.667 -69 -53 -69h-100zM677.001 1973c60.667 3.33301 94.6699 27.6709 102.003 73.0039
c0.666992 4 1.16699 8.16699 1.5 12.5s0.833008 8.16602 1.5 11.5c1.33301 6 2.16602 11.333 2.49902 16s0.833008 9 1.5 13c3.33301 14 16 21 38 21h117c24 0 36 -13.333 36 -40c0 -55.333 -8.33301 -101 -25 -137s-43 -68 -79 -96
c-35.333 -27.333 -67.833 -44.833 -97.5 -52.5s-54.834 -11.834 -75.501 -12.501h-113c-21.333 0.666992 -46.5 4.83398 -75.5 12.501s-61.167 25.167 -96.5 52.5s-61.333 59.166 -78 95.499s-25 82.166 -25 137.499c0 26.667 11.667 40 35 40h117c22 0 34.667 -7 38 -21
c0.666992 -3.33301 1.16699 -7.66602 1.5 -13c0.333008 -5.33301 1.16602 -10.666 2.49902 -16c0.666992 -7.33301 1.66699 -15.333 3 -24c2.66699 -22.667 12.667 -40.334 30 -53.001s41.333 -19.334 72 -20.001h66zM389.004 707.005l-0.000976562 -622
c0 -56.667 -20 -85 -60 -85h-236c-20 0 -36.667 12.667 -50 38c-2 6 -3 12.667 -3 20v1070c0 196.667 79.667 355.667 239 477c107.333 72 218.666 108 333.999 108v-2c8.66699 3.33301 14.334 5 17.001 5c66.667 -3.33301 123.667 -11 171 -23
c56.667 -14.667 111.334 -38 164.001 -70c38 -20.667 86.333 -65 145 -133c34.667 -49.333 60.667 -96.333 78 -141c28.667 -70 43 -161.333 43 -274v-1015c0 -28.667 -16.667 -48.667 -50 -60h-242c-34 0 -53 21 -57 63v644h-493zM882.003 1026v77
c0 153.333 -63 245.333 -189 276c-10.667 3.33301 -30.667 5 -60 5c-108 0 -183.333 -49.333 -226 -148c-6.66699 -25.333 -12.667 -56.333 -18 -93v-117h493z" />
    <glyph glyph-name="uni1EB3" unicode="&#x1eb3;" 
d="M596 2130c-34 0 -49.999 23.333 -47.999 70c0 28.667 5.83301 56.167 17.5 82.5s28.5 48.166 50.5 65.5c16.667 13.333 28.5 26.166 35.5 38.5c7 12.333 11.5 25.166 13.5 38.5c-5.33301 0.666992 -13.833 1 -25.5 1h-45.5h-78c-27.333 6 -41 25.333 -41 58v80
c0 38 20 57 60 57h20c6.66699 0 13.167 0.166992 19.5 0.5s12.5 0.5 18.5 0.5c90.667 0 148.667 -6.33301 174 -19c31.333 -16 55.666 -38 72.999 -66c7.33301 -12 13 -26.333 17 -43s6 -35 6 -55v-15.5c0 -6.33301 -0.333008 -12.166 -1 -17.5
c-3.33301 -28.667 -11.5 -55.667 -24.5 -81s-30.5 -47.333 -52.5 -66c-12 -10 -21.333 -19.167 -28 -27.5s-10 -15.833 -10 -22.5c0 -1.33301 0.666992 -4.66602 2 -10c0 -46 -17.667 -69 -53 -69h-100zM677.001 1973c60.667 3.33301 94.6699 27.6709 102.003 73.0039
c0.666992 4 1.16699 8.16699 1.5 12.5s0.833008 8.16602 1.5 11.5c1.33301 6 2.16602 11.333 2.49902 16s0.833008 9 1.5 13c3.33301 14 16 21 38 21h117c24 0 36 -13.333 36 -40c0 -55.333 -8.33301 -101 -25 -137s-43 -68 -79 -96
c-35.333 -27.333 -67.833 -44.833 -97.5 -52.5s-54.834 -11.834 -75.501 -12.501h-113c-21.333 0.666992 -46.5 4.83398 -75.5 12.501s-61.167 25.167 -96.5 52.5s-61.333 59.166 -78 95.499s-25 82.166 -25 137.499c0 26.667 11.667 40 35 40h117c22 0 34.667 -7 38 -21
c0.666992 -3.33301 1.16699 -7.66602 1.5 -13c0.333008 -5.33301 1.16602 -10.666 2.49902 -16c0.666992 -7.33301 1.66699 -15.333 3 -24c2.66699 -22.667 12.667 -40.334 30 -53.001s41.333 -19.334 72 -20.001h66zM389.004 707.005l-0.000976562 -622
c0 -56.667 -20 -85 -60 -85h-236c-20 0 -36.667 12.667 -50 38c-2 6 -3 12.667 -3 20v1070c0 196.667 79.667 355.667 239 477c107.333 72 218.666 108 333.999 108v-2c8.66699 3.33301 14.334 5 17.001 5c66.667 -3.33301 123.667 -11 171 -23
c56.667 -14.667 111.334 -38 164.001 -70c38 -20.667 86.333 -65 145 -133c34.667 -49.333 60.667 -96.333 78 -141c28.667 -70 43 -161.333 43 -274v-1015c0 -28.667 -16.667 -48.667 -50 -60h-242c-34 0 -53 21 -57 63v644h-493zM882.003 1026v77
c0 153.333 -63 245.333 -189 276c-10.667 3.33301 -30.667 5 -60 5c-108 0 -183.333 -49.333 -226 -148c-6.66699 -25.333 -12.667 -56.333 -18 -93v-117h493z" />
    <glyph glyph-name="uni1EB4" unicode="&#x1eb4;" 
d="M677 1973c60.667 3.33301 94.6699 27.6709 102.003 73.0039c0.666992 4 1.16699 8.16699 1.5 12.5s0.833008 8.16602 1.5 11.5c1.33301 6 2.16602 11.333 2.49902 16s0.833008 9 1.5 13c3.33301 14 16 21 38 21h117c24 0 36 -13.333 36 -40
c0 -55.333 -8.33301 -101 -25 -137s-43 -68 -79 -96c-35.333 -27.333 -67.833 -44.833 -97.5 -52.5s-54.834 -11.834 -75.501 -12.501h-113c-21.333 0.666992 -46.5 4.83398 -75.5 12.501s-61.167 25.167 -96.5 52.5s-61.333 59.166 -78 95.499s-25 82.166 -25 137.499
c0 26.667 11.667 40 35 40h117c22 0 34.667 -7 38 -21c0.666992 -3.33301 1.16699 -7.66602 1.5 -13c0.333008 -5.33301 1.16602 -10.666 2.49902 -16c0.666992 -7.33301 1.66699 -15.333 3 -24c2.66699 -22.667 12.667 -40.334 30 -53.001s41.333 -19.334 72 -20.001h66z
M389.003 707.005l-0.000976562 -622c0 -56.667 -20 -85 -60 -85h-236c-20 0 -36.667 12.667 -50 38c-2 6 -3 12.667 -3 20v1070c0 196.667 79.667 355.667 239 477c107.333 72 218.666 108 333.999 108v-2c8.66699 3.33301 14.334 5 17.001 5
c66.667 -3.33301 123.667 -11 171 -23c56.667 -14.667 111.334 -38 164.001 -70c38 -20.667 86.333 -65 145 -133c34.667 -49.333 60.667 -96.333 78 -141c28.667 -70 43 -161.333 43 -274v-1015c0 -28.667 -16.667 -48.667 -50 -60h-242c-34 0 -53 21 -57 63v644h-493z
M882.002 1026v77c0 153.333 -63 245.333 -189 276c-10.667 3.33301 -30.667 5 -60 5c-108 0 -183.333 -49.333 -226 -148c-6.66699 -25.333 -12.667 -56.333 -18 -93v-117h493zM419.002 2199c-0.666992 -0.666992 -1.66895 -1.33496 -3.00195 -2.00098v-1h-1
c-20.667 -15.333 -39.334 -16 -56.001 -2l-49 42c-20 14.667 -22 40.334 -6 77l1 -2c30.667 47.333 61.334 87 92.001 119c39.333 40 80 60 122 60c40.667 0 85.334 -17.667 134.001 -53c52.667 -37.333 89.667 -56.666 111 -57.999c28 0 67.667 30.333 119 91l4 -4
c18.667 13.333 36.334 14.333 53.001 3l52 -42c22 -14 25.333 -40.333 10 -79l-2 1c-91.333 -116 -170 -172 -236 -168c-26 -8 -71 8.66699 -135 50c-48 36.667 -83 55 -105 55s-57.333 -29 -106 -87h1z" />
    <glyph glyph-name="uni1EB5" unicode="&#x1eb5;" 
d="M677 1973c60.667 3.33301 94.6699 27.6709 102.003 73.0039c0.666992 4 1.16699 8.16699 1.5 12.5s0.833008 8.16602 1.5 11.5c1.33301 6 2.16602 11.333 2.49902 16s0.833008 9 1.5 13c3.33301 14 16 21 38 21h117c24 0 36 -13.333 36 -40
c0 -55.333 -8.33301 -101 -25 -137s-43 -68 -79 -96c-35.333 -27.333 -67.833 -44.833 -97.5 -52.5s-54.834 -11.834 -75.501 -12.501h-113c-21.333 0.666992 -46.5 4.83398 -75.5 12.501s-61.167 25.167 -96.5 52.5s-61.333 59.166 -78 95.499s-25 82.166 -25 137.499
c0 26.667 11.667 40 35 40h117c22 0 34.667 -7 38 -21c0.666992 -3.33301 1.16699 -7.66602 1.5 -13c0.333008 -5.33301 1.16602 -10.666 2.49902 -16c0.666992 -7.33301 1.66699 -15.333 3 -24c2.66699 -22.667 12.667 -40.334 30 -53.001s41.333 -19.334 72 -20.001h66z
M389.003 707.005l-0.000976562 -622c0 -56.667 -20 -85 -60 -85h-236c-20 0 -36.667 12.667 -50 38c-2 6 -3 12.667 -3 20v1070c0 196.667 79.667 355.667 239 477c107.333 72 218.666 108 333.999 108v-2c8.66699 3.33301 14.334 5 17.001 5
c66.667 -3.33301 123.667 -11 171 -23c56.667 -14.667 111.334 -38 164.001 -70c38 -20.667 86.333 -65 145 -133c34.667 -49.333 60.667 -96.333 78 -141c28.667 -70 43 -161.333 43 -274v-1015c0 -28.667 -16.667 -48.667 -50 -60h-242c-34 0 -53 21 -57 63v644h-493z
M882.002 1026v77c0 153.333 -63 245.333 -189 276c-10.667 3.33301 -30.667 5 -60 5c-108 0 -183.333 -49.333 -226 -148c-6.66699 -25.333 -12.667 -56.333 -18 -93v-117h493zM419.002 2199c-0.666992 -0.666992 -1.66895 -1.33496 -3.00195 -2.00098v-1h-1
c-20.667 -15.333 -39.334 -16 -56.001 -2l-49 42c-20 14.667 -22 40.334 -6 77l1 -2c30.667 47.333 61.334 87 92.001 119c39.333 40 80 60 122 60c40.667 0 85.334 -17.667 134.001 -53c52.667 -37.333 89.667 -56.666 111 -57.999c28 0 67.667 30.333 119 91l4 -4
c18.667 13.333 36.334 14.333 53.001 3l52 -42c22 -14 25.333 -40.333 10 -79l-2 1c-91.333 -116 -170 -172 -236 -168c-26 -8 -71 8.66699 -135 50c-48 36.667 -83 55 -105 55s-57.333 -29 -106 -87h1z" />
    <glyph glyph-name="uni1EB6" unicode="&#x1eb6;" 
d="M677 1973c60.667 3.33301 94.6699 27.6709 102.003 73.0039c0.666992 4 1.16699 8.16699 1.5 12.5s0.833008 8.16602 1.5 11.5c1.33301 6 2.16602 11.333 2.49902 16s0.833008 9 1.5 13c3.33301 14 16 21 38 21h117c24 0 36 -13.333 36 -40
c0 -55.333 -8.33301 -101 -25 -137s-43 -68 -79 -96c-35.333 -27.333 -67.833 -44.833 -97.5 -52.5s-54.834 -11.834 -75.501 -12.501h-113c-21.333 0.666992 -46.5 4.83398 -75.5 12.501s-61.167 25.167 -96.5 52.5s-61.333 59.166 -78 95.499s-25 82.166 -25 137.499
c0 26.667 11.667 40 35 40h117c22 0 34.667 -7 38 -21c0.666992 -3.33301 1.16699 -7.66602 1.5 -13c0.333008 -5.33301 1.16602 -10.666 2.49902 -16c0.666992 -7.33301 1.66699 -15.333 3 -24c2.66699 -22.667 12.667 -40.334 30 -53.001s41.333 -19.334 72 -20.001h66z
M389.003 707.005l-0.000976562 -622c0 -56.667 -20 -85 -60 -85h-236c-20 0 -36.667 12.667 -50 38c-2 6 -3 12.667 -3 20v1070c0 196.667 79.667 355.667 239 477c107.333 72 218.666 108 333.999 108v-2c8.66699 3.33301 14.334 5 17.001 5
c66.667 -3.33301 123.667 -11 171 -23c56.667 -14.667 111.334 -38 164.001 -70c38 -20.667 86.333 -65 145 -133c34.667 -49.333 60.667 -96.333 78 -141c28.667 -70 43 -161.333 43 -274v-1015c0 -28.667 -16.667 -48.667 -50 -60h-242c-34 0 -53 21 -57 63v644h-493z
M882.002 1026v77c0 153.333 -63 245.333 -189 276c-10.667 3.33301 -30.667 5 -60 5c-108 0 -183.333 -49.333 -226 -148c-6.66699 -25.333 -12.667 -56.333 -18 -93v-117h493zM524.002 -145.995c-2 36.667 8.00098 55.333 30.001 56h176c16.667 0.666992 25 -17 25 -53
l-1 -198c-10.667 -26.667 -26.667 -40 -48 -40h-134c-24.667 0 -40.334 15 -47.001 45z" />
    <glyph glyph-name="uni1EB7" unicode="&#x1eb7;" 
d="M677 1973c60.667 3.33301 94.6699 27.6709 102.003 73.0039c0.666992 4 1.16699 8.16699 1.5 12.5s0.833008 8.16602 1.5 11.5c1.33301 6 2.16602 11.333 2.49902 16s0.833008 9 1.5 13c3.33301 14 16 21 38 21h117c24 0 36 -13.333 36 -40
c0 -55.333 -8.33301 -101 -25 -137s-43 -68 -79 -96c-35.333 -27.333 -67.833 -44.833 -97.5 -52.5s-54.834 -11.834 -75.501 -12.501h-113c-21.333 0.666992 -46.5 4.83398 -75.5 12.501s-61.167 25.167 -96.5 52.5s-61.333 59.166 -78 95.499s-25 82.166 -25 137.499
c0 26.667 11.667 40 35 40h117c22 0 34.667 -7 38 -21c0.666992 -3.33301 1.16699 -7.66602 1.5 -13c0.333008 -5.33301 1.16602 -10.666 2.49902 -16c0.666992 -7.33301 1.66699 -15.333 3 -24c2.66699 -22.667 12.667 -40.334 30 -53.001s41.333 -19.334 72 -20.001h66z
M389.003 707.005l-0.000976562 -622c0 -56.667 -20 -85 -60 -85h-236c-20 0 -36.667 12.667 -50 38c-2 6 -3 12.667 -3 20v1070c0 196.667 79.667 355.667 239 477c107.333 72 218.666 108 333.999 108v-2c8.66699 3.33301 14.334 5 17.001 5
c66.667 -3.33301 123.667 -11 171 -23c56.667 -14.667 111.334 -38 164.001 -70c38 -20.667 86.333 -65 145 -133c34.667 -49.333 60.667 -96.333 78 -141c28.667 -70 43 -161.333 43 -274v-1015c0 -28.667 -16.667 -48.667 -50 -60h-242c-34 0 -53 21 -57 63v644h-493z
M882.002 1026v77c0 153.333 -63 245.333 -189 276c-10.667 3.33301 -30.667 5 -60 5c-108 0 -183.333 -49.333 -226 -148c-6.66699 -25.333 -12.667 -56.333 -18 -93v-117h493zM524.002 -145.995c-2 36.667 8.00098 55.333 30.001 56h176c16.667 0.666992 25 -17 25 -53
l-1 -198c-10.667 -26.667 -26.667 -40 -48 -40h-134c-24.667 0 -40.334 15 -47.001 45z" />
    <glyph glyph-name="uni1EB8" unicode="&#x1eb8;" horiz-adv-x="836" 
d="M385 -146c-2 36.667 8.00098 55.333 30.001 56h176c16.667 0.666992 25 -17 25 -53l-1 -198c-10.667 -26.667 -26.667 -40 -48 -40h-134c-24.667 0 -40.334 15 -47.001 45zM374.001 742.999l-0.000976562 -213.998c2 -52 13.333 -92 34 -120s50.334 -45 89.001 -51
s129.667 -10.667 273 -14c26.667 -5.33301 40 -29 40 -71v-205c0 -45.333 -25 -68 -75 -68c-216.667 0 -357.167 14.833 -421.5 44.5s-120.666 75.834 -168.999 138.501s-79.5 120.167 -93.5 172.5s-21.667 96.833 -23 133.5v749c1.33301 36.667 9 81.167 23 133.5
s45.167 109.5 93.5 171.5s104.666 107.833 168.999 137.5s204.833 44.5 421.5 44.5c50 0 75 -22.333 75 -67v-205c0 -42 -13.333 -65.333 -40 -70c-143.333 -4 -234.333 -8.83301 -273 -14.5s-68.334 -22.334 -89.001 -50.001s-32 -67.834 -34 -120.501v-109h340
c62.667 1.33301 93.667 -16.334 93 -53.001v-238c0.666992 -36.667 -22.666 -55 -69.999 -55h-363z" />
    <glyph glyph-name="uni1EB9" unicode="&#x1eb9;" horiz-adv-x="836" 
d="M385 -146c-2 36.667 8.00098 55.333 30.001 56h176c16.667 0.666992 25 -17 25 -53l-1 -198c-10.667 -26.667 -26.667 -40 -48 -40h-134c-24.667 0 -40.334 15 -47.001 45zM374.001 742.999l-0.000976562 -213.998c2 -52 13.333 -92 34 -120s50.334 -45 89.001 -51
s129.667 -10.667 273 -14c26.667 -5.33301 40 -29 40 -71v-205c0 -45.333 -25 -68 -75 -68c-216.667 0 -357.167 14.833 -421.5 44.5s-120.666 75.834 -168.999 138.501s-79.5 120.167 -93.5 172.5s-21.667 96.833 -23 133.5v749c1.33301 36.667 9 81.167 23 133.5
s45.167 109.5 93.5 171.5s104.666 107.833 168.999 137.5s204.833 44.5 421.5 44.5c50 0 75 -22.333 75 -67v-205c0 -42 -13.333 -65.333 -40 -70c-143.333 -4 -234.333 -8.83301 -273 -14.5s-68.334 -22.334 -89.001 -50.001s-32 -67.834 -34 -120.501v-109h340
c62.667 1.33301 93.667 -16.334 93 -53.001v-238c0.666992 -36.667 -22.666 -55 -69.999 -55h-363z" />
    <glyph glyph-name="uni1EBA" unicode="&#x1eba;" horiz-adv-x="836" 
d="M461 1788c-34 0 -49.999 23.333 -47.999 70c0 28.667 5.83301 56.167 17.5 82.5s28.5 48.166 50.5 65.499c16.667 13.333 28.5 26.166 35.5 38.499s11.5 25.166 13.5 38.5c-5.33301 0.666992 -13.833 1 -25.5 1h-45.5h-78c-27.333 6 -41 25.333 -41 58v80
c0 38 20 57 60 57h20c6.66699 0 13.167 0.166992 19.5 0.5s12.5 0.5 18.5 0.5c90.667 0 148.667 -6.33301 174 -19c31.333 -16 55.666 -38 72.999 -66c7.33301 -12 13 -26.333 17 -43s6 -35 6 -55v-15.5c0 -6.33301 -0.333008 -12.166 -1 -17.499
c-3.33301 -28.667 -11.5 -55.667 -24.5 -81s-30.5 -47.333 -52.5 -66c-12 -10 -21.333 -19.167 -28 -27.5s-10 -15.833 -10 -22.5c0 -1.33301 0.666992 -4.66602 2 -9.99902c0 -46 -17.667 -69 -53 -69h-100zM374.001 743l-0.000976562 -213.998c2 -52 13.333 -92 34 -120
s50.334 -45 89.001 -51s129.667 -10.667 273 -14c26.667 -5.33301 40 -29 40 -71v-205c0 -45.333 -25 -68 -75 -68c-216.667 0 -357.167 14.833 -421.5 44.5s-120.666 75.834 -168.999 138.501s-79.5 120.167 -93.5 172.5s-21.667 96.833 -23 133.5v749
c1.33301 36.667 9 81.167 23 133.5s45.167 109.5 93.5 171.5s104.666 107.833 168.999 137.5s204.833 44.5 421.5 44.5c50 0 75 -22.333 75 -67v-205c0 -42 -13.333 -65.333 -40 -70c-143.333 -4 -234.333 -8.83301 -273 -14.5s-68.334 -22.334 -89.001 -50.001
s-32 -67.834 -34 -120.501v-109h340c62.667 1.33301 93.667 -16.334 93 -53.001v-238c0.666992 -36.667 -22.666 -55 -69.999 -55h-363z" />
    <glyph glyph-name="uni1EBB" unicode="&#x1ebb;" horiz-adv-x="836" 
d="M461 1788c-34 0 -49.999 23.333 -47.999 70c0 28.667 5.83301 56.167 17.5 82.5s28.5 48.166 50.5 65.499c16.667 13.333 28.5 26.166 35.5 38.499s11.5 25.166 13.5 38.5c-5.33301 0.666992 -13.833 1 -25.5 1h-45.5h-78c-27.333 6 -41 25.333 -41 58v80
c0 38 20 57 60 57h20c6.66699 0 13.167 0.166992 19.5 0.5s12.5 0.5 18.5 0.5c90.667 0 148.667 -6.33301 174 -19c31.333 -16 55.666 -38 72.999 -66c7.33301 -12 13 -26.333 17 -43s6 -35 6 -55v-15.5c0 -6.33301 -0.333008 -12.166 -1 -17.499
c-3.33301 -28.667 -11.5 -55.667 -24.5 -81s-30.5 -47.333 -52.5 -66c-12 -10 -21.333 -19.167 -28 -27.5s-10 -15.833 -10 -22.5c0 -1.33301 0.666992 -4.66602 2 -9.99902c0 -46 -17.667 -69 -53 -69h-100zM374.001 743l-0.000976562 -213.998c2 -52 13.333 -92 34 -120
s50.334 -45 89.001 -51s129.667 -10.667 273 -14c26.667 -5.33301 40 -29 40 -71v-205c0 -45.333 -25 -68 -75 -68c-216.667 0 -357.167 14.833 -421.5 44.5s-120.666 75.834 -168.999 138.501s-79.5 120.167 -93.5 172.5s-21.667 96.833 -23 133.5v749
c1.33301 36.667 9 81.167 23 133.5s45.167 109.5 93.5 171.5s104.666 107.833 168.999 137.5s204.833 44.5 421.5 44.5c50 0 75 -22.333 75 -67v-205c0 -42 -13.333 -65.333 -40 -70c-143.333 -4 -234.333 -8.83301 -273 -14.5s-68.334 -22.334 -89.001 -50.001
s-32 -67.834 -34 -120.501v-109h340c62.667 1.33301 93.667 -16.334 93 -53.001v-238c0.666992 -36.667 -22.666 -55 -69.999 -55h-363z" />
    <glyph glyph-name="uni1EBC" unicode="&#x1ebc;" horiz-adv-x="836" 
d="M277 1800c-0.666992 -0.666992 -1.66895 -1.33496 -3.00195 -2.00195v-1h-1c-20.667 -15.333 -39.334 -16 -56.001 -2l-49 42c-20 14.667 -22 40.334 -6 77.001l1 -2c30.667 47.333 61.334 87 92.001 119c39.333 40 80 60 122 60c40.667 0 85.334 -17.667 134.001 -53
c52.667 -37.333 89.667 -56.666 111 -57.999c28 0 67.667 30.333 119 91l4 -4c18.667 13.333 36.334 14.333 53.001 3l52 -42c22 -14 25.333 -40.333 10 -79l-2 1c-91.333 -116 -170 -172 -236 -168c-26 -8 -71 8.66699 -135 50c-48 36.667 -83 55 -105 55
s-57.333 -29 -106 -87h1zM373.998 742.999l-0.000976562 -213.998c2 -52 13.333 -92 34 -120s50.334 -45 89.001 -51s129.667 -10.667 273 -14c26.667 -5.33301 40 -29 40 -71v-205c0 -45.333 -25 -68 -75 -68c-216.667 0 -357.167 14.833 -421.5 44.5
s-120.666 75.834 -168.999 138.501s-79.5 120.167 -93.5 172.5s-21.667 96.833 -23 133.5v749c1.33301 36.667 9 81.167 23 133.5s45.167 109.5 93.5 171.5s104.666 107.833 168.999 137.5s204.833 44.5 421.5 44.5c50 0 75 -22.333 75 -67v-205
c0 -42 -13.333 -65.333 -40 -70c-143.333 -4 -234.333 -8.83301 -273 -14.5s-68.334 -22.334 -89.001 -50.001s-32 -67.834 -34 -120.501v-109h340c62.667 1.33301 93.667 -16.334 93 -53.001v-238c0.666992 -36.667 -22.666 -55 -69.999 -55h-363z" />
    <glyph glyph-name="uni1EBD" unicode="&#x1ebd;" horiz-adv-x="836" 
d="M277 1800c-0.666992 -0.666992 -1.66895 -1.33496 -3.00195 -2.00195v-1h-1c-20.667 -15.333 -39.334 -16 -56.001 -2l-49 42c-20 14.667 -22 40.334 -6 77.001l1 -2c30.667 47.333 61.334 87 92.001 119c39.333 40 80 60 122 60c40.667 0 85.334 -17.667 134.001 -53
c52.667 -37.333 89.667 -56.666 111 -57.999c28 0 67.667 30.333 119 91l4 -4c18.667 13.333 36.334 14.333 53.001 3l52 -42c22 -14 25.333 -40.333 10 -79l-2 1c-91.333 -116 -170 -172 -236 -168c-26 -8 -71 8.66699 -135 50c-48 36.667 -83 55 -105 55
s-57.333 -29 -106 -87h1zM373.998 742.999l-0.000976562 -213.998c2 -52 13.333 -92 34 -120s50.334 -45 89.001 -51s129.667 -10.667 273 -14c26.667 -5.33301 40 -29 40 -71v-205c0 -45.333 -25 -68 -75 -68c-216.667 0 -357.167 14.833 -421.5 44.5
s-120.666 75.834 -168.999 138.501s-79.5 120.167 -93.5 172.5s-21.667 96.833 -23 133.5v749c1.33301 36.667 9 81.167 23 133.5s45.167 109.5 93.5 171.5s104.666 107.833 168.999 137.5s204.833 44.5 421.5 44.5c50 0 75 -22.333 75 -67v-205
c0 -42 -13.333 -65.333 -40 -70c-143.333 -4 -234.333 -8.83301 -273 -14.5s-68.334 -22.334 -89.001 -50.001s-32 -67.834 -34 -120.501v-109h340c62.667 1.33301 93.667 -16.334 93 -53.001v-238c0.666992 -36.667 -22.666 -55 -69.999 -55h-363z" />
    <glyph glyph-name="uni1EBE" unicode="&#x1ebe;" horiz-adv-x="835" 
d="M1019 2464c44 28.667 74.667 30 92 4l77 -126c16.667 -27.333 8.66699 -51 -24 -71l-335 -197c-40 -11.333 -66.667 -4 -80 22l-45 71c-18 26 -7.66699 57.333 31 94zM809 1958c35.333 -38 44.6689 -69.667 28.002 -95l-42 -72c-13.333 -26 -38.333 -32.333 -75 -19
l-219 150l-219 -150c-36 -13.333 -61 -7 -75 19l-42 72c-16.667 25.333 -7.33398 57 27.999 95l257 213c20 8.66699 37 12 51 10c14 2 31 -1.33301 51 -10l34 -28c3.33301 -2.66699 6.66602 -5 9.99902 -7v-1zM374.003 743l-0.000976562 -213.998c2 -52 13.333 -92 34 -120
s50.334 -45 89.001 -51s129.667 -10.667 273 -14c26.667 -5.33301 40 -29 40 -71v-205c0 -45.333 -25 -68 -75 -68c-216.667 0 -357.167 14.833 -421.5 44.5s-120.666 75.834 -168.999 138.501s-79.5 120.167 -93.5 172.5s-21.667 96.833 -23 133.5v749
c1.33301 36.667 9 81.167 23 133.5s45.167 109.5 93.5 171.5s104.666 107.833 168.999 137.5s204.833 44.5 421.5 44.5c50 0 75 -22.333 75 -67v-205c0 -42 -13.333 -65.333 -40 -70c-143.333 -4 -234.333 -8.83301 -273 -14.5s-68.334 -22.334 -89.001 -50.001
s-32 -67.834 -34 -120.501v-109h340c62.667 1.33301 93.667 -16.334 93 -53.001v-238c0.666992 -36.667 -22.666 -55 -69.999 -55h-363z" />
    <glyph glyph-name="uni1EBF" unicode="&#x1ebf;" horiz-adv-x="835" 
d="M1019 2464c44 28.667 74.667 30 92 4l77 -126c16.667 -27.333 8.66699 -51 -24 -71l-335 -197c-40 -11.333 -66.667 -4 -80 22l-45 71c-18 26 -7.66699 57.333 31 94zM809 1958c35.333 -38 44.6689 -69.667 28.002 -95l-42 -72c-13.333 -26 -38.333 -32.333 -75 -19
l-219 150l-219 -150c-36 -13.333 -61 -7 -75 19l-42 72c-16.667 25.333 -7.33398 57 27.999 95l257 213c20 8.66699 37 12 51 10c14 2 31 -1.33301 51 -10l34 -28c3.33301 -2.66699 6.66602 -5 9.99902 -7v-1zM374.003 743l-0.000976562 -213.998c2 -52 13.333 -92 34 -120
s50.334 -45 89.001 -51s129.667 -10.667 273 -14c26.667 -5.33301 40 -29 40 -71v-205c0 -45.333 -25 -68 -75 -68c-216.667 0 -357.167 14.833 -421.5 44.5s-120.666 75.834 -168.999 138.501s-79.5 120.167 -93.5 172.5s-21.667 96.833 -23 133.5v749
c1.33301 36.667 9 81.167 23 133.5s45.167 109.5 93.5 171.5s104.666 107.833 168.999 137.5s204.833 44.5 421.5 44.5c50 0 75 -22.333 75 -67v-205c0 -42 -13.333 -65.333 -40 -70c-143.333 -4 -234.333 -8.83301 -273 -14.5s-68.334 -22.334 -89.001 -50.001
s-32 -67.834 -34 -120.501v-109h340c62.667 1.33301 93.667 -16.334 93 -53.001v-238c0.666992 -36.667 -22.666 -55 -69.999 -55h-363z" />
    <glyph glyph-name="uni1EC0" unicode="&#x1ec0;" horiz-adv-x="835" 
d="M970 2259c38.667 -36.667 49 -68 31 -94l-45 -71c-13.333 -26 -40 -33.333 -80 -22l-335 197c-32.667 20 -40.667 43.667 -24 71l77 126c17.333 26 48 24.667 92 -4zM809 1958c35.333 -38 44.6689 -69.667 28.002 -95l-42 -72c-13.333 -26 -38.333 -32.333 -75 -19
l-219 150l-219 -150c-36 -13.333 -61 -7 -75 19l-42 72c-16.667 25.333 -7.33398 57 27.999 95l257 213c20 8.66699 37 12 51 10c14 2 31 -1.33301 51 -10l34 -28c3.33301 -2.66699 6.66602 -5 9.99902 -7v-1zM374.003 743l-0.000976562 -213.998c2 -52 13.333 -92 34 -120
s50.334 -45 89.001 -51s129.667 -10.667 273 -14c26.667 -5.33301 40 -29 40 -71v-205c0 -45.333 -25 -68 -75 -68c-216.667 0 -357.167 14.833 -421.5 44.5s-120.666 75.834 -168.999 138.501s-79.5 120.167 -93.5 172.5s-21.667 96.833 -23 133.5v749
c1.33301 36.667 9 81.167 23 133.5s45.167 109.5 93.5 171.5s104.666 107.833 168.999 137.5s204.833 44.5 421.5 44.5c50 0 75 -22.333 75 -67v-205c0 -42 -13.333 -65.333 -40 -70c-143.333 -4 -234.333 -8.83301 -273 -14.5s-68.334 -22.334 -89.001 -50.001
s-32 -67.834 -34 -120.501v-109h340c62.667 1.33301 93.667 -16.334 93 -53.001v-238c0.666992 -36.667 -22.666 -55 -69.999 -55h-363z" />
    <glyph glyph-name="uni1EC1" unicode="&#x1ec1;" horiz-adv-x="835" 
d="M970 2259c38.667 -36.667 49 -68 31 -94l-45 -71c-13.333 -26 -40 -33.333 -80 -22l-335 197c-32.667 20 -40.667 43.667 -24 71l77 126c17.333 26 48 24.667 92 -4zM809 1958c35.333 -38 44.6689 -69.667 28.002 -95l-42 -72c-13.333 -26 -38.333 -32.333 -75 -19
l-219 150l-219 -150c-36 -13.333 -61 -7 -75 19l-42 72c-16.667 25.333 -7.33398 57 27.999 95l257 213c20 8.66699 37 12 51 10c14 2 31 -1.33301 51 -10l34 -28c3.33301 -2.66699 6.66602 -5 9.99902 -7v-1zM374.003 743l-0.000976562 -213.998c2 -52 13.333 -92 34 -120
s50.334 -45 89.001 -51s129.667 -10.667 273 -14c26.667 -5.33301 40 -29 40 -71v-205c0 -45.333 -25 -68 -75 -68c-216.667 0 -357.167 14.833 -421.5 44.5s-120.666 75.834 -168.999 138.501s-79.5 120.167 -93.5 172.5s-21.667 96.833 -23 133.5v749
c1.33301 36.667 9 81.167 23 133.5s45.167 109.5 93.5 171.5s104.666 107.833 168.999 137.5s204.833 44.5 421.5 44.5c50 0 75 -22.333 75 -67v-205c0 -42 -13.333 -65.333 -40 -70c-143.333 -4 -234.333 -8.83301 -273 -14.5s-68.334 -22.334 -89.001 -50.001
s-32 -67.834 -34 -120.501v-109h340c62.667 1.33301 93.667 -16.334 93 -53.001v-238c0.666992 -36.667 -22.666 -55 -69.999 -55h-363z" />
    <glyph glyph-name="uni1EC2" unicode="&#x1ec2;" horiz-adv-x="835" 
d="M785 2062c-34 0 -49.999 23.333 -47.999 70c0 28.667 5.83301 56.167 17.5 82.5s28.5 48.166 50.5 65.5c16.667 13.333 28.5 26.166 35.5 38.5c7 12.333 11.5 25.166 13.5 38.5c-5.33301 0.666992 -13.833 1 -25.5 1h-45.5h-78c-27.333 6 -41 25.333 -41 58v80
c0 38 20 57 60 57h20c6.66699 0 13.167 0.166992 19.5 0.5s12.5 0.5 18.5 0.5c90.667 0 148.667 -6.33301 174 -19c31.333 -16 55.666 -38 72.999 -66c7.33301 -12 13 -26.333 17 -43s6 -35 6 -55v-15.5c0 -6.33301 -0.333008 -12.166 -1 -17.5
c-3.33301 -28.667 -11.5 -55.667 -24.5 -81s-30.5 -47.333 -52.5 -66c-12 -10 -21.333 -19.167 -28 -27.5s-10 -15.833 -10 -22.5c0 -1.33301 0.666992 -4.66602 2 -10c0 -46 -17.667 -69 -53 -69h-100zM809.001 1958c35.333 -38 44.6689 -69.667 28.002 -95l-42 -72
c-13.333 -26 -38.333 -32.333 -75 -19l-219 150l-219 -150c-36 -13.333 -61 -7 -75 19l-42 72c-16.667 25.333 -7.33398 57 27.999 95l257 213c20 8.66699 37 12 51 10c14 2 31 -1.33301 51 -10l34 -28c3.33301 -2.66699 6.66602 -5 9.99902 -7v-1zM374.004 743
l-0.000976562 -213.998c2 -52 13.333 -92 34 -120s50.334 -45 89.001 -51s129.667 -10.667 273 -14c26.667 -5.33301 40 -29 40 -71v-205c0 -45.333 -25 -68 -75 -68c-216.667 0 -357.167 14.833 -421.5 44.5s-120.666 75.834 -168.999 138.501s-79.5 120.167 -93.5 172.5
s-21.667 96.833 -23 133.5v749c1.33301 36.667 9 81.167 23 133.5s45.167 109.5 93.5 171.5s104.666 107.833 168.999 137.5s204.833 44.5 421.5 44.5c50 0 75 -22.333 75 -67v-205c0 -42 -13.333 -65.333 -40 -70c-143.333 -4 -234.333 -8.83301 -273 -14.5
s-68.334 -22.334 -89.001 -50.001s-32 -67.834 -34 -120.501v-109h340c62.667 1.33301 93.667 -16.334 93 -53.001v-238c0.666992 -36.667 -22.666 -55 -69.999 -55h-363z" />
    <glyph glyph-name="uni1EC3" unicode="&#x1ec3;" horiz-adv-x="835" 
d="M785 2062c-34 0 -49.999 23.333 -47.999 70c0 28.667 5.83301 56.167 17.5 82.5s28.5 48.166 50.5 65.5c16.667 13.333 28.5 26.166 35.5 38.5c7 12.333 11.5 25.166 13.5 38.5c-5.33301 0.666992 -13.833 1 -25.5 1h-45.5h-78c-27.333 6 -41 25.333 -41 58v80
c0 38 20 57 60 57h20c6.66699 0 13.167 0.166992 19.5 0.5s12.5 0.5 18.5 0.5c90.667 0 148.667 -6.33301 174 -19c31.333 -16 55.666 -38 72.999 -66c7.33301 -12 13 -26.333 17 -43s6 -35 6 -55v-15.5c0 -6.33301 -0.333008 -12.166 -1 -17.5
c-3.33301 -28.667 -11.5 -55.667 -24.5 -81s-30.5 -47.333 -52.5 -66c-12 -10 -21.333 -19.167 -28 -27.5s-10 -15.833 -10 -22.5c0 -1.33301 0.666992 -4.66602 2 -10c0 -46 -17.667 -69 -53 -69h-100zM809.001 1958c35.333 -38 44.6689 -69.667 28.002 -95l-42 -72
c-13.333 -26 -38.333 -32.333 -75 -19l-219 150l-219 -150c-36 -13.333 -61 -7 -75 19l-42 72c-16.667 25.333 -7.33398 57 27.999 95l257 213c20 8.66699 37 12 51 10c14 2 31 -1.33301 51 -10l34 -28c3.33301 -2.66699 6.66602 -5 9.99902 -7v-1zM374.004 743
l-0.000976562 -213.998c2 -52 13.333 -92 34 -120s50.334 -45 89.001 -51s129.667 -10.667 273 -14c26.667 -5.33301 40 -29 40 -71v-205c0 -45.333 -25 -68 -75 -68c-216.667 0 -357.167 14.833 -421.5 44.5s-120.666 75.834 -168.999 138.501s-79.5 120.167 -93.5 172.5
s-21.667 96.833 -23 133.5v749c1.33301 36.667 9 81.167 23 133.5s45.167 109.5 93.5 171.5s104.666 107.833 168.999 137.5s204.833 44.5 421.5 44.5c50 0 75 -22.333 75 -67v-205c0 -42 -13.333 -65.333 -40 -70c-143.333 -4 -234.333 -8.83301 -273 -14.5
s-68.334 -22.334 -89.001 -50.001s-32 -67.834 -34 -120.501v-109h340c62.667 1.33301 93.667 -16.334 93 -53.001v-238c0.666992 -36.667 -22.666 -55 -69.999 -55h-363z" />
    <glyph glyph-name="uni1EC4" unicode="&#x1ec4;" horiz-adv-x="835" 
d="M274 2242c-0.666992 -0.666992 -1.66895 -1.33398 -3.00195 -2v-1h-1c-20.667 -15.333 -39.334 -16 -56.001 -2l-49 42c-20 14.667 -22 40.334 -6 77l1 -2c30.667 47.333 61.334 87 92.001 119c39.333 40 80 60 122 60c40.667 0 85.334 -17.667 134.001 -53
c52.667 -37.333 89.667 -56.666 111 -58c28 0 67.667 30.333 119 91l4 -4c18.667 13.333 36.334 14.333 53.001 3l52 -42c22 -14 25.333 -40.333 10 -79l-2 1c-91.333 -116 -170 -172 -236 -168c-26 -8 -71 8.66699 -135 50c-48 36.667 -83 55 -105 55s-57.333 -29 -106 -87
h1zM808.998 1958c35.333 -38 44.6689 -69.667 28.002 -95l-42 -72c-13.333 -26 -38.333 -32.333 -75 -19l-219 150l-219 -150c-36 -13.333 -61 -7 -75 19l-42 72c-16.667 25.333 -7.33398 57 27.999 95l257 213c20 8.66699 37 12 51 10c14 2 31 -1.33301 51 -10l34 -28
c3.33301 -2.66699 6.66602 -5 9.99902 -7v-1zM374.001 743l-0.000976562 -213.998c2 -52 13.333 -92 34 -120s50.334 -45 89.001 -51s129.667 -10.667 273 -14c26.667 -5.33301 40 -29 40 -71v-205c0 -45.333 -25 -68 -75 -68c-216.667 0 -357.167 14.833 -421.5 44.5
s-120.666 75.834 -168.999 138.501s-79.5 120.167 -93.5 172.5s-21.667 96.833 -23 133.5v749c1.33301 36.667 9 81.167 23 133.5s45.167 109.5 93.5 171.5s104.666 107.833 168.999 137.5s204.833 44.5 421.5 44.5c50 0 75 -22.333 75 -67v-205
c0 -42 -13.333 -65.333 -40 -70c-143.333 -4 -234.333 -8.83301 -273 -14.5s-68.334 -22.334 -89.001 -50.001s-32 -67.834 -34 -120.501v-109h340c62.667 1.33301 93.667 -16.334 93 -53.001v-238c0.666992 -36.667 -22.666 -55 -69.999 -55h-363z" />
    <glyph glyph-name="uni1EC5" unicode="&#x1ec5;" horiz-adv-x="835" 
d="M274 2242c-0.666992 -0.666992 -1.66895 -1.33398 -3.00195 -2v-1h-1c-20.667 -15.333 -39.334 -16 -56.001 -2l-49 42c-20 14.667 -22 40.334 -6 77l1 -2c30.667 47.333 61.334 87 92.001 119c39.333 40 80 60 122 60c40.667 0 85.334 -17.667 134.001 -53
c52.667 -37.333 89.667 -56.666 111 -58c28 0 67.667 30.333 119 91l4 -4c18.667 13.333 36.334 14.333 53.001 3l52 -42c22 -14 25.333 -40.333 10 -79l-2 1c-91.333 -116 -170 -172 -236 -168c-26 -8 -71 8.66699 -135 50c-48 36.667 -83 55 -105 55s-57.333 -29 -106 -87
h1zM808.998 1958c35.333 -38 44.6689 -69.667 28.002 -95l-42 -72c-13.333 -26 -38.333 -32.333 -75 -19l-219 150l-219 -150c-36 -13.333 -61 -7 -75 19l-42 72c-16.667 25.333 -7.33398 57 27.999 95l257 213c20 8.66699 37 12 51 10c14 2 31 -1.33301 51 -10l34 -28
c3.33301 -2.66699 6.66602 -5 9.99902 -7v-1zM374.001 743l-0.000976562 -213.998c2 -52 13.333 -92 34 -120s50.334 -45 89.001 -51s129.667 -10.667 273 -14c26.667 -5.33301 40 -29 40 -71v-205c0 -45.333 -25 -68 -75 -68c-216.667 0 -357.167 14.833 -421.5 44.5
s-120.666 75.834 -168.999 138.501s-79.5 120.167 -93.5 172.5s-21.667 96.833 -23 133.5v749c1.33301 36.667 9 81.167 23 133.5s45.167 109.5 93.5 171.5s104.666 107.833 168.999 137.5s204.833 44.5 421.5 44.5c50 0 75 -22.333 75 -67v-205
c0 -42 -13.333 -65.333 -40 -70c-143.333 -4 -234.333 -8.83301 -273 -14.5s-68.334 -22.334 -89.001 -50.001s-32 -67.834 -34 -120.501v-109h340c62.667 1.33301 93.667 -16.334 93 -53.001v-238c0.666992 -36.667 -22.666 -55 -69.999 -55h-363z" />
    <glyph glyph-name="uni1EC6" unicode="&#x1ec6;" horiz-adv-x="835" 
d="M385 -146c-2 36.667 8.00098 55.333 30.001 56h176c16.667 0.666992 25 -17 25 -53l-1 -198c-10.667 -26.667 -26.667 -40 -48 -40h-134c-24.667 0 -40.334 15 -47.001 45zM809.001 1958c35.333 -38 44.6689 -69.667 28.002 -95l-42 -72
c-13.333 -26 -38.333 -32.333 -75 -19l-219 150l-219 -150c-36 -13.333 -61 -7 -75 19l-42 72c-16.667 25.333 -7.33398 57 27.999 95l257 213c20 8.66699 37 12 51 10c14 2 31 -1.33301 51 -10l34 -28c3.33301 -2.66699 6.66602 -5 9.99902 -7v-1zM374.004 742.999
l-0.000976562 -213.998c2 -52 13.333 -92 34 -120s50.334 -45 89.001 -51s129.667 -10.667 273 -14c26.667 -5.33301 40 -29 40 -71v-205c0 -45.333 -25 -68 -75 -68c-216.667 0 -357.167 14.833 -421.5 44.5s-120.666 75.834 -168.999 138.501s-79.5 120.167 -93.5 172.5
s-21.667 96.833 -23 133.5v749c1.33301 36.667 9 81.167 23 133.5s45.167 109.5 93.5 171.5s104.666 107.833 168.999 137.5s204.833 44.5 421.5 44.5c50 0 75 -22.333 75 -67v-205c0 -42 -13.333 -65.333 -40 -70c-143.333 -4 -234.333 -8.83301 -273 -14.5
s-68.334 -22.334 -89.001 -50.001s-32 -67.834 -34 -120.501v-109h340c62.667 1.33301 93.667 -16.334 93 -53.001v-238c0.666992 -36.667 -22.666 -55 -69.999 -55h-363z" />
    <glyph glyph-name="uni1EC7" unicode="&#x1ec7;" horiz-adv-x="835" 
d="M385 -146c-2 36.667 8.00098 55.333 30.001 56h176c16.667 0.666992 25 -17 25 -53l-1 -198c-10.667 -26.667 -26.667 -40 -48 -40h-134c-24.667 0 -40.334 15 -47.001 45zM809.001 1958c35.333 -38 44.6689 -69.667 28.002 -95l-42 -72
c-13.333 -26 -38.333 -32.333 -75 -19l-219 150l-219 -150c-36 -13.333 -61 -7 -75 19l-42 72c-16.667 25.333 -7.33398 57 27.999 95l257 213c20 8.66699 37 12 51 10c14 2 31 -1.33301 51 -10l34 -28c3.33301 -2.66699 6.66602 -5 9.99902 -7v-1zM374.004 742.999
l-0.000976562 -213.998c2 -52 13.333 -92 34 -120s50.334 -45 89.001 -51s129.667 -10.667 273 -14c26.667 -5.33301 40 -29 40 -71v-205c0 -45.333 -25 -68 -75 -68c-216.667 0 -357.167 14.833 -421.5 44.5s-120.666 75.834 -168.999 138.501s-79.5 120.167 -93.5 172.5
s-21.667 96.833 -23 133.5v749c1.33301 36.667 9 81.167 23 133.5s45.167 109.5 93.5 171.5s104.666 107.833 168.999 137.5s204.833 44.5 421.5 44.5c50 0 75 -22.333 75 -67v-205c0 -42 -13.333 -65.333 -40 -70c-143.333 -4 -234.333 -8.83301 -273 -14.5
s-68.334 -22.334 -89.001 -50.001s-32 -67.834 -34 -120.501v-109h340c62.667 1.33301 93.667 -16.334 93 -53.001v-238c0.666992 -36.667 -22.666 -55 -69.999 -55h-363z" />
    <glyph glyph-name="uni1EC8" unicode="&#x1ec8;" horiz-adv-x="432" 
d="M156 1788c-34 0 -49.999 23.333 -47.999 70c0 28.667 5.83301 56.167 17.5 82.5s28.5 48.166 50.5 65.499c16.667 13.333 28.5 26.166 35.5 38.499s11.5 25.166 13.5 38.5c-5.33301 0.666992 -13.833 1 -25.5 1h-45.5h-78c-27.333 6 -41 25.333 -41 58v80
c0 38 20 57 60 57h20c6.66699 0 13.167 0.166992 19.5 0.5s12.5 0.5 18.5 0.5c90.667 0 148.667 -6.33301 174 -19c31.333 -16 55.666 -38 72.999 -66c7.33301 -12 13 -26.333 17 -43s6 -35 6 -55v-15.5c0 -6.33301 -0.333008 -12.166 -1 -17.499
c-3.33301 -28.667 -11.5 -55.667 -24.5 -81s-30.5 -47.333 -52.5 -66c-12 -10 -21.333 -19.167 -28 -27.5s-10 -15.833 -10 -22.5c0 -1.33301 0.666992 -4.66602 2 -9.99902c0 -46 -17.667 -69 -53 -69h-100zM30.001 1622c-1.33301 62.667 16.334 93.665 53.001 92.998h238
c36.667 0.666992 55 -22.666 55 -69.999v-1572c0 -47.333 -18.333 -70.666 -55 -69.999h-238c-36.667 -0.666992 -54.334 30.333 -53.001 93v1526z" />
    <glyph glyph-name="uni1EC9" unicode="&#x1ec9;" horiz-adv-x="432" 
d="M156 1788c-34 0 -49.999 23.333 -47.999 70c0 28.667 5.83301 56.167 17.5 82.5s28.5 48.166 50.5 65.499c16.667 13.333 28.5 26.166 35.5 38.499s11.5 25.166 13.5 38.5c-5.33301 0.666992 -13.833 1 -25.5 1h-45.5h-78c-27.333 6 -41 25.333 -41 58v80
c0 38 20 57 60 57h20c6.66699 0 13.167 0.166992 19.5 0.5s12.5 0.5 18.5 0.5c90.667 0 148.667 -6.33301 174 -19c31.333 -16 55.666 -38 72.999 -66c7.33301 -12 13 -26.333 17 -43s6 -35 6 -55v-15.5c0 -6.33301 -0.333008 -12.166 -1 -17.499
c-3.33301 -28.667 -11.5 -55.667 -24.5 -81s-30.5 -47.333 -52.5 -66c-12 -10 -21.333 -19.167 -28 -27.5s-10 -15.833 -10 -22.5c0 -1.33301 0.666992 -4.66602 2 -9.99902c0 -46 -17.667 -69 -53 -69h-100zM30.001 1622c-1.33301 62.667 16.334 93.665 53.001 92.998h238
c36.667 0.666992 55 -22.666 55 -69.999v-1572c0 -47.333 -18.333 -70.666 -55 -69.999h-238c-36.667 -0.666992 -54.334 30.333 -53.001 93v1526z" />
    <glyph glyph-name="uni1ECA" unicode="&#x1eca;" horiz-adv-x="432" 
d="M91 -146c-2 36.667 8.00098 55.333 30.001 56h176c16.667 0.666992 25 -17 25 -53l-1 -198c-10.667 -26.667 -26.667 -40 -48 -40h-134c-24.667 0 -40.334 15 -47.001 45zM30.001 1622c-1.33301 62.667 16.334 93.665 53.001 92.998h238
c36.667 0.666992 55 -22.666 55 -69.999v-1572c0 -47.333 -18.333 -70.666 -55 -69.999h-238c-36.667 -0.666992 -54.334 30.333 -53.001 93v1526z" />
    <glyph glyph-name="uni1ECB" unicode="&#x1ecb;" horiz-adv-x="432" 
d="M91 -146c-2 36.667 8.00098 55.333 30.001 56h176c16.667 0.666992 25 -17 25 -53l-1 -198c-10.667 -26.667 -26.667 -40 -48 -40h-134c-24.667 0 -40.334 15 -47.001 45zM30.001 1622c-1.33301 62.667 16.334 93.665 53.001 92.998h238
c36.667 0.666992 55 -22.666 55 -69.999v-1572c0 -47.333 -18.333 -70.666 -55 -69.999h-238c-36.667 -0.666992 -54.334 30.333 -53.001 93v1526z" />
    <glyph glyph-name="uni1ECC" unicode="&#x1ecc;" 
d="M521 -146c-2 36.667 8.00098 55.333 30.001 56h176c16.667 0.666992 25 -17 25 -53l-1 -198c-10.667 -26.667 -26.667 -40 -48 -40h-134c-24.667 0 -40.334 15 -47.001 45zM40.001 1128c0 196.667 79.667 355.67 239 477.003c107.333 72 218.666 108 333.999 108v-2
c8.66699 3.33301 14.334 5 17.001 5c66.667 -3.33301 123.667 -11 171 -23c56.667 -14.667 111.334 -38 164.001 -70c38 -20.667 86.333 -65 145 -133c34.667 -49.333 60.667 -96.333 78 -141c28.667 -70 43 -161.333 43 -274v-432
c0 -112.667 -14.333 -204.334 -43 -275.001c-17.333 -44 -43.333 -90.667 -78 -140c-58.667 -68.667 -107 -113.334 -145 -134.001c-52.667 -32 -107.334 -55.333 -164.001 -70c-47.333 -12 -104.333 -19.667 -171 -23c-2.66699 0 -8.33398 1.66699 -17.001 5v-2
c-115.333 0 -226.666 36 -333.999 108c-159.333 121.333 -239 280.666 -239 477.999v538zM882.001 1103c0 153.333 -63 245.334 -189 276.001c-10.667 3.33301 -30.667 5 -60 5c-108 0 -183.333 -49.333 -226 -148c-6.66699 -25.333 -12.667 -56.333 -18 -93v-568
c5.33301 -37.333 11.333 -68.333 18 -93c42.667 -99.333 118 -149 226 -149c29.333 0 49.333 1.66699 60 5c126 31.333 189 123.666 189 276.999v488z" />
    <glyph glyph-name="uni1ECD" unicode="&#x1ecd;" 
d="M521 -146c-2 36.667 8.00098 55.333 30.001 56h176c16.667 0.666992 25 -17 25 -53l-1 -198c-10.667 -26.667 -26.667 -40 -48 -40h-134c-24.667 0 -40.334 15 -47.001 45zM40.001 1128c0 196.667 79.667 355.67 239 477.003c107.333 72 218.666 108 333.999 108v-2
c8.66699 3.33301 14.334 5 17.001 5c66.667 -3.33301 123.667 -11 171 -23c56.667 -14.667 111.334 -38 164.001 -70c38 -20.667 86.333 -65 145 -133c34.667 -49.333 60.667 -96.333 78 -141c28.667 -70 43 -161.333 43 -274v-432
c0 -112.667 -14.333 -204.334 -43 -275.001c-17.333 -44 -43.333 -90.667 -78 -140c-58.667 -68.667 -107 -113.334 -145 -134.001c-52.667 -32 -107.334 -55.333 -164.001 -70c-47.333 -12 -104.333 -19.667 -171 -23c-2.66699 0 -8.33398 1.66699 -17.001 5v-2
c-115.333 0 -226.666 36 -333.999 108c-159.333 121.333 -239 280.666 -239 477.999v538zM882.001 1103c0 153.333 -63 245.334 -189 276.001c-10.667 3.33301 -30.667 5 -60 5c-108 0 -183.333 -49.333 -226 -148c-6.66699 -25.333 -12.667 -56.333 -18 -93v-568
c5.33301 -37.333 11.333 -68.333 18 -93c42.667 -99.333 118 -149 226 -149c29.333 0 49.333 1.66699 60 5c126 31.333 189 123.666 189 276.999v488z" />
    <glyph glyph-name="uni1ECE" unicode="&#x1ece;" 
d="M585 1788c-34 0 -49.999 23.333 -47.999 70c0 28.667 5.83301 56.167 17.5 82.5s28.5 48.166 50.5 65.499c16.667 13.333 28.5 26.166 35.5 38.499s11.5 25.166 13.5 38.5c-5.33301 0.666992 -13.833 1 -25.5 1h-45.5h-78c-27.333 6 -41 25.333 -41 58v80
c0 38 20 57 60 57h20c6.66699 0 13.167 0.166992 19.5 0.5s12.5 0.5 18.5 0.5c90.667 0 148.667 -6.33301 174 -19c31.333 -16 55.666 -38 72.999 -66c7.33301 -12 13 -26.333 17 -43s6 -35 6 -55v-15.5c0 -6.33301 -0.333008 -12.166 -1 -17.499
c-3.33301 -28.667 -11.5 -55.667 -24.5 -81s-30.5 -47.333 -52.5 -66c-12 -10 -21.333 -19.167 -28 -27.5s-10 -15.833 -10 -22.5c0 -1.33301 0.666992 -4.66602 2 -9.99902c0 -46 -17.667 -69 -53 -69h-100zM40.001 1128c0 196.667 79.667 355.67 239 477.003
c107.333 72 218.666 108 333.999 108v-2c8.66699 3.33301 14.334 5 17.001 5c66.667 -3.33301 123.667 -11 171 -23c56.667 -14.667 111.334 -38 164.001 -70c38 -20.667 86.333 -65 145 -133c34.667 -49.333 60.667 -96.333 78 -141c28.667 -70 43 -161.333 43 -274v-432
c0 -112.667 -14.333 -204.334 -43 -275.001c-17.333 -44 -43.333 -90.667 -78 -140c-58.667 -68.667 -107 -113.334 -145 -134.001c-52.667 -32 -107.334 -55.333 -164.001 -70c-47.333 -12 -104.333 -19.667 -171 -23c-2.66699 0 -8.33398 1.66699 -17.001 5v-2
c-115.333 0 -226.666 36 -333.999 108c-159.333 121.333 -239 280.666 -239 477.999v538zM882.001 1103c0 153.333 -63 245.334 -189 276.001c-10.667 3.33301 -30.667 5 -60 5c-108 0 -183.333 -49.333 -226 -148c-6.66699 -25.333 -12.667 -56.333 -18 -93v-568
c5.33301 -37.333 11.333 -68.333 18 -93c42.667 -99.333 118 -149 226 -149c29.333 0 49.333 1.66699 60 5c126 31.333 189 123.666 189 276.999v488z" />
    <glyph glyph-name="uni1ECF" unicode="&#x1ecf;" 
d="M585 1788c-34 0 -49.999 23.333 -47.999 70c0 28.667 5.83301 56.167 17.5 82.5s28.5 48.166 50.5 65.499c16.667 13.333 28.5 26.166 35.5 38.499s11.5 25.166 13.5 38.5c-5.33301 0.666992 -13.833 1 -25.5 1h-45.5h-78c-27.333 6 -41 25.333 -41 58v80
c0 38 20 57 60 57h20c6.66699 0 13.167 0.166992 19.5 0.5s12.5 0.5 18.5 0.5c90.667 0 148.667 -6.33301 174 -19c31.333 -16 55.666 -38 72.999 -66c7.33301 -12 13 -26.333 17 -43s6 -35 6 -55v-15.5c0 -6.33301 -0.333008 -12.166 -1 -17.499
c-3.33301 -28.667 -11.5 -55.667 -24.5 -81s-30.5 -47.333 -52.5 -66c-12 -10 -21.333 -19.167 -28 -27.5s-10 -15.833 -10 -22.5c0 -1.33301 0.666992 -4.66602 2 -9.99902c0 -46 -17.667 -69 -53 -69h-100zM40.001 1128c0 196.667 79.667 355.67 239 477.003
c107.333 72 218.666 108 333.999 108v-2c8.66699 3.33301 14.334 5 17.001 5c66.667 -3.33301 123.667 -11 171 -23c56.667 -14.667 111.334 -38 164.001 -70c38 -20.667 86.333 -65 145 -133c34.667 -49.333 60.667 -96.333 78 -141c28.667 -70 43 -161.333 43 -274v-432
c0 -112.667 -14.333 -204.334 -43 -275.001c-17.333 -44 -43.333 -90.667 -78 -140c-58.667 -68.667 -107 -113.334 -145 -134.001c-52.667 -32 -107.334 -55.333 -164.001 -70c-47.333 -12 -104.333 -19.667 -171 -23c-2.66699 0 -8.33398 1.66699 -17.001 5v-2
c-115.333 0 -226.666 36 -333.999 108c-159.333 121.333 -239 280.666 -239 477.999v538zM882.001 1103c0 153.333 -63 245.334 -189 276.001c-10.667 3.33301 -30.667 5 -60 5c-108 0 -183.333 -49.333 -226 -148c-6.66699 -25.333 -12.667 -56.333 -18 -93v-568
c5.33301 -37.333 11.333 -68.333 18 -93c42.667 -99.333 118 -149 226 -149c29.333 0 49.333 1.66699 60 5c126 31.333 189 123.666 189 276.999v488z" />
    <glyph glyph-name="uni1ED0" unicode="&#x1ed0;" 
d="M1152 2464c44 28.667 74.667 30 92 4l77 -126c16.667 -27.333 8.66699 -51 -24 -71l-335 -197c-40 -11.333 -66.667 -4 -80 22l-45 71c-18 26 -7.66699 57.333 31 94zM40 1128c0 196.667 79.667 355.67 239 477.003c107.333 72 218.666 108 333.999 108v-2
c8.66699 3.33301 14.334 5 17.001 5c66.667 -3.33301 123.667 -11 171 -23c56.667 -14.667 111.334 -38 164.001 -70c38 -20.667 86.333 -65 145 -133c34.667 -49.333 60.667 -96.333 78 -141c28.667 -70 43 -161.333 43 -274v-432
c0 -112.667 -14.333 -204.334 -43 -275.001c-17.333 -44 -43.333 -90.667 -78 -140c-58.667 -68.667 -107 -113.334 -145 -134.001c-52.667 -32 -107.334 -55.333 -164.001 -70c-47.333 -12 -104.333 -19.667 -171 -23c-2.66699 0 -8.33398 1.66699 -17.001 5v-2
c-115.333 0 -226.666 36 -333.999 108c-159.333 121.333 -239 280.666 -239 477.999v538zM882 1103c0 153.333 -63 245.334 -189 276.001c-10.667 3.33301 -30.667 5 -60 5c-108 0 -183.333 -49.333 -226 -148c-6.66699 -25.333 -12.667 -56.333 -18 -93v-568
c5.33301 -37.333 11.333 -68.333 18 -93c42.667 -99.333 118 -149 226 -149c29.333 0 49.333 1.66699 60 5c126 31.333 189 123.666 189 276.999v488zM944 1958c35.333 -38 44.6689 -69.667 28.002 -95l-42 -72c-13.333 -26 -38.333 -32.333 -75 -19l-219 150l-219 -150
c-36 -13.333 -61 -7 -75 19l-42 72c-16.667 25.333 -7.33398 57 27.999 95l257 213c20 8.66699 37 12 51 10c14 2 31 -1.33301 51 -10l34 -28c3.33301 -2.66699 6.66602 -5 9.99902 -7v-1z" />
    <glyph glyph-name="uni1ED1" unicode="&#x1ed1;" 
d="M1152 2464c44 28.667 74.667 30 92 4l77 -126c16.667 -27.333 8.66699 -51 -24 -71l-335 -197c-40 -11.333 -66.667 -4 -80 22l-45 71c-18 26 -7.66699 57.333 31 94zM40 1128c0 196.667 79.667 355.67 239 477.003c107.333 72 218.666 108 333.999 108v-2
c8.66699 3.33301 14.334 5 17.001 5c66.667 -3.33301 123.667 -11 171 -23c56.667 -14.667 111.334 -38 164.001 -70c38 -20.667 86.333 -65 145 -133c34.667 -49.333 60.667 -96.333 78 -141c28.667 -70 43 -161.333 43 -274v-432
c0 -112.667 -14.333 -204.334 -43 -275.001c-17.333 -44 -43.333 -90.667 -78 -140c-58.667 -68.667 -107 -113.334 -145 -134.001c-52.667 -32 -107.334 -55.333 -164.001 -70c-47.333 -12 -104.333 -19.667 -171 -23c-2.66699 0 -8.33398 1.66699 -17.001 5v-2
c-115.333 0 -226.666 36 -333.999 108c-159.333 121.333 -239 280.666 -239 477.999v538zM882 1103c0 153.333 -63 245.334 -189 276.001c-10.667 3.33301 -30.667 5 -60 5c-108 0 -183.333 -49.333 -226 -148c-6.66699 -25.333 -12.667 -56.333 -18 -93v-568
c5.33301 -37.333 11.333 -68.333 18 -93c42.667 -99.333 118 -149 226 -149c29.333 0 49.333 1.66699 60 5c126 31.333 189 123.666 189 276.999v488zM944 1958c35.333 -38 44.6689 -69.667 28.002 -95l-42 -72c-13.333 -26 -38.333 -32.333 -75 -19l-219 150l-219 -150
c-36 -13.333 -61 -7 -75 19l-42 72c-16.667 25.333 -7.33398 57 27.999 95l257 213c20 8.66699 37 12 51 10c14 2 31 -1.33301 51 -10l34 -28c3.33301 -2.66699 6.66602 -5 9.99902 -7v-1z" />
    <glyph glyph-name="uni1ED2" unicode="&#x1ed2;" 
d="M1106 2259c38.667 -36.667 49 -68 31 -94l-45 -71c-13.333 -26 -40 -33.333 -80 -22l-335 197c-32.667 20 -40.667 43.667 -24 71l77 126c17.333 26 48 24.667 92 -4zM40 1128c0 196.667 79.667 355.67 239 477.003c107.333 72 218.666 108 333.999 108v-2
c8.66699 3.33301 14.334 5 17.001 5c66.667 -3.33301 123.667 -11 171 -23c56.667 -14.667 111.334 -38 164.001 -70c38 -20.667 86.333 -65 145 -133c34.667 -49.333 60.667 -96.333 78 -141c28.667 -70 43 -161.333 43 -274v-432
c0 -112.667 -14.333 -204.334 -43 -275.001c-17.333 -44 -43.333 -90.667 -78 -140c-58.667 -68.667 -107 -113.334 -145 -134.001c-52.667 -32 -107.334 -55.333 -164.001 -70c-47.333 -12 -104.333 -19.667 -171 -23c-2.66699 0 -8.33398 1.66699 -17.001 5v-2
c-115.333 0 -226.666 36 -333.999 108c-159.333 121.333 -239 280.666 -239 477.999v538zM882 1103c0 153.333 -63 245.334 -189 276.001c-10.667 3.33301 -30.667 5 -60 5c-108 0 -183.333 -49.333 -226 -148c-6.66699 -25.333 -12.667 -56.333 -18 -93v-568
c5.33301 -37.333 11.333 -68.333 18 -93c42.667 -99.333 118 -149 226 -149c29.333 0 49.333 1.66699 60 5c126 31.333 189 123.666 189 276.999v488zM944 1958c35.333 -38 44.6689 -69.667 28.002 -95l-42 -72c-13.333 -26 -38.333 -32.333 -75 -19l-219 150l-219 -150
c-36 -13.333 -61 -7 -75 19l-42 72c-16.667 25.333 -7.33398 57 27.999 95l257 213c20 8.66699 37 12 51 10c14 2 31 -1.33301 51 -10l34 -28c3.33301 -2.66699 6.66602 -5 9.99902 -7v-1z" />
    <glyph glyph-name="uni1ED3" unicode="&#x1ed3;" 
d="M1106 2259c38.667 -36.667 49 -68 31 -94l-45 -71c-13.333 -26 -40 -33.333 -80 -22l-335 197c-32.667 20 -40.667 43.667 -24 71l77 126c17.333 26 48 24.667 92 -4zM40 1128c0 196.667 79.667 355.67 239 477.003c107.333 72 218.666 108 333.999 108v-2
c8.66699 3.33301 14.334 5 17.001 5c66.667 -3.33301 123.667 -11 171 -23c56.667 -14.667 111.334 -38 164.001 -70c38 -20.667 86.333 -65 145 -133c34.667 -49.333 60.667 -96.333 78 -141c28.667 -70 43 -161.333 43 -274v-432
c0 -112.667 -14.333 -204.334 -43 -275.001c-17.333 -44 -43.333 -90.667 -78 -140c-58.667 -68.667 -107 -113.334 -145 -134.001c-52.667 -32 -107.334 -55.333 -164.001 -70c-47.333 -12 -104.333 -19.667 -171 -23c-2.66699 0 -8.33398 1.66699 -17.001 5v-2
c-115.333 0 -226.666 36 -333.999 108c-159.333 121.333 -239 280.666 -239 477.999v538zM882 1103c0 153.333 -63 245.334 -189 276.001c-10.667 3.33301 -30.667 5 -60 5c-108 0 -183.333 -49.333 -226 -148c-6.66699 -25.333 -12.667 -56.333 -18 -93v-568
c5.33301 -37.333 11.333 -68.333 18 -93c42.667 -99.333 118 -149 226 -149c29.333 0 49.333 1.66699 60 5c126 31.333 189 123.666 189 276.999v488zM944 1958c35.333 -38 44.6689 -69.667 28.002 -95l-42 -72c-13.333 -26 -38.333 -32.333 -75 -19l-219 150l-219 -150
c-36 -13.333 -61 -7 -75 19l-42 72c-16.667 25.333 -7.33398 57 27.999 95l257 213c20 8.66699 37 12 51 10c14 2 31 -1.33301 51 -10l34 -28c3.33301 -2.66699 6.66602 -5 9.99902 -7v-1z" />
    <glyph glyph-name="uni1ED4" unicode="&#x1ed4;" 
d="M920 2062c-34 0 -49.999 23.333 -47.999 70c0 28.667 5.83301 56.167 17.5 82.5s28.5 48.166 50.5 65.5c16.667 13.333 28.5 26.166 35.5 38.5c7 12.333 11.5 25.166 13.5 38.5c-5.33301 0.666992 -13.833 1 -25.5 1h-45.5h-78c-27.333 6 -41 25.333 -41 58v80
c0 38 20 57 60 57h20c6.66699 0 13.167 0.166992 19.5 0.5s12.5 0.5 18.5 0.5c90.667 0 148.667 -6.33301 174 -19c31.333 -16 55.666 -38 72.999 -66c7.33301 -12 13 -26.333 17 -43s6 -35 6 -55v-15.5c0 -6.33301 -0.333008 -12.166 -1 -17.5
c-3.33301 -28.667 -11.5 -55.667 -24.5 -81s-30.5 -47.333 -52.5 -66c-12 -10 -21.333 -19.167 -28 -27.5s-10 -15.833 -10 -22.5c0 -1.33301 0.666992 -4.66602 2 -10c0 -46 -17.667 -69 -53 -69h-100zM40.001 1128c0 196.667 79.667 355.67 239 477.003
c107.333 72 218.666 108 333.999 108v-2c8.66699 3.33301 14.334 5 17.001 5c66.667 -3.33301 123.667 -11 171 -23c56.667 -14.667 111.334 -38 164.001 -70c38 -20.667 86.333 -65 145 -133c34.667 -49.333 60.667 -96.333 78 -141c28.667 -70 43 -161.333 43 -274v-432
c0 -112.667 -14.333 -204.334 -43 -275.001c-17.333 -44 -43.333 -90.667 -78 -140c-58.667 -68.667 -107 -113.334 -145 -134.001c-52.667 -32 -107.334 -55.333 -164.001 -70c-47.333 -12 -104.333 -19.667 -171 -23c-2.66699 0 -8.33398 1.66699 -17.001 5v-2
c-115.333 0 -226.666 36 -333.999 108c-159.333 121.333 -239 280.666 -239 477.999v538zM882.001 1103c0 153.333 -63 245.334 -189 276.001c-10.667 3.33301 -30.667 5 -60 5c-108 0 -183.333 -49.333 -226 -148c-6.66699 -25.333 -12.667 -56.333 -18 -93v-568
c5.33301 -37.333 11.333 -68.333 18 -93c42.667 -99.333 118 -149 226 -149c29.333 0 49.333 1.66699 60 5c126 31.333 189 123.666 189 276.999v488zM944.001 1958c35.333 -38 44.6689 -69.667 28.002 -95l-42 -72c-13.333 -26 -38.333 -32.333 -75 -19l-219 150l-219 -150
c-36 -13.333 -61 -7 -75 19l-42 72c-16.667 25.333 -7.33398 57 27.999 95l257 213c20 8.66699 37 12 51 10c14 2 31 -1.33301 51 -10l34 -28c3.33301 -2.66699 6.66602 -5 9.99902 -7v-1z" />
    <glyph glyph-name="uni1ED5" unicode="&#x1ed5;" 
d="M920 2062c-34 0 -49.999 23.333 -47.999 70c0 28.667 5.83301 56.167 17.5 82.5s28.5 48.166 50.5 65.5c16.667 13.333 28.5 26.166 35.5 38.5c7 12.333 11.5 25.166 13.5 38.5c-5.33301 0.666992 -13.833 1 -25.5 1h-45.5h-78c-27.333 6 -41 25.333 -41 58v80
c0 38 20 57 60 57h20c6.66699 0 13.167 0.166992 19.5 0.5s12.5 0.5 18.5 0.5c90.667 0 148.667 -6.33301 174 -19c31.333 -16 55.666 -38 72.999 -66c7.33301 -12 13 -26.333 17 -43s6 -35 6 -55v-15.5c0 -6.33301 -0.333008 -12.166 -1 -17.5
c-3.33301 -28.667 -11.5 -55.667 -24.5 -81s-30.5 -47.333 -52.5 -66c-12 -10 -21.333 -19.167 -28 -27.5s-10 -15.833 -10 -22.5c0 -1.33301 0.666992 -4.66602 2 -10c0 -46 -17.667 -69 -53 -69h-100zM40.001 1128c0 196.667 79.667 355.67 239 477.003
c107.333 72 218.666 108 333.999 108v-2c8.66699 3.33301 14.334 5 17.001 5c66.667 -3.33301 123.667 -11 171 -23c56.667 -14.667 111.334 -38 164.001 -70c38 -20.667 86.333 -65 145 -133c34.667 -49.333 60.667 -96.333 78 -141c28.667 -70 43 -161.333 43 -274v-432
c0 -112.667 -14.333 -204.334 -43 -275.001c-17.333 -44 -43.333 -90.667 -78 -140c-58.667 -68.667 -107 -113.334 -145 -134.001c-52.667 -32 -107.334 -55.333 -164.001 -70c-47.333 -12 -104.333 -19.667 -171 -23c-2.66699 0 -8.33398 1.66699 -17.001 5v-2
c-115.333 0 -226.666 36 -333.999 108c-159.333 121.333 -239 280.666 -239 477.999v538zM882.001 1103c0 153.333 -63 245.334 -189 276.001c-10.667 3.33301 -30.667 5 -60 5c-108 0 -183.333 -49.333 -226 -148c-6.66699 -25.333 -12.667 -56.333 -18 -93v-568
c5.33301 -37.333 11.333 -68.333 18 -93c42.667 -99.333 118 -149 226 -149c29.333 0 49.333 1.66699 60 5c126 31.333 189 123.666 189 276.999v488zM944.001 1958c35.333 -38 44.6689 -69.667 28.002 -95l-42 -72c-13.333 -26 -38.333 -32.333 -75 -19l-219 150l-219 -150
c-36 -13.333 -61 -7 -75 19l-42 72c-16.667 25.333 -7.33398 57 27.999 95l257 213c20 8.66699 37 12 51 10c14 2 31 -1.33301 51 -10l34 -28c3.33301 -2.66699 6.66602 -5 9.99902 -7v-1z" />
    <glyph glyph-name="uni1ED6" unicode="&#x1ed6;" 
d="M409 2242c-0.666992 -0.666992 -1.66895 -1.33398 -3.00195 -2v-1h-1c-20.667 -15.333 -39.334 -16 -56.001 -2l-49 42c-20 14.667 -22 40.334 -6 77l1 -2c30.667 47.333 61.334 87 92.001 119c39.333 40 80 60 122 60c40.667 0 85.334 -17.667 134.001 -53
c52.667 -37.333 89.667 -56.666 111 -58c28 0 67.667 30.333 119 91l4 -4c18.667 13.333 36.334 14.333 53.001 3l52 -42c22 -14 25.333 -40.333 10 -79l-2 1c-91.333 -116 -170 -172 -236 -168c-26 -8 -71 8.66699 -135 50c-48 36.667 -83 55 -105 55s-57.333 -29 -106 -87
h1zM39.998 1128c0 196.667 79.667 355.67 239 477.003c107.333 72 218.666 108 333.999 108v-2c8.66699 3.33301 14.334 5 17.001 5c66.667 -3.33301 123.667 -11 171 -23c56.667 -14.667 111.334 -38 164.001 -70c38 -20.667 86.333 -65 145 -133
c34.667 -49.333 60.667 -96.333 78 -141c28.667 -70 43 -161.333 43 -274v-432c0 -112.667 -14.333 -204.334 -43 -275.001c-17.333 -44 -43.333 -90.667 -78 -140c-58.667 -68.667 -107 -113.334 -145 -134.001c-52.667 -32 -107.334 -55.333 -164.001 -70
c-47.333 -12 -104.333 -19.667 -171 -23c-2.66699 0 -8.33398 1.66699 -17.001 5v-2c-115.333 0 -226.666 36 -333.999 108c-159.333 121.333 -239 280.666 -239 477.999v538zM881.998 1103c0 153.333 -63 245.334 -189 276.001c-10.667 3.33301 -30.667 5 -60 5
c-108 0 -183.333 -49.333 -226 -148c-6.66699 -25.333 -12.667 -56.333 -18 -93v-568c5.33301 -37.333 11.333 -68.333 18 -93c42.667 -99.333 118 -149 226 -149c29.333 0 49.333 1.66699 60 5c126 31.333 189 123.666 189 276.999v488zM943.998 1958
c35.333 -38 44.6689 -69.667 28.002 -95l-42 -72c-13.333 -26 -38.333 -32.333 -75 -19l-219 150l-219 -150c-36 -13.333 -61 -7 -75 19l-42 72c-16.667 25.333 -7.33398 57 27.999 95l257 213c20 8.66699 37 12 51 10c14 2 31 -1.33301 51 -10l34 -28
c3.33301 -2.66699 6.66602 -5 9.99902 -7v-1z" />
    <glyph glyph-name="uni1ED7" unicode="&#x1ed7;" 
d="M409 2242c-0.666992 -0.666992 -1.66895 -1.33398 -3.00195 -2v-1h-1c-20.667 -15.333 -39.334 -16 -56.001 -2l-49 42c-20 14.667 -22 40.334 -6 77l1 -2c30.667 47.333 61.334 87 92.001 119c39.333 40 80 60 122 60c40.667 0 85.334 -17.667 134.001 -53
c52.667 -37.333 89.667 -56.666 111 -58c28 0 67.667 30.333 119 91l4 -4c18.667 13.333 36.334 14.333 53.001 3l52 -42c22 -14 25.333 -40.333 10 -79l-2 1c-91.333 -116 -170 -172 -236 -168c-26 -8 -71 8.66699 -135 50c-48 36.667 -83 55 -105 55s-57.333 -29 -106 -87
h1zM39.998 1128c0 196.667 79.667 355.67 239 477.003c107.333 72 218.666 108 333.999 108v-2c8.66699 3.33301 14.334 5 17.001 5c66.667 -3.33301 123.667 -11 171 -23c56.667 -14.667 111.334 -38 164.001 -70c38 -20.667 86.333 -65 145 -133
c34.667 -49.333 60.667 -96.333 78 -141c28.667 -70 43 -161.333 43 -274v-432c0 -112.667 -14.333 -204.334 -43 -275.001c-17.333 -44 -43.333 -90.667 -78 -140c-58.667 -68.667 -107 -113.334 -145 -134.001c-52.667 -32 -107.334 -55.333 -164.001 -70
c-47.333 -12 -104.333 -19.667 -171 -23c-2.66699 0 -8.33398 1.66699 -17.001 5v-2c-115.333 0 -226.666 36 -333.999 108c-159.333 121.333 -239 280.666 -239 477.999v538zM881.998 1103c0 153.333 -63 245.334 -189 276.001c-10.667 3.33301 -30.667 5 -60 5
c-108 0 -183.333 -49.333 -226 -148c-6.66699 -25.333 -12.667 -56.333 -18 -93v-568c5.33301 -37.333 11.333 -68.333 18 -93c42.667 -99.333 118 -149 226 -149c29.333 0 49.333 1.66699 60 5c126 31.333 189 123.666 189 276.999v488zM943.998 1958
c35.333 -38 44.6689 -69.667 28.002 -95l-42 -72c-13.333 -26 -38.333 -32.333 -75 -19l-219 150l-219 -150c-36 -13.333 -61 -7 -75 19l-42 72c-16.667 25.333 -7.33398 57 27.999 95l257 213c20 8.66699 37 12 51 10c14 2 31 -1.33301 51 -10l34 -28
c3.33301 -2.66699 6.66602 -5 9.99902 -7v-1z" />
    <glyph glyph-name="uni1ED8" unicode="&#x1ed8;" 
d="M521 -146c-2 36.667 8.00098 55.333 30.001 56h176c16.667 0.666992 25 -17 25 -53l-1 -198c-10.667 -26.667 -26.667 -40 -48 -40h-134c-24.667 0 -40.334 15 -47.001 45zM40.001 1128c0 196.667 79.667 355.67 239 477.003c107.333 72 218.666 108 333.999 108v-2
c8.66699 3.33301 14.334 5 17.001 5c66.667 -3.33301 123.667 -11 171 -23c56.667 -14.667 111.334 -38 164.001 -70c38 -20.667 86.333 -65 145 -133c34.667 -49.333 60.667 -96.333 78 -141c28.667 -70 43 -161.333 43 -274v-432
c0 -112.667 -14.333 -204.334 -43 -275.001c-17.333 -44 -43.333 -90.667 -78 -140c-58.667 -68.667 -107 -113.334 -145 -134.001c-52.667 -32 -107.334 -55.333 -164.001 -70c-47.333 -12 -104.333 -19.667 -171 -23c-2.66699 0 -8.33398 1.66699 -17.001 5v-2
c-115.333 0 -226.666 36 -333.999 108c-159.333 121.333 -239 280.666 -239 477.999v538zM882.001 1103c0 153.333 -63 245.334 -189 276.001c-10.667 3.33301 -30.667 5 -60 5c-108 0 -183.333 -49.333 -226 -148c-6.66699 -25.333 -12.667 -56.333 -18 -93v-568
c5.33301 -37.333 11.333 -68.333 18 -93c42.667 -99.333 118 -149 226 -149c29.333 0 49.333 1.66699 60 5c126 31.333 189 123.666 189 276.999v488zM944.001 1958c35.333 -38 44.6689 -69.667 28.002 -95l-42 -72c-13.333 -26 -38.333 -32.333 -75 -19l-219 150l-219 -150
c-36 -13.333 -61 -7 -75 19l-42 72c-16.667 25.333 -7.33398 57 27.999 95l257 213c20 8.66699 37 12 51 10c14 2 31 -1.33301 51 -10l34 -28c3.33301 -2.66699 6.66602 -5 9.99902 -7v-1z" />
    <glyph glyph-name="uni1ED9" unicode="&#x1ed9;" 
d="M521 -146c-2 36.667 8.00098 55.333 30.001 56h176c16.667 0.666992 25 -17 25 -53l-1 -198c-10.667 -26.667 -26.667 -40 -48 -40h-134c-24.667 0 -40.334 15 -47.001 45zM40.001 1128c0 196.667 79.667 355.67 239 477.003c107.333 72 218.666 108 333.999 108v-2
c8.66699 3.33301 14.334 5 17.001 5c66.667 -3.33301 123.667 -11 171 -23c56.667 -14.667 111.334 -38 164.001 -70c38 -20.667 86.333 -65 145 -133c34.667 -49.333 60.667 -96.333 78 -141c28.667 -70 43 -161.333 43 -274v-432
c0 -112.667 -14.333 -204.334 -43 -275.001c-17.333 -44 -43.333 -90.667 -78 -140c-58.667 -68.667 -107 -113.334 -145 -134.001c-52.667 -32 -107.334 -55.333 -164.001 -70c-47.333 -12 -104.333 -19.667 -171 -23c-2.66699 0 -8.33398 1.66699 -17.001 5v-2
c-115.333 0 -226.666 36 -333.999 108c-159.333 121.333 -239 280.666 -239 477.999v538zM882.001 1103c0 153.333 -63 245.334 -189 276.001c-10.667 3.33301 -30.667 5 -60 5c-108 0 -183.333 -49.333 -226 -148c-6.66699 -25.333 -12.667 -56.333 -18 -93v-568
c5.33301 -37.333 11.333 -68.333 18 -93c42.667 -99.333 118 -149 226 -149c29.333 0 49.333 1.66699 60 5c126 31.333 189 123.666 189 276.999v488zM944.001 1958c35.333 -38 44.6689 -69.667 28.002 -95l-42 -72c-13.333 -26 -38.333 -32.333 -75 -19l-219 150l-219 -150
c-36 -13.333 -61 -7 -75 19l-42 72c-16.667 25.333 -7.33398 57 27.999 95l257 213c20 8.66699 37 12 51 10c14 2 31 -1.33301 51 -10l34 -28c3.33301 -2.66699 6.66602 -5 9.99902 -7v-1z" />
    <glyph glyph-name="uni1EDA" unicode="&#x1eda;" horiz-adv-x="1320" 
d="M735 2158c44 28.667 74.667 30 92 4l77 -126c16.667 -27.333 8.66699 -51 -24 -71l-335 -197c-40 -11.333 -66.667 -4 -80 22l-45 71c-18 26 -7.66699 57.333 31 94zM40 1128c0 196.667 79.6689 355.671 239.002 477.004c107.333 72 218.666 108 333.999 108v-2
c8.66699 3.33301 14.334 5 17.001 5c66.667 -3.33301 123.667 -11 171 -23c56.667 -14.667 111.334 -38 164.001 -70c11.333 -6.66699 23.666 -15.334 36.999 -26.001v183c-2.66699 47.333 10.666 71.666 39.999 72.999h232c24 0.666992 36 -22.666 36 -69.999l-1 -282
c-13.333 -34.667 -34.333 -51.667 -63 -51h-110c22 -35.333 39.333 -69 52 -101c28.667 -70 43 -161.333 43 -274v-432c0 -112.667 -14.333 -204.334 -43 -275.001c-17.333 -44 -43.333 -90.667 -78 -140c-58.667 -68.667 -107 -113.334 -145 -134.001
c-52.667 -32 -107.334 -55.333 -164.001 -70c-47.333 -12 -104.333 -19.667 -171 -23c-2.66699 0 -8.33398 1.66699 -17.001 5v-2c-115.333 0 -226.666 36 -333.999 108c-159.333 121.333 -239 280.666 -239 477.999v538zM882.002 1103c0 153.333 -63 245.334 -189 276.001
c-10.667 3.33301 -30.667 5 -60 5c-108 0 -183.333 -49.333 -226 -148c-6.66699 -25.333 -12.667 -56.333 -18 -93v-568c5.33301 -37.333 11.333 -68.333 18 -93c42.667 -99.333 118 -149 226 -149c29.333 0 49.333 1.66699 60 5c126 31.333 189 123.666 189 276.999v488z
" />
    <glyph glyph-name="uni1EDB" unicode="&#x1edb;" horiz-adv-x="1320" 
d="M735 2158c44 28.667 74.667 30 92 4l77 -126c16.667 -27.333 8.66699 -51 -24 -71l-335 -197c-40 -11.333 -66.667 -4 -80 22l-45 71c-18 26 -7.66699 57.333 31 94zM40 1128c0 196.667 79.6689 355.671 239.002 477.004c107.333 72 218.666 108 333.999 108v-2
c8.66699 3.33301 14.334 5 17.001 5c66.667 -3.33301 123.667 -11 171 -23c56.667 -14.667 111.334 -38 164.001 -70c11.333 -6.66699 23.666 -15.334 36.999 -26.001v183c-2.66699 47.333 10.666 71.666 39.999 72.999h232c24 0.666992 36 -22.666 36 -69.999l-1 -282
c-13.333 -34.667 -34.333 -51.667 -63 -51h-110c22 -35.333 39.333 -69 52 -101c28.667 -70 43 -161.333 43 -274v-432c0 -112.667 -14.333 -204.334 -43 -275.001c-17.333 -44 -43.333 -90.667 -78 -140c-58.667 -68.667 -107 -113.334 -145 -134.001
c-52.667 -32 -107.334 -55.333 -164.001 -70c-47.333 -12 -104.333 -19.667 -171 -23c-2.66699 0 -8.33398 1.66699 -17.001 5v-2c-115.333 0 -226.666 36 -333.999 108c-159.333 121.333 -239 280.666 -239 477.999v538zM882.002 1103c0 153.333 -63 245.334 -189 276.001
c-10.667 3.33301 -30.667 5 -60 5c-108 0 -183.333 -49.333 -226 -148c-6.66699 -25.333 -12.667 -56.333 -18 -93v-568c5.33301 -37.333 11.333 -68.333 18 -93c42.667 -99.333 118 -149 226 -149c29.333 0 49.333 1.66699 60 5c126 31.333 189 123.666 189 276.999v488z
" />
    </font>
</defs>
</svg>
