<?xml version="1.0" encoding="UTF-8" standalone="no"?>
<!DOCTYPE svg  PUBLIC '-//W3C//DTD SVG 1.1//EN'  'http://www.w3.org/Graphics/SVG/1.1/DTD/svg11.dtd'>
<svg xmlns="http://www.w3.org/2000/svg">
<defs>
<font id="SVN-EveryMovieEveryNight" horiz-adv-x="1268">
<font-face underline-position="-142" font-weight="400" descent="-410" panose-1="2 0 5 0 0 0 0 0 0 0" units-per-em="2048" unicode-range="U+0020-201E" bbox="-146 -418 2106 2622" x-height="1715" underline-thickness="150" font-family="SVN" ascent="1638" cap-height="1715"/>
<missing-glyph horiz-adv-x="1024"/>
<glyph glyph-name=".notdef" horiz-adv-x="1024"/>
<glyph glyph-name=".null" horiz-adv-x="0"/>
<glyph glyph-name="nonmarkingreturn" horiz-adv-x="508"/>
<glyph glyph-name="space" horiz-adv-x="508" unicode=" "/>
<glyph glyph-name="space" horiz-adv-x="508" unicode=" "/>
<glyph glyph-name="exclam" horiz-adv-x="538" unicode="!" d="M443 166q0 -67 -47.5 -114.5t-115.5 -47.5q-67 0 -114.5 47.5t-47.5 114.5t47.5 114.5t114.5 47.5q68 0 115.5 -47.5t47.5 -114.5zM103 1622v6q0 87 52 87h1h238h2q53 0 53 -70l-40 -1142q0 -70 -53 -70h-2h-158h-1q-52 0 -52 87v6z"/>
<glyph glyph-name="quotedbl" horiz-adv-x="922" unicode='&quot;' d="M513 1622v6q0 87 52 87h1h238h2q53 0 53 -70l-20 -342q-20 -70 -73 -70h-2h-158h-1q-54 0 -72 93zM103 1622v6q0 87 52 87h1h238h2q53 0 53 -70l-20 -342q-20 -70 -73 -70h-2h-158h-1q-54 0 -72 93z"/>
<glyph glyph-name="numbersign" horiz-adv-x="1346" unicode="#" d="M577 985v-253l253 1v253zM330 732v253h-213q-71 0 -70 40v170q-1 37 84 37h9h190v390q-1 93 37 93h1h170h1q38 0 38 -70v-413l253 1v389q-1 93 37 93h1h170h1q38 0 38 -70v-412h129h5q89 0 88 -38v-170q1 -39 -70 -39h-152v-253h129h5q89 0 88 -38v-170q1 -39 -70 -39 h-152v-413q0 -70 -38 -70h-1h-170h-1q-38 0 -37 93v390l-253 -1v-412q0 -70 -38 -70h-1h-170h-1q-38 0 -37 93v389h-213q-71 0 -70 40v170q-1 37 84 37h9h190z"/>
<glyph glyph-name="dollar" d="M769 337q37 18 65 47q47 48 47 103q0 33 -17 70q-19 40 -95 78v-298zM491 1356q-58 -29 -77 -90q-18 -56 -18 -96q0 -45 22 -70q15 -17 73 -41v297zM769 972q30 -8 62 -16q371 -97 375.5 -244.5t4.5 -158.5q0 -271 -230 -446q-104 -69 -212 -93v-156q0 -57 -44 -57h-191 q-43 0 -43 69v6v137q-17 3 -32 7q-85 22 -164 70q-57 31 -145 133q-52 73 -78 140q-39 96 -43 244q4 37 50 53h242q51 0 57 -63q3 -183 113 -253v386q-25 7 -52 13q-380 90 -385 243t-5 164q0 280 230 455q110 74 212 97v70v6q0 69 42 69h1h191h2q42 0 42 -56v-91 q18 -3 32 -7q85 -22 164 -70q57 -31 145 -133q52 -74 78 -141q43 -105 43 -224v-35q0 -43 -50 -60h-242q-51 0 -57 63v10q0 178 -113 246v-377z" unicode="$"/>
<glyph glyph-name="percent" horiz-adv-x="1878" unicode="%" d="M1473 524q-119 0 -119 -164q0 -163 119 -163q116 0 116 163q0 164 -116 164zM1473 -8q-166 0 -266.5 101t-100.5 267t100.5 267.5t266.5 101.5q163 0 263.5 -101.5t100.5 -267.5t-100.5 -267t-263.5 -101zM406 1210q-119 0 -119 -163q0 -164 119 -164q116 0 116 164 q0 163 -116 163zM406 678q-166 0 -266.5 101.5t-100.5 267.5q0 165 100.5 266.5t266.5 101.5q163 0 263.5 -101.5t100.5 -266.5q0 -166 -100.5 -267.5t-263.5 -101.5zM401 -49l842 1497h219l-839 -1497h-222z"/>
<glyph glyph-name="ampersand" horiz-adv-x="1357" unicode="&amp;" d="M28 489v749q2 55 23 133.5t93.5 171.5t169 137.5t421.5 44.5q75 0 75 -67v-205q0 -63 -40 -70q-215 -6 -273 -14.5t-89 -50t-34 -120.5v-109h340h6q87 0 87 -53v-238q1 -55 -70 -55h-363v-214q3 -78 34 -120t106 -60t158.5 -18t153.5 18.5t100.5 60.5t33.5 120v416 q0 70 53 70h2h238h1q52 0 52 -87v-6v-433q-2 -55 -22.5 -133.5t-93.5 -172.5t-169 -138q-85 -40 -217.5 -44.5t-163.5 -4.5q-188 0 -305.5 46t-190 140t-93.5 172.5t-23 133.5z"/>
<glyph glyph-name="quotesingle" horiz-adv-x="553" unicode="&apos;" d="M103 1622v6q0 87 52 87h1h238h2q53 0 53 -70l-20 -342q-20 -70 -73 -70h-2h-158h-1q-54 0 -72 93z"/>
<glyph glyph-name="parenleft" horiz-adv-x="680" unicode="(" d="M374 529q3 -78 34 -120t89 -51t93 -14q40 -8 40 -71v-205q0 -68 -75 -68q-145 0 -241.5 44.5t-169 138.5t-93.5 172.5t-23 133.5v749q2 55 23 133.5t93.5 171.5t169 137.5t241.5 44.5q75 0 75 -67v-205q0 -63 -40 -70q-35 -6 -93 -14.5t-89 -50t-34 -120.5v-669z"/>
<glyph glyph-name="parenright" horiz-adv-x="686" unicode=")" d="M295 1198q-3 79 -34 120.5t-88.5 50t-92.5 14.5q-40 7 -40 70v205q0 67 75 67q144 0 240.5 -44.5t168.5 -137.5t93 -171.5t23 -133.5v-749q-2 -55 -23 -133.5t-93 -172.5t-168.5 -138.5t-240.5 -44.5q-75 0 -75 68v205q0 63 40 71q35 5 92.5 14t88.5 51t34 120v669z"/>
<glyph glyph-name="asterisk" horiz-adv-x="1024" unicode="*" d="M498 1294q-4 71 -37 130q-37 66 -37 84q0 32 23.5 51.5t62.5 19.5q37 0 61.5 -18t24.5 -47q0 -21 -36 -89q-33 -61 -37 -130q66 25 113 75q51 55 69 61q11 3 21 3q18 0 35 -10q26 -17 38 -53q6 -19 6 -36q0 -15 -4 -28q-10 -30 -38 -38q-6 -2 -19 -2q-25 0 -76 9 q-28 5 -55 5q-41 0 -81 -11q44 -55 105 -83q68 -32 79 -47q13 -18 13 -38q0 -9 -2 -17q-8 -30 -39 -53q-29 -22 -59 -22q-1 0 -1 1q-31 0 -48 23q-12 17 -22 94q-10 67 -47 125q-38 -58 -46 -124q-9 -75 -20 -90q-19 -25 -49 -27h-5q-28 0 -57 21q-30 21 -39 51q-4 10 -4 20 q0 17 11 32q13 17 83 51q61 29 105 82q-41 11 -80 11q-27 0 -53 -5q-54 -11 -78 -11q-9 0 -14 2q-30 9 -41 38q-6 13 -6 29q0 17 6 36q11 35 36 53q17 12 34 12q9 0 18 -3q20 -6 74 -62q47 -49 112 -75z"/>
<glyph glyph-name="plus" horiz-adv-x="1106" unicode="+" d="M371 932v240v6q0 87 52 87h1h238h2q53 0 53 -70v-263h240h6q87 0 87 -53v-238q1 -55 -70 -55h-263v-263q0 -70 -53 -70h-2h-238h-1q-52 0 -52 87v6v240h-263q-71 0 -70 55v238q-1 53 87 53h6h240z"/>
<glyph glyph-name="comma" horiz-adv-x="553" unicode="," d="M122 42v11q0 60 40 62h232h1q35 0 35 -70l-1 -361q-20 -51 -61 -51h-2h-181h-2q-48 0 -60 59z"/>
<glyph glyph-name="hyphen" horiz-adv-x="1106" unicode="-" d="M957 932h6q87 0 87 -53v-238q1 -55 -70 -55h-872q-71 0 -70 55v238q-1 53 87 53h6h826z"/>
<glyph glyph-name="hyphen" horiz-adv-x="1106" unicode="­" d="M957 932h6q87 0 87 -53v-238q1 -55 -70 -55h-872q-71 0 -70 55v238q-1 53 87 53h6h826z"/>
<glyph glyph-name="period" horiz-adv-x="538" unicode="." d="M443 166q0 -67 -48 -114.5t-115 -47.5t-114.5 47.5t-47.5 114.5t47.5 114.5t114.5 47.5t115 -47.5t48 -114.5z"/>
<glyph glyph-name="slash" horiz-adv-x="1092" unicode="/" d="M14 -49l842 1497h219l-839 -1497h-222z"/>
<glyph glyph-name="zero" d="M882 1103q0 230 -189 276q-16 5 -60 5q-162 0 -226 -148q-10 -38 -18 -93v-568q8 -56 18 -93q64 -149 226 -149q44 0 60 5q189 47 189 277v488zM40 1128q0 295 239 477q161 108 334 108v-2q13 5 17 5q100 -5 171 -23q85 -22 164 -70q57 -31 145 -133q52 -74 78 -141 q43 -105 43 -274v-432q0 -169 -43 -275q-26 -66 -78 -140q-88 -103 -145 -134q-79 -48 -164 -70q-71 -18 -171 -23q-4 0 -17 5v-2q-173 0 -334 108q-239 182 -239 478v538z" unicode="0"/>
<glyph glyph-name="one" horiz-adv-x="799" unicode="1" d="M673 0h-238h-1q-54 0 -54 71v1115q-3 79 -33.5 121t-88.5 50.5t-164 14.5q-40 7 -40 70v206q0 68 75 68q216 0 312 -45t169 -138.5t93.5 -172t22.5 -133.5v-1134v-6q0 -87 -53 -87z"/>
<glyph glyph-name="two" horiz-adv-x="1310" unicode="2" d="M1162 350h6q87 0 87 -53v-238q1 -55 -70 -55h-1041q-71 0 -70 55q-7 78 -7 150q0 532 385 687.5t416.5 192t31.5 81.5q0 40 -27.5 127t-209.5 87q-43 0 -59 -5q-189 -46 -189 -276v-10q-6 -63 -57 -63h-242q-50 17 -50 60v35q0 119 43 224q26 67 78 141q88 102 145 133 q79 48 164 70q71 18 144 19h74q143 0 303 -107q230 -175 230 -455q0 -11 -5 -164t-384.5 -303t-419.5 -231.5t-39 -101.5h763z"/>
<glyph glyph-name="three" horiz-adv-x="962" unicode="3" d="M147 743q-71 0 -70 55v238q-1 53 87 53h6h400v109q-3 79 -34 120.5t-89 50t-333 14.5q-40 7 -40 70v205q0 67 75 67q385 0 481.5 -44.5t169 -137.5t93.5 -171.5t23 -133.5v-749q-2 -55 -23 -133.5t-93.5 -172.5t-169 -138.5t-481.5 -44.5q-75 0 -75 68v205q0 63 40 71 q275 5 333 14t89 51t34 120v214h-423z"/>
<glyph glyph-name="four" horiz-adv-x="1086" unicode="4" d="M710 608q-320 2 -394 37q-97 44 -169.5 138t-93.5 172.5t-23 133.5v533v6q0 87 52 87h1h238h2q53 0 53 -70v-516q3 -78 34 -120t89 -51q37 -6 211 -6v670v6q0 87 52 87h1h238h2q53 0 53 -70v-1572q0 -70 -53 -70h-2h-238h-1q-52 0 -52 87v6v512z"/>
<glyph glyph-name="five" d="M401 1028q33 1 67 1q251 0 507.5 -85t261 -232.5t4.5 -158.5q0 -271 -230 -446q-161 -107 -334 -107v2q-13 -5 -17 -5q-100 5 -171 23q-85 22 -164 70q-57 31 -145 133q-52 73 -78 140q-39 96 -43 244q4 37 50 53h242q51 0 57 -63q5 -239 189 -284q16 -5 60 -5 q14 -1 27 -1q145 0 191 66t46 114q0 66 -73 172t-630 106h-33v1h-77h-1q-52 0 -52 87v6l-1 572v238q-1 52 84 52h9l926 -1h6q87 0 87 -53v-238q1 -55 -70 -55h-695v-346z" unicode="5"/>
<glyph glyph-name="six" horiz-adv-x="1281" unicode="6" d="M396 1254q111 49 227 49v-2q13 5 17 5q100 -5 171 -23q85 -22 164 -70q57 -31 145 -133q52 -74 78 -141q43 -105 43 -274v-22q0 -169 -43 -275q-26 -66 -78 -140q-88 -103 -145 -134q-79 -48 -164 -70q-71 -18 -171 -23q-4 0 -17 5v-2q-173 0 -334 108q-235 179 -239 469 v1041v6q0 87 52 87h1h238h2q53 0 53 -70v-391zM892 693q0 230 -189 276q-16 5 -60 5q-162 0 -226 -148q-10 -38 -18 -93v-158q8 -56 18 -93q64 -149 226 -149q44 0 60 5q189 47 189 277v78z"/>
<glyph glyph-name="seven" horiz-adv-x="1233" unicode="7" d="M1117 0h-238h-1q-54 0 -54 71v1115q-3 79 -33.5 121t-79 49t-318.5 7q-127 0 -305 -1q-40 7 -40 70v216q0 68 75 68q119 2 220 2q478 0 573.5 -47.5t153 -139.5t78 -170.5t22.5 -133.5v-1134v-6q0 -87 -53 -87z"/>
<glyph glyph-name="eight" horiz-adv-x="1290" unicode="8" d="M404 743v-214q3 -78 34 -120t89 -51q45 -7 113.5 -7t113.5 7q58 9 89 51t34 120v214h-473zM877 1089v109q-3 79 -34 120.5t-89 50.5q-45 6 -113.5 6t-113.5 -6q-58 -9 -89 -50.5t-34 -120.5v-109h473zM343 1681q72 33 297.5 33t297.5 -33q96 -45 168.5 -138t93.5 -171.5 t23 -133.5v-749q-2 -55 -23 -133.5t-93.5 -172.5t-168.5 -138q-72 -34 -297.5 -34t-297.5 34q-97 44 -169.5 138t-93.5 172.5t-23 133.5v749q2 55 23 133.5t93.5 171.5t169.5 138z"/>
<glyph glyph-name="nine" horiz-adv-x="1296" unicode="9" d="M897 463q-111 -49 -227 -49v2q-13 -5 -17 -5q-100 5 -171 23q-85 22 -164 70q-57 31 -145 133q-52 74 -78 141q-43 105 -43 274v22q0 169 43 275q26 66 78 140q88 103 145 134q79 48 164 70q71 18 171 23q4 0 17 -5v2q173 0 334 -108q235 -179 239 -469v-1041v-6 q0 -87 -52 -87h-1h-238h-2q-53 0 -53 70v391zM401 1024q0 -230 189 -276q16 -5 60 -5q162 0 226 148q10 38 18 93v158q-8 56 -18 93q-64 149 -226 149q-44 0 -60 -5q-189 -47 -189 -277v-78z"/>
<glyph glyph-name="colon" horiz-adv-x="538" unicode=":" d="M443 866q0 -67 -48 -114.5t-115 -47.5t-114.5 47.5t-47.5 114.5t47.5 114.5t114.5 47.5t115 -47.5t48 -114.5zM443 166q0 -67 -48 -114.5t-115 -47.5t-114.5 47.5t-47.5 114.5t47.5 114.5t114.5 47.5t115 -47.5t48 -114.5z"/>
<glyph glyph-name="semicolon" horiz-adv-x="538" unicode=";" d="M130 201v8q0 85 44 85h1h204h1q46 0 46 -70l-17 -342q-17 -70 -63 -70h-1h-136h-1q-46 0 -61 93zM443 916q0 -88 -48 -150t-115 -62t-114.5 62t-47.5 150t47.5 150t114.5 62t115 -62t48 -150z"/>
<glyph glyph-name="semicolon" horiz-adv-x="538" unicode=";" d="M130 201v8q0 85 44 85h1h204h1q46 0 46 -70l-17 -342q-17 -70 -63 -70h-1h-136h-1q-46 0 -61 93zM443 916q0 -88 -48 -150t-115 -62t-114.5 62t-47.5 150t47.5 150t114.5 62t115 -62t48 -150z"/>
<glyph glyph-name="question" horiz-adv-x="1052" unicode="?" d="M602 155q0 -67 -47.5 -114.5t-115.5 -47.5q-67 0 -114.5 47.5t-47.5 114.5t47.5 114.5t114.5 47.5q68 0 115.5 -47.5t47.5 -114.5zM574 571h-267h-1q-45 0 -45 81q0 10 1 20v13q0 201 150.5 319.5t152.5 178.5t2 68q0 98 -42.5 104.5t-218.5 6.5q-83 0 -197 -1 q-40 7 -40 70v216q0 68 75 68q84 2 156 2q342 0 437.5 -47.5t147 -130t51.5 -227.5q0 -38 -9 -162t-154.5 -241.5t-145.5 -211.5q0 -17 4 -33q-2 -93 -57 -93z"/>
<glyph glyph-name="at" horiz-adv-x="1516" unicode="@" d="M743 899q-105 0 -173 -152.5t-68 -371.5q0 -102 35.5 -159.5t101.5 -57.5q53 0 108 51t91 203.5t36 300.5q0 186 -131 186zM1157 1036l-125 -790q-3 -22 -3 -36q0 -42 38 -42q87 0 194 131.5t107 362.5q0 261 -150.5 415t-406.5 154q-293 0 -478.5 -203t-185.5 -526 q0 -314 179.5 -506.5t470.5 -192.5q284 0 518 187h225q-126 -162 -329.5 -258.5t-409.5 -96.5q-351 0 -588.5 249t-237.5 618q0 233 100 446.5t288.5 333t447.5 119.5q337 0 533 -210.5t196 -528.5q0 -193 -82 -343.5t-215.5 -234.5t-241.5 -84q-121 0 -155 119 q-64 -63 -118 -91t-122 -28q-143 0 -234 119t-91 311q0 247 124.5 444t303.5 197q75 0 128.5 -35t106.5 -112l19 112h194z"/>
<glyph glyph-name="A" d="M882 1026v77q0 230 -189 276q-16 5 -60 5q-162 0 -226 -148q-10 -38 -18 -93v-117h493zM389 707v-622q0 -85 -60 -85h-236q-30 0 -50 38q-3 9 -3 20v1070q0 295 239 477q161 108 334 108v-2q13 5 17 5q100 -5 171 -23q85 -22 164 -70q57 -31 145 -133q52 -74 78 -141 q43 -105 43 -274v-1015q0 -43 -50 -60h-242q-51 0 -57 63v644h-493z" unicode="A"/>
<glyph glyph-name="B" horiz-adv-x="1233" unicode="B" d="M376 716v-417h269q122 0 187 87q31 52 31 123q0 167 -152 203q-28 4 -76 4h-259zM376 1425v-417h267q133 0 176.5 61.5t43.5 148.5q0 136 -113 190q-36 17 -101 17h-273zM83 3h-1q-52 0 -52 87v6v1526v7q0 78 43 85q10 4 24 5h578q284 0 436 -231q63 -110 65.5 -191 t2.5 -89q0 -146 -81 -268q-26 -33 -72 -78q78 -74 113 -144q36 -90 37 -148.5t1 -70.5q0 -88 -13 -145q-38 -117 -110 -204q-101 -98 -246 -133q-112 -13 -148 -13z"/>
<glyph glyph-name="C" d="M389 569q8 -55 18 -93q64 -148 226 -148q44 0 60 5q184 45 189 264q6 63 57 63h242q46 -16 50 -53q-4 -148 -43 -244q-26 -67 -78 -140q-88 -102 -145 -133q-79 -48 -164 -70q-71 -18 -171 -23q-4 0 -17 5v-2q-173 0 -334 107q-239 182 -239 477v544q0 295 239 477 q161 108 334 108v-2q13 5 17 5q100 -5 171 -23q85 -22 164 -70q57 -31 145 -133q52 -74 78 -141q43 -105 43 -224v-35q0 -43 -50 -60h-242q-51 0 -57 63v10q0 230 -189 276q-16 5 -60 5q-162 0 -226 -148q-10 -38 -18 -93v-574z" unicode="C"/>
<glyph glyph-name="D" d="M396 1384v-1051h217q44 0 60 5q189 47 189 277v488q0 230 -189 276q-16 5 -60 5h-217zM304 3h-201h-1q-52 0 -52 87v6v1526v6q0 87 52 87h1h201q304 1 306 1q100 -5 171 -23q85 -22 164 -70q57 -31 145 -133q52 -74 78 -141q43 -105 43 -274v-432q0 -169 -43 -275 q-26 -66 -78 -140q-88 -103 -145 -134q-79 -48 -164 -70q-71 -18 -171 -23q-2 0 -306 1v1z" unicode="D"/>
<glyph glyph-name="E" horiz-adv-x="836" unicode="E" d="M374 743v-214q3 -78 34 -120t89 -51t273 -14q40 -8 40 -71v-205q0 -68 -75 -68q-325 0 -421.5 44.5t-169 138.5t-93.5 172.5t-23 133.5v749q2 55 23 133.5t93.5 171.5t169 137.5t421.5 44.5q75 0 75 -67v-205q0 -63 -40 -70q-215 -6 -273 -14.5t-89 -50t-34 -120.5v-109 h340h6q87 0 87 -53v-238q1 -55 -70 -55h-363z"/>
<glyph glyph-name="F" horiz-adv-x="836" unicode="F" d="M373 1089h340h6q87 0 87 -53v-238q1 -55 -70 -55h-363v-679q0 -70 -53 -70h-2h-238h-1q-52 0 -52 87v6v1151q2 55 23 133.5t93.5 171.5t169 137.5t421.5 44.5q75 0 75 -67v-205q0 -63 -40 -70q-215 -6 -273 -14.5t-89 -50t-34 -120.5v-109z"/>
<glyph glyph-name="G" d="M1188 363q-26 -67 -78 -140q-88 -102 -145 -133q-79 -48 -164 -70q-71 -18 -171 -23q-4 0 -17 5v-2q-173 0 -334 107q-239 182 -239 477v544q0 295 239 477q161 108 334 108v-2q13 5 17 5q100 -5 171 -23q85 -22 164 -70q57 -31 145 -133q52 -74 78 -141q43 -105 43 -224 v-35q0 -43 -50 -60h-242q-51 0 -57 63v10q0 230 -189 276q-16 5 -60 5q-162 0 -226 -148q-10 -38 -18 -93v-574q8 -55 18 -93q64 -148 226 -148q44 0 60 5h3q182 0 182 290q0 22 -1 46h-193q-71 0 -70 47v203q-1 46 89 46h4l426 1h4q90 0 89 -46v-23q0 -440 -38 -534z" unicode="G"/>
<glyph glyph-name="H" horiz-adv-x="1205" unicode="H" d="M376 681v-608q0 -70 -53 -70h-2h-238h-1q-52 0 -52 87v6v1526v6q0 87 52 87h1h238h2q53 0 53 -70v-631h424v608v6q0 87 52 87h1h238h2q53 0 53 -70v-1572q0 -70 -53 -70h-2h-238h-1q-52 0 -52 87v6v585h-424z"/>
<glyph glyph-name="I" horiz-adv-x="432" unicode="I" d="M30 1622v6q0 87 52 87h1h238h2q53 0 53 -70v-1572q0 -70 -53 -70h-2h-238h-1q-52 0 -52 87v6v1526z"/>
<glyph glyph-name="J" horiz-adv-x="790" unicode="J" d="M667 1715h1q52 0 52 -87v-6v-1133q-2 -55 -22.5 -133.5t-93.5 -172.5t-169 -138.5t-312 -44.5q-75 0 -75 68v205q0 63 40 71q106 5 164 14t88.5 51t33.5 120v1116q0 70 53 70h2h238z"/>
<glyph glyph-name="K" horiz-adv-x="1295" unicode="K" d="M991 936q53 -35 128 -122q52 -74 78 -141q43 -105 43 -274v-345q0 -43 -50 -60h-242q-51 0 -57 63v370q0 230 -189 276q-10 3 -112 4h-194v-634q0 -70 -53 -70h-2h-238h-1q-52 0 -52 87v6v1526v6q0 87 52 87h1h238h2q53 0 53 -70v-613h58q105 0 116 3q186 48 186 278v340 q6 63 57 63h242q50 -17 50 -60v-315q0 -169 -43 -274q-24 -62 -71 -131z"/>
<glyph glyph-name="L" horiz-adv-x="718" unicode="L" d="M53 1715h238h2q53 0 53 -70v-1116q3 -78 34 -120t89 -51t163 -14q40 -8 40 -71v-205q0 -68 -75 -68q-215 0 -311.5 44.5t-169 138.5t-93.5 172.5t-23 133.5v1133v6q0 87 52 87h1z"/>
<glyph glyph-name="M" horiz-adv-x="2096" unicode="M" d="M955 1613q40 -31 93 -85q87 92 170 133q108 43 177 44t81 1q107 0 175 -15q139 -46 241 -141q117 -119 158 -291q15 -134 15 -176v-1023q0 -43 -50 -60h-241q-53 0 -58 68v1035q0 158 -103 241q-62 40 -146 40q-198 0 -241 -196q-5 -36 -5 -98v-1027q-6 -63 -58 -63h-236 q-53 13 -53 53v1048q0 170 -73 226.5t-176 56.5q-161 0 -226 -145q-20 -46 -20 -131v-1040q0 -51 -48 -68h-243q-52 0 -58 68v1043q0 336 274 517q130 75 226.5 77.5t104.5 2.5q174 0 320 -95z"/>
<glyph glyph-name="N" d="M630 1716q100 -5 171 -23q85 -22 164 -70q57 -31 145 -133q52 -74 78 -141q43 -105 43 -274v-1015q0 -43 -50 -60h-242q-51 0 -57 63v1040q0 230 -189 276q-16 5 -60 5q-162 0 -226 -148q-10 -38 -18 -93v-1058q0 -85 -60 -85h-236q-30 0 -50 38q-3 9 -3 20v1070 q0 295 239 477q161 108 334 108v-2q13 5 17 5z" unicode="N"/>
<glyph glyph-name="O" d="M882 1103q0 230 -189 276q-16 5 -60 5q-162 0 -226 -148q-10 -38 -18 -93v-568q8 -56 18 -93q64 -149 226 -149q44 0 60 5q189 47 189 277v488zM40 1128q0 295 239 477q161 108 334 108v-2q13 5 17 5q100 -5 171 -23q85 -22 164 -70q57 -31 145 -133q52 -74 78 -141 q43 -105 43 -274v-432q0 -169 -43 -275q-26 -66 -78 -140q-88 -103 -145 -134q-79 -48 -164 -70q-71 -18 -171 -23q-4 0 -17 5v-2q-173 0 -334 108q-239 182 -239 478v538z" unicode="O"/>
<glyph glyph-name="P" d="M50 1630q-1 89 52 89h1h238q13 0 26 -4q241 1 243 1q100 -5 171 -23q85 -22 164 -70q57 -31 145 -133q52 -74 78 -141q43 -105 43 -245t-43 -246q-26 -66 -78 -140q-88 -103 -145 -134q-79 -48 -164 -70q-71 -18 -171 -23q-2 0 -214 1v-415q0 -70 -53 -70h-2h-238h-1 q-52 0 -52 87v6v1530zM396 1384v-561h217q44 0 60 5q189 47 189 276t-189 275q-16 5 -60 5h-217z" unicode="P"/>
<glyph glyph-name="Q" d="M494 17q-110 25 -215 95q-239 182 -239 478v538q0 295 239 477q161 108 334 108v-2q13 5 17 5q100 -5 171 -23q85 -22 164 -70q57 -31 145 -133q52 -74 78 -141q43 -105 43 -274v-432q0 -169 -43 -275q-26 -66 -78 -140q-88 -103 -145 -134q-55 -33 -113 -54q5 -9 10 -16 q31 -42 89 -51t163 -14q40 -8 40 -71v-205q0 -68 -75 -68q-215 0 -311.5 44.5t-169 138.5t-93.5 173q-7 24 -11 46zM882 1103q0 230 -189 276q-16 5 -60 5q-162 0 -226 -148q-10 -38 -18 -93v-568q8 -56 18 -93q64 -149 226 -149q44 0 60 5q189 47 189 277v488z" unicode="Q"/>
<glyph glyph-name="R" horiz-adv-x="1298" unicode="R" d="M396 492v-415q0 -70 -53 -70h-2h-238h-1q-52 0 -52 87v6v1530q-1 89 52 89h1h238q13 0 26 -4q241 1 243 1q100 -5 171 -23q85 -22 164 -70q57 -31 145 -133q52 -74 78 -141q43 -105 43 -245t-43 -246q-26 -66 -78 -140q-15 -18 -29 -33q34 -32 75 -80q52 -74 78 -141 q43 -105 43 -274v-135q0 -43 -50 -60h-242q-51 0 -57 63v160q0 230 -189 276q-2 1 -38 1q-73 0 -285 -3zM518 823q141 1 155 5q189 47 189 276t-189 275q-16 5 -60 5h-217v-561h122z"/>
<glyph glyph-name="S" d="M981 107q-161 -107 -334 -107v2q-13 -5 -17 -5q-100 5 -171 23q-85 22 -164 70q-57 31 -145 133q-52 73 -78 140q-39 96 -43 244q4 37 50 53h242q51 0 57 -63q5 -239 189 -284q16 -5 60 -5q132 0 193 62t61 117q0 33 -31 99.5t-411 156.5t-385 243t-5 164q0 280 230 455 q160 107 303 107h74q74 -1 145 -19q85 -22 164 -70q57 -31 145 -133q52 -74 78 -141q43 -105 43 -224v-35q0 -43 -50 -60h-242q-51 0 -57 63v10q0 230 -189 276q-16 5 -60 5q-182 0 -209.5 -87t-27.5 -127q0 -45 31.5 -81.5t403 -133t376 -244t4.5 -158.5q0 -271 -230 -446z " unicode="S"/>
<glyph glyph-name="T" horiz-adv-x="1199" unicode="T" d="M771 1371v-1298q0 -70 -53 -70h-2h-238h-1q-52 0 -52 87v6v1276h-311q-71 1 -70 56v238q-1 52 84 52h9l926 -1h6q87 0 87 -53v-238q1 -55 -70 -55h-315z"/>
<glyph glyph-name="U" horiz-adv-x="1290" unicode="U" d="M645 3q-99 5 -170 23q-85 22 -164 70q-57 31 -145 133q-53 74 -78 141q-43 105 -43 274v1015q0 43 50 60h241q51 0 58 -63v-1040q0 -230 189 -276q16 -5 60 -5q162 0 226 148q10 38 18 93v1058q0 85 60 85h236q30 0 50 -38q3 -9 3 -20v-1070q0 -295 -239 -478 q-161 -108 -334 -108v3q-13 -5 -18 -5z"/>
<glyph glyph-name="V" horiz-adv-x="1388" unicode="V" d="M513 3h-1q-54 0 -72 93l-390 1526q-6 27 -6 46q0 47 38 47h1h238h2q54 0 73 -70l296 -1192l296 1192q20 70 74 70h2h239h1q38 0 38 -47q0 -19 -6 -46l-392 -1526q-18 -93 -72 -93h-1h-358z"/>
<glyph glyph-name="W" horiz-adv-x="2178" unicode="W" d="M1182 103q-41 31 -93 85q-88 -92 -171 -133q-107 -43 -177 -44.5t-85 -1.5q-104 0 -170 16q-140 45 -242 141q-117 119 -158 291q-15 134 -15 176v1022q0 43 50 61h241q53 0 58 -68v-1035q0 -158 103 -241q62 -41 146 -41q198 0 241 196q5 37 5 98v1028q6 63 58 63h236 q53 -14 53 -53v-1048q0 -171 73 -227.5t176 -56.5q161 0 226 146q20 46 20 131v1040q0 51 48 68h243q52 0 58 -68v-1043q0 -337 -274 -517q-130 -76 -226.5 -78.5t-104.5 -2.5q-174 0 -319 96z"/>
<glyph glyph-name="X" horiz-adv-x="1223" unicode="X" d="M432 852l-374 770q-13 36 -13 57q0 36 34 36h1h238h1q53 0 82 -70l204 -429l203 429q29 70 82 70h1h238h1q33 0 33 -35q0 -22 -13 -58l-373 -769l371 -780q16 -29 16 -47q0 -23 -30 -23h-2h-238h-1q-54 0 -94 93l-194 400l-194 -400q-40 -93 -94 -93h-1h-237h-2 q-31 0 -30 23q0 17 16 47z"/>
<glyph glyph-name="Y" horiz-adv-x="1223" unicode="Y" d="M431 854l-373 768q-13 36 -13 57q0 36 34 36h1h238h1q53 0 82 -70l204 -429l203 429q29 70 82 70h1h238h1q33 0 33 -35q0 -22 -13 -58l-373 -769v-787q0 -70 -53 -70h-2h-238h-1q-52 0 -52 87v6v765z"/>
<glyph glyph-name="Z" horiz-adv-x="1161" unicode="Z" d="M743 1370h-552h-6q-87 0 -87 53v238q-1 55 70 55h872q71 0 70 -55v-212q2 -12 2 -25q0 -32 -13 -68l-593 -1008h548q71 0 70 -55v-238q1 -53 -87 -53h-6h-918h-1q-54 0 -60 52.5t-6 63.5q0 89 74 209z"/>
<glyph glyph-name="underscore" horiz-adv-x="1589" unicode="_" d="M1448 77h5q89 0 88 -34v-154q1 -36 -70 -36h-1372q-71 0 -70 36v154q-1 34 88 34h5h1326z"/>
<glyph glyph-name="grave" horiz-adv-x="553" unicode="`" d="M49 1499q-29 42 -29 69q0 24 21 38l197 134q16 11 31 11q28 0 54 -38l175 -295q8 -24 8 -43q0 -37 -30 -57l-131 -88q-14 -10 -31 -10q-36 0 -82 46z"/>
<glyph glyph-name="a" d="M882 1026v77q0 230 -189 276q-16 5 -60 5q-162 0 -226 -148q-10 -38 -18 -93v-117h493zM389 707v-622q0 -85 -60 -85h-236q-30 0 -50 38q-3 9 -3 20v1070q0 295 239 477q161 108 334 108v-2q13 5 17 5q100 -5 171 -23q85 -22 164 -70q57 -31 145 -133q52 -74 78 -141 q43 -105 43 -274v-1015q0 -43 -50 -60h-242q-51 0 -57 63v644h-493z" unicode="a"/>
<glyph glyph-name="b" horiz-adv-x="1233" unicode="b" d="M376 716v-417h269q122 0 187 87q31 52 31 123q0 167 -152 203q-28 4 -76 4h-259zM376 1425v-417h267q133 0 176.5 61.5t43.5 148.5q0 136 -113 190q-36 17 -101 17h-273zM83 3h-1q-52 0 -52 87v6v1526v7q0 78 43 85q10 4 24 5h578q284 0 436 -231q63 -110 65.5 -191 t2.5 -89q0 -146 -81 -268q-26 -33 -72 -78q78 -74 113 -144q36 -90 37 -148.5t1 -70.5q0 -88 -13 -145q-38 -117 -110 -204q-101 -98 -246 -133q-112 -13 -148 -13z"/>
<glyph glyph-name="c" d="M389 569q8 -55 18 -93q64 -148 226 -148q44 0 60 5q184 45 189 264q6 63 57 63h242q46 -16 50 -53q-4 -148 -43 -244q-26 -67 -78 -140q-88 -102 -145 -133q-79 -48 -164 -70q-71 -18 -171 -23q-4 0 -17 5v-2q-173 0 -334 107q-239 182 -239 477v544q0 295 239 477 q161 108 334 108v-2q13 5 17 5q100 -5 171 -23q85 -22 164 -70q57 -31 145 -133q52 -74 78 -141q43 -105 43 -224v-35q0 -43 -50 -60h-242q-51 0 -57 63v10q0 230 -189 276q-16 5 -60 5q-162 0 -226 -148q-10 -38 -18 -93v-574z" unicode="c"/>
<glyph glyph-name="d" d="M396 1384v-1051h217q44 0 60 5q189 47 189 277v488q0 230 -189 276q-16 5 -60 5h-217zM304 3h-201h-1q-52 0 -52 87v6v1526v6q0 87 52 87h1h201q304 1 306 1q100 -5 171 -23q85 -22 164 -70q57 -31 145 -133q52 -74 78 -141q43 -105 43 -274v-432q0 -169 -43 -275 q-26 -66 -78 -140q-88 -103 -145 -134q-79 -48 -164 -70q-71 -18 -171 -23q-2 0 -306 1v1z" unicode="d"/>
<glyph glyph-name="e" horiz-adv-x="836" unicode="e" d="M374 743v-214q3 -78 34 -120t89 -51t273 -14q40 -8 40 -71v-205q0 -68 -75 -68q-325 0 -421.5 44.5t-169 138.5t-93.5 172.5t-23 133.5v749q2 55 23 133.5t93.5 171.5t169 137.5t421.5 44.5q75 0 75 -67v-205q0 -63 -40 -70q-215 -6 -273 -14.5t-89 -50t-34 -120.5v-109 h340h6q87 0 87 -53v-238q1 -55 -70 -55h-363z"/>
<glyph glyph-name="f" horiz-adv-x="836" unicode="f" d="M373 1089h340h6q87 0 87 -53v-238q1 -55 -70 -55h-363v-679q0 -70 -53 -70h-2h-238h-1q-52 0 -52 87v6v1151q2 55 23 133.5t93.5 171.5t169 137.5t421.5 44.5q75 0 75 -67v-205q0 -63 -40 -70q-215 -6 -273 -14.5t-89 -50t-34 -120.5v-109z"/>
<glyph glyph-name="g" d="M1188 363q-26 -67 -78 -140q-88 -102 -145 -133q-79 -48 -164 -70q-71 -18 -171 -23q-4 0 -17 5v-2q-173 0 -334 107q-239 182 -239 477v544q0 295 239 477q161 108 334 108v-2q13 5 17 5q100 -5 171 -23q85 -22 164 -70q57 -31 145 -133q52 -74 78 -141q43 -105 43 -224 v-35q0 -43 -50 -60h-242q-51 0 -57 63v10q0 230 -189 276q-16 5 -60 5q-162 0 -226 -148q-10 -38 -18 -93v-574q8 -55 18 -93q64 -148 226 -148q44 0 60 5h3q182 0 182 290q0 22 -1 46h-193q-71 0 -70 47v203q-1 46 89 46h4l426 1h4q90 0 89 -46v-23q0 -440 -38 -534z" unicode="g"/>
<glyph glyph-name="h" horiz-adv-x="1205" unicode="h" d="M376 681v-608q0 -70 -53 -70h-2h-238h-1q-52 0 -52 87v6v1526v6q0 87 52 87h1h238h2q53 0 53 -70v-631h424v608v6q0 87 52 87h1h238h2q53 0 53 -70v-1572q0 -70 -53 -70h-2h-238h-1q-52 0 -52 87v6v585h-424z"/>
<glyph glyph-name="i" horiz-adv-x="432" unicode="i" d="M30 1622v6q0 87 52 87h1h238h2q53 0 53 -70v-1572q0 -70 -53 -70h-2h-238h-1q-52 0 -52 87v6v1526z"/>
<glyph glyph-name="j" horiz-adv-x="790" unicode="j" d="M667 1715h1q52 0 52 -87v-6v-1133q-2 -55 -22.5 -133.5t-93.5 -172.5t-169 -138.5t-312 -44.5q-75 0 -75 68v205q0 63 40 71q106 5 164 14t88.5 51t33.5 120v1116q0 70 53 70h2h238z"/>
<glyph glyph-name="k" horiz-adv-x="1295" unicode="k" d="M991 936q53 -35 128 -122q52 -74 78 -141q43 -105 43 -274v-345q0 -43 -50 -60h-242q-51 0 -57 63v370q0 230 -189 276q-10 3 -112 4h-194v-634q0 -70 -53 -70h-2h-238h-1q-52 0 -52 87v6v1526v6q0 87 52 87h1h238h2q53 0 53 -70v-613h58q105 0 116 3q186 48 186 278v340 q6 63 57 63h242q50 -17 50 -60v-315q0 -169 -43 -274q-24 -62 -71 -131z"/>
<glyph glyph-name="l" horiz-adv-x="718" unicode="l" d="M53 1715h238h2q53 0 53 -70v-1116q3 -78 34 -120t89 -51t163 -14q40 -8 40 -71v-205q0 -68 -75 -68q-215 0 -311.5 44.5t-169 138.5t-93.5 172.5t-23 133.5v1133v6q0 87 52 87h1z"/>
<glyph glyph-name="m" horiz-adv-x="2096" unicode="m" d="M955 1613q40 -31 93 -85q87 92 170 133q108 43 177 44t81 1q107 0 175 -15q139 -46 241 -141q117 -119 158 -291q15 -134 15 -176v-1023q0 -43 -50 -60h-241q-53 0 -58 68v1035q0 158 -103 241q-62 40 -146 40q-198 0 -241 -196q-5 -36 -5 -98v-1027q-6 -63 -58 -63h-236 q-53 13 -53 53v1048q0 170 -73 226.5t-176 56.5q-161 0 -226 -145q-20 -46 -20 -131v-1040q0 -51 -48 -68h-243q-52 0 -58 68v1043q0 336 274 517q130 75 226.5 77.5t104.5 2.5q174 0 320 -95z"/>
<glyph glyph-name="n" d="M630 1716q100 -5 171 -23q85 -22 164 -70q57 -31 145 -133q52 -74 78 -141q43 -105 43 -274v-1015q0 -43 -50 -60h-242q-51 0 -57 63v1040q0 230 -189 276q-16 5 -60 5q-162 0 -226 -148q-10 -38 -18 -93v-1058q0 -85 -60 -85h-236q-30 0 -50 38q-3 9 -3 20v1070 q0 295 239 477q161 108 334 108v-2q13 5 17 5z" unicode="n"/>
<glyph glyph-name="o" d="M882 1103q0 230 -189 276q-16 5 -60 5q-162 0 -226 -148q-10 -38 -18 -93v-568q8 -56 18 -93q64 -149 226 -149q44 0 60 5q189 47 189 277v488zM40 1128q0 295 239 477q161 108 334 108v-2q13 5 17 5q100 -5 171 -23q85 -22 164 -70q57 -31 145 -133q52 -74 78 -141 q43 -105 43 -274v-432q0 -169 -43 -275q-26 -66 -78 -140q-88 -103 -145 -134q-79 -48 -164 -70q-71 -18 -171 -23q-4 0 -17 5v-2q-173 0 -334 108q-239 182 -239 478v538z" unicode="o"/>
<glyph glyph-name="p" d="M50 1630q-1 89 52 89h1h238q13 0 26 -4q241 1 243 1q100 -5 171 -23q85 -22 164 -70q57 -31 145 -133q52 -74 78 -141q43 -105 43 -245t-43 -246q-26 -66 -78 -140q-88 -103 -145 -134q-79 -48 -164 -70q-71 -18 -171 -23q-2 0 -214 1v-415q0 -70 -53 -70h-2h-238h-1 q-52 0 -52 87v6v1530zM396 1384v-561h217q44 0 60 5q189 47 189 276t-189 275q-16 5 -60 5h-217z" unicode="p"/>
<glyph glyph-name="q" d="M494 17q-110 25 -215 95q-239 182 -239 478v538q0 295 239 477q161 108 334 108v-2q13 5 17 5q100 -5 171 -23q85 -22 164 -70q57 -31 145 -133q52 -74 78 -141q43 -105 43 -274v-432q0 -169 -43 -275q-26 -66 -78 -140q-88 -103 -145 -134q-55 -33 -113 -54q5 -9 10 -16 q31 -42 89 -51t163 -14q40 -8 40 -71v-205q0 -68 -75 -68q-215 0 -311.5 44.5t-169 138.5t-93.5 173q-7 24 -11 46zM882 1103q0 230 -189 276q-16 5 -60 5q-162 0 -226 -148q-10 -38 -18 -93v-568q8 -56 18 -93q64 -149 226 -149q44 0 60 5q189 47 189 277v488z" unicode="q"/>
<glyph glyph-name="r" horiz-adv-x="1298" unicode="r" d="M396 492v-415q0 -70 -53 -70h-2h-238h-1q-52 0 -52 87v6v1530q-1 89 52 89h1h238q13 0 26 -4q241 1 243 1q100 -5 171 -23q85 -22 164 -70q57 -31 145 -133q52 -74 78 -141q43 -105 43 -245t-43 -246q-26 -66 -78 -140q-15 -18 -29 -33q34 -32 75 -80q52 -74 78 -141 q43 -105 43 -274v-135q0 -43 -50 -60h-242q-51 0 -57 63v160q0 230 -189 276q-2 1 -38 1q-73 0 -285 -3zM518 823q141 1 155 5q189 47 189 276t-189 275q-16 5 -60 5h-217v-561h122z"/>
<glyph glyph-name="s" d="M981 107q-161 -107 -334 -107v2q-13 -5 -17 -5q-100 5 -171 23q-85 22 -164 70q-57 31 -145 133q-52 73 -78 140q-39 96 -43 244q4 37 50 53h242q51 0 57 -63q5 -239 189 -284q16 -5 60 -5q132 0 193 62t61 117q0 33 -31 99.5t-411 156.5t-385 243t-5 164q0 280 230 455 q160 107 303 107h74q74 -1 145 -19q85 -22 164 -70q57 -31 145 -133q52 -74 78 -141q43 -105 43 -224v-35q0 -43 -50 -60h-242q-51 0 -57 63v10q0 230 -189 276q-16 5 -60 5q-182 0 -209.5 -87t-27.5 -127q0 -45 31.5 -81.5t403 -133t376 -244t4.5 -158.5q0 -271 -230 -446z " unicode="s"/>
<glyph glyph-name="t" horiz-adv-x="1199" unicode="t" d="M771 1371v-1298q0 -70 -53 -70h-2h-238h-1q-52 0 -52 87v6v1276h-311q-71 1 -70 56v238q-1 52 84 52h9l926 -1h6q87 0 87 -53v-238q1 -55 -70 -55h-315z"/>
<glyph glyph-name="u" horiz-adv-x="1290" unicode="u" d="M645 3q-99 5 -170 23q-85 22 -164 70q-57 31 -145 133q-53 74 -78 141q-43 105 -43 274v1015q0 43 50 60h241q51 0 58 -63v-1040q0 -230 189 -276q16 -5 60 -5q162 0 226 148q10 38 18 93v1058q0 85 60 85h236q30 0 50 -38q3 -9 3 -20v-1070q0 -295 -239 -478 q-161 -108 -334 -108v3q-13 -5 -18 -5z"/>
<glyph glyph-name="v" horiz-adv-x="1388" unicode="v" d="M513 3h-1q-54 0 -72 93l-390 1526q-6 27 -6 46q0 47 38 47h1h238h2q54 0 73 -70l296 -1192l296 1192q20 70 74 70h2h239h1q38 0 38 -47q0 -19 -6 -46l-392 -1526q-18 -93 -72 -93h-1h-358z"/>
<glyph glyph-name="w" horiz-adv-x="2178" unicode="w" d="M1182 103q-41 31 -93 85q-88 -92 -171 -133q-107 -43 -177 -44.5t-85 -1.5q-104 0 -170 16q-140 45 -242 141q-117 119 -158 291q-15 134 -15 176v1022q0 43 50 61h241q53 0 58 -68v-1035q0 -158 103 -241q62 -41 146 -41q198 0 241 196q5 37 5 98v1028q6 63 58 63h236 q53 -14 53 -53v-1048q0 -171 73 -227.5t176 -56.5q161 0 226 146q20 46 20 131v1040q0 51 48 68h243q52 0 58 -68v-1043q0 -337 -274 -517q-130 -76 -226.5 -78.5t-104.5 -2.5q-174 0 -319 96z"/>
<glyph glyph-name="x" horiz-adv-x="1223" unicode="x" d="M432 852l-374 770q-13 36 -13 57q0 36 34 36h1h238h1q53 0 82 -70l204 -429l203 429q29 70 82 70h1h238h1q33 0 33 -35q0 -22 -13 -58l-373 -769l371 -780q16 -29 16 -47q0 -23 -30 -23h-2h-238h-1q-54 0 -94 93l-194 400l-194 -400q-40 -93 -94 -93h-1h-237h-2 q-31 0 -30 23q0 17 16 47z"/>
<glyph glyph-name="y" horiz-adv-x="1223" unicode="y" d="M431 854l-373 768q-13 36 -13 57q0 36 34 36h1h238h1q53 0 82 -70l204 -429l203 429q29 70 82 70h1h238h1q33 0 33 -35q0 -22 -13 -58l-373 -769v-787q0 -70 -53 -70h-2h-238h-1q-52 0 -52 87v6v765z"/>
<glyph glyph-name="z" horiz-adv-x="1161" unicode="z" d="M743 1370h-552h-6q-87 0 -87 53v238q-1 55 70 55h872q71 0 70 -55v-212q2 -12 2 -25q0 -32 -13 -68l-593 -1008h548q71 0 70 -55v-238q1 -53 -87 -53h-6h-918h-1q-54 0 -60 52.5t-6 63.5q0 89 74 209z"/>
<glyph glyph-name="braceleft" horiz-adv-x="680" unicode="{" d="M374 529q3 -78 34 -120t89 -51t93 -14q40 -8 40 -71v-205q0 -68 -75 -68q-145 0 -241.5 44.5t-169 138.5t-93.5 172.5t-23 133.5v749q2 55 23 133.5t93.5 171.5t169 137.5t241.5 44.5q75 0 75 -67v-205q0 -63 -40 -70q-35 -6 -93 -14.5t-89 -50t-34 -120.5v-669z"/>
<glyph glyph-name="bar" horiz-adv-x="432" unicode="|" d="M90 1652q-1 93 37 93h1h170h1q38 0 38 -70v-1772q0 -70 -38 -70h-1h-170h-1q-38 0 -37 93v1726z"/>
<glyph glyph-name="braceright" horiz-adv-x="686" unicode="}" d="M295 1198q-3 79 -34 120.5t-88.5 50t-92.5 14.5q-40 7 -40 70v205q0 67 75 67q144 0 240.5 -44.5t168.5 -137.5t93 -171.5t23 -133.5v-749q-2 -55 -23 -133.5t-93 -172.5t-168.5 -138.5t-240.5 -44.5q-75 0 -75 68v205q0 63 40 71q35 5 92.5 14t88.5 51t34 120v669z"/>
<glyph glyph-name="asciitilde" horiz-adv-x="1343" unicode="~" d="M1237 938v-24q0 -393 -322 -414q-47 0 -106.5 15.5t-178.5 74.5q-148 74 -214 74q-152 0 -312 -158q7 419 332 436q46 0 103 -15.5t173 -72.5q152 -76 224 -76q133 0 301 160z"/>
<glyph glyph-name="exclamdown" horiz-adv-x="538" unicode="¡" d="M107 1542q0 67 47.5 114.5t115.5 47.5q67 0 114.5 -47.5t47.5 -114.5t-47.5 -115t-114.5 -48q-68 0 -115.5 48t-47.5 115zM447 86v-6q0 -87 -52 -87h-1h-238h-2q-53 0 -53 70l40 1142q0 70 53 70h2h158h1q52 0 52 -87v-6z"/>
<glyph glyph-name="dieresis" horiz-adv-x="945" unicode="¨" d="M878 1554q0 -67 -48 -114.5t-115 -47.5t-114.5 47.5t-47.5 114.5t47.5 114.5t114.5 47.5t115 -47.5t48 -114.5zM378 1554q0 -67 -48 -114.5t-115 -47.5t-114.5 47.5t-47.5 114.5t47.5 114.5t114.5 47.5t115 -47.5t48 -114.5z"/>
<glyph glyph-name="macron" horiz-adv-x="914" unicode="¯" d="M757 1707h6q87 0 87 -53v-158q1 -55 -70 -55h-672q-71 0 -70 55v158q-1 53 87 53h6h626z"/>
<glyph glyph-name="acute" horiz-adv-x="553" unicode="´" d="M239 1698q41 42 72 42q18 0 32 -15l166 -170q17 -17 17 -36q0 -24 -28 -52l-259 -225q-31 -17 -55 -17q-27 0 -47 21l-111 113q-16 16 -16 39q0 33 32 79z"/>
<glyph glyph-name="periodcentered" horiz-adv-x="508" unicode="·" d="M394 717q0 -57 -40.5 -97.5t-97.5 -40.5t-97.5 40.5t-40.5 97.5t40.5 97.5t97.5 40.5t97.5 -40.5t40.5 -97.5z"/>
<glyph glyph-name="periodcentered" horiz-adv-x="508" unicode="∙" d="M394 717q0 -57 -40.5 -97.5t-97.5 -40.5t-97.5 40.5t-40.5 97.5t40.5 97.5t97.5 40.5t97.5 -40.5t40.5 -97.5z"/>
<glyph glyph-name="cedilla" horiz-adv-x="1024" unicode="¸" d="M512 -322q66 0 94.5 21.5t28.5 46.5q0 35 -49 54q-40 16 -102 16q-29 6 -29 44q0 46 43 140h93l-37 -104q32 4 62 5q56 0 104 -40.5t48 -113.5q0 -76 -58.5 -120.5t-160.5 -44.5q-159 0 -168.5 40.5t-9.5 51.5q0 23 17 23q6 0 31.5 -9.5t92.5 -9.5z"/>
<glyph glyph-name="questiondown" horiz-adv-x="1052" unicode="¿" d="M457 1552q0 67 47.5 114.5t114.5 47.5t114.5 -47.5t47.5 -114.5t-47.5 -115t-114.5 -48t-114.5 48t-47.5 115zM500 1217h238h1q39 0 39 -53q0 -20 -5 -47q-324 -472 -335 -540t-11 -96q0 -53 25.5 -87.5t74 -41.5t225.5 -7q83 0 197 1q40 -7 40 -70v-216q0 -68 -75 -68 q-84 -2 -157 -2q-340 0 -436 47t-153 139.5t-73 152.5t-16 116q0 51 14 148t304 532q47 92 102 92h1z"/>
<glyph glyph-name="Agrave" d="M882 1026v77q0 230 -189 276q-16 5 -60 5q-162 0 -226 -148q-10 -38 -18 -93v-117h493zM389 707v-622q0 -85 -60 -85h-236q-30 0 -50 38q-3 9 -3 20v1070q0 295 239 477q161 108 334 108v-2q13 5 17 5q100 -5 171 -23q85 -22 164 -70q57 -31 145 -133q52 -74 78 -141 q43 -105 43 -274v-1015q0 -43 -50 -60h-242q-51 0 -57 63v644h-493zM842 1962q40 -38 40 -68q0 -14 -9 -26l-45 -71q-14 -27 -47 -27q-15 0 -33 5l-335 197q-32 20 -32 45q0 13 8 26l77 126q12 19 34 19q24 0 58 -23z" unicode="À"/>
<glyph glyph-name="Aacute" d="M753 2158q35 23 58 23q21 0 34 -19l77 -126q8 -14 8 -26q0 -25 -32 -45l-335 -197q-18 -5 -33 -5q-33 0 -47 27l-45 71q-9 12 -9 26q0 30 40 68zM882 1026v77q0 230 -189 276q-16 5 -60 5q-162 0 -226 -148q-10 -38 -18 -93v-117h493zM389 707v-622q0 -85 -60 -85h-236 q-30 0 -50 38q-3 9 -3 20v1070q0 295 239 477q161 108 334 108v-2q13 5 17 5q100 -5 171 -23q85 -22 164 -70q57 -31 145 -133q52 -74 78 -141q43 -105 43 -274v-1015q0 -43 -50 -60h-242q-51 0 -57 63v644h-493z" unicode="Á"/>
<glyph glyph-name="Acircumflex" d="M882 1026v77q0 230 -189 276q-16 5 -60 5q-162 0 -226 -148q-10 -38 -18 -93v-117h493zM389 707v-622q0 -85 -60 -85h-236q-30 0 -50 38q-3 9 -3 20v1070q0 295 239 477q161 108 334 108v-2q13 5 17 5q100 -5 171 -23q85 -22 164 -70q57 -31 145 -133q52 -74 78 -141 q43 -105 43 -274v-1015q0 -43 -50 -60h-242q-51 0 -57 63v644h-493zM938 1958q36 -39 36 -69q0 -14 -8 -26l-42 -72q-13 -26 -42 -26q-15 0 -33 7l-219 150l-219 -150q-18 -7 -33 -7q-28 0 -42 26l-42 72q-8 12 -8 26q0 30 36 69l257 213q24 11 43 11q4 0 8 -1q4 1 8 1 q18 0 43 -11l34 -28q5 -4 10 -7v-1z" unicode="Â"/>
<glyph glyph-name="Atilde" d="M882 1026v77q0 230 -189 276q-16 5 -60 5q-162 0 -226 -148q-10 -38 -18 -93v-117h493zM389 707v-622q0 -85 -60 -85h-236q-30 0 -50 38q-3 9 -3 20v1070q0 295 239 477q161 108 334 108v-2q13 5 17 5q100 -5 171 -23q85 -22 164 -70q57 -31 145 -133q52 -74 78 -141 q43 -105 43 -274v-1015q0 -43 -50 -60h-242q-51 0 -57 63v644h-493zM433 1800q-1 -1 -3 -2v-1h-1q-31 -23 -56 -2l-49 42q-17 12 -17 35q0 18 11 42l1 -2q46 71 92 119q59 60 122 60q61 0 134 -53q79 -56 111 -58q42 0 119 91l4 -4q28 20 53 3l52 -42q19 -12 19 -38 q0 -18 -9 -41l-2 1q-132 -168 -229 -168h-7q-6 -2 -14 -2q-40 0 -121 52q-72 55 -105 55t-106 -87h1z" unicode="Ã"/>
<glyph glyph-name="Adieresis" d="M1048 1874q0 -67 -48 -114.5t-115 -47.5t-114.5 47.5t-47.5 114.5t47.5 114.5t114.5 47.5t115 -47.5t48 -114.5zM548 1874q0 -67 -48 -114.5t-115 -47.5t-114.5 47.5t-47.5 114.5t47.5 114.5t114.5 47.5t115 -47.5t48 -114.5zM882 1026v77q0 230 -189 276q-16 5 -60 5 q-162 0 -226 -148q-10 -38 -18 -93v-117h493zM389 707v-622q0 -85 -60 -85h-236q-30 0 -50 38q-3 9 -3 20v1070q0 295 239 477q161 108 334 108v-2q13 5 17 5q100 -5 171 -23q85 -22 164 -70q57 -31 145 -133q52 -74 78 -141q43 -105 43 -274v-1015q0 -43 -50 -60h-242 q-51 0 -57 63v644h-493z" unicode="Ä"/>
<glyph glyph-name="Egrave" horiz-adv-x="836" unicode="È" d="M374 743v-214q3 -78 34 -120t89 -51t273 -14q40 -8 40 -71v-205q0 -68 -75 -68q-325 0 -421.5 44.5t-169 138.5t-93.5 172.5t-23 133.5v749q2 55 23 133.5t93.5 171.5t169 137.5t421.5 44.5q75 0 75 -67v-205q0 -63 -40 -70q-215 -6 -273 -14.5t-89 -50t-34 -120.5v-109 h340h6q87 0 87 -53v-238q1 -55 -70 -55h-363zM698 1962q40 -38 40 -68q0 -14 -9 -26l-45 -71q-14 -27 -47 -27q-15 0 -33 5l-335 197q-32 20 -32 45q0 13 8 26l77 126q12 19 34 19q24 0 58 -23z"/>
<glyph glyph-name="Eacute" horiz-adv-x="836" unicode="É" d="M620 2158q35 23 58 23q21 0 34 -19l77 -126q8 -14 8 -26q0 -25 -32 -45l-335 -197q-18 -5 -33 -5q-33 0 -47 27l-45 71q-9 12 -9 26q0 30 40 68zM374 743v-214q3 -78 34 -120t89 -51t273 -14q40 -8 40 -71v-205q0 -68 -75 -68q-325 0 -421.5 44.5t-169 138.5t-93.5 172.5 t-23 133.5v749q2 55 23 133.5t93.5 171.5t169 137.5t421.5 44.5q75 0 75 -67v-205q0 -63 -40 -70q-215 -6 -273 -14.5t-89 -50t-34 -120.5v-109h340h6q87 0 87 -53v-238q1 -55 -70 -55h-363z"/>
<glyph glyph-name="Ecircumflex" horiz-adv-x="835" unicode="Ê" d="M374 743v-214q3 -78 34 -120t89 -51t273 -14q40 -8 40 -71v-205q0 -68 -75 -68q-325 0 -421.5 44.5t-169 138.5t-93.5 172.5t-23 133.5v749q2 55 23 133.5t93.5 171.5t169 137.5t421.5 44.5q75 0 75 -67v-205q0 -63 -40 -70q-215 -6 -273 -14.5t-89 -50t-34 -120.5v-109 h340h6q87 0 87 -53v-238q1 -55 -70 -55h-363zM809 1958q36 -39 36 -69q0 -14 -8 -26l-42 -72q-13 -26 -42 -26q-15 0 -33 7l-219 150l-219 -150q-18 -7 -33 -7q-28 0 -42 26l-42 72q-8 12 -8 26q0 30 36 69l257 213q24 11 43 11q4 0 8 -1q4 1 8 1q18 0 43 -11l34 -28 q5 -4 10 -7v-1z"/>
<glyph glyph-name="Igrave" horiz-adv-x="432" unicode="Ì" d="M30 1622v6q0 87 52 87h1h238h2q53 0 53 -70v-1572q0 -70 -53 -70h-2h-238h-1q-52 0 -52 87v6v1526zM341 1962q40 -38 40 -68q0 -14 -9 -26l-45 -71q-14 -27 -47 -27q-15 0 -33 5l-335 197q-32 20 -32 45q0 13 8 26l77 126q12 19 34 19q24 0 58 -23z"/>
<glyph glyph-name="Iacute" horiz-adv-x="432" unicode="Í" d="M321 2158q35 23 58 23q21 0 34 -19l77 -126q8 -14 8 -26q0 -25 -32 -45l-335 -197q-18 -5 -33 -5q-33 0 -47 27l-45 71q-9 12 -9 26q0 30 40 68zM30 1622v6q0 87 52 87h1h238h2q53 0 53 -70v-1572q0 -70 -53 -70h-2h-238h-1q-52 0 -52 87v6v1526z"/>
<glyph glyph-name="Ntilde" d="M1023 1987v-15q0 -243 -224 -256q-32 0 -73.5 9.5t-124.5 45.5q-103 46 -149 46q-105 0 -217 -98q5 260 231 271q32 0 72 -10t120 -45q106 -47 156 -47q93 0 209 99zM630 1716q100 -5 171 -23q85 -22 164 -70q57 -31 145 -133q52 -74 78 -141q43 -105 43 -274v-1015 q0 -43 -50 -60h-242q-51 0 -57 63v1040q0 230 -189 276q-16 5 -60 5q-162 0 -226 -148q-10 -38 -18 -93v-1058q0 -85 -60 -85h-236q-30 0 -50 38q-3 9 -3 20v1070q0 295 239 477q161 108 334 108v-2q13 5 17 5z" unicode="Ñ"/>
<glyph glyph-name="Ograve" d="M882 1103q0 230 -189 276q-16 5 -60 5q-162 0 -226 -148q-10 -38 -18 -93v-568q8 -56 18 -93q64 -149 226 -149q44 0 60 5q189 47 189 277v488zM40 1128q0 295 239 477q161 108 334 108v-2q13 5 17 5q100 -5 171 -23q85 -22 164 -70q57 -31 145 -133q52 -74 78 -141 q43 -105 43 -274v-432q0 -169 -43 -275q-26 -66 -78 -140q-88 -103 -145 -134q-79 -48 -164 -70q-71 -18 -171 -23q-4 0 -17 5v-2q-173 0 -334 108q-239 182 -239 478v538zM838 1962q40 -38 40 -68q0 -14 -9 -26l-45 -71q-14 -27 -47 -27q-15 0 -33 5l-335 197 q-32 20 -32 45q0 13 8 26l77 126q12 19 34 19q24 0 58 -23z" unicode="Ò"/>
<glyph glyph-name="Oacute" d="M735 2158q35 23 58 23q21 0 34 -19l77 -126q8 -14 8 -26q0 -25 -32 -45l-335 -197q-18 -5 -33 -5q-33 0 -47 27l-45 71q-9 12 -9 26q0 30 40 68zM882 1103q0 230 -189 276q-16 5 -60 5q-162 0 -226 -148q-10 -38 -18 -93v-568q8 -56 18 -93q64 -149 226 -149q44 0 60 5 q189 47 189 277v488zM40 1128q0 295 239 477q161 108 334 108v-2q13 5 17 5q100 -5 171 -23q85 -22 164 -70q57 -31 145 -133q52 -74 78 -141q43 -105 43 -274v-432q0 -169 -43 -275q-26 -66 -78 -140q-88 -103 -145 -134q-79 -48 -164 -70q-71 -18 -171 -23q-4 0 -17 5v-2 q-173 0 -334 108q-239 182 -239 478v538z" unicode="Ó"/>
<glyph glyph-name="Ocircumflex" d="M944 1958q36 -39 36 -69q0 -14 -8 -26l-42 -72q-13 -26 -42 -26q-15 0 -33 7l-219 150l-219 -150q-18 -7 -33 -7q-28 0 -42 26l-42 72q-8 12 -8 26q0 30 36 69l257 213q24 11 43 11q4 0 8 -1q4 1 8 1q18 0 43 -11l34 -28q5 -4 10 -7v-1zM882 1103q0 230 -189 276 q-16 5 -60 5q-162 0 -226 -148q-10 -38 -18 -93v-568q8 -56 18 -93q64 -149 226 -149q44 0 60 5q189 47 189 277v488zM40 1128q0 295 239 477q161 108 334 108v-2q13 5 17 5q100 -5 171 -23q85 -22 164 -70q57 -31 145 -133q52 -74 78 -141q43 -105 43 -274v-432 q0 -169 -43 -275q-26 -66 -78 -140q-88 -103 -145 -134q-79 -48 -164 -70q-71 -18 -171 -23q-4 0 -17 5v-2q-173 0 -334 108q-239 182 -239 478v538z" unicode="Ô"/>
<glyph glyph-name="Otilde" d="M882 1103q0 230 -189 276q-16 5 -60 5q-162 0 -226 -148q-10 -38 -18 -93v-568q8 -56 18 -93q64 -149 226 -149q44 0 60 5q189 47 189 277v488zM40 1128q0 295 239 477q161 108 334 108v-2q13 5 17 5q100 -5 171 -23q85 -22 164 -70q57 -31 145 -133q52 -74 78 -141 q43 -105 43 -274v-432q0 -169 -43 -275q-26 -66 -78 -140q-88 -103 -145 -134q-79 -48 -164 -70q-71 -18 -171 -23q-4 0 -17 5v-2q-173 0 -334 108q-239 182 -239 478v538zM419 1800q-1 -1 -3 -2v-1h-1q-31 -23 -56 -2l-49 42q-17 12 -17 35q0 18 11 42l1 -2q46 71 92 119 q59 60 122 60q61 0 134 -53q79 -56 111 -58q42 0 119 91l4 -4q28 20 53 3l52 -42q19 -12 19 -38q0 -18 -9 -41l-2 1q-132 -168 -229 -168h-7q-6 -2 -14 -2q-40 0 -121 52q-72 55 -105 55t-106 -87h1z" unicode="Õ"/>
<glyph glyph-name="Odieresis" d="M1048 1874q0 -67 -48 -114.5t-115 -47.5t-114.5 47.5t-47.5 114.5t47.5 114.5t114.5 47.5t115 -47.5t48 -114.5zM548 1874q0 -67 -48 -114.5t-115 -47.5t-114.5 47.5t-47.5 114.5t47.5 114.5t114.5 47.5t115 -47.5t48 -114.5zM882 1103q0 230 -189 276q-16 5 -60 5 q-162 0 -226 -148q-10 -38 -18 -93v-568q8 -56 18 -93q64 -149 226 -149q44 0 60 5q189 47 189 277v488zM40 1128q0 295 239 477q161 108 334 108v-2q13 5 17 5q100 -5 171 -23q85 -22 164 -70q57 -31 145 -133q52 -74 78 -141q43 -105 43 -274v-432q0 -169 -43 -275 q-26 -66 -78 -140q-88 -103 -145 -134q-79 -48 -164 -70q-71 -18 -171 -23q-4 0 -17 5v-2q-173 0 -334 108q-239 182 -239 478v538z" unicode="Ö"/>
<glyph glyph-name="Ugrave" horiz-adv-x="1290" unicode="Ù" d="M645 3q-99 5 -170 23q-85 22 -164 70q-57 31 -145 133q-53 74 -78 141q-43 105 -43 274v1015q0 43 50 60h241q51 0 58 -63v-1040q0 -230 189 -276q16 -5 60 -5q162 0 226 148q10 38 18 93v1058q0 85 60 85h236q30 0 50 -38q3 -9 3 -20v-1070q0 -295 -239 -478 q-161 -108 -334 -108v3q-13 -5 -18 -5zM807 1962q40 -38 40 -68q0 -14 -9 -26l-45 -71q-14 -27 -47 -27q-15 0 -33 5l-335 197q-32 20 -32 45q0 13 8 26l77 126q12 19 34 19q24 0 58 -23z"/>
<glyph glyph-name="Uacute" horiz-adv-x="1290" unicode="Ú" d="M767 2158q35 23 58 23q21 0 34 -19l77 -126q8 -14 8 -26q0 -25 -32 -45l-335 -197q-18 -5 -33 -5q-33 0 -47 27l-45 71q-9 12 -9 26q0 30 40 68zM645 3q-99 5 -170 23q-85 22 -164 70q-57 31 -145 133q-53 74 -78 141q-43 105 -43 274v1015q0 43 50 60h241q51 0 58 -63 v-1040q0 -230 189 -276q16 -5 60 -5q162 0 226 148q10 38 18 93v1058q0 85 60 85h236q30 0 50 -38q3 -9 3 -20v-1070q0 -295 -239 -478q-161 -108 -334 -108v3q-13 -5 -18 -5z"/>
<glyph glyph-name="Udieresis" horiz-adv-x="1290" unicode="Ü" d="M1061 1899q0 -68 -47.5 -115.5t-115.5 -47.5q-67 0 -114.5 47.5t-47.5 115.5q0 67 47.5 114.5t114.5 47.5q68 0 115.5 -47.5t47.5 -114.5zM561 1899q0 -68 -47.5 -115.5t-115.5 -47.5q-67 0 -114.5 47.5t-47.5 115.5q0 67 47.5 114.5t114.5 47.5q68 0 115.5 -47.5 t47.5 -114.5zM645 3q-99 5 -170 23q-85 22 -164 70q-57 31 -145 133q-53 74 -78 141q-43 105 -43 274v1015q0 43 50 60h241q51 0 58 -63v-1040q0 -230 189 -276q16 -5 60 -5q162 0 226 148q10 38 18 93v1058q0 85 60 85h236q30 0 50 -38q3 -9 3 -20v-1070q0 -295 -239 -478 q-161 -108 -334 -108v3q-13 -5 -18 -5z"/>
<glyph glyph-name="Yacute" horiz-adv-x="1223" unicode="Ý" d="M431 854l-373 768q-13 36 -13 57q0 36 34 36h1h238h1q53 0 82 -70l204 -429l203 429q29 70 82 70h1h238h1q33 0 33 -35q0 -22 -13 -58l-373 -769v-787q0 -70 -53 -70h-2h-238h-1q-52 0 -52 87v6v765zM741 2158q35 23 58 23q21 0 34 -19l77 -126q8 -14 8 -26 q0 -25 -32 -45l-335 -197q-18 -5 -33 -5q-33 0 -47 27l-45 71q-9 12 -9 26q0 30 40 68z"/>
<glyph glyph-name="germandbls" horiz-adv-x="1362" unicode="ß" d="M631 1726q13 0 23 -2q294 -5 377 -43q96 -45 168.5 -138t93.5 -171.5t23 -133.5v-749q-2 -55 -23 -133.5t-93.5 -172.5t-169 -138.5t-481.5 -44.5q-75 0 -75 68v205q0 63 40 71q275 5 333 14t89 51t34 120v214h-423q-71 0 -70 55v238q-1 53 87 53h6h400v109 q-3 79 -34 120.5t-89 50.5q-44 6 -214 11q-82 -5 -131 -12q-58 -9 -88.5 -51t-33.5 -121v-1125q0 -71 -54 -71h-1h-238q-53 0 -53 87v6v1144q2 55 22.5 133.5t93.5 172t169 138.5q70 33 205 42q11 2 25 2h19q30 1 63 1z"/>
<glyph glyph-name="agrave" d="M882 1026v77q0 230 -189 276q-16 5 -60 5q-162 0 -226 -148q-10 -38 -18 -93v-117h493zM389 707v-622q0 -85 -60 -85h-236q-30 0 -50 38q-3 9 -3 20v1070q0 295 239 477q161 108 334 108v-2q13 5 17 5q100 -5 171 -23q85 -22 164 -70q57 -31 145 -133q52 -74 78 -141 q43 -105 43 -274v-1015q0 -43 -50 -60h-242q-51 0 -57 63v644h-493zM842 1962q40 -38 40 -68q0 -14 -9 -26l-45 -71q-14 -27 -47 -27q-15 0 -33 5l-335 197q-32 20 -32 45q0 13 8 26l77 126q12 19 34 19q24 0 58 -23z" unicode="à"/>
<glyph glyph-name="aacute" d="M753 2158q35 23 58 23q21 0 34 -19l77 -126q8 -14 8 -26q0 -25 -32 -45l-335 -197q-18 -5 -33 -5q-33 0 -47 27l-45 71q-9 12 -9 26q0 30 40 68zM882 1026v77q0 230 -189 276q-16 5 -60 5q-162 0 -226 -148q-10 -38 -18 -93v-117h493zM389 707v-622q0 -85 -60 -85h-236 q-30 0 -50 38q-3 9 -3 20v1070q0 295 239 477q161 108 334 108v-2q13 5 17 5q100 -5 171 -23q85 -22 164 -70q57 -31 145 -133q52 -74 78 -141q43 -105 43 -274v-1015q0 -43 -50 -60h-242q-51 0 -57 63v644h-493z" unicode="á"/>
<glyph glyph-name="acircumflex" d="M882 1026v77q0 230 -189 276q-16 5 -60 5q-162 0 -226 -148q-10 -38 -18 -93v-117h493zM389 707v-622q0 -85 -60 -85h-236q-30 0 -50 38q-3 9 -3 20v1070q0 295 239 477q161 108 334 108v-2q13 5 17 5q100 -5 171 -23q85 -22 164 -70q57 -31 145 -133q52 -74 78 -141 q43 -105 43 -274v-1015q0 -43 -50 -60h-242q-51 0 -57 63v644h-493zM938 1958q36 -39 36 -69q0 -14 -8 -26l-42 -72q-13 -26 -42 -26q-15 0 -33 7l-219 150l-219 -150q-18 -7 -33 -7q-28 0 -42 26l-42 72q-8 12 -8 26q0 30 36 69l257 213q24 11 43 11q4 0 8 -1q4 1 8 1 q18 0 43 -11l34 -28q5 -4 10 -7v-1z" unicode="â"/>
<glyph glyph-name="atilde" d="M882 1026v77q0 230 -189 276q-16 5 -60 5q-162 0 -226 -148q-10 -38 -18 -93v-117h493zM389 707v-622q0 -85 -60 -85h-236q-30 0 -50 38q-3 9 -3 20v1070q0 295 239 477q161 108 334 108v-2q13 5 17 5q100 -5 171 -23q85 -22 164 -70q57 -31 145 -133q52 -74 78 -141 q43 -105 43 -274v-1015q0 -43 -50 -60h-242q-51 0 -57 63v644h-493zM433 1800q-1 -1 -3 -2v-1h-1q-31 -23 -56 -2l-49 42q-17 12 -17 35q0 18 11 42l1 -2q46 71 92 119q59 60 122 60q61 0 134 -53q79 -56 111 -58q42 0 119 91l4 -4q28 20 53 3l52 -42q19 -12 19 -38 q0 -18 -9 -41l-2 1q-132 -168 -229 -168h-7q-6 -2 -14 -2q-40 0 -121 52q-72 55 -105 55t-106 -87h1z" unicode="ã"/>
<glyph glyph-name="adieresis" d="M1048 1874q0 -67 -48 -114.5t-115 -47.5t-114.5 47.5t-47.5 114.5t47.5 114.5t114.5 47.5t115 -47.5t48 -114.5zM548 1874q0 -67 -48 -114.5t-115 -47.5t-114.5 47.5t-47.5 114.5t47.5 114.5t114.5 47.5t115 -47.5t48 -114.5zM882 1026v77q0 230 -189 276q-16 5 -60 5 q-162 0 -226 -148q-10 -38 -18 -93v-117h493zM389 707v-622q0 -85 -60 -85h-236q-30 0 -50 38q-3 9 -3 20v1070q0 295 239 477q161 108 334 108v-2q13 5 17 5q100 -5 171 -23q85 -22 164 -70q57 -31 145 -133q52 -74 78 -141q43 -105 43 -274v-1015q0 -43 -50 -60h-242 q-51 0 -57 63v644h-493z" unicode="ä"/>
<glyph glyph-name="egrave" horiz-adv-x="836" unicode="è" d="M374 743v-214q3 -78 34 -120t89 -51t273 -14q40 -8 40 -71v-205q0 -68 -75 -68q-325 0 -421.5 44.5t-169 138.5t-93.5 172.5t-23 133.5v749q2 55 23 133.5t93.5 171.5t169 137.5t421.5 44.5q75 0 75 -67v-205q0 -63 -40 -70q-215 -6 -273 -14.5t-89 -50t-34 -120.5v-109 h340h6q87 0 87 -53v-238q1 -55 -70 -55h-363zM698 1962q40 -38 40 -68q0 -14 -9 -26l-45 -71q-14 -27 -47 -27q-15 0 -33 5l-335 197q-32 20 -32 45q0 13 8 26l77 126q12 19 34 19q24 0 58 -23z"/>
<glyph glyph-name="eacute" horiz-adv-x="836" unicode="é" d="M620 2158q35 23 58 23q21 0 34 -19l77 -126q8 -14 8 -26q0 -25 -32 -45l-335 -197q-18 -5 -33 -5q-33 0 -47 27l-45 71q-9 12 -9 26q0 30 40 68zM374 743v-214q3 -78 34 -120t89 -51t273 -14q40 -8 40 -71v-205q0 -68 -75 -68q-325 0 -421.5 44.5t-169 138.5t-93.5 172.5 t-23 133.5v749q2 55 23 133.5t93.5 171.5t169 137.5t421.5 44.5q75 0 75 -67v-205q0 -63 -40 -70q-215 -6 -273 -14.5t-89 -50t-34 -120.5v-109h340h6q87 0 87 -53v-238q1 -55 -70 -55h-363z"/>
<glyph glyph-name="ecircumflex" horiz-adv-x="835" unicode="ê" d="M374 743v-214q3 -78 34 -120t89 -51t273 -14q40 -8 40 -71v-205q0 -68 -75 -68q-325 0 -421.5 44.5t-169 138.5t-93.5 172.5t-23 133.5v749q2 55 23 133.5t93.5 171.5t169 137.5t421.5 44.5q75 0 75 -67v-205q0 -63 -40 -70q-215 -6 -273 -14.5t-89 -50t-34 -120.5v-109 h340h6q87 0 87 -53v-238q1 -55 -70 -55h-363zM809 1958q36 -39 36 -69q0 -14 -8 -26l-42 -72q-13 -26 -42 -26q-15 0 -33 7l-219 150l-219 -150q-18 -7 -33 -7q-28 0 -42 26l-42 72q-8 12 -8 26q0 30 36 69l257 213q24 11 43 11q4 0 8 -1q4 1 8 1q18 0 43 -11l34 -28 q5 -4 10 -7v-1z"/>
<glyph glyph-name="igrave" horiz-adv-x="432" unicode="ì" d="M30 1622v6q0 87 52 87h1h238h2q53 0 53 -70v-1572q0 -70 -53 -70h-2h-238h-1q-52 0 -52 87v6v1526zM341 1962q40 -38 40 -68q0 -14 -9 -26l-45 -71q-14 -27 -47 -27q-15 0 -33 5l-335 197q-32 20 -32 45q0 13 8 26l77 126q12 19 34 19q24 0 58 -23z"/>
<glyph glyph-name="iacute" horiz-adv-x="432" unicode="í" d="M321 2158q35 23 58 23q21 0 34 -19l77 -126q8 -14 8 -26q0 -25 -32 -45l-335 -197q-18 -5 -33 -5q-33 0 -47 27l-45 71q-9 12 -9 26q0 30 40 68zM30 1622v6q0 87 52 87h1h238h2q53 0 53 -70v-1572q0 -70 -53 -70h-2h-238h-1q-52 0 -52 87v6v1526z"/>
<glyph glyph-name="ntilde" d="M1023 1987v-15q0 -243 -224 -256q-32 0 -73.5 9.5t-124.5 45.5q-103 46 -149 46q-105 0 -217 -98q5 260 231 271q32 0 72 -10t120 -45q106 -47 156 -47q93 0 209 99zM630 1716q100 -5 171 -23q85 -22 164 -70q57 -31 145 -133q52 -74 78 -141q43 -105 43 -274v-1015 q0 -43 -50 -60h-242q-51 0 -57 63v1040q0 230 -189 276q-16 5 -60 5q-162 0 -226 -148q-10 -38 -18 -93v-1058q0 -85 -60 -85h-236q-30 0 -50 38q-3 9 -3 20v1070q0 295 239 477q161 108 334 108v-2q13 5 17 5z" unicode="ñ"/>
<glyph glyph-name="ograve" d="M882 1103q0 230 -189 276q-16 5 -60 5q-162 0 -226 -148q-10 -38 -18 -93v-568q8 -56 18 -93q64 -149 226 -149q44 0 60 5q189 47 189 277v488zM40 1128q0 295 239 477q161 108 334 108v-2q13 5 17 5q100 -5 171 -23q85 -22 164 -70q57 -31 145 -133q52 -74 78 -141 q43 -105 43 -274v-432q0 -169 -43 -275q-26 -66 -78 -140q-88 -103 -145 -134q-79 -48 -164 -70q-71 -18 -171 -23q-4 0 -17 5v-2q-173 0 -334 108q-239 182 -239 478v538zM838 1962q40 -38 40 -68q0 -14 -9 -26l-45 -71q-14 -27 -47 -27q-15 0 -33 5l-335 197 q-32 20 -32 45q0 13 8 26l77 126q12 19 34 19q24 0 58 -23z" unicode="ò"/>
<glyph glyph-name="oacute" d="M735 2158q35 23 58 23q21 0 34 -19l77 -126q8 -14 8 -26q0 -25 -32 -45l-335 -197q-18 -5 -33 -5q-33 0 -47 27l-45 71q-9 12 -9 26q0 30 40 68zM882 1103q0 230 -189 276q-16 5 -60 5q-162 0 -226 -148q-10 -38 -18 -93v-568q8 -56 18 -93q64 -149 226 -149q44 0 60 5 q189 47 189 277v488zM40 1128q0 295 239 477q161 108 334 108v-2q13 5 17 5q100 -5 171 -23q85 -22 164 -70q57 -31 145 -133q52 -74 78 -141q43 -105 43 -274v-432q0 -169 -43 -275q-26 -66 -78 -140q-88 -103 -145 -134q-79 -48 -164 -70q-71 -18 -171 -23q-4 0 -17 5v-2 q-173 0 -334 108q-239 182 -239 478v538z" unicode="ó"/>
<glyph glyph-name="ocircumflex" d="M944 1958q36 -39 36 -69q0 -14 -8 -26l-42 -72q-13 -26 -42 -26q-15 0 -33 7l-219 150l-219 -150q-18 -7 -33 -7q-28 0 -42 26l-42 72q-8 12 -8 26q0 30 36 69l257 213q24 11 43 11q4 0 8 -1q4 1 8 1q18 0 43 -11l34 -28q5 -4 10 -7v-1zM882 1103q0 230 -189 276 q-16 5 -60 5q-162 0 -226 -148q-10 -38 -18 -93v-568q8 -56 18 -93q64 -149 226 -149q44 0 60 5q189 47 189 277v488zM40 1128q0 295 239 477q161 108 334 108v-2q13 5 17 5q100 -5 171 -23q85 -22 164 -70q57 -31 145 -133q52 -74 78 -141q43 -105 43 -274v-432 q0 -169 -43 -275q-26 -66 -78 -140q-88 -103 -145 -134q-79 -48 -164 -70q-71 -18 -171 -23q-4 0 -17 5v-2q-173 0 -334 108q-239 182 -239 478v538z" unicode="ô"/>
<glyph glyph-name="otilde" d="M882 1103q0 230 -189 276q-16 5 -60 5q-162 0 -226 -148q-10 -38 -18 -93v-568q8 -56 18 -93q64 -149 226 -149q44 0 60 5q189 47 189 277v488zM40 1128q0 295 239 477q161 108 334 108v-2q13 5 17 5q100 -5 171 -23q85 -22 164 -70q57 -31 145 -133q52 -74 78 -141 q43 -105 43 -274v-432q0 -169 -43 -275q-26 -66 -78 -140q-88 -103 -145 -134q-79 -48 -164 -70q-71 -18 -171 -23q-4 0 -17 5v-2q-173 0 -334 108q-239 182 -239 478v538zM419 1800q-1 -1 -3 -2v-1h-1q-31 -23 -56 -2l-49 42q-17 12 -17 35q0 18 11 42l1 -2q46 71 92 119 q59 60 122 60q61 0 134 -53q79 -56 111 -58q42 0 119 91l4 -4q28 20 53 3l52 -42q19 -12 19 -38q0 -18 -9 -41l-2 1q-132 -168 -229 -168h-7q-6 -2 -14 -2q-40 0 -121 52q-72 55 -105 55t-106 -87h1z" unicode="õ"/>
<glyph glyph-name="odieresis" d="M1048 1874q0 -67 -48 -114.5t-115 -47.5t-114.5 47.5t-47.5 114.5t47.5 114.5t114.5 47.5t115 -47.5t48 -114.5zM548 1874q0 -67 -48 -114.5t-115 -47.5t-114.5 47.5t-47.5 114.5t47.5 114.5t114.5 47.5t115 -47.5t48 -114.5zM882 1103q0 230 -189 276q-16 5 -60 5 q-162 0 -226 -148q-10 -38 -18 -93v-568q8 -56 18 -93q64 -149 226 -149q44 0 60 5q189 47 189 277v488zM40 1128q0 295 239 477q161 108 334 108v-2q13 5 17 5q100 -5 171 -23q85 -22 164 -70q57 -31 145 -133q52 -74 78 -141q43 -105 43 -274v-432q0 -169 -43 -275 q-26 -66 -78 -140q-88 -103 -145 -134q-79 -48 -164 -70q-71 -18 -171 -23q-4 0 -17 5v-2q-173 0 -334 108q-239 182 -239 478v538z" unicode="ö"/>
<glyph glyph-name="ugrave" horiz-adv-x="1290" unicode="ù" d="M645 3q-99 5 -170 23q-85 22 -164 70q-57 31 -145 133q-53 74 -78 141q-43 105 -43 274v1015q0 43 50 60h241q51 0 58 -63v-1040q0 -230 189 -276q16 -5 60 -5q162 0 226 148q10 38 18 93v1058q0 85 60 85h236q30 0 50 -38q3 -9 3 -20v-1070q0 -295 -239 -478 q-161 -108 -334 -108v3q-13 -5 -18 -5zM807 1962q40 -38 40 -68q0 -14 -9 -26l-45 -71q-14 -27 -47 -27q-15 0 -33 5l-335 197q-32 20 -32 45q0 13 8 26l77 126q12 19 34 19q24 0 58 -23z"/>
<glyph glyph-name="uacute" horiz-adv-x="1290" unicode="ú" d="M767 2158q35 23 58 23q21 0 34 -19l77 -126q8 -14 8 -26q0 -25 -32 -45l-335 -197q-18 -5 -33 -5q-33 0 -47 27l-45 71q-9 12 -9 26q0 30 40 68zM645 3q-99 5 -170 23q-85 22 -164 70q-57 31 -145 133q-53 74 -78 141q-43 105 -43 274v1015q0 43 50 60h241q51 0 58 -63 v-1040q0 -230 189 -276q16 -5 60 -5q162 0 226 148q10 38 18 93v1058q0 85 60 85h236q30 0 50 -38q3 -9 3 -20v-1070q0 -295 -239 -478q-161 -108 -334 -108v3q-13 -5 -18 -5z"/>
<glyph glyph-name="udieresis" horiz-adv-x="1290" unicode="ü" d="M1061 1899q0 -68 -47.5 -115.5t-115.5 -47.5q-67 0 -114.5 47.5t-47.5 115.5q0 67 47.5 114.5t114.5 47.5q68 0 115.5 -47.5t47.5 -114.5zM561 1899q0 -68 -47.5 -115.5t-115.5 -47.5q-67 0 -114.5 47.5t-47.5 115.5q0 67 47.5 114.5t114.5 47.5q68 0 115.5 -47.5 t47.5 -114.5zM645 3q-99 5 -170 23q-85 22 -164 70q-57 31 -145 133q-53 74 -78 141q-43 105 -43 274v1015q0 43 50 60h241q51 0 58 -63v-1040q0 -230 189 -276q16 -5 60 -5q162 0 226 148q10 38 18 93v1058q0 85 60 85h236q30 0 50 -38q3 -9 3 -20v-1070q0 -295 -239 -478 q-161 -108 -334 -108v3q-13 -5 -18 -5z"/>
<glyph glyph-name="yacute" horiz-adv-x="1223" unicode="ý" d="M431 854l-373 768q-13 36 -13 57q0 36 34 36h1h238h1q53 0 82 -70l204 -429l203 429q29 70 82 70h1h238h1q33 0 33 -35q0 -22 -13 -58l-373 -769v-787q0 -70 -53 -70h-2h-238h-1q-52 0 -52 87v6v765zM741 2158q35 23 58 23q21 0 34 -19l77 -126q8 -14 8 -26 q0 -25 -32 -45l-335 -197q-18 -5 -33 -5q-33 0 -47 27l-45 71q-9 12 -9 26q0 30 40 68z"/>
<glyph glyph-name="Abreve" d="M882 1026v77q0 230 -189 276q-16 5 -60 5q-162 0 -226 -148q-10 -38 -18 -93v-117h493zM389 707v-622q0 -85 -60 -85h-236q-30 0 -50 38q-3 9 -3 20v1070q0 295 239 477q161 108 334 108v-2q13 5 17 5q100 -5 171 -23q85 -22 164 -70q57 -31 145 -133q52 -74 78 -141 q43 -105 43 -274v-1015q0 -43 -50 -60h-242q-51 0 -57 63v644h-493zM677 1973q91 5 102 73q1 6 1.5 12.5t1.5 11.5q2 9 2.5 16t1.5 13q5 21 38 21h117q36 0 36 -40q0 -83 -25 -137t-79 -96q-53 -41 -97.5 -52.5t-75.5 -12.5h-113q-32 1 -75.5 12.5t-96.5 52.5t-78 95.5 t-25 137.5q0 40 35 40h117q33 0 38 -21q1 -5 1.5 -13t2.5 -16q1 -11 3 -24q4 -34 30 -53t72 -20h66z" unicode="Ă"/>
<glyph glyph-name="abreve" d="M882 1026v77q0 230 -189 276q-16 5 -60 5q-162 0 -226 -148q-10 -38 -18 -93v-117h493zM389 707v-622q0 -85 -60 -85h-236q-30 0 -50 38q-3 9 -3 20v1070q0 295 239 477q161 108 334 108v-2q13 5 17 5q100 -5 171 -23q85 -22 164 -70q57 -31 145 -133q52 -74 78 -141 q43 -105 43 -274v-1015q0 -43 -50 -60h-242q-51 0 -57 63v644h-493zM677 1973q91 5 102 73q1 6 1.5 12.5t1.5 11.5q2 9 2.5 16t1.5 13q5 21 38 21h117q36 0 36 -40q0 -83 -25 -137t-79 -96q-53 -41 -97.5 -52.5t-75.5 -12.5h-113q-32 1 -75.5 12.5t-96.5 52.5t-78 95.5 t-25 137.5q0 40 35 40h117q33 0 38 -21q1 -5 1.5 -13t2.5 -16q1 -11 3 -24q4 -34 30 -53t72 -20h66z" unicode="ă"/>
<glyph glyph-name="Dcroat" d="M396 1384v-404h199h6q62 0 61 -41v-186q1 -43 -50 -43h-216v-377h217q44 0 60 5q189 47 189 277v488q0 230 -189 276q-16 5 -60 5h-217zM304 3h-201h-1q-52 0 -52 87v6v614h-64q-51 0 -51 43v186q0 41 61 41h6h48v642v6q0 87 52 87h1h201q304 1 306 1q100 -5 171 -23 q85 -22 164 -70q57 -31 145 -133q52 -74 78 -141q43 -105 43 -274v-432q0 -169 -43 -275q-26 -66 -78 -140q-88 -103 -145 -134q-79 -48 -164 -70q-71 -18 -171 -23q-2 0 -306 1v1z" unicode="Đ"/>
<glyph glyph-name="dcroat" d="M396 1384v-404h199h6q62 0 61 -41v-186q1 -43 -50 -43h-216v-377h217q44 0 60 5q189 47 189 277v488q0 230 -189 276q-16 5 -60 5h-217zM304 3h-201h-1q-52 0 -52 87v6v614h-64q-51 0 -51 43v186q0 41 61 41h6h48v642v6q0 87 52 87h1h201q304 1 306 1q100 -5 171 -23 q85 -22 164 -70q57 -31 145 -133q52 -74 78 -141q43 -105 43 -274v-432q0 -169 -43 -275q-26 -66 -78 -140q-88 -103 -145 -134q-79 -48 -164 -70q-71 -18 -171 -23q-2 0 -306 1v1z" unicode="đ"/>
<glyph glyph-name="Itilde" horiz-adv-x="432" unicode="Ĩ" d="M30 1622v6q0 87 52 87h1h238h2q53 0 53 -70v-1572q0 -70 -53 -70h-2h-238h-1q-52 0 -52 87v6v1526zM-20 1800q-1 -1 -3 -2v-1h-1q-31 -23 -56 -2l-49 42q-17 12 -17 35q0 18 11 42l1 -2q46 71 92 119q59 60 122 60q61 0 134 -53q79 -56 111 -58q42 0 119 91l4 -4 q28 20 53 3l52 -42q19 -12 19 -38q0 -18 -9 -41l-2 1q-132 -168 -229 -168h-7q-6 -2 -14 -2q-40 0 -121 52q-72 55 -105 55t-106 -87h1z"/>
<glyph glyph-name="itilde" horiz-adv-x="432" unicode="ĩ" d="M30 1622v6q0 87 52 87h1h238h2q53 0 53 -70v-1572q0 -70 -53 -70h-2h-238h-1q-52 0 -52 87v6v1526zM-20 1800q-1 -1 -3 -2v-1h-1q-31 -23 -56 -2l-49 42q-17 12 -17 35q0 18 11 42l1 -2q46 71 92 119q59 60 122 60q61 0 134 -53q79 -56 111 -58q42 0 119 91l4 -4 q28 20 53 3l52 -42q19 -12 19 -38q0 -18 -9 -41l-2 1q-132 -168 -229 -168h-7q-6 -2 -14 -2q-40 0 -121 52q-72 55 -105 55t-106 -87h1z"/>
<glyph glyph-name="Utilde" horiz-adv-x="1290" unicode="Ũ" d="M645 3q-99 5 -170 23q-85 22 -164 70q-57 31 -145 133q-53 74 -78 141q-43 105 -43 274v1015q0 43 50 60h241q51 0 58 -63v-1040q0 -230 189 -276q16 -5 60 -5q162 0 226 148q10 38 18 93v1058q0 85 60 85h236q30 0 50 -38q3 -9 3 -20v-1070q0 -295 -239 -478 q-161 -108 -334 -108v3q-13 -5 -18 -5zM432 1800q-1 -1 -3 -2v-1h-1q-31 -23 -56 -2l-49 42q-17 12 -17 35q0 18 11 42l1 -2q46 71 92 119q59 60 122 60q61 0 134 -53q79 -56 111 -58q42 0 119 91l4 -4q28 20 53 3l52 -42q19 -12 19 -38q0 -18 -9 -41l-2 1 q-132 -168 -229 -168h-7q-6 -2 -14 -2q-40 0 -121 52q-72 55 -105 55t-106 -87h1z"/>
<glyph glyph-name="utilde" horiz-adv-x="1290" unicode="ũ" d="M645 3q-99 5 -170 23q-85 22 -164 70q-57 31 -145 133q-53 74 -78 141q-43 105 -43 274v1015q0 43 50 60h241q51 0 58 -63v-1040q0 -230 189 -276q16 -5 60 -5q162 0 226 148q10 38 18 93v1058q0 85 60 85h236q30 0 50 -38q3 -9 3 -20v-1070q0 -295 -239 -478 q-161 -108 -334 -108v3q-13 -5 -18 -5zM432 1800q-1 -1 -3 -2v-1h-1q-31 -23 -56 -2l-49 42q-17 12 -17 35q0 18 11 42l1 -2q46 71 92 119q59 60 122 60q61 0 134 -53q79 -56 111 -58q42 0 119 91l4 -4q28 20 53 3l52 -42q19 -12 19 -38q0 -18 -9 -41l-2 1 q-132 -168 -229 -168h-7q-6 -2 -14 -2q-40 0 -121 52q-72 55 -105 55t-106 -87h1z"/>
<glyph glyph-name="Ohorn" horiz-adv-x="1320" unicode="Ơ" d="M882 1103q0 230 -189 276q-16 5 -60 5q-162 0 -226 -148q-10 -38 -18 -93v-568q8 -56 18 -93q64 -149 226 -149q44 0 60 5q189 47 189 277v488zM40 1128q0 295 239 477q161 108 334 108v-2q13 5 17 5q100 -5 171 -23q85 -22 164 -70q17 -10 37 -26v183v11q0 60 40 62h232 h1q35 0 35 -70l-1 -282q-20 -51 -61 -51h-2h-110q33 -53 52 -101q43 -105 43 -274v-432q0 -169 -43 -275q-26 -66 -78 -140q-88 -103 -145 -134q-79 -48 -164 -70q-71 -18 -171 -23q-4 0 -17 5v-2q-173 0 -334 108q-239 182 -239 478v538z"/>
<glyph glyph-name="ohorn" horiz-adv-x="1320" unicode="ơ" d="M882 1103q0 230 -189 276q-16 5 -60 5q-162 0 -226 -148q-10 -38 -18 -93v-568q8 -56 18 -93q64 -149 226 -149q44 0 60 5q189 47 189 277v488zM40 1128q0 295 239 477q161 108 334 108v-2q13 5 17 5q100 -5 171 -23q85 -22 164 -70q17 -10 37 -26v183v11q0 60 40 62h232 h1q35 0 35 -70l-1 -282q-20 -51 -61 -51h-2h-110q33 -53 52 -101q43 -105 43 -274v-432q0 -169 -43 -275q-26 -66 -78 -140q-88 -103 -145 -134q-79 -48 -164 -70q-71 -18 -171 -23q-4 0 -17 5v-2q-173 0 -334 108q-239 182 -239 478v538z"/>
<glyph glyph-name="Uhorn" horiz-adv-x="1485" unicode="Ư" d="M645 3q-99 5 -170 23q-85 22 -164 70q-57 31 -145 133q-53 74 -78 141q-43 105 -43 274v1015q0 43 50 60h241q51 0 58 -63v-1040q0 -230 189 -276q16 -5 60 -5q162 0 226 148q10 38 18 93v1058q0 85 60 85h214v61v11q0 60 40 62h232h1q35 0 35 -70l-1 -282 q-20 -51 -61 -51h-2h-169v-859q0 -295 -239 -478q-161 -108 -334 -108v3q-13 -5 -18 -5z"/>
<glyph glyph-name="uhorn" horiz-adv-x="1485" unicode="ư" d="M645 3q-99 5 -170 23q-85 22 -164 70q-57 31 -145 133q-53 74 -78 141q-43 105 -43 274v1015q0 43 50 60h241q51 0 58 -63v-1040q0 -230 189 -276q16 -5 60 -5q162 0 226 148q10 38 18 93v1058q0 85 60 85h214v61v11q0 60 40 62h232h1q35 0 35 -70l-1 -282 q-20 -51 -61 -51h-2h-169v-859q0 -295 -239 -478q-161 -108 -334 -108v3q-13 -5 -18 -5z"/>
<glyph glyph-name="tilde" horiz-adv-x="957" unicode="˜" d="M878 1714v-15q0 -243 -224 -257q-33 0 -74 9.5t-124 46.5q-103 46 -149 46q-106 0 -217 -98q5 259 231 270q32 0 71.5 -9.5t120.5 -45.5q106 -47 156 -47q92 0 209 100z"/>
<glyph glyph-name="uni1EA0" d="M882 1026v77q0 230 -189 276q-16 5 -60 5q-162 0 -226 -148q-10 -38 -18 -93v-117h493zM389 707v-622q0 -85 -60 -85h-236q-30 0 -50 38q-3 9 -3 20v1070q0 295 239 477q161 108 334 108v-2q13 5 17 5q100 -5 171 -23q85 -22 164 -70q57 -31 145 -133q52 -74 78 -141 q43 -105 43 -274v-1015q0 -43 -50 -60h-242q-51 0 -57 63v644h-493zM524 -146v9q0 46 30 47h176h1q24 0 24 -53l-1 -198q-16 -40 -48 -40h-134q-37 0 -47 45z" unicode="Ạ"/>
<glyph glyph-name="uni1EA1" d="M882 1026v77q0 230 -189 276q-16 5 -60 5q-162 0 -226 -148q-10 -38 -18 -93v-117h493zM389 707v-622q0 -85 -60 -85h-236q-30 0 -50 38q-3 9 -3 20v1070q0 295 239 477q161 108 334 108v-2q13 5 17 5q100 -5 171 -23q85 -22 164 -70q57 -31 145 -133q52 -74 78 -141 q43 -105 43 -274v-1015q0 -43 -50 -60h-242q-51 0 -57 63v644h-493zM524 -146v9q0 46 30 47h176h1q24 0 24 -53l-1 -198q-16 -40 -48 -40h-134q-37 0 -47 45z" unicode="ạ"/>
<glyph glyph-name="uni1EA2" d="M882 1026v77q0 230 -189 276q-16 5 -60 5q-162 0 -226 -148q-10 -38 -18 -93v-117h493zM389 707v-622q0 -85 -60 -85h-236q-30 0 -50 38q-3 9 -3 20v1070q0 295 239 477q161 108 334 108v-2q13 5 17 5q100 -5 171 -23q85 -22 164 -70q57 -31 145 -133q52 -74 78 -141 q43 -105 43 -274v-1015q0 -43 -50 -60h-242q-51 0 -57 63v644h-493zM594 1788q-48 0 -48 62v8q0 43 17.5 82.5t50.5 65.5q25 20 35.5 38.5t13.5 38.5q-8 1 -25.5 1h-45.5h-78q-41 9 -41 58v80q0 57 60 57h20q10 0 19.5 0.5t18.5 0.5q136 0 174 -19q47 -24 73 -66 q11 -18 17 -43t6 -55v-15.5t-1 -17.5q-5 -43 -24.5 -81t-52.5 -66q-18 -15 -28 -27.5t-10 -22.5q0 -2 2 -10q0 -69 -53 -69h-100z" unicode="Ả"/>
<glyph glyph-name="uni1EA3" d="M882 1026v77q0 230 -189 276q-16 5 -60 5q-162 0 -226 -148q-10 -38 -18 -93v-117h493zM389 707v-622q0 -85 -60 -85h-236q-30 0 -50 38q-3 9 -3 20v1070q0 295 239 477q161 108 334 108v-2q13 5 17 5q100 -5 171 -23q85 -22 164 -70q57 -31 145 -133q52 -74 78 -141 q43 -105 43 -274v-1015q0 -43 -50 -60h-242q-51 0 -57 63v644h-493zM594 1788q-48 0 -48 62v8q0 43 17.5 82.5t50.5 65.5q25 20 35.5 38.5t13.5 38.5q-8 1 -25.5 1h-45.5h-78q-41 9 -41 58v80q0 57 60 57h20q10 0 19.5 0.5t18.5 0.5q136 0 174 -19q47 -24 73 -66 q11 -18 17 -43t6 -55v-15.5t-1 -17.5q-5 -43 -24.5 -81t-52.5 -66q-18 -15 -28 -27.5t-10 -22.5q0 -2 2 -10q0 -69 -53 -69h-100z" unicode="ả"/>
<glyph glyph-name="uni1EA4" d="M1147 2464q35 23 58 23q21 0 34 -19l77 -126q8 -14 8 -26q0 -25 -32 -45l-335 -197q-18 -5 -33 -5q-33 0 -47 27l-45 71q-9 12 -9 26q0 30 40 68zM882 1026v77q0 230 -189 276q-16 5 -60 5q-162 0 -226 -148q-10 -38 -18 -93v-117h493zM389 707v-622q0 -85 -60 -85h-236 q-30 0 -50 38q-3 9 -3 20v1070q0 295 239 477q161 108 334 108v-2q13 5 17 5q100 -5 171 -23q85 -22 164 -70q57 -31 145 -133q52 -74 78 -141q43 -105 43 -274v-1015q0 -43 -50 -60h-242q-51 0 -57 63v644h-493zM938 1958q36 -39 36 -69q0 -14 -8 -26l-42 -72 q-13 -26 -42 -26q-15 0 -33 7l-219 150l-219 -150q-18 -7 -33 -7q-28 0 -42 26l-42 72q-8 12 -8 26q0 30 36 69l257 213q24 11 43 11q4 0 8 -1q4 1 8 1q18 0 43 -11l34 -28q5 -4 10 -7v-1z" unicode="Ấ"/>
<glyph glyph-name="uni1EA5" d="M1147 2464q35 23 58 23q21 0 34 -19l77 -126q8 -14 8 -26q0 -25 -32 -45l-335 -197q-18 -5 -33 -5q-33 0 -47 27l-45 71q-9 12 -9 26q0 30 40 68zM882 1026v77q0 230 -189 276q-16 5 -60 5q-162 0 -226 -148q-10 -38 -18 -93v-117h493zM389 707v-622q0 -85 -60 -85h-236 q-30 0 -50 38q-3 9 -3 20v1070q0 295 239 477q161 108 334 108v-2q13 5 17 5q100 -5 171 -23q85 -22 164 -70q57 -31 145 -133q52 -74 78 -141q43 -105 43 -274v-1015q0 -43 -50 -60h-242q-51 0 -57 63v644h-493zM938 1958q36 -39 36 -69q0 -14 -8 -26l-42 -72 q-13 -26 -42 -26q-15 0 -33 7l-219 150l-219 -150q-18 -7 -33 -7q-28 0 -42 26l-42 72q-8 12 -8 26q0 30 36 69l257 213q24 11 43 11q4 0 8 -1q4 1 8 1q18 0 43 -11l34 -28q5 -4 10 -7v-1z" unicode="ấ"/>
<glyph glyph-name="uni1EA6" d="M1100 2259q40 -38 40 -68q0 -14 -9 -26l-45 -71q-14 -27 -47 -27q-15 0 -33 5l-335 197q-32 20 -32 45q0 13 8 26l77 126q12 19 34 19q24 0 58 -23zM882 1026v77q0 230 -189 276q-16 5 -60 5q-162 0 -226 -148q-10 -38 -18 -93v-117h493zM389 707v-622q0 -85 -60 -85 h-236q-30 0 -50 38q-3 9 -3 20v1070q0 295 239 477q161 108 334 108v-2q13 5 17 5q100 -5 171 -23q85 -22 164 -70q57 -31 145 -133q52 -74 78 -141q43 -105 43 -274v-1015q0 -43 -50 -60h-242q-51 0 -57 63v644h-493zM938 1958q36 -39 36 -69q0 -14 -8 -26l-42 -72 q-13 -26 -42 -26q-15 0 -33 7l-219 150l-219 -150q-18 -7 -33 -7q-28 0 -42 26l-42 72q-8 12 -8 26q0 30 36 69l257 213q24 11 43 11q4 0 8 -1q4 1 8 1q18 0 43 -11l34 -28q5 -4 10 -7v-1z" unicode="Ầ"/>
<glyph glyph-name="uni1EA7" d="M1100 2259q40 -38 40 -68q0 -14 -9 -26l-45 -71q-14 -27 -47 -27q-15 0 -33 5l-335 197q-32 20 -32 45q0 13 8 26l77 126q12 19 34 19q24 0 58 -23zM882 1026v77q0 230 -189 276q-16 5 -60 5q-162 0 -226 -148q-10 -38 -18 -93v-117h493zM389 707v-622q0 -85 -60 -85 h-236q-30 0 -50 38q-3 9 -3 20v1070q0 295 239 477q161 108 334 108v-2q13 5 17 5q100 -5 171 -23q85 -22 164 -70q57 -31 145 -133q52 -74 78 -141q43 -105 43 -274v-1015q0 -43 -50 -60h-242q-51 0 -57 63v644h-493zM938 1958q36 -39 36 -69q0 -14 -8 -26l-42 -72 q-13 -26 -42 -26q-15 0 -33 7l-219 150l-219 -150q-18 -7 -33 -7q-28 0 -42 26l-42 72q-8 12 -8 26q0 30 36 69l257 213q24 11 43 11q4 0 8 -1q4 1 8 1q18 0 43 -11l34 -28q5 -4 10 -7v-1z" unicode="ầ"/>
<glyph glyph-name="uni1EA8" d="M882 1026v77q0 230 -189 276q-16 5 -60 5q-162 0 -226 -148q-10 -38 -18 -93v-117h493zM389 707v-622q0 -85 -60 -85h-236q-30 0 -50 38q-3 9 -3 20v1070q0 295 239 477q161 108 334 108v-2q13 5 17 5q100 -5 171 -23q85 -22 164 -70q57 -31 145 -133q52 -74 78 -141 q43 -105 43 -274v-1015q0 -43 -50 -60h-242q-51 0 -57 63v644h-493zM938 1958q36 -39 36 -69q0 -14 -8 -26l-42 -72q-13 -26 -42 -26q-15 0 -33 7l-219 150l-219 -150q-18 -7 -33 -7q-28 0 -42 26l-42 72q-8 12 -8 26q0 30 36 69l257 213q30 13 51 10q21 3 51 -10l34 -28 q5 -4 10 -7v-1zM914 2062q-48 0 -48 62v8q0 43 17.5 82.5t50.5 65.5q25 20 35.5 38.5t13.5 38.5q-8 1 -25.5 1h-45.5h-78q-41 9 -41 58v80q0 57 60 57h20q10 0 19.5 0.5t18.5 0.5q136 0 174 -19q47 -24 73 -66q11 -18 17 -43t6 -55v-15.5t-1 -17.5q-5 -43 -24.5 -81 t-52.5 -66q-18 -15 -28 -27.5t-10 -22.5q0 -2 2 -10q0 -69 -53 -69h-100z" unicode="Ẩ"/>
<glyph glyph-name="uni1EA9" d="M882 1026v77q0 230 -189 276q-16 5 -60 5q-162 0 -226 -148q-10 -38 -18 -93v-117h493zM389 707v-622q0 -85 -60 -85h-236q-30 0 -50 38q-3 9 -3 20v1070q0 295 239 477q161 108 334 108v-2q13 5 17 5q100 -5 171 -23q85 -22 164 -70q57 -31 145 -133q52 -74 78 -141 q43 -105 43 -274v-1015q0 -43 -50 -60h-242q-51 0 -57 63v644h-493zM938 1958q36 -39 36 -69q0 -14 -8 -26l-42 -72q-13 -26 -42 -26q-15 0 -33 7l-219 150l-219 -150q-18 -7 -33 -7q-28 0 -42 26l-42 72q-8 12 -8 26q0 30 36 69l257 213q30 13 51 10q21 3 51 -10l34 -28 q5 -4 10 -7v-1zM914 2062q-48 0 -48 62v8q0 43 17.5 82.5t50.5 65.5q25 20 35.5 38.5t13.5 38.5q-8 1 -25.5 1h-45.5h-78q-41 9 -41 58v80q0 57 60 57h20q10 0 19.5 0.5t18.5 0.5q136 0 174 -19q47 -24 73 -66q11 -18 17 -43t6 -55v-15.5t-1 -17.5q-5 -43 -24.5 -81 t-52.5 -66q-18 -15 -28 -27.5t-10 -22.5q0 -2 2 -10q0 -69 -53 -69h-100z" unicode="ẩ"/>
<glyph glyph-name="uni1EAA" d="M403 2242q-1 -1 -3 -2v-1h-1q-31 -23 -56 -2l-49 42q-17 12 -17 35q0 18 11 42l1 -2q46 71 92 119q59 60 122 60q61 0 134 -53q79 -56 111 -58q42 0 119 91l4 -4q28 20 53 3l52 -42q19 -12 19 -38q0 -18 -9 -41l-2 1q-132 -168 -229 -168h-7q-6 -2 -14 -2q-40 0 -121 52 q-72 55 -105 55t-106 -87h1zM882 1026v77q0 230 -189 276q-16 5 -60 5q-162 0 -226 -148q-10 -38 -18 -93v-117h493zM389 707v-622q0 -85 -60 -85h-236q-30 0 -50 38q-3 9 -3 20v1070q0 295 239 477q161 108 334 108v-2q13 5 17 5q100 -5 171 -23q85 -22 164 -70 q57 -31 145 -133q52 -74 78 -141q43 -105 43 -274v-1015q0 -43 -50 -60h-242q-51 0 -57 63v644h-493zM938 1958q36 -39 36 -69q0 -14 -8 -26l-42 -72q-13 -26 -42 -26q-15 0 -33 7l-219 150l-219 -150q-18 -7 -33 -7q-28 0 -42 26l-42 72q-8 12 -8 26q0 30 36 69l257 213 q24 11 43 11q4 0 8 -1q4 1 8 1q18 0 43 -11l34 -28q5 -4 10 -7v-1z" unicode="Ẫ"/>
<glyph glyph-name="uni1EAB" d="M403 2242q-1 -1 -3 -2v-1h-1q-31 -23 -56 -2l-49 42q-17 12 -17 35q0 18 11 42l1 -2q46 71 92 119q59 60 122 60q61 0 134 -53q79 -56 111 -58q42 0 119 91l4 -4q28 20 53 3l52 -42q19 -12 19 -38q0 -18 -9 -41l-2 1q-132 -168 -229 -168h-7q-6 -2 -14 -2q-40 0 -121 52 q-72 55 -105 55t-106 -87h1zM882 1026v77q0 230 -189 276q-16 5 -60 5q-162 0 -226 -148q-10 -38 -18 -93v-117h493zM389 707v-622q0 -85 -60 -85h-236q-30 0 -50 38q-3 9 -3 20v1070q0 295 239 477q161 108 334 108v-2q13 5 17 5q100 -5 171 -23q85 -22 164 -70 q57 -31 145 -133q52 -74 78 -141q43 -105 43 -274v-1015q0 -43 -50 -60h-242q-51 0 -57 63v644h-493zM938 1958q36 -39 36 -69q0 -14 -8 -26l-42 -72q-13 -26 -42 -26q-15 0 -33 7l-219 150l-219 -150q-18 -7 -33 -7q-28 0 -42 26l-42 72q-8 12 -8 26q0 30 36 69l257 213 q24 11 43 11q4 0 8 -1q4 1 8 1q18 0 43 -11l34 -28q5 -4 10 -7v-1z" unicode="ẫ"/>
<glyph glyph-name="uni1EAC" d="M524 -146v9q0 46 30 47h176h1q24 0 24 -53l-1 -198q-16 -40 -48 -40h-134q-37 0 -47 45zM882 1026v77q0 230 -189 276q-16 5 -60 5q-162 0 -226 -148q-10 -38 -18 -93v-117h493zM389 707v-622q0 -85 -60 -85h-236q-30 0 -50 38q-3 9 -3 20v1070q0 295 239 477 q161 108 334 108v-2q13 5 17 5q100 -5 171 -23q85 -22 164 -70q57 -31 145 -133q52 -74 78 -141q43 -105 43 -274v-1015q0 -43 -50 -60h-242q-51 0 -57 63v644h-493zM938 1958q36 -39 36 -69q0 -14 -8 -26l-42 -72q-13 -26 -42 -26q-15 0 -33 7l-219 150l-219 -150 q-18 -7 -33 -7q-28 0 -42 26l-42 72q-8 12 -8 26q0 30 36 69l257 213q24 11 43 11q4 0 8 -1q4 1 8 1q18 0 43 -11l34 -28q5 -4 10 -7v-1z" unicode="Ậ"/>
<glyph glyph-name="uni1EAD" d="M524 -146v9q0 46 30 47h176h1q24 0 24 -53l-1 -198q-16 -40 -48 -40h-134q-37 0 -47 45zM882 1026v77q0 230 -189 276q-16 5 -60 5q-162 0 -226 -148q-10 -38 -18 -93v-117h493zM389 707v-622q0 -85 -60 -85h-236q-30 0 -50 38q-3 9 -3 20v1070q0 295 239 477 q161 108 334 108v-2q13 5 17 5q100 -5 171 -23q85 -22 164 -70q57 -31 145 -133q52 -74 78 -141q43 -105 43 -274v-1015q0 -43 -50 -60h-242q-51 0 -57 63v644h-493zM938 1958q36 -39 36 -69q0 -14 -8 -26l-42 -72q-13 -26 -42 -26q-15 0 -33 7l-219 150l-219 -150 q-18 -7 -33 -7q-28 0 -42 26l-42 72q-8 12 -8 26q0 30 36 69l257 213q24 11 43 11q4 0 8 -1q4 1 8 1q18 0 43 -11l34 -28q5 -4 10 -7v-1z" unicode="ậ"/>
<glyph glyph-name="uni1EAE" d="M839 2529q35 23 58 23q21 0 34 -19l77 -126q8 -14 8 -26q0 -25 -32 -45l-335 -197q-18 -5 -33 -5q-33 0 -47 27l-45 71q-9 12 -9 26q0 30 40 68zM882 1026v77q0 230 -189 276q-16 5 -60 5q-162 0 -226 -148q-10 -38 -18 -93v-117h493zM389 707v-622q0 -85 -60 -85h-236 q-30 0 -50 38q-3 9 -3 20v1070q0 295 239 477q161 108 334 108v-2q13 5 17 5q100 -5 171 -23q85 -22 164 -70q57 -31 145 -133q52 -74 78 -141q43 -105 43 -274v-1015q0 -43 -50 -60h-242q-51 0 -57 63v644h-493zM677 1973q91 5 102 73q1 6 1.5 12.5t1.5 11.5q2 9 2.5 16 t1.5 13q5 21 38 21h117q36 0 36 -40q0 -83 -25 -137t-79 -96q-53 -41 -97.5 -52.5t-75.5 -12.5h-113q-32 1 -75.5 12.5t-96.5 52.5t-78 95.5t-25 137.5q0 40 35 40h117q33 0 38 -21q1 -5 1.5 -13t2.5 -16q1 -11 3 -24q4 -34 30 -53t72 -20h66z" unicode="Ắ"/>
<glyph glyph-name="uni1EAF" d="M839 2529q35 23 58 23q21 0 34 -19l77 -126q8 -14 8 -26q0 -25 -32 -45l-335 -197q-18 -5 -33 -5q-33 0 -47 27l-45 71q-9 12 -9 26q0 30 40 68zM882 1026v77q0 230 -189 276q-16 5 -60 5q-162 0 -226 -148q-10 -38 -18 -93v-117h493zM389 707v-622q0 -85 -60 -85h-236 q-30 0 -50 38q-3 9 -3 20v1070q0 295 239 477q161 108 334 108v-2q13 5 17 5q100 -5 171 -23q85 -22 164 -70q57 -31 145 -133q52 -74 78 -141q43 -105 43 -274v-1015q0 -43 -50 -60h-242q-51 0 -57 63v644h-493zM677 1973q91 5 102 73q1 6 1.5 12.5t1.5 11.5q2 9 2.5 16 t1.5 13q5 21 38 21h117q36 0 36 -40q0 -83 -25 -137t-79 -96q-53 -41 -97.5 -52.5t-75.5 -12.5h-113q-32 1 -75.5 12.5t-96.5 52.5t-78 95.5t-25 137.5q0 40 35 40h117q33 0 38 -21q1 -5 1.5 -13t2.5 -16q1 -11 3 -24q4 -34 30 -53t72 -20h66z" unicode="ắ"/>
<glyph glyph-name="uni1EB0" d="M744 2325q40 -38 40 -68q0 -14 -9 -26l-45 -71q-14 -27 -47 -27q-15 0 -33 5l-335 197q-32 20 -32 45q0 13 8 26l77 126q12 19 34 19q24 0 58 -23zM882 1026v77q0 230 -189 276q-16 5 -60 5q-162 0 -226 -148q-10 -38 -18 -93v-117h493zM389 707v-622q0 -85 -60 -85h-236 q-30 0 -50 38q-3 9 -3 20v1070q0 295 239 477q161 108 334 108v-2q13 5 17 5q100 -5 171 -23q85 -22 164 -70q57 -31 145 -133q52 -74 78 -141q43 -105 43 -274v-1015q0 -43 -50 -60h-242q-51 0 -57 63v644h-493zM677 1973q91 5 102 73q1 6 1.5 12.5t1.5 11.5q2 9 2.5 16 t1.5 13q5 21 38 21h117q36 0 36 -40q0 -83 -25 -137t-79 -96q-53 -41 -97.5 -52.5t-75.5 -12.5h-113q-32 1 -75.5 12.5t-96.5 52.5t-78 95.5t-25 137.5q0 40 35 40h117q33 0 38 -21q1 -5 1.5 -13t2.5 -16q1 -11 3 -24q4 -34 30 -53t72 -20h66z" unicode="Ằ"/>
<glyph glyph-name="uni1EB1" d="M744 2325q40 -38 40 -68q0 -14 -9 -26l-45 -71q-14 -27 -47 -27q-15 0 -33 5l-335 197q-32 20 -32 45q0 13 8 26l77 126q12 19 34 19q24 0 58 -23zM882 1026v77q0 230 -189 276q-16 5 -60 5q-162 0 -226 -148q-10 -38 -18 -93v-117h493zM389 707v-622q0 -85 -60 -85h-236 q-30 0 -50 38q-3 9 -3 20v1070q0 295 239 477q161 108 334 108v-2q13 5 17 5q100 -5 171 -23q85 -22 164 -70q57 -31 145 -133q52 -74 78 -141q43 -105 43 -274v-1015q0 -43 -50 -60h-242q-51 0 -57 63v644h-493zM677 1973q91 5 102 73q1 6 1.5 12.5t1.5 11.5q2 9 2.5 16 t1.5 13q5 21 38 21h117q36 0 36 -40q0 -83 -25 -137t-79 -96q-53 -41 -97.5 -52.5t-75.5 -12.5h-113q-32 1 -75.5 12.5t-96.5 52.5t-78 95.5t-25 137.5q0 40 35 40h117q33 0 38 -21q1 -5 1.5 -13t2.5 -16q1 -11 3 -24q4 -34 30 -53t72 -20h66z" unicode="ằ"/>
<glyph glyph-name="uni1EB2" d="M882 1026v77q0 230 -189 276q-16 5 -60 5q-162 0 -226 -148q-10 -38 -18 -93v-117h493zM389 707v-622q0 -85 -60 -85h-236q-30 0 -50 38q-3 9 -3 20v1070q0 295 239 477q161 108 334 108v-2q13 5 17 5q100 -5 171 -23q85 -22 164 -70q57 -31 145 -133q52 -74 78 -141 q43 -105 43 -274v-1015q0 -43 -50 -60h-242q-51 0 -57 63v644h-493zM677 1973q91 5 102 73q1 6 1.5 12.5t1.5 11.5q2 9 2.5 16t1.5 13q5 21 38 21h117q36 0 36 -40q0 -83 -25 -137t-79 -96q-53 -41 -97.5 -52.5t-75.5 -12.5h-113q-32 1 -75.5 12.5t-96.5 52.5t-78 95.5 t-25 137.5q0 40 35 40h117q33 0 38 -21q1 -5 1.5 -13t2.5 -16q1 -11 3 -24q4 -34 30 -53t72 -20h66zM596 2130q-48 0 -48 62v8q0 43 17.5 82.5t50.5 65.5q25 20 35.5 38.5t13.5 38.5q-8 1 -25.5 1h-45.5h-78q-41 9 -41 58v80q0 57 60 57h20q10 0 19.5 0.5t18.5 0.5 q136 0 174 -19q47 -24 73 -66q11 -18 17 -43t6 -55v-15.5t-1 -17.5q-5 -43 -24.5 -81t-52.5 -66q-18 -15 -28 -27.5t-10 -22.5q0 -2 2 -10q0 -69 -53 -69h-100z" unicode="Ẳ"/>
<glyph glyph-name="uni1EB3" d="M882 1026v77q0 230 -189 276q-16 5 -60 5q-162 0 -226 -148q-10 -38 -18 -93v-117h493zM389 707v-622q0 -85 -60 -85h-236q-30 0 -50 38q-3 9 -3 20v1070q0 295 239 477q161 108 334 108v-2q13 5 17 5q100 -5 171 -23q85 -22 164 -70q57 -31 145 -133q52 -74 78 -141 q43 -105 43 -274v-1015q0 -43 -50 -60h-242q-51 0 -57 63v644h-493zM677 1973q91 5 102 73q1 6 1.5 12.5t1.5 11.5q2 9 2.5 16t1.5 13q5 21 38 21h117q36 0 36 -40q0 -83 -25 -137t-79 -96q-53 -41 -97.5 -52.5t-75.5 -12.5h-113q-32 1 -75.5 12.5t-96.5 52.5t-78 95.5 t-25 137.5q0 40 35 40h117q33 0 38 -21q1 -5 1.5 -13t2.5 -16q1 -11 3 -24q4 -34 30 -53t72 -20h66zM596 2130q-48 0 -48 62v8q0 43 17.5 82.5t50.5 65.5q25 20 35.5 38.5t13.5 38.5q-8 1 -25.5 1h-45.5h-78q-41 9 -41 58v80q0 57 60 57h20q10 0 19.5 0.5t18.5 0.5 q136 0 174 -19q47 -24 73 -66q11 -18 17 -43t6 -55v-15.5t-1 -17.5q-5 -43 -24.5 -81t-52.5 -66q-18 -15 -28 -27.5t-10 -22.5q0 -2 2 -10q0 -69 -53 -69h-100z" unicode="ẳ"/>
<glyph glyph-name="uni1EB4" d="M419 2199q-1 -1 -3 -2v-1h-1q-31 -23 -56 -2l-49 42q-17 12 -17 35q0 18 11 42l1 -2q46 71 92 119q59 60 122 60q61 0 134 -53q79 -56 111 -58q42 0 119 91l4 -4q28 20 53 3l52 -42q19 -12 19 -38q0 -18 -9 -41l-2 1q-132 -168 -229 -168h-7q-6 -2 -14 -2q-40 0 -121 52 q-72 55 -105 55t-106 -87h1zM882 1026v77q0 230 -189 276q-16 5 -60 5q-162 0 -226 -148q-10 -38 -18 -93v-117h493zM389 707v-622q0 -85 -60 -85h-236q-30 0 -50 38q-3 9 -3 20v1070q0 295 239 477q161 108 334 108v-2q13 5 17 5q100 -5 171 -23q85 -22 164 -70 q57 -31 145 -133q52 -74 78 -141q43 -105 43 -274v-1015q0 -43 -50 -60h-242q-51 0 -57 63v644h-493zM677 1973q91 5 102 73q1 6 1.5 12.5t1.5 11.5q2 9 2.5 16t1.5 13q5 21 38 21h117q36 0 36 -40q0 -83 -25 -137t-79 -96q-53 -41 -97.5 -52.5t-75.5 -12.5h-113 q-32 1 -75.5 12.5t-96.5 52.5t-78 95.5t-25 137.5q0 40 35 40h117q33 0 38 -21q1 -5 1.5 -13t2.5 -16q1 -11 3 -24q4 -34 30 -53t72 -20h66z" unicode="Ẵ"/>
<glyph glyph-name="uni1EB5" d="M419 2199q-1 -1 -3 -2v-1h-1q-31 -23 -56 -2l-49 42q-17 12 -17 35q0 18 11 42l1 -2q46 71 92 119q59 60 122 60q61 0 134 -53q79 -56 111 -58q42 0 119 91l4 -4q28 20 53 3l52 -42q19 -12 19 -38q0 -18 -9 -41l-2 1q-132 -168 -229 -168h-7q-6 -2 -14 -2q-40 0 -121 52 q-72 55 -105 55t-106 -87h1zM882 1026v77q0 230 -189 276q-16 5 -60 5q-162 0 -226 -148q-10 -38 -18 -93v-117h493zM389 707v-622q0 -85 -60 -85h-236q-30 0 -50 38q-3 9 -3 20v1070q0 295 239 477q161 108 334 108v-2q13 5 17 5q100 -5 171 -23q85 -22 164 -70 q57 -31 145 -133q52 -74 78 -141q43 -105 43 -274v-1015q0 -43 -50 -60h-242q-51 0 -57 63v644h-493zM677 1973q91 5 102 73q1 6 1.5 12.5t1.5 11.5q2 9 2.5 16t1.5 13q5 21 38 21h117q36 0 36 -40q0 -83 -25 -137t-79 -96q-53 -41 -97.5 -52.5t-75.5 -12.5h-113 q-32 1 -75.5 12.5t-96.5 52.5t-78 95.5t-25 137.5q0 40 35 40h117q33 0 38 -21q1 -5 1.5 -13t2.5 -16q1 -11 3 -24q4 -34 30 -53t72 -20h66z" unicode="ẵ"/>
<glyph glyph-name="uni1EB6" d="M524 -146v9q0 46 30 47h176h1q24 0 24 -53l-1 -198q-16 -40 -48 -40h-134q-37 0 -47 45zM882 1026v77q0 230 -189 276q-16 5 -60 5q-162 0 -226 -148q-10 -38 -18 -93v-117h493zM389 707v-622q0 -85 -60 -85h-236q-30 0 -50 38q-3 9 -3 20v1070q0 295 239 477 q161 108 334 108v-2q13 5 17 5q100 -5 171 -23q85 -22 164 -70q57 -31 145 -133q52 -74 78 -141q43 -105 43 -274v-1015q0 -43 -50 -60h-242q-51 0 -57 63v644h-493zM677 1973q91 5 102 73q1 6 1.5 12.5t1.5 11.5q2 9 2.5 16t1.5 13q5 21 38 21h117q36 0 36 -40 q0 -83 -25 -137t-79 -96q-53 -41 -97.5 -52.5t-75.5 -12.5h-113q-32 1 -75.5 12.5t-96.5 52.5t-78 95.5t-25 137.5q0 40 35 40h117q33 0 38 -21q1 -5 1.5 -13t2.5 -16q1 -11 3 -24q4 -34 30 -53t72 -20h66z" unicode="Ặ"/>
<glyph glyph-name="uni1EB7" d="M524 -146v9q0 46 30 47h176h1q24 0 24 -53l-1 -198q-16 -40 -48 -40h-134q-37 0 -47 45zM882 1026v77q0 230 -189 276q-16 5 -60 5q-162 0 -226 -148q-10 -38 -18 -93v-117h493zM389 707v-622q0 -85 -60 -85h-236q-30 0 -50 38q-3 9 -3 20v1070q0 295 239 477 q161 108 334 108v-2q13 5 17 5q100 -5 171 -23q85 -22 164 -70q57 -31 145 -133q52 -74 78 -141q43 -105 43 -274v-1015q0 -43 -50 -60h-242q-51 0 -57 63v644h-493zM677 1973q91 5 102 73q1 6 1.5 12.5t1.5 11.5q2 9 2.5 16t1.5 13q5 21 38 21h117q36 0 36 -40 q0 -83 -25 -137t-79 -96q-53 -41 -97.5 -52.5t-75.5 -12.5h-113q-32 1 -75.5 12.5t-96.5 52.5t-78 95.5t-25 137.5q0 40 35 40h117q33 0 38 -21q1 -5 1.5 -13t2.5 -16q1 -11 3 -24q4 -34 30 -53t72 -20h66z" unicode="ặ"/>
<glyph glyph-name="uni1EB8" horiz-adv-x="836" unicode="Ẹ" d="M374 743v-214q3 -78 34 -120t89 -51t273 -14q40 -8 40 -71v-205q0 -68 -75 -68q-325 0 -421.5 44.5t-169 138.5t-93.5 172.5t-23 133.5v749q2 55 23 133.5t93.5 171.5t169 137.5t421.5 44.5q75 0 75 -67v-205q0 -63 -40 -70q-215 -6 -273 -14.5t-89 -50t-34 -120.5v-109 h340h6q87 0 87 -53v-238q1 -55 -70 -55h-363zM385 -146v9q0 46 30 47h176h1q24 0 24 -53l-1 -198q-16 -40 -48 -40h-134q-37 0 -47 45z"/>
<glyph glyph-name="uni1EB9" horiz-adv-x="836" unicode="ẹ" d="M374 743v-214q3 -78 34 -120t89 -51t273 -14q40 -8 40 -71v-205q0 -68 -75 -68q-325 0 -421.5 44.5t-169 138.5t-93.5 172.5t-23 133.5v749q2 55 23 133.5t93.5 171.5t169 137.5t421.5 44.5q75 0 75 -67v-205q0 -63 -40 -70q-215 -6 -273 -14.5t-89 -50t-34 -120.5v-109 h340h6q87 0 87 -53v-238q1 -55 -70 -55h-363zM385 -146v9q0 46 30 47h176h1q24 0 24 -53l-1 -198q-16 -40 -48 -40h-134q-37 0 -47 45z"/>
<glyph glyph-name="uni1EBA" horiz-adv-x="836" unicode="Ẻ" d="M374 743v-214q3 -78 34 -120t89 -51t273 -14q40 -8 40 -71v-205q0 -68 -75 -68q-325 0 -421.5 44.5t-169 138.5t-93.5 172.5t-23 133.5v749q2 55 23 133.5t93.5 171.5t169 137.5t421.5 44.5q75 0 75 -67v-205q0 -63 -40 -70q-215 -6 -273 -14.5t-89 -50t-34 -120.5v-109 h340h6q87 0 87 -53v-238q1 -55 -70 -55h-363zM461 1788q-48 0 -48 62v8q0 43 17.5 82.5t50.5 65.5q25 20 35.5 38.5t13.5 38.5q-8 1 -25.5 1h-45.5h-78q-41 9 -41 58v80q0 57 60 57h20q10 0 19.5 0.5t18.5 0.5q136 0 174 -19q47 -24 73 -66q11 -18 17 -43t6 -55v-15.5 t-1 -17.5q-5 -43 -24.5 -81t-52.5 -66q-18 -15 -28 -27.5t-10 -22.5q0 -2 2 -10q0 -69 -53 -69h-100z"/>
<glyph glyph-name="uni1EBB" horiz-adv-x="836" unicode="ẻ" d="M374 743v-214q3 -78 34 -120t89 -51t273 -14q40 -8 40 -71v-205q0 -68 -75 -68q-325 0 -421.5 44.5t-169 138.5t-93.5 172.5t-23 133.5v749q2 55 23 133.5t93.5 171.5t169 137.5t421.5 44.5q75 0 75 -67v-205q0 -63 -40 -70q-215 -6 -273 -14.5t-89 -50t-34 -120.5v-109 h340h6q87 0 87 -53v-238q1 -55 -70 -55h-363zM461 1788q-48 0 -48 62v8q0 43 17.5 82.5t50.5 65.5q25 20 35.5 38.5t13.5 38.5q-8 1 -25.5 1h-45.5h-78q-41 9 -41 58v80q0 57 60 57h20q10 0 19.5 0.5t18.5 0.5q136 0 174 -19q47 -24 73 -66q11 -18 17 -43t6 -55v-15.5 t-1 -17.5q-5 -43 -24.5 -81t-52.5 -66q-18 -15 -28 -27.5t-10 -22.5q0 -2 2 -10q0 -69 -53 -69h-100z"/>
<glyph glyph-name="uni1EBC" horiz-adv-x="836" unicode="Ẽ" d="M374 743v-214q3 -78 34 -120t89 -51t273 -14q40 -8 40 -71v-205q0 -68 -75 -68q-325 0 -421.5 44.5t-169 138.5t-93.5 172.5t-23 133.5v749q2 55 23 133.5t93.5 171.5t169 137.5t421.5 44.5q75 0 75 -67v-205q0 -63 -40 -70q-215 -6 -273 -14.5t-89 -50t-34 -120.5v-109 h340h6q87 0 87 -53v-238q1 -55 -70 -55h-363zM277 1800q-1 -1 -3 -2v-1h-1q-31 -23 -56 -2l-49 42q-17 12 -17 35q0 18 11 42l1 -2q46 71 92 119q59 60 122 60q61 0 134 -53q79 -56 111 -58q42 0 119 91l4 -4q28 20 53 3l52 -42q19 -12 19 -38q0 -18 -9 -41l-2 1 q-132 -168 -229 -168h-7q-6 -2 -14 -2q-40 0 -121 52q-72 55 -105 55t-106 -87h1z"/>
<glyph glyph-name="uni1EBD" horiz-adv-x="836" unicode="ẽ" d="M374 743v-214q3 -78 34 -120t89 -51t273 -14q40 -8 40 -71v-205q0 -68 -75 -68q-325 0 -421.5 44.5t-169 138.5t-93.5 172.5t-23 133.5v749q2 55 23 133.5t93.5 171.5t169 137.5t421.5 44.5q75 0 75 -67v-205q0 -63 -40 -70q-215 -6 -273 -14.5t-89 -50t-34 -120.5v-109 h340h6q87 0 87 -53v-238q1 -55 -70 -55h-363zM277 1800q-1 -1 -3 -2v-1h-1q-31 -23 -56 -2l-49 42q-17 12 -17 35q0 18 11 42l1 -2q46 71 92 119q59 60 122 60q61 0 134 -53q79 -56 111 -58q42 0 119 91l4 -4q28 20 53 3l52 -42q19 -12 19 -38q0 -18 -9 -41l-2 1 q-132 -168 -229 -168h-7q-6 -2 -14 -2q-40 0 -121 52q-72 55 -105 55t-106 -87h1z"/>
<glyph glyph-name="uni1EBE" horiz-adv-x="835" unicode="Ế" d="M374 743v-214q3 -78 34 -120t89 -51t273 -14q40 -8 40 -71v-205q0 -68 -75 -68q-325 0 -421.5 44.5t-169 138.5t-93.5 172.5t-23 133.5v749q2 55 23 133.5t93.5 171.5t169 137.5t421.5 44.5q75 0 75 -67v-205q0 -63 -40 -70q-215 -6 -273 -14.5t-89 -50t-34 -120.5v-109 h340h6q87 0 87 -53v-238q1 -55 -70 -55h-363zM809 1958q36 -39 36 -69q0 -14 -8 -26l-42 -72q-13 -26 -42 -26q-15 0 -33 7l-219 150l-219 -150q-18 -7 -33 -7q-28 0 -42 26l-42 72q-8 12 -8 26q0 30 36 69l257 213q30 13 51 10q21 3 51 -10l34 -28q5 -4 10 -7v-1z M1019 2464q35 23 58 23q21 0 34 -19l77 -126q8 -14 8 -26q0 -25 -32 -45l-335 -197q-18 -5 -33 -5q-33 0 -47 27l-45 71q-9 12 -9 26q0 30 40 68z"/>
<glyph glyph-name="uni1EBF" horiz-adv-x="835" unicode="ế" d="M374 743v-214q3 -78 34 -120t89 -51t273 -14q40 -8 40 -71v-205q0 -68 -75 -68q-325 0 -421.5 44.5t-169 138.5t-93.5 172.5t-23 133.5v749q2 55 23 133.5t93.5 171.5t169 137.5t421.5 44.5q75 0 75 -67v-205q0 -63 -40 -70q-215 -6 -273 -14.5t-89 -50t-34 -120.5v-109 h340h6q87 0 87 -53v-238q1 -55 -70 -55h-363zM809 1958q36 -39 36 -69q0 -14 -8 -26l-42 -72q-13 -26 -42 -26q-15 0 -33 7l-219 150l-219 -150q-18 -7 -33 -7q-28 0 -42 26l-42 72q-8 12 -8 26q0 30 36 69l257 213q30 13 51 10q21 3 51 -10l34 -28q5 -4 10 -7v-1z M1019 2464q35 23 58 23q21 0 34 -19l77 -126q8 -14 8 -26q0 -25 -32 -45l-335 -197q-18 -5 -33 -5q-33 0 -47 27l-45 71q-9 12 -9 26q0 30 40 68z"/>
<glyph glyph-name="uni1EC0" horiz-adv-x="835" unicode="Ề" d="M374 743v-214q3 -78 34 -120t89 -51t273 -14q40 -8 40 -71v-205q0 -68 -75 -68q-325 0 -421.5 44.5t-169 138.5t-93.5 172.5t-23 133.5v749q2 55 23 133.5t93.5 171.5t169 137.5t421.5 44.5q75 0 75 -67v-205q0 -63 -40 -70q-215 -6 -273 -14.5t-89 -50t-34 -120.5v-109 h340h6q87 0 87 -53v-238q1 -55 -70 -55h-363zM809 1958q36 -39 36 -69q0 -14 -8 -26l-42 -72q-13 -26 -42 -26q-15 0 -33 7l-219 150l-219 -150q-18 -7 -33 -7q-28 0 -42 26l-42 72q-8 12 -8 26q0 30 36 69l257 213q30 13 51 10q21 3 51 -10l34 -28q5 -4 10 -7v-1zM970 2259 q40 -38 40 -68q0 -14 -9 -26l-45 -71q-14 -27 -47 -27q-15 0 -33 5l-335 197q-32 20 -32 45q0 13 8 26l77 126q12 19 34 19q24 0 58 -23z"/>
<glyph glyph-name="uni1EC1" horiz-adv-x="835" unicode="ề" d="M374 743v-214q3 -78 34 -120t89 -51t273 -14q40 -8 40 -71v-205q0 -68 -75 -68q-325 0 -421.5 44.5t-169 138.5t-93.5 172.5t-23 133.5v749q2 55 23 133.5t93.5 171.5t169 137.5t421.5 44.5q75 0 75 -67v-205q0 -63 -40 -70q-215 -6 -273 -14.5t-89 -50t-34 -120.5v-109 h340h6q87 0 87 -53v-238q1 -55 -70 -55h-363zM809 1958q36 -39 36 -69q0 -14 -8 -26l-42 -72q-13 -26 -42 -26q-15 0 -33 7l-219 150l-219 -150q-18 -7 -33 -7q-28 0 -42 26l-42 72q-8 12 -8 26q0 30 36 69l257 213q30 13 51 10q21 3 51 -10l34 -28q5 -4 10 -7v-1zM970 2259 q40 -38 40 -68q0 -14 -9 -26l-45 -71q-14 -27 -47 -27q-15 0 -33 5l-335 197q-32 20 -32 45q0 13 8 26l77 126q12 19 34 19q24 0 58 -23z"/>
<glyph glyph-name="uni1EC2" horiz-adv-x="835" unicode="Ể" d="M374 743v-214q3 -78 34 -120t89 -51t273 -14q40 -8 40 -71v-205q0 -68 -75 -68q-325 0 -421.5 44.5t-169 138.5t-93.5 172.5t-23 133.5v749q2 55 23 133.5t93.5 171.5t169 137.5t421.5 44.5q75 0 75 -67v-205q0 -63 -40 -70q-215 -6 -273 -14.5t-89 -50t-34 -120.5v-109 h340h6q87 0 87 -53v-238q1 -55 -70 -55h-363zM809 1958q36 -39 36 -69q0 -14 -8 -26l-42 -72q-13 -26 -42 -26q-15 0 -33 7l-219 150l-219 -150q-18 -7 -33 -7q-28 0 -42 26l-42 72q-8 12 -8 26q0 30 36 69l257 213q30 13 51 10q21 3 51 -10l34 -28q5 -4 10 -7v-1zM785 2062 q-48 0 -48 62v8q0 43 17.5 82.5t50.5 65.5q25 20 35.5 38.5t13.5 38.5q-8 1 -25.5 1h-45.5h-78q-41 9 -41 58v80q0 57 60 57h20q10 0 19.5 0.5t18.5 0.5q136 0 174 -19q47 -24 73 -66q11 -18 17 -43t6 -55v-15.5t-1 -17.5q-5 -43 -24.5 -81t-52.5 -66q-18 -15 -28 -27.5 t-10 -22.5q0 -2 2 -10q0 -69 -53 -69h-100z"/>
<glyph glyph-name="uni1EC3" horiz-adv-x="835" unicode="ể" d="M374 743v-214q3 -78 34 -120t89 -51t273 -14q40 -8 40 -71v-205q0 -68 -75 -68q-325 0 -421.5 44.5t-169 138.5t-93.5 172.5t-23 133.5v749q2 55 23 133.5t93.5 171.5t169 137.5t421.5 44.5q75 0 75 -67v-205q0 -63 -40 -70q-215 -6 -273 -14.5t-89 -50t-34 -120.5v-109 h340h6q87 0 87 -53v-238q1 -55 -70 -55h-363zM809 1958q36 -39 36 -69q0 -14 -8 -26l-42 -72q-13 -26 -42 -26q-15 0 -33 7l-219 150l-219 -150q-18 -7 -33 -7q-28 0 -42 26l-42 72q-8 12 -8 26q0 30 36 69l257 213q30 13 51 10q21 3 51 -10l34 -28q5 -4 10 -7v-1zM785 2062 q-48 0 -48 62v8q0 43 17.5 82.5t50.5 65.5q25 20 35.5 38.5t13.5 38.5q-8 1 -25.5 1h-45.5h-78q-41 9 -41 58v80q0 57 60 57h20q10 0 19.5 0.5t18.5 0.5q136 0 174 -19q47 -24 73 -66q11 -18 17 -43t6 -55v-15.5t-1 -17.5q-5 -43 -24.5 -81t-52.5 -66q-18 -15 -28 -27.5 t-10 -22.5q0 -2 2 -10q0 -69 -53 -69h-100z"/>
<glyph glyph-name="uni1EC4" horiz-adv-x="835" unicode="Ễ" d="M374 743v-214q3 -78 34 -120t89 -51t273 -14q40 -8 40 -71v-205q0 -68 -75 -68q-325 0 -421.5 44.5t-169 138.5t-93.5 172.5t-23 133.5v749q2 55 23 133.5t93.5 171.5t169 137.5t421.5 44.5q75 0 75 -67v-205q0 -63 -40 -70q-215 -6 -273 -14.5t-89 -50t-34 -120.5v-109 h340h6q87 0 87 -53v-238q1 -55 -70 -55h-363zM809 1958q36 -39 36 -69q0 -14 -8 -26l-42 -72q-13 -26 -42 -26q-15 0 -33 7l-219 150l-219 -150q-18 -7 -33 -7q-28 0 -42 26l-42 72q-8 12 -8 26q0 30 36 69l257 213q30 13 51 10q21 3 51 -10l34 -28q5 -4 10 -7v-1zM274 2242 q-1 -1 -3 -2v-1h-1q-31 -23 -56 -2l-49 42q-17 12 -17 35q0 18 11 42l1 -2q46 71 92 119q59 60 122 60q61 0 134 -53q79 -56 111 -58q42 0 119 91l4 -4q28 20 53 3l52 -42q19 -12 19 -38q0 -18 -9 -41l-2 1q-132 -168 -229 -168h-7q-6 -2 -14 -2q-40 0 -121 52 q-72 55 -105 55t-106 -87h1z"/>
<glyph glyph-name="uni1EC5" horiz-adv-x="835" unicode="ễ" d="M374 743v-214q3 -78 34 -120t89 -51t273 -14q40 -8 40 -71v-205q0 -68 -75 -68q-325 0 -421.5 44.5t-169 138.5t-93.5 172.5t-23 133.5v749q2 55 23 133.5t93.5 171.5t169 137.5t421.5 44.5q75 0 75 -67v-205q0 -63 -40 -70q-215 -6 -273 -14.5t-89 -50t-34 -120.5v-109 h340h6q87 0 87 -53v-238q1 -55 -70 -55h-363zM809 1958q36 -39 36 -69q0 -14 -8 -26l-42 -72q-13 -26 -42 -26q-15 0 -33 7l-219 150l-219 -150q-18 -7 -33 -7q-28 0 -42 26l-42 72q-8 12 -8 26q0 30 36 69l257 213q30 13 51 10q21 3 51 -10l34 -28q5 -4 10 -7v-1zM274 2242 q-1 -1 -3 -2v-1h-1q-31 -23 -56 -2l-49 42q-17 12 -17 35q0 18 11 42l1 -2q46 71 92 119q59 60 122 60q61 0 134 -53q79 -56 111 -58q42 0 119 91l4 -4q28 20 53 3l52 -42q19 -12 19 -38q0 -18 -9 -41l-2 1q-132 -168 -229 -168h-7q-6 -2 -14 -2q-40 0 -121 52 q-72 55 -105 55t-106 -87h1z"/>
<glyph glyph-name="uni1EC6" horiz-adv-x="835" unicode="Ệ" d="M374 743v-214q3 -78 34 -120t89 -51t273 -14q40 -8 40 -71v-205q0 -68 -75 -68q-325 0 -421.5 44.5t-169 138.5t-93.5 172.5t-23 133.5v749q2 55 23 133.5t93.5 171.5t169 137.5t421.5 44.5q75 0 75 -67v-205q0 -63 -40 -70q-215 -6 -273 -14.5t-89 -50t-34 -120.5v-109 h340h6q87 0 87 -53v-238q1 -55 -70 -55h-363zM809 1958q36 -39 36 -69q0 -14 -8 -26l-42 -72q-13 -26 -42 -26q-15 0 -33 7l-219 150l-219 -150q-18 -7 -33 -7q-28 0 -42 26l-42 72q-8 12 -8 26q0 30 36 69l257 213q24 11 43 11q4 0 8 -1q4 1 8 1q18 0 43 -11l34 -28 q5 -4 10 -7v-1zM385 -146v9q0 46 30 47h176h1q24 0 24 -53l-1 -198q-16 -40 -48 -40h-134q-37 0 -47 45z"/>
<glyph glyph-name="uni1EC7" horiz-adv-x="835" unicode="ệ" d="M374 743v-214q3 -78 34 -120t89 -51t273 -14q40 -8 40 -71v-205q0 -68 -75 -68q-325 0 -421.5 44.5t-169 138.5t-93.5 172.5t-23 133.5v749q2 55 23 133.5t93.5 171.5t169 137.5t421.5 44.5q75 0 75 -67v-205q0 -63 -40 -70q-215 -6 -273 -14.5t-89 -50t-34 -120.5v-109 h340h6q87 0 87 -53v-238q1 -55 -70 -55h-363zM809 1958q36 -39 36 -69q0 -14 -8 -26l-42 -72q-13 -26 -42 -26q-15 0 -33 7l-219 150l-219 -150q-18 -7 -33 -7q-28 0 -42 26l-42 72q-8 12 -8 26q0 30 36 69l257 213q24 11 43 11q4 0 8 -1q4 1 8 1q18 0 43 -11l34 -28 q5 -4 10 -7v-1zM385 -146v9q0 46 30 47h176h1q24 0 24 -53l-1 -198q-16 -40 -48 -40h-134q-37 0 -47 45z"/>
<glyph glyph-name="uni1EC8" horiz-adv-x="432" unicode="Ỉ" d="M30 1622v6q0 87 52 87h1h238h2q53 0 53 -70v-1572q0 -70 -53 -70h-2h-238h-1q-52 0 -52 87v6v1526zM156 1788q-48 0 -48 62v8q0 43 17.5 82.5t50.5 65.5q25 20 35.5 38.5t13.5 38.5q-8 1 -25.5 1h-45.5h-78q-41 9 -41 58v80q0 57 60 57h20q10 0 19.5 0.5t18.5 0.5 q136 0 174 -19q47 -24 73 -66q11 -18 17 -43t6 -55v-15.5t-1 -17.5q-5 -43 -24.5 -81t-52.5 -66q-18 -15 -28 -27.5t-10 -22.5q0 -2 2 -10q0 -69 -53 -69h-100z"/>
<glyph glyph-name="uni1EC9" horiz-adv-x="432" unicode="ỉ" d="M30 1622v6q0 87 52 87h1h238h2q53 0 53 -70v-1572q0 -70 -53 -70h-2h-238h-1q-52 0 -52 87v6v1526zM156 1788q-48 0 -48 62v8q0 43 17.5 82.5t50.5 65.5q25 20 35.5 38.5t13.5 38.5q-8 1 -25.5 1h-45.5h-78q-41 9 -41 58v80q0 57 60 57h20q10 0 19.5 0.5t18.5 0.5 q136 0 174 -19q47 -24 73 -66q11 -18 17 -43t6 -55v-15.5t-1 -17.5q-5 -43 -24.5 -81t-52.5 -66q-18 -15 -28 -27.5t-10 -22.5q0 -2 2 -10q0 -69 -53 -69h-100z"/>
<glyph glyph-name="uni1ECA" horiz-adv-x="432" unicode="Ị" d="M30 1622v6q0 87 52 87h1h238h2q53 0 53 -70v-1572q0 -70 -53 -70h-2h-238h-1q-52 0 -52 87v6v1526zM91 -146v9q0 46 30 47h176h1q24 0 24 -53l-1 -198q-16 -40 -48 -40h-134q-37 0 -47 45z"/>
<glyph glyph-name="uni1ECB" horiz-adv-x="432" unicode="ị" d="M30 1622v6q0 87 52 87h1h238h2q53 0 53 -70v-1572q0 -70 -53 -70h-2h-238h-1q-52 0 -52 87v6v1526zM91 -146v9q0 46 30 47h176h1q24 0 24 -53l-1 -198q-16 -40 -48 -40h-134q-37 0 -47 45z"/>
<glyph glyph-name="uni1ECC" d="M882 1103q0 230 -189 276q-16 5 -60 5q-162 0 -226 -148q-10 -38 -18 -93v-568q8 -56 18 -93q64 -149 226 -149q44 0 60 5q189 47 189 277v488zM40 1128q0 295 239 477q161 108 334 108v-2q13 5 17 5q100 -5 171 -23q85 -22 164 -70q57 -31 145 -133q52 -74 78 -141 q43 -105 43 -274v-432q0 -169 -43 -275q-26 -66 -78 -140q-88 -103 -145 -134q-79 -48 -164 -70q-71 -18 -171 -23q-4 0 -17 5v-2q-173 0 -334 108q-239 182 -239 478v538zM521 -146v9q0 46 30 47h176h1q24 0 24 -53l-1 -198q-16 -40 -48 -40h-134q-37 0 -47 45z" unicode="Ọ"/>
<glyph glyph-name="uni1ECD" d="M882 1103q0 230 -189 276q-16 5 -60 5q-162 0 -226 -148q-10 -38 -18 -93v-568q8 -56 18 -93q64 -149 226 -149q44 0 60 5q189 47 189 277v488zM40 1128q0 295 239 477q161 108 334 108v-2q13 5 17 5q100 -5 171 -23q85 -22 164 -70q57 -31 145 -133q52 -74 78 -141 q43 -105 43 -274v-432q0 -169 -43 -275q-26 -66 -78 -140q-88 -103 -145 -134q-79 -48 -164 -70q-71 -18 -171 -23q-4 0 -17 5v-2q-173 0 -334 108q-239 182 -239 478v538zM521 -146v9q0 46 30 47h176h1q24 0 24 -53l-1 -198q-16 -40 -48 -40h-134q-37 0 -47 45z" unicode="ọ"/>
<glyph glyph-name="uni1ECE" d="M882 1103q0 230 -189 276q-16 5 -60 5q-162 0 -226 -148q-10 -38 -18 -93v-568q8 -56 18 -93q64 -149 226 -149q44 0 60 5q189 47 189 277v488zM40 1128q0 295 239 477q161 108 334 108v-2q13 5 17 5q100 -5 171 -23q85 -22 164 -70q57 -31 145 -133q52 -74 78 -141 q43 -105 43 -274v-432q0 -169 -43 -275q-26 -66 -78 -140q-88 -103 -145 -134q-79 -48 -164 -70q-71 -18 -171 -23q-4 0 -17 5v-2q-173 0 -334 108q-239 182 -239 478v538zM585 1788q-48 0 -48 62v8q0 43 17.5 82.5t50.5 65.5q25 20 35.5 38.5t13.5 38.5q-8 1 -25.5 1h-45.5 h-78q-41 9 -41 58v80q0 57 60 57h20q10 0 19.5 0.5t18.5 0.5q136 0 174 -19q47 -24 73 -66q11 -18 17 -43t6 -55v-15.5t-1 -17.5q-5 -43 -24.5 -81t-52.5 -66q-18 -15 -28 -27.5t-10 -22.5q0 -2 2 -10q0 -69 -53 -69h-100z" unicode="Ỏ"/>
<glyph glyph-name="uni1ECF" d="M882 1103q0 230 -189 276q-16 5 -60 5q-162 0 -226 -148q-10 -38 -18 -93v-568q8 -56 18 -93q64 -149 226 -149q44 0 60 5q189 47 189 277v488zM40 1128q0 295 239 477q161 108 334 108v-2q13 5 17 5q100 -5 171 -23q85 -22 164 -70q57 -31 145 -133q52 -74 78 -141 q43 -105 43 -274v-432q0 -169 -43 -275q-26 -66 -78 -140q-88 -103 -145 -134q-79 -48 -164 -70q-71 -18 -171 -23q-4 0 -17 5v-2q-173 0 -334 108q-239 182 -239 478v538zM585 1788q-48 0 -48 62v8q0 43 17.5 82.5t50.5 65.5q25 20 35.5 38.5t13.5 38.5q-8 1 -25.5 1h-45.5 h-78q-41 9 -41 58v80q0 57 60 57h20q10 0 19.5 0.5t18.5 0.5q136 0 174 -19q47 -24 73 -66q11 -18 17 -43t6 -55v-15.5t-1 -17.5q-5 -43 -24.5 -81t-52.5 -66q-18 -15 -28 -27.5t-10 -22.5q0 -2 2 -10q0 -69 -53 -69h-100z" unicode="ỏ"/>
<glyph glyph-name="uni1ED0" d="M944 1958q36 -39 36 -69q0 -14 -8 -26l-42 -72q-13 -26 -42 -26q-15 0 -33 7l-219 150l-219 -150q-18 -7 -33 -7q-28 0 -42 26l-42 72q-8 12 -8 26q0 30 36 69l257 213q30 13 51 10q21 3 51 -10l34 -28q5 -4 10 -7v-1zM882 1103q0 230 -189 276q-16 5 -60 5 q-162 0 -226 -148q-10 -38 -18 -93v-568q8 -56 18 -93q64 -149 226 -149q44 0 60 5q189 47 189 277v488zM40 1128q0 295 239 477q161 108 334 108v-2q13 5 17 5q100 -5 171 -23q85 -22 164 -70q57 -31 145 -133q52 -74 78 -141q43 -105 43 -274v-432q0 -169 -43 -275 q-26 -66 -78 -140q-88 -103 -145 -134q-79 -48 -164 -70q-71 -18 -171 -23q-4 0 -17 5v-2q-173 0 -334 108q-239 182 -239 478v538zM1152 2464q35 23 58 23q21 0 34 -19l77 -126q8 -14 8 -26q0 -25 -32 -45l-335 -197q-18 -5 -33 -5q-33 0 -47 27l-45 71q-9 12 -9 26 q0 30 40 68z" unicode="Ố"/>
<glyph glyph-name="uni1ED1" d="M944 1958q36 -39 36 -69q0 -14 -8 -26l-42 -72q-13 -26 -42 -26q-15 0 -33 7l-219 150l-219 -150q-18 -7 -33 -7q-28 0 -42 26l-42 72q-8 12 -8 26q0 30 36 69l257 213q30 13 51 10q21 3 51 -10l34 -28q5 -4 10 -7v-1zM882 1103q0 230 -189 276q-16 5 -60 5 q-162 0 -226 -148q-10 -38 -18 -93v-568q8 -56 18 -93q64 -149 226 -149q44 0 60 5q189 47 189 277v488zM40 1128q0 295 239 477q161 108 334 108v-2q13 5 17 5q100 -5 171 -23q85 -22 164 -70q57 -31 145 -133q52 -74 78 -141q43 -105 43 -274v-432q0 -169 -43 -275 q-26 -66 -78 -140q-88 -103 -145 -134q-79 -48 -164 -70q-71 -18 -171 -23q-4 0 -17 5v-2q-173 0 -334 108q-239 182 -239 478v538zM1152 2464q35 23 58 23q21 0 34 -19l77 -126q8 -14 8 -26q0 -25 -32 -45l-335 -197q-18 -5 -33 -5q-33 0 -47 27l-45 71q-9 12 -9 26 q0 30 40 68z" unicode="ố"/>
<glyph glyph-name="uni1ED2" d="M944 1958q36 -39 36 -69q0 -14 -8 -26l-42 -72q-13 -26 -42 -26q-15 0 -33 7l-219 150l-219 -150q-18 -7 -33 -7q-28 0 -42 26l-42 72q-8 12 -8 26q0 30 36 69l257 213q30 13 51 10q21 3 51 -10l34 -28q5 -4 10 -7v-1zM882 1103q0 230 -189 276q-16 5 -60 5 q-162 0 -226 -148q-10 -38 -18 -93v-568q8 -56 18 -93q64 -149 226 -149q44 0 60 5q189 47 189 277v488zM40 1128q0 295 239 477q161 108 334 108v-2q13 5 17 5q100 -5 171 -23q85 -22 164 -70q57 -31 145 -133q52 -74 78 -141q43 -105 43 -274v-432q0 -169 -43 -275 q-26 -66 -78 -140q-88 -103 -145 -134q-79 -48 -164 -70q-71 -18 -171 -23q-4 0 -17 5v-2q-173 0 -334 108q-239 182 -239 478v538zM1106 2259q40 -38 40 -68q0 -14 -9 -26l-45 -71q-14 -27 -47 -27q-15 0 -33 5l-335 197q-32 20 -32 45q0 13 8 26l77 126q12 19 34 19 q24 0 58 -23z" unicode="Ồ"/>
<glyph glyph-name="uni1ED3" d="M944 1958q36 -39 36 -69q0 -14 -8 -26l-42 -72q-13 -26 -42 -26q-15 0 -33 7l-219 150l-219 -150q-18 -7 -33 -7q-28 0 -42 26l-42 72q-8 12 -8 26q0 30 36 69l257 213q30 13 51 10q21 3 51 -10l34 -28q5 -4 10 -7v-1zM882 1103q0 230 -189 276q-16 5 -60 5 q-162 0 -226 -148q-10 -38 -18 -93v-568q8 -56 18 -93q64 -149 226 -149q44 0 60 5q189 47 189 277v488zM40 1128q0 295 239 477q161 108 334 108v-2q13 5 17 5q100 -5 171 -23q85 -22 164 -70q57 -31 145 -133q52 -74 78 -141q43 -105 43 -274v-432q0 -169 -43 -275 q-26 -66 -78 -140q-88 -103 -145 -134q-79 -48 -164 -70q-71 -18 -171 -23q-4 0 -17 5v-2q-173 0 -334 108q-239 182 -239 478v538zM1106 2259q40 -38 40 -68q0 -14 -9 -26l-45 -71q-14 -27 -47 -27q-15 0 -33 5l-335 197q-32 20 -32 45q0 13 8 26l77 126q12 19 34 19 q24 0 58 -23z" unicode="ồ"/>
<glyph glyph-name="uni1ED4" d="M944 1958q36 -39 36 -69q0 -14 -8 -26l-42 -72q-13 -26 -42 -26q-15 0 -33 7l-219 150l-219 -150q-18 -7 -33 -7q-28 0 -42 26l-42 72q-8 12 -8 26q0 30 36 69l257 213q30 13 51 10q21 3 51 -10l34 -28q5 -4 10 -7v-1zM882 1103q0 230 -189 276q-16 5 -60 5 q-162 0 -226 -148q-10 -38 -18 -93v-568q8 -56 18 -93q64 -149 226 -149q44 0 60 5q189 47 189 277v488zM40 1128q0 295 239 477q161 108 334 108v-2q13 5 17 5q100 -5 171 -23q85 -22 164 -70q57 -31 145 -133q52 -74 78 -141q43 -105 43 -274v-432q0 -169 -43 -275 q-26 -66 -78 -140q-88 -103 -145 -134q-79 -48 -164 -70q-71 -18 -171 -23q-4 0 -17 5v-2q-173 0 -334 108q-239 182 -239 478v538zM920 2062q-48 0 -48 62v8q0 43 17.5 82.5t50.5 65.5q25 20 35.5 38.5t13.5 38.5q-8 1 -25.5 1h-45.5h-78q-41 9 -41 58v80q0 57 60 57h20 q10 0 19.5 0.5t18.5 0.5q136 0 174 -19q47 -24 73 -66q11 -18 17 -43t6 -55v-15.5t-1 -17.5q-5 -43 -24.5 -81t-52.5 -66q-18 -15 -28 -27.5t-10 -22.5q0 -2 2 -10q0 -69 -53 -69h-100z" unicode="Ổ"/>
<glyph glyph-name="uni1ED5" d="M944 1958q36 -39 36 -69q0 -14 -8 -26l-42 -72q-13 -26 -42 -26q-15 0 -33 7l-219 150l-219 -150q-18 -7 -33 -7q-28 0 -42 26l-42 72q-8 12 -8 26q0 30 36 69l257 213q30 13 51 10q21 3 51 -10l34 -28q5 -4 10 -7v-1zM882 1103q0 230 -189 276q-16 5 -60 5 q-162 0 -226 -148q-10 -38 -18 -93v-568q8 -56 18 -93q64 -149 226 -149q44 0 60 5q189 47 189 277v488zM40 1128q0 295 239 477q161 108 334 108v-2q13 5 17 5q100 -5 171 -23q85 -22 164 -70q57 -31 145 -133q52 -74 78 -141q43 -105 43 -274v-432q0 -169 -43 -275 q-26 -66 -78 -140q-88 -103 -145 -134q-79 -48 -164 -70q-71 -18 -171 -23q-4 0 -17 5v-2q-173 0 -334 108q-239 182 -239 478v538zM920 2062q-48 0 -48 62v8q0 43 17.5 82.5t50.5 65.5q25 20 35.5 38.5t13.5 38.5q-8 1 -25.5 1h-45.5h-78q-41 9 -41 58v80q0 57 60 57h20 q10 0 19.5 0.5t18.5 0.5q136 0 174 -19q47 -24 73 -66q11 -18 17 -43t6 -55v-15.5t-1 -17.5q-5 -43 -24.5 -81t-52.5 -66q-18 -15 -28 -27.5t-10 -22.5q0 -2 2 -10q0 -69 -53 -69h-100z" unicode="ổ"/>
<glyph glyph-name="uni1ED6" d="M944 1958q36 -39 36 -69q0 -14 -8 -26l-42 -72q-13 -26 -42 -26q-15 0 -33 7l-219 150l-219 -150q-18 -7 -33 -7q-28 0 -42 26l-42 72q-8 12 -8 26q0 30 36 69l257 213q30 13 51 10q21 3 51 -10l34 -28q5 -4 10 -7v-1zM882 1103q0 230 -189 276q-16 5 -60 5 q-162 0 -226 -148q-10 -38 -18 -93v-568q8 -56 18 -93q64 -149 226 -149q44 0 60 5q189 47 189 277v488zM40 1128q0 295 239 477q161 108 334 108v-2q13 5 17 5q100 -5 171 -23q85 -22 164 -70q57 -31 145 -133q52 -74 78 -141q43 -105 43 -274v-432q0 -169 -43 -275 q-26 -66 -78 -140q-88 -103 -145 -134q-79 -48 -164 -70q-71 -18 -171 -23q-4 0 -17 5v-2q-173 0 -334 108q-239 182 -239 478v538zM409 2242q-1 -1 -3 -2v-1h-1q-31 -23 -56 -2l-49 42q-17 12 -17 35q0 18 11 42l1 -2q46 71 92 119q59 60 122 60q61 0 134 -53 q79 -56 111 -58q42 0 119 91l4 -4q28 20 53 3l52 -42q19 -12 19 -38q0 -18 -9 -41l-2 1q-132 -168 -229 -168h-7q-6 -2 -14 -2q-40 0 -121 52q-72 55 -105 55t-106 -87h1z" unicode="Ỗ"/>
<glyph glyph-name="uni1ED7" d="M944 1958q36 -39 36 -69q0 -14 -8 -26l-42 -72q-13 -26 -42 -26q-15 0 -33 7l-219 150l-219 -150q-18 -7 -33 -7q-28 0 -42 26l-42 72q-8 12 -8 26q0 30 36 69l257 213q30 13 51 10q21 3 51 -10l34 -28q5 -4 10 -7v-1zM882 1103q0 230 -189 276q-16 5 -60 5 q-162 0 -226 -148q-10 -38 -18 -93v-568q8 -56 18 -93q64 -149 226 -149q44 0 60 5q189 47 189 277v488zM40 1128q0 295 239 477q161 108 334 108v-2q13 5 17 5q100 -5 171 -23q85 -22 164 -70q57 -31 145 -133q52 -74 78 -141q43 -105 43 -274v-432q0 -169 -43 -275 q-26 -66 -78 -140q-88 -103 -145 -134q-79 -48 -164 -70q-71 -18 -171 -23q-4 0 -17 5v-2q-173 0 -334 108q-239 182 -239 478v538zM409 2242q-1 -1 -3 -2v-1h-1q-31 -23 -56 -2l-49 42q-17 12 -17 35q0 18 11 42l1 -2q46 71 92 119q59 60 122 60q61 0 134 -53 q79 -56 111 -58q42 0 119 91l4 -4q28 20 53 3l52 -42q19 -12 19 -38q0 -18 -9 -41l-2 1q-132 -168 -229 -168h-7q-6 -2 -14 -2q-40 0 -121 52q-72 55 -105 55t-106 -87h1z" unicode="ỗ"/>
<glyph glyph-name="uni1ED8" d="M944 1958q36 -39 36 -69q0 -14 -8 -26l-42 -72q-13 -26 -42 -26q-15 0 -33 7l-219 150l-219 -150q-18 -7 -33 -7q-28 0 -42 26l-42 72q-8 12 -8 26q0 30 36 69l257 213q24 11 43 11q4 0 8 -1q4 1 8 1q18 0 43 -11l34 -28q5 -4 10 -7v-1zM882 1103q0 230 -189 276 q-16 5 -60 5q-162 0 -226 -148q-10 -38 -18 -93v-568q8 -56 18 -93q64 -149 226 -149q44 0 60 5q189 47 189 277v488zM40 1128q0 295 239 477q161 108 334 108v-2q13 5 17 5q100 -5 171 -23q85 -22 164 -70q57 -31 145 -133q52 -74 78 -141q43 -105 43 -274v-432 q0 -169 -43 -275q-26 -66 -78 -140q-88 -103 -145 -134q-79 -48 -164 -70q-71 -18 -171 -23q-4 0 -17 5v-2q-173 0 -334 108q-239 182 -239 478v538zM521 -146v9q0 46 30 47h176h1q24 0 24 -53l-1 -198q-16 -40 -48 -40h-134q-37 0 -47 45z" unicode="Ộ"/>
<glyph glyph-name="uni1ED9" d="M944 1958q36 -39 36 -69q0 -14 -8 -26l-42 -72q-13 -26 -42 -26q-15 0 -33 7l-219 150l-219 -150q-18 -7 -33 -7q-28 0 -42 26l-42 72q-8 12 -8 26q0 30 36 69l257 213q24 11 43 11q4 0 8 -1q4 1 8 1q18 0 43 -11l34 -28q5 -4 10 -7v-1zM882 1103q0 230 -189 276 q-16 5 -60 5q-162 0 -226 -148q-10 -38 -18 -93v-568q8 -56 18 -93q64 -149 226 -149q44 0 60 5q189 47 189 277v488zM40 1128q0 295 239 477q161 108 334 108v-2q13 5 17 5q100 -5 171 -23q85 -22 164 -70q57 -31 145 -133q52 -74 78 -141q43 -105 43 -274v-432 q0 -169 -43 -275q-26 -66 -78 -140q-88 -103 -145 -134q-79 -48 -164 -70q-71 -18 -171 -23q-4 0 -17 5v-2q-173 0 -334 108q-239 182 -239 478v538zM521 -146v9q0 46 30 47h176h1q24 0 24 -53l-1 -198q-16 -40 -48 -40h-134q-37 0 -47 45z" unicode="ộ"/>
<glyph glyph-name="uni1EDA" horiz-adv-x="1320" unicode="Ớ" d="M882 1103q0 230 -189 276q-16 5 -60 5q-162 0 -226 -148q-10 -38 -18 -93v-568q8 -56 18 -93q64 -149 226 -149q44 0 60 5q189 47 189 277v488zM40 1128q0 295 239 477q161 108 334 108v-2q13 5 17 5q100 -5 171 -23q85 -22 164 -70q17 -10 37 -26v183v11q0 60 40 62h232 h1q35 0 35 -70l-1 -282q-20 -51 -61 -51h-2h-110q33 -53 52 -101q43 -105 43 -274v-432q0 -169 -43 -275q-26 -66 -78 -140q-88 -103 -145 -134q-79 -48 -164 -70q-71 -18 -171 -23q-4 0 -17 5v-2q-173 0 -334 108q-239 182 -239 478v538zM735 2158q35 23 58 23q21 0 34 -19 l77 -126q8 -14 8 -26q0 -25 -32 -45l-335 -197q-18 -5 -33 -5q-33 0 -47 27l-45 71q-9 12 -9 26q0 30 40 68z"/>
<glyph glyph-name="uni1EDB" horiz-adv-x="1320" unicode="ớ" d="M882 1103q0 230 -189 276q-16 5 -60 5q-162 0 -226 -148q-10 -38 -18 -93v-568q8 -56 18 -93q64 -149 226 -149q44 0 60 5q189 47 189 277v488zM40 1128q0 295 239 477q161 108 334 108v-2q13 5 17 5q100 -5 171 -23q85 -22 164 -70q17 -10 37 -26v183v11q0 60 40 62h232 h1q35 0 35 -70l-1 -282q-20 -51 -61 -51h-2h-110q33 -53 52 -101q43 -105 43 -274v-432q0 -169 -43 -275q-26 -66 -78 -140q-88 -103 -145 -134q-79 -48 -164 -70q-71 -18 -171 -23q-4 0 -17 5v-2q-173 0 -334 108q-239 182 -239 478v538zM735 2158q35 23 58 23q21 0 34 -19 l77 -126q8 -14 8 -26q0 -25 -32 -45l-335 -197q-18 -5 -33 -5q-33 0 -47 27l-45 71q-9 12 -9 26q0 30 40 68z"/>
<glyph glyph-name="uni1EDC" horiz-adv-x="1320" unicode="Ờ" d="M882 1103q0 230 -189 276q-16 5 -60 5q-162 0 -226 -148q-10 -38 -18 -93v-568q8 -56 18 -93q64 -149 226 -149q44 0 60 5q189 47 189 277v488zM40 1128q0 295 239 477q161 108 334 108v-2q13 5 17 5q100 -5 171 -23q85 -22 164 -70q17 -10 37 -26v183v11q0 60 40 62h232 h1q35 0 35 -70l-1 -282q-20 -51 -61 -51h-2h-110q33 -53 52 -101q43 -105 43 -274v-432q0 -169 -43 -275q-26 -66 -78 -140q-88 -103 -145 -134q-79 -48 -164 -70q-71 -18 -171 -23q-4 0 -17 5v-2q-173 0 -334 108q-239 182 -239 478v538zM838 1962q40 -38 40 -68 q0 -14 -9 -26l-45 -71q-14 -27 -47 -27q-15 0 -33 5l-335 197q-32 20 -32 45q0 13 8 26l77 126q12 19 34 19q24 0 58 -23z"/>
<glyph glyph-name="uni1EDD" horiz-adv-x="1320" unicode="ờ" d="M882 1103q0 230 -189 276q-16 5 -60 5q-162 0 -226 -148q-10 -38 -18 -93v-568q8 -56 18 -93q64 -149 226 -149q44 0 60 5q189 47 189 277v488zM40 1128q0 295 239 477q161 108 334 108v-2q13 5 17 5q100 -5 171 -23q85 -22 164 -70q17 -10 37 -26v183v11q0 60 40 62h232 h1q35 0 35 -70l-1 -282q-20 -51 -61 -51h-2h-110q33 -53 52 -101q43 -105 43 -274v-432q0 -169 -43 -275q-26 -66 -78 -140q-88 -103 -145 -134q-79 -48 -164 -70q-71 -18 -171 -23q-4 0 -17 5v-2q-173 0 -334 108q-239 182 -239 478v538zM838 1962q40 -38 40 -68 q0 -14 -9 -26l-45 -71q-14 -27 -47 -27q-15 0 -33 5l-335 197q-32 20 -32 45q0 13 8 26l77 126q12 19 34 19q24 0 58 -23z"/>
<glyph glyph-name="uni1EDE" horiz-adv-x="1320" unicode="Ở" d="M882 1103q0 230 -189 276q-16 5 -60 5q-162 0 -226 -148q-10 -38 -18 -93v-568q8 -56 18 -93q64 -149 226 -149q44 0 60 5q189 47 189 277v488zM40 1128q0 295 239 477q161 108 334 108v-2q13 5 17 5q100 -5 171 -23q85 -22 164 -70q17 -10 37 -26v183v11q0 60 40 62h232 h1q35 0 35 -70l-1 -282q-20 -51 -61 -51h-2h-110q33 -53 52 -101q43 -105 43 -274v-432q0 -169 -43 -275q-26 -66 -78 -140q-88 -103 -145 -134q-79 -48 -164 -70q-71 -18 -171 -23q-4 0 -17 5v-2q-173 0 -334 108q-239 182 -239 478v538zM585 1788q-48 0 -48 62v8 q0 43 17.5 82.5t50.5 65.5q25 20 35.5 38.5t13.5 38.5q-8 1 -25.5 1h-45.5h-78q-41 9 -41 58v80q0 57 60 57h20q10 0 19.5 0.5t18.5 0.5q136 0 174 -19q47 -24 73 -66q11 -18 17 -43t6 -55v-15.5t-1 -17.5q-5 -43 -24.5 -81t-52.5 -66q-18 -15 -28 -27.5t-10 -22.5 q0 -2 2 -10q0 -69 -53 -69h-100z"/>
<glyph glyph-name="uni1EDF" horiz-adv-x="1320" unicode="ở" d="M882 1103q0 230 -189 276q-16 5 -60 5q-162 0 -226 -148q-10 -38 -18 -93v-568q8 -56 18 -93q64 -149 226 -149q44 0 60 5q189 47 189 277v488zM40 1128q0 295 239 477q161 108 334 108v-2q13 5 17 5q100 -5 171 -23q85 -22 164 -70q17 -10 37 -26v183v11q0 60 40 62h232 h1q35 0 35 -70l-1 -282q-20 -51 -61 -51h-2h-110q33 -53 52 -101q43 -105 43 -274v-432q0 -169 -43 -275q-26 -66 -78 -140q-88 -103 -145 -134q-79 -48 -164 -70q-71 -18 -171 -23q-4 0 -17 5v-2q-173 0 -334 108q-239 182 -239 478v538zM585 1788q-48 0 -48 62v8 q0 43 17.5 82.5t50.5 65.5q25 20 35.5 38.5t13.5 38.5q-8 1 -25.5 1h-45.5h-78q-41 9 -41 58v80q0 57 60 57h20q10 0 19.5 0.5t18.5 0.5q136 0 174 -19q47 -24 73 -66q11 -18 17 -43t6 -55v-15.5t-1 -17.5q-5 -43 -24.5 -81t-52.5 -66q-18 -15 -28 -27.5t-10 -22.5 q0 -2 2 -10q0 -69 -53 -69h-100z"/>
<glyph glyph-name="uni1EE0" horiz-adv-x="1320" unicode="Ỡ" d="M882 1103q0 230 -189 276q-16 5 -60 5q-162 0 -226 -148q-10 -38 -18 -93v-568q8 -56 18 -93q64 -149 226 -149q44 0 60 5q189 47 189 277v488zM40 1128q0 295 239 477q161 108 334 108v-2q13 5 17 5q100 -5 171 -23q85 -22 164 -70q17 -10 37 -26v183v11q0 60 40 62h232 h1q35 0 35 -70l-1 -282q-20 -51 -61 -51h-2h-110q33 -53 52 -101q43 -105 43 -274v-432q0 -169 -43 -275q-26 -66 -78 -140q-88 -103 -145 -134q-79 -48 -164 -70q-71 -18 -171 -23q-4 0 -17 5v-2q-173 0 -334 108q-239 182 -239 478v538zM419 1800q-1 -1 -3 -2v-1h-1 q-31 -23 -56 -2l-49 42q-17 12 -17 35q0 18 11 42l1 -2q46 71 92 119q59 60 122 60q61 0 134 -53q79 -56 111 -58q42 0 119 91l4 -4q28 20 53 3l52 -42q19 -12 19 -38q0 -18 -9 -41l-2 1q-132 -168 -229 -168h-7q-6 -2 -14 -2q-40 0 -121 52q-72 55 -105 55t-106 -87h1z"/>
<glyph glyph-name="uni1EE1" horiz-adv-x="1320" unicode="ỡ" d="M882 1103q0 230 -189 276q-16 5 -60 5q-162 0 -226 -148q-10 -38 -18 -93v-568q8 -56 18 -93q64 -149 226 -149q44 0 60 5q189 47 189 277v488zM40 1128q0 295 239 477q161 108 334 108v-2q13 5 17 5q100 -5 171 -23q85 -22 164 -70q17 -10 37 -26v183v11q0 60 40 62h232 h1q35 0 35 -70l-1 -282q-20 -51 -61 -51h-2h-110q33 -53 52 -101q43 -105 43 -274v-432q0 -169 -43 -275q-26 -66 -78 -140q-88 -103 -145 -134q-79 -48 -164 -70q-71 -18 -171 -23q-4 0 -17 5v-2q-173 0 -334 108q-239 182 -239 478v538zM419 1800q-1 -1 -3 -2v-1h-1 q-31 -23 -56 -2l-49 42q-17 12 -17 35q0 18 11 42l1 -2q46 71 92 119q59 60 122 60q61 0 134 -53q79 -56 111 -58q42 0 119 91l4 -4q28 20 53 3l52 -42q19 -12 19 -38q0 -18 -9 -41l-2 1q-132 -168 -229 -168h-7q-6 -2 -14 -2q-40 0 -121 52q-72 55 -105 55t-106 -87h1z"/>
<glyph glyph-name="uni1EE2" horiz-adv-x="1320" unicode="Ợ" d="M882 1103q0 230 -189 276q-16 5 -60 5q-162 0 -226 -148q-10 -38 -18 -93v-568q8 -56 18 -93q64 -149 226 -149q44 0 60 5q189 47 189 277v488zM40 1128q0 295 239 477q161 108 334 108v-2q13 5 17 5q100 -5 171 -23q85 -22 164 -70q17 -10 37 -26v183v11q0 60 40 62h232 h1q35 0 35 -70l-1 -282q-20 -51 -61 -51h-2h-110q33 -53 52 -101q43 -105 43 -274v-432q0 -169 -43 -275q-26 -66 -78 -140q-88 -103 -145 -134q-79 -48 -164 -70q-71 -18 -171 -23q-4 0 -17 5v-2q-173 0 -334 108q-239 182 -239 478v538zM521 -146v9q0 46 30 47h176h1 q24 0 24 -53l-1 -198q-16 -40 -48 -40h-134q-37 0 -47 45z"/>
<glyph glyph-name="uni1EE3" horiz-adv-x="1320" unicode="ợ" d="M882 1103q0 230 -189 276q-16 5 -60 5q-162 0 -226 -148q-10 -38 -18 -93v-568q8 -56 18 -93q64 -149 226 -149q44 0 60 5q189 47 189 277v488zM40 1128q0 295 239 477q161 108 334 108v-2q13 5 17 5q100 -5 171 -23q85 -22 164 -70q17 -10 37 -26v183v11q0 60 40 62h232 h1q35 0 35 -70l-1 -282q-20 -51 -61 -51h-2h-110q33 -53 52 -101q43 -105 43 -274v-432q0 -169 -43 -275q-26 -66 -78 -140q-88 -103 -145 -134q-79 -48 -164 -70q-71 -18 -171 -23q-4 0 -17 5v-2q-173 0 -334 108q-239 182 -239 478v538zM521 -146v9q0 46 30 47h176h1 q24 0 24 -53l-1 -198q-16 -40 -48 -40h-134q-37 0 -47 45z"/>
<glyph glyph-name="uni1EE4" horiz-adv-x="1290" unicode="Ụ" d="M645 3q-99 5 -170 23q-85 22 -164 70q-57 31 -145 133q-53 74 -78 141q-43 105 -43 274v1015q0 43 50 60h241q51 0 58 -63v-1040q0 -230 189 -276q16 -5 60 -5q162 0 226 148q10 38 18 93v1058q0 85 60 85h236q30 0 50 -38q3 -9 3 -20v-1070q0 -295 -239 -478 q-161 -108 -334 -108v3q-13 -5 -18 -5zM526 -146v9q0 46 30 47h176h1q24 0 24 -53l-1 -198q-16 -40 -48 -40h-134q-37 0 -47 45z"/>
<glyph glyph-name="uni1EE5" horiz-adv-x="1290" unicode="ụ" d="M645 3q-99 5 -170 23q-85 22 -164 70q-57 31 -145 133q-53 74 -78 141q-43 105 -43 274v1015q0 43 50 60h241q51 0 58 -63v-1040q0 -230 189 -276q16 -5 60 -5q162 0 226 148q10 38 18 93v1058q0 85 60 85h236q30 0 50 -38q3 -9 3 -20v-1070q0 -295 -239 -478 q-161 -108 -334 -108v3q-13 -5 -18 -5zM526 -146v9q0 46 30 47h176h1q24 0 24 -53l-1 -198q-16 -40 -48 -40h-134q-37 0 -47 45z"/>
<glyph glyph-name="uni1EE6" horiz-adv-x="1290" unicode="Ủ" d="M645 3q-99 5 -170 23q-85 22 -164 70q-57 31 -145 133q-53 74 -78 141q-43 105 -43 274v1015q0 43 50 60h241q51 0 58 -63v-1040q0 -230 189 -276q16 -5 60 -5q162 0 226 148q10 38 18 93v1058q0 85 60 85h236q30 0 50 -38q3 -9 3 -20v-1070q0 -295 -239 -478 q-161 -108 -334 -108v3q-13 -5 -18 -5zM584 1788q-48 0 -48 62v8q0 43 17.5 82.5t50.5 65.5q25 20 35.5 38.5t13.5 38.5q-8 1 -25.5 1h-45.5h-78q-41 9 -41 58v80q0 57 60 57h20q10 0 19.5 0.5t18.5 0.5q136 0 174 -19q47 -24 73 -66q11 -18 17 -43t6 -55v-15.5t-1 -17.5 q-5 -43 -24.5 -81t-52.5 -66q-18 -15 -28 -27.5t-10 -22.5q0 -2 2 -10q0 -69 -53 -69h-100z"/>
<glyph glyph-name="uni1EE7" horiz-adv-x="1290" unicode="ủ" d="M645 3q-99 5 -170 23q-85 22 -164 70q-57 31 -145 133q-53 74 -78 141q-43 105 -43 274v1015q0 43 50 60h241q51 0 58 -63v-1040q0 -230 189 -276q16 -5 60 -5q162 0 226 148q10 38 18 93v1058q0 85 60 85h236q30 0 50 -38q3 -9 3 -20v-1070q0 -295 -239 -478 q-161 -108 -334 -108v3q-13 -5 -18 -5zM584 1788q-48 0 -48 62v8q0 43 17.5 82.5t50.5 65.5q25 20 35.5 38.5t13.5 38.5q-8 1 -25.5 1h-45.5h-78q-41 9 -41 58v80q0 57 60 57h20q10 0 19.5 0.5t18.5 0.5q136 0 174 -19q47 -24 73 -66q11 -18 17 -43t6 -55v-15.5t-1 -17.5 q-5 -43 -24.5 -81t-52.5 -66q-18 -15 -28 -27.5t-10 -22.5q0 -2 2 -10q0 -69 -53 -69h-100z"/>
<glyph glyph-name="uni1EE8" horiz-adv-x="1485" unicode="Ứ" d="M645 3q-99 5 -170 23q-85 22 -164 70q-57 31 -145 133q-53 74 -78 141q-43 105 -43 274v1015q0 43 50 60h241q51 0 58 -63v-1040q0 -230 189 -276q16 -5 60 -5q162 0 226 148q10 38 18 93v1058q0 85 60 85h214v61v11q0 60 40 62h232h1q35 0 35 -70l-1 -282 q-20 -51 -61 -51h-2h-169v-859q0 -295 -239 -478q-161 -108 -334 -108v3q-13 -5 -18 -5zM767 2158q35 23 58 23q21 0 34 -19l77 -126q8 -14 8 -26q0 -25 -32 -45l-335 -197q-18 -5 -33 -5q-33 0 -47 27l-45 71q-9 12 -9 26q0 30 40 68z"/>
<glyph glyph-name="uni1EE9" horiz-adv-x="1485" unicode="ứ" d="M645 3q-99 5 -170 23q-85 22 -164 70q-57 31 -145 133q-53 74 -78 141q-43 105 -43 274v1015q0 43 50 60h241q51 0 58 -63v-1040q0 -230 189 -276q16 -5 60 -5q162 0 226 148q10 38 18 93v1058q0 85 60 85h214v61v11q0 60 40 62h232h1q35 0 35 -70l-1 -282 q-20 -51 -61 -51h-2h-169v-859q0 -295 -239 -478q-161 -108 -334 -108v3q-13 -5 -18 -5zM767 2158q35 23 58 23q21 0 34 -19l77 -126q8 -14 8 -26q0 -25 -32 -45l-335 -197q-18 -5 -33 -5q-33 0 -47 27l-45 71q-9 12 -9 26q0 30 40 68z"/>
<glyph glyph-name="uni1EEA" horiz-adv-x="1485" unicode="Ừ" d="M645 3q-99 5 -170 23q-85 22 -164 70q-57 31 -145 133q-53 74 -78 141q-43 105 -43 274v1015q0 43 50 60h241q51 0 58 -63v-1040q0 -230 189 -276q16 -5 60 -5q162 0 226 148q10 38 18 93v1058q0 85 60 85h214v61v11q0 60 40 62h232h1q35 0 35 -70l-1 -282 q-20 -51 -61 -51h-2h-169v-859q0 -295 -239 -478q-161 -108 -334 -108v3q-13 -5 -18 -5zM807 1962q40 -38 40 -68q0 -14 -9 -26l-45 -71q-14 -27 -47 -27q-15 0 -33 5l-335 197q-32 20 -32 45q0 13 8 26l77 126q12 19 34 19q24 0 58 -23z"/>
<glyph glyph-name="uni1EEB" horiz-adv-x="1485" unicode="ừ" d="M645 3q-99 5 -170 23q-85 22 -164 70q-57 31 -145 133q-53 74 -78 141q-43 105 -43 274v1015q0 43 50 60h241q51 0 58 -63v-1040q0 -230 189 -276q16 -5 60 -5q162 0 226 148q10 38 18 93v1058q0 85 60 85h214v61v11q0 60 40 62h232h1q35 0 35 -70l-1 -282 q-20 -51 -61 -51h-2h-169v-859q0 -295 -239 -478q-161 -108 -334 -108v3q-13 -5 -18 -5zM807 1962q40 -38 40 -68q0 -14 -9 -26l-45 -71q-14 -27 -47 -27q-15 0 -33 5l-335 197q-32 20 -32 45q0 13 8 26l77 126q12 19 34 19q24 0 58 -23z"/>
<glyph glyph-name="uni1EEC" horiz-adv-x="1485" unicode="Ử" d="M645 3q-99 5 -170 23q-85 22 -164 70q-57 31 -145 133q-53 74 -78 141q-43 105 -43 274v1015q0 43 50 60h241q51 0 58 -63v-1040q0 -230 189 -276q16 -5 60 -5q162 0 226 148q10 38 18 93v1058q0 85 60 85h214v61v11q0 60 40 62h232h1q35 0 35 -70l-1 -282 q-20 -51 -61 -51h-2h-169v-859q0 -295 -239 -478q-161 -108 -334 -108v3q-13 -5 -18 -5zM584 1788q-48 0 -48 62v8q0 43 17.5 82.5t50.5 65.5q25 20 35.5 38.5t13.5 38.5q-8 1 -25.5 1h-45.5h-78q-41 9 -41 58v80q0 57 60 57h20q10 0 19.5 0.5t18.5 0.5q136 0 174 -19 q47 -24 73 -66q11 -18 17 -43t6 -55v-15.5t-1 -17.5q-5 -43 -24.5 -81t-52.5 -66q-18 -15 -28 -27.5t-10 -22.5q0 -2 2 -10q0 -69 -53 -69h-100z"/>
<glyph glyph-name="uni1EED" horiz-adv-x="1485" unicode="ử" d="M645 3q-99 5 -170 23q-85 22 -164 70q-57 31 -145 133q-53 74 -78 141q-43 105 -43 274v1015q0 43 50 60h241q51 0 58 -63v-1040q0 -230 189 -276q16 -5 60 -5q162 0 226 148q10 38 18 93v1058q0 85 60 85h214v61v11q0 60 40 62h232h1q35 0 35 -70l-1 -282 q-20 -51 -61 -51h-2h-169v-859q0 -295 -239 -478q-161 -108 -334 -108v3q-13 -5 -18 -5zM584 1788q-48 0 -48 62v8q0 43 17.5 82.5t50.5 65.5q25 20 35.5 38.5t13.5 38.5q-8 1 -25.5 1h-45.5h-78q-41 9 -41 58v80q0 57 60 57h20q10 0 19.5 0.5t18.5 0.5q136 0 174 -19 q47 -24 73 -66q11 -18 17 -43t6 -55v-15.5t-1 -17.5q-5 -43 -24.5 -81t-52.5 -66q-18 -15 -28 -27.5t-10 -22.5q0 -2 2 -10q0 -69 -53 -69h-100z"/>
<glyph glyph-name="uni1EEE" horiz-adv-x="1485" unicode="Ữ" d="M645 3q-99 5 -170 23q-85 22 -164 70q-57 31 -145 133q-53 74 -78 141q-43 105 -43 274v1015q0 43 50 60h241q51 0 58 -63v-1040q0 -230 189 -276q16 -5 60 -5q162 0 226 148q10 38 18 93v1058q0 85 60 85h214v61v11q0 60 40 62h232h1q35 0 35 -70l-1 -282 q-20 -51 -61 -51h-2h-169v-859q0 -295 -239 -478q-161 -108 -334 -108v3q-13 -5 -18 -5zM432 1800q-1 -1 -3 -2v-1h-1q-31 -23 -56 -2l-49 42q-17 12 -17 35q0 18 11 42l1 -2q46 71 92 119q59 60 122 60q61 0 134 -53q79 -56 111 -58q42 0 119 91l4 -4q28 20 53 3l52 -42 q19 -12 19 -38q0 -18 -9 -41l-2 1q-132 -168 -229 -168h-7q-6 -2 -14 -2q-40 0 -121 52q-72 55 -105 55t-106 -87h1z"/>
<glyph glyph-name="uni1EEF" horiz-adv-x="1485" unicode="ữ" d="M645 3q-99 5 -170 23q-85 22 -164 70q-57 31 -145 133q-53 74 -78 141q-43 105 -43 274v1015q0 43 50 60h241q51 0 58 -63v-1040q0 -230 189 -276q16 -5 60 -5q162 0 226 148q10 38 18 93v1058q0 85 60 85h214v61v11q0 60 40 62h232h1q35 0 35 -70l-1 -282 q-20 -51 -61 -51h-2h-169v-859q0 -295 -239 -478q-161 -108 -334 -108v3q-13 -5 -18 -5zM432 1800q-1 -1 -3 -2v-1h-1q-31 -23 -56 -2l-49 42q-17 12 -17 35q0 18 11 42l1 -2q46 71 92 119q59 60 122 60q61 0 134 -53q79 -56 111 -58q42 0 119 91l4 -4q28 20 53 3l52 -42 q19 -12 19 -38q0 -18 -9 -41l-2 1q-132 -168 -229 -168h-7q-6 -2 -14 -2q-40 0 -121 52q-72 55 -105 55t-106 -87h1z"/>
<glyph glyph-name="uni1EF0" horiz-adv-x="1485" unicode="Ự" d="M645 3q-99 5 -170 23q-85 22 -164 70q-57 31 -145 133q-53 74 -78 141q-43 105 -43 274v1015q0 43 50 60h241q51 0 58 -63v-1040q0 -230 189 -276q16 -5 60 -5q162 0 226 148q10 38 18 93v1058q0 85 60 85h214v61v11q0 60 40 62h232h1q35 0 35 -70l-1 -282 q-20 -51 -61 -51h-2h-169v-859q0 -295 -239 -478q-161 -108 -334 -108v3q-13 -5 -18 -5zM526 -146v9q0 46 30 47h176h1q24 0 24 -53l-1 -198q-16 -40 -48 -40h-134q-37 0 -47 45z"/>
<glyph glyph-name="uni1EF1" horiz-adv-x="1485" unicode="ự" d="M645 3q-99 5 -170 23q-85 22 -164 70q-57 31 -145 133q-53 74 -78 141q-43 105 -43 274v1015q0 43 50 60h241q51 0 58 -63v-1040q0 -230 189 -276q16 -5 60 -5q162 0 226 148q10 38 18 93v1058q0 85 60 85h214v61v11q0 60 40 62h232h1q35 0 35 -70l-1 -282 q-20 -51 -61 -51h-2h-169v-859q0 -295 -239 -478q-161 -108 -334 -108v3q-13 -5 -18 -5zM526 -146v9q0 46 30 47h176h1q24 0 24 -53l-1 -198q-16 -40 -48 -40h-134q-37 0 -47 45z"/>
<glyph glyph-name="Ygrave" horiz-adv-x="1223" unicode="Ỳ" d="M431 854l-373 768q-13 36 -13 57q0 36 34 36h1h238h1q53 0 82 -70l204 -429l203 429q29 70 82 70h1h238h1q33 0 33 -35q0 -22 -13 -58l-373 -769v-787q0 -70 -53 -70h-2h-238h-1q-52 0 -52 87v6v765zM752 1962q40 -38 40 -68q0 -14 -9 -26l-45 -71q-14 -27 -47 -27 q-15 0 -33 5l-335 197q-32 20 -32 45q0 13 8 26l77 126q12 19 34 19q24 0 58 -23z"/>
<glyph glyph-name="ygrave" horiz-adv-x="1223" unicode="ỳ" d="M431 854l-373 768q-13 36 -13 57q0 36 34 36h1h238h1q53 0 82 -70l204 -429l203 429q29 70 82 70h1h238h1q33 0 33 -35q0 -22 -13 -58l-373 -769v-787q0 -70 -53 -70h-2h-238h-1q-52 0 -52 87v6v765zM752 1962q40 -38 40 -68q0 -14 -9 -26l-45 -71q-14 -27 -47 -27 q-15 0 -33 5l-335 197q-32 20 -32 45q0 13 8 26l77 126q12 19 34 19q24 0 58 -23z"/>
<glyph glyph-name="uni1EF4" horiz-adv-x="1223" unicode="Ỵ" d="M431 854l-373 768q-13 36 -13 57q0 36 34 36h1h238h1q53 0 82 -70l204 -429l203 429q29 70 82 70h1h238h1q33 0 33 -35q0 -22 -13 -58l-373 -769v-787q0 -70 -53 -70h-2h-238h-1q-52 0 -52 87v6v765zM490 -146v9q0 46 30 47h176h1q24 0 24 -53l-1 -198q-16 -40 -48 -40 h-134q-37 0 -47 45z"/>
<glyph glyph-name="uni1EF5" horiz-adv-x="1223" unicode="ỵ" d="M431 854l-373 768q-13 36 -13 57q0 36 34 36h1h238h1q53 0 82 -70l204 -429l203 429q29 70 82 70h1h238h1q33 0 33 -35q0 -22 -13 -58l-373 -769v-787q0 -70 -53 -70h-2h-238h-1q-52 0 -52 87v6v765zM490 -146v9q0 46 30 47h176h1q24 0 24 -53l-1 -198q-16 -40 -48 -40 h-134q-37 0 -47 45z"/>
<glyph glyph-name="uni1EF6" horiz-adv-x="1223" unicode="Ỷ" d="M431 854l-373 768q-13 36 -13 57q0 36 34 36h1h238h1q53 0 82 -70l204 -429l203 429q29 70 82 70h1h238h1q33 0 33 -35q0 -22 -13 -58l-373 -769v-787q0 -70 -53 -70h-2h-238h-1q-52 0 -52 87v6v765zM554 1788q-48 0 -48 62v8q0 43 17.5 82.5t50.5 65.5q25 20 35.5 38.5 t13.5 38.5q-8 1 -25.5 1h-45.5h-78q-41 9 -41 58v80q0 57 60 57h20q10 0 19.5 0.5t18.5 0.5q136 0 174 -19q47 -24 73 -66q11 -18 17 -43t6 -55v-15.5t-1 -17.5q-5 -43 -24.5 -81t-52.5 -66q-18 -15 -28 -27.5t-10 -22.5q0 -2 2 -10q0 -69 -53 -69h-100z"/>
<glyph glyph-name="uni1EF7" horiz-adv-x="1223" unicode="ỷ" d="M431 854l-373 768q-13 36 -13 57q0 36 34 36h1h238h1q53 0 82 -70l204 -429l203 429q29 70 82 70h1h238h1q33 0 33 -35q0 -22 -13 -58l-373 -769v-787q0 -70 -53 -70h-2h-238h-1q-52 0 -52 87v6v765zM554 1788q-48 0 -48 62v8q0 43 17.5 82.5t50.5 65.5q25 20 35.5 38.5 t13.5 38.5q-8 1 -25.5 1h-45.5h-78q-41 9 -41 58v80q0 57 60 57h20q10 0 19.5 0.5t18.5 0.5q136 0 174 -19q47 -24 73 -66q11 -18 17 -43t6 -55v-15.5t-1 -17.5q-5 -43 -24.5 -81t-52.5 -66q-18 -15 -28 -27.5t-10 -22.5q0 -2 2 -10q0 -69 -53 -69h-100z"/>
<glyph glyph-name="uni1EF8" horiz-adv-x="1223" unicode="Ỹ" d="M431 854l-373 768q-13 36 -13 57q0 36 34 36h1h238h1q53 0 82 -70l204 -429l203 429q29 70 82 70h1h238h1q33 0 33 -35q0 -22 -13 -58l-373 -769v-787q0 -70 -53 -70h-2h-238h-1q-52 0 -52 87v6v765zM380 1800q-1 -1 -3 -2v-1h-1q-31 -23 -56 -2l-49 42q-17 12 -17 35 q0 18 11 42l1 -2q46 71 92 119q59 60 122 60q61 0 134 -53q79 -56 111 -58q42 0 119 91l4 -4q28 20 53 3l52 -42q19 -12 19 -38q0 -18 -9 -41l-2 1q-132 -168 -229 -168h-7q-6 -2 -14 -2q-40 0 -121 52q-72 55 -105 55t-106 -87h1z"/>
<glyph glyph-name="uni1EF9" horiz-adv-x="1223" unicode="ỹ" d="M431 854l-373 768q-13 36 -13 57q0 36 34 36h1h238h1q53 0 82 -70l204 -429l203 429q29 70 82 70h1h238h1q33 0 33 -35q0 -22 -13 -58l-373 -769v-787q0 -70 -53 -70h-2h-238h-1q-52 0 -52 87v6v765zM380 1800q-1 -1 -3 -2v-1h-1q-31 -23 -56 -2l-49 42q-17 12 -17 35 q0 18 11 42l1 -2q46 71 92 119q59 60 122 60q61 0 134 -53q79 -56 111 -58q42 0 119 91l4 -4q28 20 53 3l52 -42q19 -12 19 -38q0 -18 -9 -41l-2 1q-132 -168 -229 -168h-7q-6 -2 -14 -2q-40 0 -121 52q-72 55 -105 55t-106 -87h1z"/>
<glyph glyph-name="quoteleft" horiz-adv-x="553" unicode="‘" d="M103 1622v6q0 87 52 87h1h238h2q53 0 53 -70l-20 -342q-20 -70 -73 -70h-2h-158h-1q-54 0 -72 93z"/>
<glyph glyph-name="quoteright" horiz-adv-x="553" unicode="’" d="M103 1622v6q0 87 52 87h1h238h2q53 0 53 -70l-20 -342q-20 -70 -73 -70h-2h-158h-1q-54 0 -72 93z"/>
<glyph glyph-name="quotesinglbase" horiz-adv-x="553" unicode="‚" d="M103 22v6q0 87 52 87h1h238h2q53 0 53 -70l-20 -342q-20 -70 -73 -70h-2h-158h-1q-54 0 -72 93z"/>
<glyph glyph-name="quotedblleft" horiz-adv-x="922" unicode="“" d="M513 1622v6q0 87 52 87h1h238h2q53 0 53 -70l-20 -342q-20 -70 -73 -70h-2h-158h-1q-54 0 -72 93zM103 1622v6q0 87 52 87h1h238h2q53 0 53 -70l-20 -342q-20 -70 -73 -70h-2h-158h-1q-54 0 -72 93z"/>
<glyph glyph-name="quotedblright" horiz-adv-x="922" unicode="”" d="M513 1622v6q0 87 52 87h1h238h2q53 0 53 -70l-20 -342q-20 -70 -73 -70h-2h-158h-1q-54 0 -72 93zM103 1622v6q0 87 52 87h1h238h2q53 0 53 -70l-20 -342q-20 -70 -73 -70h-2h-158h-1q-54 0 -72 93z"/>
<glyph glyph-name="quotedblbase" horiz-adv-x="922" unicode="„" d="M513 148v6q0 87 52 87h1h238h2q53 0 53 -70l-20 -342q-20 -70 -73 -70h-2h-158h-1q-54 0 -72 93zM103 148v6q0 87 52 87h1h238h2q53 0 53 -70l-20 -342q-20 -70 -73 -70h-2h-158h-1q-54 0 -72 93z"/>
<glyph glyph-name="NULL" horiz-adv-x="0"/>
</font>
</defs>
</svg>
